<svg width="184" height="162" viewBox="0 0 184 162" fill="none" xmlns="http://www.w3.org/2000/svg">
<g opacity="0.8">
<path d="M20.6868 39.436L20.87 39.4936C20.9811 39.6799 21.0238 39.7293 20.9875 39.9553C20.8281 40.9476 20.0237 42.1431 19.5868 43.0686C19.2806 43.7176 18.2777 45.9977 17.9407 46.4359C17.2406 47.3462 12.0485 49.1597 10.6157 50.2333C10.5926 50.2503 10.5702 50.2686 10.5476 50.2863C10.3966 50.2474 10.2869 50.1994 10.1477 50.1322C10.1222 49.9442 10.1041 49.9852 10.1547 49.8305C10.5056 48.7562 12.8264 43.6586 13.5004 43.0789C14.4362 42.2739 19.2313 40.1615 20.6868 39.436Z" fill="#8C6E47"/>
<path d="M182.035 89.4025L182.177 89.4669C182.305 89.6428 182.349 89.7128 182.349 89.9432C182.346 90.5581 182.086 91.3419 181.956 91.9554C181.603 93.6085 181.17 95.3146 180.937 96.9839C180.917 97.0065 180.897 97.0292 180.876 97.0518L180.774 97.162C179.138 98.9395 176.452 100.935 174.544 102.549L174.368 102.47C174.198 102.185 174.196 101.952 174.222 101.617C174.289 100.735 174.665 99.7205 174.827 98.8307C175.015 97.7918 175.091 96.2758 175.531 95.3188C176.171 93.9272 180.618 90.5857 182.035 89.4025Z" fill="#8C6E47"/>
<path d="M161.894 38.8083C162.531 38.8676 169.008 41.9779 169.467 42.4363C170.147 43.1169 172.909 48.8481 172.897 49.5506C172.823 49.5492 172.695 49.5499 172.615 49.535C171.805 49.381 165.414 46.2543 164.992 45.662C164.413 44.8479 162.205 40.3505 161.905 39.3774C161.843 39.1759 161.863 39.0124 161.894 38.8083Z" fill="#8C6E47"/>
<path d="M1.17286 90.1468C2.18098 90.5878 6.64564 94.5661 7.74747 95.5527C7.97618 97.3373 9.55656 101.816 9.12643 103.295C7.48223 102.473 4.37631 99.3572 2.64822 98.0568C2.23229 97.0808 1.19074 92.1702 1.08671 91.0196C1.05745 90.6959 1.0684 90.4549 1.17286 90.1468Z" fill="#8C6E47"/>
<path d="M150.06 22.6711C152.848 22.6249 155.608 23.8802 158.367 24.1652C159.158 25.0433 163.224 29.6479 163.297 30.443C163.266 30.4448 163.234 30.4472 163.203 30.4485C162.142 30.4914 155.23 28.9786 154.582 28.3661C153.641 27.4765 150.905 24.2086 150.197 23.1532C150.087 22.9901 150.069 22.8624 150.06 22.6711Z" fill="#8C6E47"/>
<path d="M170.408 122.211L170.586 122.236L170.699 122.465C170.671 122.646 170.64 122.755 170.543 122.914C169.903 123.967 167.303 128.065 166.537 128.674C166.059 129.055 159.707 131.011 158.755 131.251L158.43 131.079L158.368 130.864C158.74 129.921 161.673 125.864 162.483 124.855C162.618 124.686 162.759 124.554 162.959 124.467C163.566 124.202 164.287 124.089 164.924 123.885C166.618 123.341 168.666 122.406 170.408 122.211Z" fill="#8C6E47"/>
<path d="M132.628 143.901C132.879 143.884 133.019 143.863 133.239 143.995C133.234 144.458 130.337 150.91 129.898 151.814C127.762 152.895 125.575 154.042 123.54 155.303C123.35 155.364 123.273 155.354 123.084 155.294C122.996 155.085 122.976 155.034 123.038 154.802C123.381 153.508 124.133 152.124 124.663 150.885C125.124 149.807 125.563 148.377 126.277 147.452C126.779 146.801 131.495 144.619 132.554 143.948L132.628 143.901Z" fill="#8C6E47"/>
<path d="M41.4763 138.291C41.5849 138.287 41.6318 138.283 41.7463 138.293C42.5235 138.363 47.6588 142.077 48.3974 142.9C48.5456 144.914 50.6316 148.574 50.6496 150.611C50.2804 150.649 50.1247 150.574 49.8103 150.382C48.7061 149.708 44.6986 147.222 44.1001 146.463C43.6025 145.833 41.7658 139.521 41.4763 138.291Z" fill="#8C6E47"/>
<path d="M50.0683 143.896C50.1746 143.89 50.226 143.884 50.338 143.891C51.0841 143.937 56.5767 146.991 57.0912 147.625C57.5866 148.237 60.4137 154.824 60.3296 155.401C59.5161 155.342 54.0277 152.309 53.3431 151.642C52.9874 151.295 50.1006 144.557 50.0683 143.896Z" fill="#8C6E47"/>
<path d="M141.394 138.184C141.512 138.269 141.584 138.364 141.676 138.476C141.7 138.62 141.701 138.726 141.658 138.868C141.265 140.178 139.704 145.625 139.147 146.426C138.647 147.145 133.861 150.155 132.815 150.732L132.625 150.575C132.563 150.417 132.548 150.313 132.583 150.145C132.811 149.025 133.423 147.625 133.778 146.479C134.114 145.399 134.377 143.954 134.926 142.98C135.648 141.698 139.939 139.223 141.394 138.184Z" fill="#8C6E47"/>
<path d="M12.4363 122.152C13.4218 122.235 20.0325 124.22 20.5943 124.721C21.2832 125.336 24.923 130.502 24.9344 131.148C24.8151 131.168 24.6955 131.178 24.5745 131.18C23.8796 131.185 17.911 129.274 17.142 128.944C16.9711 128.871 16.835 128.78 16.7044 128.648C16.6719 128.615 16.6415 128.58 16.6096 128.547C16.5735 128.509 16.5362 128.473 16.5006 128.435C15.7966 127.681 12.4028 122.873 12.4363 122.152Z" fill="#8C6E47"/>
<path d="M22.0706 116.037C23.0011 116.438 26.1234 121.49 26.8388 122.653C26.2299 125.186 26.6128 128.351 26.0663 130.957C25.9456 130.927 25.9054 130.926 25.802 130.873C25.1189 130.522 21.5853 125.028 21.3706 124.253C21.6415 122.994 21.5483 121.718 21.6167 120.441C21.6647 119.546 21.8247 118.661 21.9038 117.769C21.9558 117.181 21.9386 116.616 22.0706 116.037Z" fill="#8C6E47"/>
<path d="M52.5095 152.324C52.6742 152.321 52.8482 152.32 53.0094 152.359C53.7603 152.54 59.478 155.74 59.6759 156.106L59.591 156.369C58.5959 157.067 53.4623 157.219 51.9475 157.776C51.8815 157.8 51.8166 157.827 51.7512 157.853L51.5355 157.9C50.9205 157.546 50.2475 157.292 49.618 156.959C48.641 156.441 47.6963 155.863 46.7214 155.342C46.2057 155.067 45.5987 154.836 45.1305 154.487C44.9027 154.317 44.8346 154.218 44.8031 153.941C45.8756 153.284 50.7948 152.891 52.5095 152.324Z" fill="#8C6E47"/>
<path d="M7.36784 112.073C8.05757 112.103 14.6817 115.297 15.2141 115.815C15.6573 116.246 18.2024 121.538 18.4196 122.239C18.4918 122.472 18.4825 122.614 18.4584 122.851C17.4988 122.76 12.2465 120.009 10.8572 119.37C10.3163 118.537 7.60962 113.293 7.40106 112.545C7.3571 112.388 7.36374 112.234 7.36784 112.073Z" fill="#8C6E47"/>
<path d="M163.848 131.322C163.964 131.33 164.07 131.402 164.174 131.452L164.242 131.672C163.877 132.593 161.455 135.15 160.688 136.143C160.245 136.717 159.795 137.31 159.136 137.651C158.702 137.876 158.217 137.805 157.755 137.903C156.19 138.236 154.655 138.734 153.053 138.919C152.607 138.97 152.324 139.044 151.914 139.248C151.872 139.269 151.831 139.29 151.79 139.312C151.605 139.29 151.463 139.279 151.296 139.186C151.15 139.105 151.182 139.054 151.148 138.902C151.578 138.007 155.292 133.631 156.145 132.942C156.982 132.901 157.83 132.615 158.647 132.433C160.375 132.049 162.109 131.651 163.848 131.322Z" fill="#8C6E47"/>
<path d="M11.8433 67.8825L12.1021 68.0528C12.4795 68.9525 11.977 74.3366 11.8652 75.6801C10.7834 76.9532 9.69203 78.2178 8.59104 79.474C7.87284 80.2981 7.09003 81.1087 6.47883 82.0155L6.16588 81.9356C6.02587 81.7625 5.9812 81.6183 5.97625 81.3936C5.96706 80.9829 6.06587 80.5504 6.0882 80.1369C6.14481 79.0888 6.10495 78.0237 6.1217 76.9735C6.13421 76.1904 6.06481 75.167 6.34221 74.4327C6.73164 73.4022 10.8434 68.85 11.8433 67.8825Z" fill="#8C6E47"/>
<path d="M130.094 152.327C130.819 152.346 138.039 153.668 138.411 153.885L138.447 154.081C137.998 154.884 132.838 157.376 131.744 157.879L131.61 157.914C130.022 157.294 124.393 156.999 123.582 156.255L123.583 156.048C124.597 154.862 128.488 153.609 129.938 152.454C129.991 152.412 130.042 152.369 130.094 152.327Z" fill="#8C6E47"/>
<path d="M156.581 30.0752C156.617 30.0781 156.653 30.0787 156.689 30.0838C157.72 30.2302 158.955 30.8888 159.939 31.2537C161.385 31.7898 162.913 32.2192 164.311 32.8725C164.525 32.9723 164.675 33.111 164.821 33.2954C165.307 33.9143 168.526 39.0225 168.564 39.3611C168.577 39.4844 168.529 39.6067 168.511 39.7295C167.205 39.711 162.251 37.578 160.617 37.0194C159.797 36.1048 157.151 31.8828 156.663 30.7299C156.575 30.5214 156.572 30.2976 156.581 30.0752Z" fill="#8C6E47"/>
<path d="M11.5156 78.0223L11.7674 78.175C12.2563 78.9065 12.287 84.3923 12.334 85.7168C11.7118 86.8017 10.9183 87.8074 10.1997 88.8315C9.31922 90.0867 8.47232 91.385 7.51332 92.5808C7.34299 92.5335 7.29564 92.4939 7.16326 92.3843C6.75998 91.3313 6.71496 86.4398 6.64337 84.909C7.30207 83.7407 8.20742 82.6212 8.98253 81.525C9.80335 80.3645 10.58 79.0916 11.5156 78.0223Z" fill="#8C6E47"/>
<path d="M171.368 77.3707C171.414 77.3792 171.46 77.3848 171.505 77.3961C171.713 77.447 171.829 77.5071 171.985 77.6583C172.674 78.3305 176.027 83.176 176.644 84.2121C176.63 85.9642 176.588 90.2839 176.183 91.8105L175.926 91.8048C175.365 91.4924 171.385 85.7656 170.935 85.0107C170.915 83.4227 171.076 78.7934 171.368 77.3707Z" fill="#8C6E47"/>
<path d="M175.753 111.381C175.97 111.465 175.953 111.488 176.079 111.668C176.082 111.834 176.067 111.974 176.008 112.131C175.578 113.287 174.874 114.434 174.317 115.54C173.844 116.481 173.526 117.707 172.812 118.496C172.183 119.192 166.633 121.652 165.418 122.249C165.317 122.239 165.247 122.174 165.163 122.12C164.998 121.47 167.781 116.04 168.265 115.129C170.683 113.761 173.268 112.629 175.753 111.381Z" fill="#8C6E47"/>
<path d="M172.217 33.8238C172.986 34.4449 175.051 39.3367 175.82 40.6868C175.529 42.2557 175.1 43.8131 174.761 45.3741C174.544 46.3709 174.428 47.4522 174.122 48.4205C174.041 48.6763 173.904 48.8438 173.732 49.046C172.766 48.0876 170.937 43.6191 170.08 42.0237C170.765 40.476 171.44 34.7509 171.916 34.0864C171.994 33.9782 172.117 33.9113 172.217 33.8238Z" fill="#8C6E47"/>
<path d="M166.176 24.1539C166.21 24.1617 166.244 24.1679 166.278 24.1773C166.479 24.2335 166.619 24.3034 166.756 24.4652C167.751 25.6347 169.887 29.4968 170.719 30.9731C170.674 31.0865 170.634 31.2005 170.592 31.3143C170.326 32.0188 170.366 32.7904 170.272 33.531C170.036 35.3863 169.892 37.2411 169.571 39.0851L169.208 39.0171C168.249 38.1399 165.791 33.7533 165.078 32.4024C165.086 32.3692 165.094 32.3358 165.104 32.3027C165.578 30.6567 165.622 28.784 165.805 27.0743C165.911 26.0948 166.095 25.1368 166.176 24.1539Z" fill="#8C6E47"/>
<path d="M10.5925 34.5131C10.6564 34.5403 10.7237 34.5608 10.7843 34.5949C11.1444 34.7969 12.5967 41.8722 12.7365 42.8833C12.0781 44.2984 10.2154 48.7399 9.33778 49.7068C9.17671 49.5831 9.04066 49.4714 8.95366 49.282C8.6236 48.5646 8.53278 47.5003 8.35277 46.7165C7.95154 44.9694 7.44649 43.2316 7.13672 41.4663C7.56148 40.3795 10.0191 35.1903 10.5925 34.5131Z" fill="#8C6E47"/>
<path d="M182.433 66.6167L182.66 66.7389C183.185 67.8599 183.135 73.0574 183.117 74.5274C181.983 76.0236 179.454 80.2097 178.286 81.166C178.107 81.0819 178.044 81.0374 177.907 80.9066C177.661 79.908 177.836 78.6019 177.784 77.5629C177.718 76.2321 177.449 74.9204 177.491 73.5846C178.218 72.2304 181.428 67.5567 182.433 66.6167Z" fill="#8C6E47"/>
<path d="M25.5736 30.7574C25.7243 30.7515 25.8516 30.7584 26.0026 30.7788C26.2153 30.8075 26.1735 30.8192 26.2931 30.9757C25.9694 32.097 25.0306 33.2812 24.4148 34.2728C23.8712 35.1481 23.4369 36.1786 22.7616 36.9561C21.2394 38.7086 17.0749 39.1473 15.0123 40.3819C14.9834 40.3991 14.9552 40.4176 14.9267 40.4354L14.4537 40.3528C14.3405 40.1587 14.3248 40.1291 14.3886 39.8989C14.6432 38.9803 15.5701 38.0346 16.0615 37.1912C16.6336 36.2095 17.2271 34.8128 18.001 33.9894C19.2664 32.6431 23.6468 31.82 25.4789 30.8115C25.5108 30.7939 25.542 30.7754 25.5736 30.7574Z" fill="#8C6E47"/>
<path d="M141.006 0.731415C141.831 0.953902 146.711 4.29397 147.375 5.00638C147.919 5.58995 150.005 12.3957 149.961 13.1366C149.49 13.0704 149.18 12.8591 148.789 12.6067C147.606 11.8443 144.105 9.70675 143.394 8.82379C143.02 8.36002 141.007 2.14224 140.855 1.27873C140.802 0.984504 140.843 0.964928 141.006 0.731415Z" fill="#8C6E47"/>
<path d="M19.1168 131.255C20.7174 131.616 22.3293 131.933 23.9322 132.286C25.003 132.523 26.1007 132.878 27.193 132.949C28.767 134.612 30.2216 136.444 31.66 138.225C31.9747 138.616 32.1224 138.771 32.0688 139.286C31.0576 139.276 24.419 137.835 23.5199 137.381C22.2658 135.579 20.271 133.753 19.1855 131.993C19.0016 131.694 19.0409 131.593 19.1168 131.255Z" fill="#8C6E47"/>
<path d="M155.008 140.046C155.55 139.989 156.188 139.839 156.656 140.161C156.435 140.964 151.83 144.876 150.92 145.589C148.592 145.606 146.268 145.942 143.928 145.984L143.574 146.015C143.241 146.046 142.964 146.114 142.652 145.957L142.613 145.734C142.931 144.951 147.083 141.534 148.049 140.606C150.295 140.202 152.727 140.221 155.008 140.046Z" fill="#8C6E47"/>
<path d="M32.2658 22.997C32.5182 23.1122 32.5261 23.103 32.6451 23.3509C32.6241 23.4953 32.5923 23.6167 32.516 23.7432C31.8696 24.8136 30.8514 25.8121 30.0313 26.7648C29.3569 27.5484 28.7783 28.5441 27.9544 29.1694C27.0856 29.8288 21.4984 30.6556 19.9342 31.0858C19.8411 31.0547 19.733 30.9785 19.6469 30.9295C19.6124 30.7505 19.5837 30.7462 19.6671 30.5697C20.0668 29.7228 21.2468 28.5727 21.8615 27.8119C22.6812 26.7978 23.5144 25.559 24.6043 24.8188C25.4876 24.219 30.7197 23.5215 32.2658 22.997Z" fill="#8C6E47"/>
<path d="M16.3101 48.4275C16.4738 48.436 16.6265 48.4692 16.7872 48.4996C16.8206 48.5632 16.8854 48.6191 16.8873 48.6912C16.9056 49.3753 15.0773 54.7078 14.7464 55.8026C13.0202 57.3914 9.97158 59.1575 7.95216 60.5887C7.72183 60.6 7.72529 60.6255 7.50973 60.5039C7.47107 60.3816 7.4575 60.3647 7.45863 60.2163C7.46456 59.4388 8.24214 57.6748 8.51516 56.8888C8.88762 55.8174 9.02049 54.5474 9.5218 53.5473C10.0801 52.4334 14.9466 49.535 16.3101 48.4275Z" fill="#8C6E47"/>
<path d="M0.429285 67.3361C1.42037 67.6704 4.87352 72.9853 5.65626 74.1132C5.64276 76.6781 5.6793 79.3524 5.21898 81.8855C5.04929 81.8537 4.94943 81.8261 4.81133 81.7151C3.97876 81.0465 0.890586 76.3685 0 75.1112C0.0272809 73.521 0.139161 71.9513 0.223477 70.3646C0.276767 69.3624 0.269911 68.3277 0.429285 67.3361Z" fill="#8C6E47"/>
<path d="M166.234 47.7165C167.028 47.8692 172.085 51.4574 172.935 52.1903L173.083 52.3197C173.222 52.4384 173.321 52.526 173.41 52.6893C173.774 53.3628 175.472 58.6713 175.616 59.4247C175.651 59.6127 175.616 59.7611 175.567 59.942C174.408 59.6862 169.704 56.204 168.434 55.3403C167.529 53.2943 166.966 50.9705 166.31 48.829C166.177 48.3943 166.107 48.1639 166.234 47.7165Z" fill="#8C6E47"/>
<path d="M142.72 15.8363C143.277 15.7749 143.935 15.8963 144.502 15.9218C146.726 16.022 148.928 16.2198 151.146 16.3616C151.968 16.9452 152.715 17.7265 153.474 18.3944C154.463 19.2663 155.595 20.1322 156.486 21.1031C156.728 21.3673 156.733 21.4666 156.714 21.8198C155.875 21.9419 154.882 21.79 154.034 21.7421C152.141 21.6424 150.249 21.5121 148.359 21.3513C148.077 21.1444 147.802 20.9284 147.534 20.7033C146.712 20.0053 143.408 17.1796 142.892 16.5001C142.72 16.2757 142.741 16.1038 142.72 15.8363Z" fill="#8C6E47"/>
<path d="M170.782 87.3197C170.847 87.324 170.914 87.3219 170.979 87.3332C170.99 87.3353 171.214 87.4095 171.234 87.4236C171.578 87.6639 174.647 94.0375 175.023 94.7718C174.595 96.2093 174.378 97.7607 174.091 99.2343C173.896 100.239 173.612 101.236 173.515 102.255L173.137 102.181C172.383 101.511 169.917 96.2192 169.237 94.8926C169.431 92.8423 170.154 89.2711 170.782 87.3197Z" fill="#8C6E47"/>
<path d="M169.081 97.0885C169.175 97.1218 169.26 97.1486 169.346 97.2002C169.669 97.3953 171.697 103.883 171.833 104.543C171.903 104.884 171.894 105.118 171.82 105.462C171.61 106.44 169.86 111.473 169.367 112.228C169.231 112.172 169.083 112.114 168.981 112.003C168.464 111.438 166.37 104.773 166.473 103.996C166.596 103.069 168.537 97.543 169.081 97.0885Z" fill="#8C6E47"/>
<path d="M34.2252 131.659C34.2904 131.675 34.3564 131.689 34.4206 131.708C35.2587 131.961 39.8896 136.307 40.3086 137.097C40.3777 139.004 41.8269 143.821 41.3115 145.214C40.2596 144.732 36.5937 141.074 35.4595 140.092C35.3684 138.7 33.8223 132.434 34.2252 131.659Z" fill="#8C6E47"/>
<path d="M41.4723 1.11596L41.6361 1.18784C41.7713 1.41132 41.7976 1.49994 41.7359 1.75932C41.4576 2.93014 39.7048 8.69283 39.1111 9.44185C38.672 9.99595 33.8342 13.1911 32.8963 13.7346C32.7559 13.6603 32.7065 13.5955 32.6062 13.4759C32.6618 12.728 34.7576 6.49206 35.1656 5.41284C37.1475 3.8644 39.3677 2.49682 41.4723 1.11596Z" fill="#8C6E47"/>
<path d="M16.3438 24.8123C16.388 24.8444 16.4444 24.883 16.4783 24.923C16.8324 25.3403 17.6916 32.4064 17.6772 33.339C16.3012 35.3905 15.1175 37.6248 13.82 39.7329C13.5191 39.6708 13.3827 39.6556 13.212 39.4042C13.1171 38.0349 11.9789 31.838 12.5159 30.9231C13.1731 29.8033 15.5376 25.4691 16.3438 24.8123Z" fill="#8C6E47"/>
<path d="M26.6085 139.989C27.7283 139.916 28.9259 140.09 30.0506 140.172C31.7281 140.295 33.4267 140.375 35.0948 140.589C36.4968 141.703 37.7792 142.98 39.1073 144.182C39.5199 144.555 40.1378 144.969 40.4716 145.403C40.6702 145.66 40.6303 145.776 40.6217 146.09C39.3077 145.993 37.9933 145.987 36.6803 145.9C35.2347 145.804 33.8066 145.615 32.3557 145.588C32.1319 145.447 31.9347 145.301 31.7364 145.127C30.5977 144.125 27.5393 141.624 26.7634 140.597C26.6038 140.385 26.6254 140.245 26.6085 139.989Z" fill="#8C6E47"/>
<path d="M2.58922 55.946C2.76768 55.9962 2.88564 56.0612 3.00027 56.2118C3.81771 57.2903 4.41026 58.8338 5.02556 60.0523C5.53358 61.058 6.39907 62.3337 6.65025 63.4129C6.83493 64.2066 5.39774 69.5123 5.25151 70.8014L4.90364 70.836C4.1342 70.4593 1.68556 64.878 1.04171 63.7543C1.14009 61.4602 1.83172 59.1674 2.19224 56.8987C2.25832 56.4825 2.32588 56.2839 2.58922 55.946Z" fill="#8C6E47"/>
<path d="M180.311 55.141C180.394 55.1891 180.418 55.1955 180.488 55.2803C180.996 55.8951 182.081 61.9648 182.071 63.0292C181.287 64.3246 179.132 69.6932 178.198 70.2642C178.015 70.0925 177.911 69.9787 177.869 69.7271C177.571 67.9185 176.469 64.3388 176.478 62.7663C176.482 62.1938 179.828 55.6351 180.311 55.141Z" fill="#8C6E47"/>
<path d="M179.856 100.85C180.01 100.947 180.005 100.991 180.082 101.149C179.856 102.122 179.442 103.056 179.105 103.996C178.708 105.103 178.365 106.249 177.91 107.333C177.751 107.713 177.57 108.158 177.264 108.44C176.791 108.879 171.051 112.385 170.377 112.661L170.178 112.622L170.076 112.452C170.082 111.907 171.86 107.05 172.207 106.254C172.425 105.757 172.71 105.329 173.116 104.965C173.791 104.361 178.876 101.251 179.856 100.85Z" fill="#8C6E47"/>
<path d="M3.26893 101.648C4.10269 101.584 9.79103 105.154 10.5682 105.837C10.7938 106.036 10.9082 106.2 11.0433 106.468C11.4799 107.332 13.4534 112.432 13.5171 113.277C13.2146 113.291 13.0008 113.271 12.7273 113.126C11.5552 112.506 6.69911 109.669 6.00938 108.879C5.42263 108.206 3.61375 102.827 3.26893 101.648Z" fill="#8C6E47"/>
<path d="M155.194 124.089L155.497 124.212C155.932 124.926 155.498 131.272 155.453 132.617C153.888 134.599 152.152 136.46 150.651 138.49L150.353 138.459C150.173 138.281 150.106 138.183 150.083 137.924C149.976 136.699 150.191 135.282 150.225 134.044C150.256 132.879 150.126 131.397 150.422 130.27C150.78 128.905 154.147 125.377 155.194 124.089Z" fill="#8C6E47"/>
<path d="M12.2377 87.888C12.3127 87.9297 12.3472 87.9438 12.4166 88.0046C13.0056 88.5163 14.0386 94.3718 14.0748 95.3118C14.1029 96.0433 10.8555 102.348 10.2894 102.981L10.0946 102.906C9.58295 102.235 8.613 96.5754 8.40698 95.4446C9.07232 94.0332 11.4191 88.8166 12.2377 87.888Z" fill="#8C6E47"/>
<path d="M0.0865659 78.7171C0.253219 78.7298 0.431676 78.7326 0.58165 78.8174C1.53945 79.3567 4.82877 83.6601 6.03146 84.7938C5.99231 86.0172 6.24377 87.2052 6.3401 88.4187C6.4529 89.84 6.42032 91.3044 6.41297 92.7307C6.23798 92.6989 6.04651 92.6777 5.89944 92.5674C5.42209 92.2098 4.97196 91.5256 4.56649 91.0684C3.15552 89.4881 1.76726 87.8882 0.401709 86.2688C0.37881 85.0821 0.370118 83.8849 0.290608 82.7003C0.203535 81.4027 -0.0663765 80.0076 0.0865659 78.7171Z" fill="#8C6E47"/>
<path d="M32.0457 7.96876L32.2818 8.13011C32.6323 8.7399 31.3229 15.2 31.1502 16.4057C30.3934 17.1502 29.5627 17.8256 28.7844 18.5489C27.7194 19.5387 26.6842 20.6995 25.4661 21.4976L25.2188 21.3347C25.1222 21.045 25.1229 20.7552 25.1541 20.4536C25.2697 19.3377 26.1261 13.7119 26.5989 12.9684C27.079 12.2134 31.1028 8.77298 32.0457 7.96876Z" fill="#8C6E47"/>
<path d="M150.197 7.43586C150.415 7.45438 150.569 7.45911 150.761 7.57424C151.347 7.9255 155.377 11.6318 155.954 12.2704C156.613 12.999 157.679 19.8304 157.607 20.9936C157.428 20.9593 157.252 20.932 157.097 20.8275C156.533 20.4468 155.996 19.8799 155.486 19.4264L151.61 15.9135C151.262 14.3599 151.028 12.7669 150.75 11.1989C150.537 9.99468 150.192 8.65792 150.197 7.43586Z" fill="#8C6E47"/>
<path d="M62.9823 156.343C64.9118 157.089 68.6399 158.11 70.2245 159.116L70.2167 159.258C69.7022 159.815 63.5293 161.761 62.4515 161.997C62.2332 161.993 62.0162 161.981 61.8041 161.923C60.6168 161.596 56.3572 160.167 55.4158 159.601C55.2401 159.496 55.1432 159.357 55.0466 159.182C55.766 158.447 61.4819 157.053 62.8982 156.384C62.9265 156.371 62.954 156.357 62.9823 156.343Z" fill="#8C6E47"/>
<path d="M171.129 67.158C171.911 67.4754 176.22 72.6283 176.957 73.5846C176.995 74.6129 176.992 75.6462 177.055 76.6731C177.137 77.9983 177.687 80.1362 177.249 81.3702C177.032 81.3342 176.897 81.2861 176.736 81.1391C176.203 80.655 175.745 80.0182 175.271 79.4726C173.979 77.9905 172.722 76.471 171.356 75.0568C171.157 73.5492 170.836 69.1758 170.937 67.7602C170.954 67.5347 171.033 67.3595 171.129 67.158Z" fill="#8C6E47"/>
<path d="M124.164 148.261C124.325 148.389 124.34 148.425 124.419 148.606C123.89 149.924 122.819 151.301 122.062 152.514C121.445 153.505 120.825 154.764 120.034 155.618C119.122 156.602 114.704 157.568 113.139 158.443C113.103 158.463 113.067 158.484 113.032 158.504C112.788 158.285 112.703 158.276 112.669 157.938C113.037 156.949 115.988 152.269 116.74 151.312C116.914 151.091 117.069 150.943 117.325 150.821C117.374 150.799 117.425 150.778 117.473 150.755C119.604 149.748 121.961 149.112 124.164 148.261Z" fill="#8C6E47"/>
<path d="M158.702 15.2809C158.735 15.2875 158.768 15.2949 158.802 15.3009C158.985 15.3337 159.107 15.3574 159.255 15.4793C160.169 16.2317 163.169 20.1122 164.05 21.256C164.134 22.6119 164.367 28.9877 164.115 29.754C164.047 29.7376 163.977 29.7305 163.912 29.705C163.459 29.5274 159.267 24.359 158.795 23.5735L158.732 18.2537C158.711 17.2868 158.58 16.2391 158.702 15.2809Z" fill="#8C6E47"/>
<path d="M43.169 147.072C43.4343 147.055 43.6621 147.063 43.9052 147.178C45.1055 147.746 46.2302 148.693 47.3242 149.444C48.0334 149.931 48.8259 150.36 49.4915 150.901C49.7 151.071 49.8482 151.213 49.9372 151.473L49.8458 151.638C48.6091 152.144 46.1761 152.011 44.8069 152.095C43.9111 152.15 43.0165 152.259 42.1247 152.358C41.8326 152.373 41.6255 152.327 41.3606 152.197C40.3217 151.688 39.4694 150.931 38.5215 150.288C37.5882 149.653 36.5017 149.16 35.6664 148.391C35.4327 148.177 35.3116 148.013 35.2929 147.695L35.4706 147.637L35.4189 147.718C35.8328 147.45 42.1272 147.085 43.169 147.072Z" fill="#8C6E47"/>
<path d="M120.201 156.33C121.385 156.858 127.794 158.692 128.161 159.044C128.178 159.201 128.221 159.247 128.115 159.384C127.788 159.805 121.922 161.839 121.152 162C120.125 161.991 114.565 160.097 113.513 159.603C113.221 159.466 112.969 159.256 112.734 159.037C114.402 158.48 116.059 157.893 117.706 157.276C118.526 156.977 119.436 156.745 120.201 156.33Z" fill="#8C6E47"/>
<path d="M23.5107 15.9226L23.7913 15.9447C23.981 16.0964 24.0314 16.1421 24.056 16.4071C24.1372 17.2854 24.0141 19.1958 24.0176 20.1979C24.022 21.4438 24.2012 23.0059 23.8651 24.2024C23.5796 25.2188 19.9813 29.1364 19.0717 30.2591C18.9362 30.2297 18.8488 30.2453 18.7603 30.1248C18.4264 29.6695 18.6911 22.832 18.7403 21.7725C20.4051 19.9022 21.9511 17.8821 23.5107 15.9226Z" fill="#8C6E47"/>
<path d="M139.569 147.056C140.692 147.08 147.35 147.415 147.985 147.728C147.982 147.757 147.983 147.787 147.975 147.815C147.777 148.575 142.598 151.81 141.63 152.363C140.644 152.349 139.657 152.188 138.674 152.121C137.257 152.023 134.817 152.129 133.521 151.707C133.33 151.645 133.41 151.696 133.298 151.481C133.31 151.446 133.318 151.409 133.333 151.376C133.572 150.886 138.831 147.379 139.569 147.056Z" fill="#8C6E47"/>
<path d="M141.176 9.58702L143.184 9.5473C144.913 10.9231 146.944 11.921 148.71 13.2533C148.947 13.4326 149.299 13.6484 149.339 13.9469C148.135 14.6925 144.519 14.3933 142.928 14.7396L142.779 14.7728C142.196 14.822 141.608 14.8348 141.024 14.8606C139.73 14.2017 135.516 11.4977 134.684 10.5074L134.711 10.2747C135.056 9.93022 140.275 9.64462 141.176 9.58702Z" fill="#8C6E47"/>
<path d="M59.0985 148.26C61.4202 149.404 64.1009 149.799 66.3823 151.069C67.2298 152.369 68.027 153.701 68.8532 155.014C69.4059 155.894 70.078 156.807 70.5105 157.752C70.6406 158.037 70.6095 158.132 70.502 158.419C69.7479 158.334 64.3858 156.352 63.6415 155.943C63.3631 155.79 63.2041 155.629 63.0146 155.379C62.5015 154.698 59.0116 149.288 58.8738 148.682C58.8363 148.516 59.0038 148.388 59.0985 148.26Z" fill="#8C6E47"/>
<path d="M14.0636 97.6836C14.2327 97.7557 14.3638 97.8214 14.4952 97.955C15.0142 98.483 17.0671 104.33 17.0026 105.085C16.9398 105.819 15.0599 111.944 14.6832 112.58C14.586 112.744 14.4884 112.828 14.3442 112.95C14.1884 112.845 14.0594 112.739 13.9631 112.574C13.6081 111.962 11.9737 107.303 11.7396 106.551C11.6532 106.273 11.5184 105.898 11.5459 105.608C11.6282 104.742 13.5636 98.6377 14.0636 97.6836Z" fill="#8C6E47"/>
<path d="M5.5965 44.9827L5.87716 45.0907C6.44306 45.78 8.96103 52.3818 8.90434 53.1119C8.82434 54.1438 7.38446 58.7724 6.95468 59.8629C6.87828 60.0572 6.72513 60.1781 6.5724 60.311C5.94077 59.8586 3.68282 53.7311 3.41022 52.6688C3.36145 52.4787 3.34746 52.3048 3.38704 52.1126C3.59539 51.0963 5.24539 45.6055 5.5965 44.9827Z" fill="#8C6E47"/>
<path d="M17.6532 107.174C17.7654 107.202 17.8323 107.206 17.9275 107.267C18.3345 107.527 21.1177 113.227 21.2689 113.946C21.4193 114.662 19.8618 121.68 19.5122 122.267C19.3907 122.274 19.3065 122.251 19.1893 122.222C18.6144 121.564 16.7201 117.512 16.2568 116.485C16.0832 116.1 15.8684 115.665 15.8684 115.235C15.8683 114.055 17.2101 108.337 17.6532 107.174Z" fill="#8C6E47"/>
<path d="M176.912 44.2642C177.046 44.2923 177.173 44.3231 177.285 44.4059C177.79 44.7779 179.218 49.9351 179.486 50.9174C179.569 51.2242 179.65 51.5705 179.595 51.8892C179.388 53.0914 177.292 58.5313 176.703 59.5364C176.618 59.5187 176.468 59.4911 176.39 59.4586C176.379 59.4537 176.175 59.3363 176.156 59.3074C175.974 59.0339 175.857 58.2501 175.757 57.9172C175.263 56.281 174.647 53.8674 174.007 52.3613C174.662 49.8453 176.056 46.8345 176.912 44.2642Z" fill="#8C6E47"/>
<path d="M182.702 77.8774C182.937 77.9516 182.909 77.9545 183.055 78.1269C183.413 79.6712 182.993 84.0432 182.756 85.7069C181.626 87.054 180.483 88.3893 179.326 89.7128C178.66 90.4768 178.011 91.3073 177.252 91.9808C177.054 91.9299 176.993 91.9002 176.832 91.7878C176.694 91.156 176.973 90.1128 177.023 89.4435C177.145 87.8109 177.093 86.1366 177.115 84.4991C178.734 82.1293 180.874 80.0903 182.702 77.8774Z" fill="#8C6E47"/>
<path d="M165.603 106.498C165.644 106.51 165.687 106.516 165.727 106.534C166.306 106.799 167.341 113.556 167.817 114.658C167.082 116.389 165.373 120.29 164.395 121.712C164.288 121.669 164.2 121.601 164.105 121.537C163.588 120.236 162.294 114.948 162.235 113.593C162.209 112.991 165.065 107.131 165.603 106.498Z" fill="#8C6E47"/>
<path d="M13.6197 58.1504C13.7952 58.1985 13.8496 58.2437 13.9878 58.3547C14.2342 59.1731 12.8357 64.7713 12.5352 65.9014C10.4319 67.6292 8.36182 69.3961 6.32489 71.2021C6.16898 71.1618 6.03011 71.1025 5.88154 71.041C5.84811 70.9668 5.79193 70.8996 5.78126 70.819C5.75638 70.6325 7.10883 64.3451 7.26955 63.5303C9.47117 61.8552 11.4384 59.8579 13.6197 58.1504Z" fill="#8C6E47"/>
<path d="M148.702 131.651C148.824 131.676 148.908 131.73 149.017 131.789C149.107 132.011 149.145 132.183 149.12 132.425C149.028 133.33 147.979 139.507 147.676 140.038C147.242 140.797 143.121 144.357 142.16 145.157C141.959 145.123 141.968 145.108 141.822 144.989C141.571 144.149 142.865 137.844 143.173 136.642C144.685 135.119 147.037 132.904 148.702 131.651Z" fill="#8C6E47"/>
<path d="M39.4301 16.3187C39.6667 16.3004 39.7156 16.305 39.9313 16.4019L39.9957 16.5906C39.9439 16.7215 39.941 16.7457 39.8492 16.8798C39.2001 17.8285 38.0115 18.6126 37.1343 19.3564C36.3706 20.004 35.7363 20.9224 34.8941 21.4536C33.7096 22.2005 28.2006 22.3048 26.5077 22.4787C26.2159 22.4376 26.1571 22.4459 25.9392 22.2548L25.9594 22.0229C26.8657 20.9409 30.6378 17.5067 31.8067 16.7869C34.3545 16.7022 36.8764 16.3904 39.4301 16.3187Z" fill="#8C6E47"/>
<path d="M39.536 9.96775C41.0419 9.73989 42.8496 10.151 44.3751 10.2488C45.3679 10.3124 46.3842 10.2669 47.3714 10.3748C47.7046 10.4112 47.8724 10.483 48.0814 10.7424C48.0749 10.7709 48.0725 10.8007 48.062 10.828C47.8322 11.4269 42.7555 14.6492 41.8808 15.1886C40.6741 15.5601 38.4045 14.9445 37.104 14.8698C36.2047 14.8181 35.2955 14.9196 34.3991 14.8219C34.0046 14.7789 33.705 14.729 33.4535 14.4095C33.5014 14.1902 33.5338 14.1083 33.7029 13.9444C34.2303 13.4329 35.0201 13.0292 35.6387 12.6165C36.9457 11.7451 38.2448 10.8622 39.536 9.96775Z" fill="#8C6E47"/>
<path d="M161.255 115.406C161.348 115.457 161.41 115.53 161.486 115.605C161.848 117.092 161.836 118.486 161.954 119.999C162.06 121.365 162.258 122.685 162.25 124.061C161.166 125.544 159.051 129.313 157.988 130.274C157.813 130.214 157.758 130.165 157.625 130.044C157.283 129.213 156.957 123.031 156.959 121.826C157.709 120.515 158.593 119.276 159.435 118.023C160.019 117.155 160.575 116.201 161.255 115.406Z" fill="#8C6E47"/>
<path d="M169.056 57.5164C169.255 57.5334 169.435 57.5475 169.614 57.6465C170.406 58.0847 171.162 58.8678 171.856 59.4572C173.181 60.5932 174.515 61.7195 175.857 62.8362C176.139 63.9522 177.481 69.7109 177.333 70.4862C177.121 70.4847 176.969 70.4692 176.781 70.3611C176.045 69.9356 175.323 69.1829 174.664 68.6246C173.291 67.4605 171.898 66.3212 170.55 65.1268C170.187 63.5147 168.878 58.884 169.056 57.5164Z" fill="#8C6E47"/>
<path d="M27.6299 124.067C27.6466 124.07 27.6634 124.074 27.6803 124.077C27.7386 124.089 27.7974 124.097 27.8553 124.11C28.544 124.268 32.345 129.21 32.9252 130.066C33.0405 131.65 33.3807 137.27 33.0308 138.531L32.7519 138.505C31.942 137.875 28.4609 133.549 27.7685 132.549L27.6282 127.25C27.602 126.207 27.4911 125.099 27.6299 124.067Z" fill="#8C6E47"/>
<path d="M53.3132 0.363475C53.4458 0.347149 53.6242 0.311739 53.7608 0.320927C54.0421 0.339868 54.0771 0.360505 54.242 0.565182C53.7421 1.53189 52.3168 2.9165 51.573 3.8092C50.8147 4.71937 49.5913 6.36201 48.7371 7.07075C47.6793 7.94847 42.5623 8.4268 40.9297 9.09504C40.9017 9.10649 40.8739 9.11858 40.8461 9.13038C40.6916 9.21053 40.4995 9.25258 40.329 9.2159C40.1765 9.18311 40.2238 9.18049 40.1299 9.01971C40.2263 8.70039 40.3825 8.46879 40.5797 8.20064C41.2389 7.30419 44.9766 2.73578 45.6391 2.319C46.3512 1.87092 52.168 0.544546 53.3132 0.363475Z" fill="#8C6E47"/>
<path d="M128.361 0.00331138C128.383 0.00281665 128.405 0.0028871 128.427 0.00175629C129.649 -0.0587422 135.863 1.46058 137.16 1.95721C138.293 3.6058 139.98 5.26724 141.294 6.81335C141.673 7.25825 142.216 7.78111 142.459 8.30546C142.536 8.47176 142.537 8.65368 142.543 8.83284C141.374 8.69135 134.491 7.18779 133.951 6.73674C133.189 6.09952 128.966 1.27173 128.506 0.514296C128.405 0.348491 128.383 0.192511 128.361 0.00331138Z" fill="#8C6E47"/>
<path d="M86.9129 0.481501C87.7745 0.411815 88.6367 0.396478 89.5004 0.38517C91.3563 0.360857 93.2448 0.326369 95.0986 0.41429C95.6744 0.440769 96.2499 0.473821 96.8252 0.513447C97.4001 0.553119 97.9747 0.599342 98.549 0.652113C99.1229 0.704931 99.6961 0.764322 100.269 0.830286C100.841 0.896203 101.414 0.968671 101.985 1.04769C102.556 1.1267 103.126 1.21227 103.694 1.30438C104.263 1.39645 104.831 1.49502 105.398 1.60009C105.965 1.70521 106.531 1.81678 107.095 1.93481C107.659 2.05284 108.222 2.1773 108.784 2.30819C109.345 2.43913 109.904 2.57647 110.463 2.72023C111.021 2.86393 111.578 3.01405 112.132 3.17057C112.687 3.32705 113.24 3.48986 113.792 3.65902C114.342 3.82817 114.891 4.00358 115.438 4.18527C115.985 4.367 116.53 4.55497 117.073 4.74919C117.616 4.94336 118.157 5.14372 118.695 5.35029C119.233 5.5569 119.769 5.76961 120.302 5.98842C120.836 6.20728 121.366 6.43219 121.895 6.66316C122.422 6.89418 122.948 7.13117 123.471 7.37416C123.993 7.61719 124.513 7.86618 125.031 8.12113C125.547 8.37603 126.061 8.63683 126.573 8.90351C127.083 9.17024 127.591 9.44277 128.096 9.72109C128.601 9.99941 129.103 10.2835 129.601 10.5733C130.099 10.8631 130.594 11.1586 131.086 11.4597C131.577 11.7609 132.065 12.0676 132.55 12.3799C133.035 12.6923 133.515 13.0101 133.992 13.3334C134.47 13.6567 134.943 13.9855 135.413 14.3197C135.883 14.6538 136.349 14.9933 136.811 15.3382C137.273 15.683 137.73 16.0331 138.185 16.3884C138.638 16.7437 139.088 17.1042 139.534 17.4698C139.98 17.8355 140.421 18.2062 140.858 18.5819C141.295 18.9576 141.728 19.3383 142.157 19.724C142.585 20.1096 143.009 20.5001 143.429 20.8955C143.848 21.2908 144.263 21.6909 144.673 22.0958C145.117 22.5311 145.555 22.9719 145.987 23.4181C146.42 23.8642 146.847 24.3156 147.269 24.7722C147.69 25.2289 148.106 25.6906 148.517 26.1575C148.927 26.6243 149.331 27.0961 149.73 27.5729C150.128 28.0497 150.521 28.5313 150.908 29.0177C151.295 29.5041 151.675 29.9952 152.05 30.491C152.425 30.9868 152.794 31.4871 153.156 31.992C153.518 32.4968 153.874 33.006 154.225 33.5195C154.574 34.0331 154.918 34.5509 155.255 35.0729C155.592 35.5949 155.923 36.121 156.247 36.6512C156.571 37.1813 156.889 37.7154 157.201 38.2533C157.512 38.7913 157.816 39.333 158.114 39.8784C158.412 40.4238 158.703 40.9728 158.987 41.5254C159.272 42.0779 159.55 42.6339 159.82 43.1934C160.091 43.7527 160.355 44.3154 160.612 44.8812C160.868 45.447 161.118 46.0158 161.361 46.5878C161.605 47.1598 161.84 47.7349 162.069 48.313C162.298 48.8907 162.52 49.4712 162.734 50.0545C162.949 50.6378 163.156 51.2235 163.356 51.8115C163.556 52.4 163.749 52.9908 163.935 53.584C164.12 54.1772 164.299 54.7726 164.47 55.37C164.641 55.9675 164.805 56.5668 164.961 57.168C165.117 57.7697 165.266 58.373 165.408 58.978C165.549 59.583 165.683 60.1899 165.81 60.7986C165.936 61.4069 166.056 62.0168 166.167 62.6284C166.279 63.2395 166.383 63.8521 166.48 64.466C166.576 65.0799 166.665 65.695 166.746 66.3113C166.828 66.9271 166.902 67.5442 166.968 68.1623C167.035 68.78 167.093 69.3987 167.144 70.0183C167.195 70.6374 167.239 71.2572 167.275 71.8778C167.311 72.4983 167.339 73.1191 167.36 73.7401C167.38 74.3611 167.393 74.9823 167.399 75.6038C167.401 76.221 167.396 76.8383 167.384 77.4555C167.371 78.0727 167.351 78.6895 167.324 79.3058C167.296 79.9225 167.261 80.5388 167.218 81.1547C167.175 81.7705 167.125 82.3856 167.068 83C167.01 83.6149 166.945 84.2288 166.873 84.8418C166.8 85.4548 166.72 86.0666 166.633 86.6773C166.546 87.2884 166.451 87.8983 166.348 88.5071C166.246 89.1158 166.137 89.7232 166.02 90.3291C165.902 90.9355 165.778 91.5402 165.646 92.1433C165.515 92.746 165.375 93.3472 165.229 93.947C165.082 94.5468 164.929 95.1445 164.768 95.74C164.607 96.3361 164.439 96.93 164.263 97.5218C164.088 98.1136 163.905 98.7032 163.715 99.2908C163.526 99.8779 163.329 100.463 163.125 101.046C162.921 101.628 162.71 102.208 162.492 102.786C162.273 103.363 162.048 103.937 161.816 104.509C161.584 105.081 161.344 105.65 161.099 106.216C160.853 106.783 160.6 107.346 160.339 107.905C160.08 108.466 159.813 109.022 159.54 109.576C159.267 110.129 158.987 110.679 158.7 111.226C158.414 111.772 158.12 112.315 157.821 112.855C157.52 113.394 157.214 113.93 156.901 114.463C156.588 114.995 156.269 115.523 155.943 116.047C155.617 116.571 155.285 117.091 154.946 117.608C154.608 118.124 154.263 118.636 153.912 119.144C153.561 119.651 153.204 120.155 152.841 120.654C152.477 121.153 152.108 121.647 151.733 122.137C151.358 122.627 150.977 123.113 150.59 123.594C150.202 124.075 149.809 124.551 149.411 125.022C149.012 125.493 148.608 125.959 148.198 126.421C147.788 126.882 147.373 127.339 146.951 127.79C146.53 128.241 146.103 128.687 145.671 129.128C145.334 129.474 144.993 129.817 144.649 130.156C144.305 130.496 143.958 130.832 143.607 131.166C143.256 131.498 142.902 131.828 142.545 132.154C142.188 132.48 141.828 132.802 141.465 133.121C141.101 133.44 140.735 133.756 140.366 134.068C139.996 134.379 139.624 134.688 139.248 134.993C138.873 135.298 138.495 135.599 138.113 135.896C137.732 136.193 137.348 136.487 136.961 136.777C136.574 137.067 136.185 137.353 135.792 137.635C135.4 137.918 135.005 138.197 134.607 138.471C134.209 138.746 133.808 139.017 133.406 139.284C133.002 139.551 132.597 139.814 132.189 140.073C131.781 140.332 131.37 140.587 130.957 140.839C130.543 141.09 130.128 141.337 129.71 141.58C129.292 141.823 128.872 142.063 128.45 142.298C128.027 142.532 127.602 142.763 127.176 142.99C126.748 143.217 126.319 143.44 125.888 143.658C125.456 143.876 125.023 144.091 124.587 144.301C124.152 144.511 123.715 144.717 123.275 144.918C122.836 145.12 122.395 145.317 121.951 145.511C121.508 145.704 121.063 145.893 120.616 146.077C120.169 146.261 119.72 146.441 119.27 146.617C118.819 146.793 118.367 146.964 117.913 147.131C117.46 147.298 117.005 147.461 116.548 147.619C116.091 147.777 115.633 147.931 115.173 148.08C114.713 148.23 114.252 148.375 113.789 148.515C113.326 148.655 112.862 148.791 112.397 148.922C111.931 149.054 111.465 149.181 110.997 149.303C110.529 149.426 110.06 149.543 109.591 149.656C109.12 149.77 108.649 149.879 108.177 149.983C107.705 150.087 107.232 150.187 106.758 150.281C106.284 150.376 105.809 150.467 105.333 150.553C102.404 151.09 99.3208 151.657 96.3376 151.683C92.8264 151.824 89.2997 151.903 85.7913 151.638C85.3725 151.606 84.954 151.57 84.5361 151.531C84.1177 151.491 83.6998 151.448 83.2823 151.402C82.8649 151.356 82.4479 151.306 82.0314 151.253C81.6148 151.2 81.1986 151.143 80.7825 151.083C80.367 151.022 79.9519 150.959 79.5372 150.892C79.1226 150.825 78.7087 150.754 78.2954 150.68C77.8818 150.606 77.4688 150.528 77.0565 150.447C76.6442 150.367 76.2329 150.283 75.8225 150.195C75.4116 150.107 75.0015 150.016 74.592 149.922C74.1831 149.827 73.7748 149.729 73.3672 149.628C72.9592 149.526 72.5523 149.421 72.1467 149.313C71.741 149.205 71.336 149.094 70.9317 148.979C70.5279 148.864 70.1249 148.745 69.7225 148.624C69.3206 148.502 68.9196 148.377 68.5196 148.249C68.1195 148.121 67.7207 147.989 67.323 147.854C66.9254 147.719 66.5289 147.581 66.1336 147.44C65.7378 147.298 65.3434 147.153 64.9504 147.005C64.5575 146.857 64.1657 146.706 63.7751 146.552C63.3845 146.397 62.9953 146.239 62.6075 146.078C62.2198 145.917 61.8332 145.753 61.4477 145.585C61.0628 145.418 60.679 145.247 60.2964 145.073C59.9143 144.899 59.5334 144.722 59.1536 144.542C58.7743 144.361 58.3967 144.178 58.0207 143.991C57.6442 143.805 57.2694 143.615 56.8962 143.422C56.5231 143.229 56.1515 143.034 55.7815 142.835C55.4116 142.636 55.0434 142.433 54.6769 142.228C54.3103 142.023 53.9455 141.815 53.5824 141.604C53.2193 141.393 52.858 141.178 52.4985 140.961C52.139 140.744 51.7813 140.524 51.4255 140.301C51.0697 140.078 50.7157 139.852 50.3636 139.623C50.0115 139.394 49.6614 139.162 49.3132 138.926C48.965 138.692 48.6187 138.454 48.2745 138.213C47.7613 137.854 47.2527 137.489 46.7486 137.118C46.2444 136.747 45.745 136.369 45.2502 135.985C44.7554 135.601 44.2654 135.212 43.7803 134.816C43.2951 134.42 42.8149 134.018 42.3397 133.61C41.8644 133.203 41.3943 132.789 40.9293 132.37C40.4643 131.951 40.0046 131.526 39.5501 131.095C39.0956 130.664 38.6465 130.228 38.2028 129.786C37.7591 129.344 37.3209 128.897 36.8882 128.445C36.4556 127.992 36.0286 127.534 35.6072 127.071C35.1859 126.607 34.7703 126.139 34.3605 125.666C33.9508 125.192 33.547 124.714 33.149 124.23C32.7511 123.747 32.3592 123.258 31.9733 122.765C31.5875 122.272 31.2078 121.774 30.8342 121.272C30.4607 120.769 30.0934 120.262 29.7323 119.751C29.3713 119.239 29.0167 118.723 28.6685 118.202C28.3202 117.682 27.9784 117.158 27.6431 116.629C27.3078 116.1 26.9791 115.567 26.657 115.03C26.3349 114.493 26.0194 113.952 25.7107 113.408C25.4019 112.863 25.0999 112.314 24.8048 111.762C24.5096 111.21 24.2212 110.654 23.9398 110.094C23.6583 109.535 23.3838 108.972 23.1163 108.407C22.8487 107.84 22.5882 107.271 22.3348 106.698C22.0813 106.126 21.8349 105.55 21.5957 104.972C21.3565 104.393 21.1244 103.811 20.8996 103.227C20.6747 102.642 20.4571 102.055 20.2467 101.465C20.0364 100.876 19.8334 100.284 19.6376 99.6887C19.4419 99.0941 19.2536 98.4971 19.0727 97.8978C18.8917 97.298 18.7182 96.6963 18.5521 96.0927C18.386 95.4891 18.2274 94.8834 18.0763 94.2756C17.9252 93.6678 17.7817 93.0583 17.6456 92.4472C17.5095 91.8361 17.3811 91.2234 17.2602 90.609C17.1393 89.9946 17.0261 89.3787 16.9204 88.7615C16.8171 88.1523 16.7214 87.5416 16.6331 86.9296C16.5448 86.318 16.4641 85.7052 16.3909 85.0913C16.3176 84.4774 16.2519 83.8627 16.1937 83.2474C16.1355 82.632 16.0849 82.0162 16.0418 81.3999C15.9987 80.7831 15.9632 80.1661 15.9352 79.5489C15.9073 78.9312 15.8869 78.3133 15.8741 77.6951C15.8613 77.0774 15.856 76.4594 15.8583 75.8413C15.8607 75.2231 15.8706 74.6051 15.8881 73.9874C15.9056 73.3692 15.9306 72.7515 15.9632 72.1343C15.9958 71.5171 16.036 70.9003 16.0837 70.284C16.1314 69.6677 16.1867 69.0521 16.2496 68.4373C16.3124 67.8224 16.3827 67.2084 16.4606 66.5954C16.5385 65.982 16.6239 65.3699 16.7168 64.7593C16.8096 64.1482 16.91 63.5382 17.0178 62.9295C17.1256 62.3207 17.2409 61.7134 17.3636 61.1075C17.4863 60.502 17.6164 59.898 17.7539 59.2954C17.8915 58.6927 18.0363 58.0917 18.1886 57.4924C18.3408 56.8936 18.5004 56.2966 18.6673 55.7015C18.8342 55.1059 19.0083 54.5127 19.1897 53.9219C19.3711 53.331 19.5598 52.7425 19.7556 52.1564C19.9515 51.5703 20.1545 50.9865 20.3646 50.405C20.5748 49.8236 20.792 49.245 21.0163 48.6692C21.2407 48.093 21.4721 47.5198 21.7104 46.9497C21.9488 46.3796 22.1941 45.8123 22.4464 45.2478C22.6987 44.6836 22.9579 44.1225 23.2239 43.5645C23.49 43.0066 23.7628 42.452 24.0424 41.9008C24.3221 41.3495 24.6084 40.8018 24.9015 40.2576C25.1946 39.7134 25.4943 39.1728 25.8006 38.6359C26.1069 38.099 26.4197 37.566 26.7391 37.0368C27.0585 36.5076 27.3843 35.9824 27.7165 35.4611C28.0488 34.9399 28.3874 34.4229 28.7323 33.91C29.0772 33.397 29.4284 32.8884 29.7858 32.3841C30.1192 31.9112 30.4581 31.4422 30.8023 30.9771C31.1465 30.512 31.496 30.0509 31.8508 29.5938C32.2056 29.1368 32.5657 28.6838 32.9309 28.235C33.2961 27.7862 33.6665 27.3417 34.0419 26.9015C34.4174 26.4611 34.7978 26.0252 35.1833 25.5937C35.5687 25.1622 35.9591 24.7351 36.3544 24.3125C36.7496 23.89 37.1497 23.472 37.5546 23.0587C37.9595 22.6453 38.369 22.2366 38.7833 21.8327C39.1976 21.4287 39.6165 21.0295 40.0399 20.6352C40.4633 20.2409 40.8913 19.8515 41.3237 19.4669C41.7561 19.0824 42.1928 18.7029 42.6339 18.3285C43.075 17.954 43.5204 17.5846 43.97 17.2204C44.4196 16.8562 44.8733 16.4972 45.3311 16.1434C45.789 15.7896 46.2509 15.4411 46.7167 15.0979C47.1826 14.7547 47.6523 14.4169 48.1259 14.0845C48.5995 13.7521 49.0769 13.4252 49.558 13.1038C50.0392 12.7823 50.524 12.4665 51.0123 12.1562C51.5007 11.8459 51.9926 11.5413 52.488 11.2422C52.9834 10.9433 53.4822 10.6501 53.9843 10.3625C54.4864 10.075 54.9918 9.79327 55.5005 9.5174C56.0093 9.24148 56.5209 8.97145 57.0355 8.70732C57.5504 8.44313 58.0683 8.18493 58.5889 7.93271C59.1096 7.68044 59.633 7.43421 60.1593 7.19401C60.6861 6.95376 61.2152 6.71961 61.7467 6.49156C62.2787 6.26351 62.813 6.04159 63.3496 5.82579C63.8868 5.61004 64.4263 5.40047 64.9681 5.19706C65.5095 4.99366 66.0532 4.79652 66.5993 4.60565C67.1459 4.41477 67.6943 4.23019 68.2446 4.0519C68.795 3.87361 69.3474 3.70165 69.902 3.53604C70.4566 3.37047 71.0128 3.21128 71.5706 3.05848C72.129 2.90568 72.6887 2.75931 73.2499 2.61937C73.8115 2.47943 74.3746 2.34595 74.939 2.21892C76.24 1.92237 77.5479 1.66129 78.863 1.4357C80.178 1.2101 81.4982 1.02031 82.8236 0.866332C84.1241 0.717701 85.4295 0.754664 86.7207 0.517829L86.9129 0.481501ZM87.0055 3.57611C85.6316 3.74079 84.2492 3.81613 82.8774 3.98949C79.8873 4.39371 76.9239 4.94152 73.9871 5.63292C73.5003 5.75434 73.0148 5.8808 72.5304 6.01231C72.0461 6.14381 71.5633 6.28031 71.0823 6.4218C70.6007 6.56334 70.1208 6.70988 69.6426 6.8614C69.1639 7.01289 68.6871 7.16934 68.2121 7.33076C67.7372 7.49219 67.2639 7.65853 66.7923 7.82981C66.3206 8.00103 65.8506 8.17715 65.3823 8.35818C64.9144 8.5392 64.4484 8.72506 63.9843 8.91574C63.5202 9.10647 63.0582 9.30198 62.5983 9.50228C62.138 9.70257 61.68 9.90763 61.2244 10.1174C60.7683 10.3273 60.3148 10.5418 59.8639 10.7611C59.4125 10.9803 58.9635 11.2042 58.5168 11.4329C58.0702 11.6614 57.6258 11.8946 57.1839 12.1324C56.7419 12.3703 56.3026 12.6126 55.8658 12.8596C55.429 13.1065 54.9948 13.358 54.5632 13.6139C54.1316 13.8699 53.7027 14.1303 53.2766 14.3952C52.8504 14.6601 52.427 14.9294 52.0065 15.2031C51.5859 15.4767 51.1682 15.7547 50.7534 16.0371C50.3386 16.3195 49.9268 16.6061 49.518 16.897C49.1092 17.188 48.7034 17.4831 48.3007 17.7824C47.898 18.0818 47.4984 18.3853 47.102 18.693C46.7057 19.0006 46.3125 19.3124 45.9226 19.6282C45.5327 19.944 45.1461 20.2639 44.7628 20.5877C44.3796 20.9116 43.9997 21.2394 43.6232 21.5712C43.2468 21.9029 42.8738 22.2385 42.5044 22.578C42.1349 22.9175 41.769 23.2608 41.4066 23.608C41.0443 23.9551 40.6856 24.3059 40.3305 24.6605C39.9755 25.015 39.6242 25.3733 39.2765 25.7352C38.929 26.097 38.5851 26.4625 38.2451 26.8315C37.9051 27.2005 37.569 27.573 37.2367 27.949C36.9044 28.325 36.5761 28.7044 36.2517 29.0872C35.9273 29.4701 35.607 29.8562 35.2906 30.2457C34.9742 30.6352 34.662 31.0279 34.3538 31.4239C33.9858 31.8955 33.6237 32.3715 33.2675 32.852C32.9113 33.3325 32.561 33.8173 32.2167 34.3064C31.8725 34.7956 31.5343 35.2889 31.2023 35.7864C30.8701 36.2839 30.5442 36.7853 30.2245 37.2909C29.9047 37.7964 29.5913 38.3058 29.2841 38.819C28.977 39.3323 28.6762 39.8492 28.3817 40.3699C28.0873 40.8906 27.7993 41.4148 27.5179 41.9425C27.2363 42.4703 26.9614 43.0014 26.693 43.536C26.4246 44.0705 26.1628 44.6083 25.9076 45.1493C25.6525 45.6904 25.4041 46.2345 25.1624 46.7815C24.9207 47.3285 24.6857 47.8786 24.4576 48.4318C24.2294 48.9845 24.0081 49.54 23.7937 50.0983C23.5792 50.6567 23.3716 51.2176 23.171 51.7811C22.9704 52.3446 22.7767 52.9105 22.5901 53.4787C22.4034 54.047 22.2237 54.6176 22.0512 55.1905C21.8786 55.763 21.713 56.3378 21.5546 56.915C21.3962 57.4917 21.2449 58.0703 21.1007 58.6508C20.9565 59.2313 20.8195 59.8134 20.6897 60.3972C20.5599 60.981 20.4373 61.5664 20.322 62.1535C20.2066 62.7406 20.0985 63.3288 19.9977 63.9182C19.8968 64.5077 19.8032 65.0983 19.7169 65.6901C19.6306 66.2824 19.5516 66.8753 19.4799 67.469C19.4082 68.0627 19.3439 68.6573 19.2869 69.2529C19.2299 69.8484 19.1802 70.4445 19.1379 71.041C19.0956 71.6375 19.0606 72.2344 19.033 72.8319C19.0054 73.4298 18.9852 74.0277 18.9723 74.6256C18.9595 75.2235 18.954 75.8215 18.9559 76.4194C18.9578 77.0178 18.967 77.6159 18.9837 78.2138C19.0003 78.8118 19.0243 79.4094 19.0557 80.0069C19.0871 80.6039 19.1258 81.2006 19.172 81.7971C19.218 82.3936 19.2715 82.9894 19.3323 83.5845C19.393 84.1796 19.4611 84.7737 19.5366 85.3669C19.7519 87.1748 20.1201 88.97 20.4831 90.7539C20.5898 91.274 20.7022 91.7933 20.8203 92.3115C20.9385 92.8294 21.0623 93.3458 21.1917 93.8608C21.3212 94.3757 21.4563 94.8893 21.5971 95.4015C21.7379 95.9141 21.8843 96.4249 22.0363 96.9337C22.1883 97.4426 22.3459 97.9498 22.5091 98.4554C22.6722 98.961 22.8409 99.4646 23.0151 99.9664C23.1893 100.468 23.3691 100.968 23.5543 101.465C23.7395 101.963 23.9302 102.459 24.1263 102.953C24.3224 103.447 24.5239 103.938 24.7308 104.427C24.9378 104.917 25.15 105.403 25.3677 105.888C25.5853 106.372 25.8083 106.855 26.0365 107.334C26.2647 107.814 26.4982 108.291 26.7369 108.766C26.9756 109.24 27.2195 109.712 27.4686 110.181C27.7177 110.65 27.9719 111.117 28.2313 111.58C28.4906 112.044 28.755 112.504 29.0245 112.962C29.294 113.42 29.5684 113.874 29.8479 114.326C30.1274 114.778 30.4118 115.227 30.7012 115.672C30.9905 116.118 31.2847 116.56 31.5838 116.999C31.8828 117.438 32.1866 117.874 32.4953 118.306C32.8039 118.738 33.1173 119.167 33.4353 119.592C33.7534 120.018 34.0761 120.44 34.4034 120.858C34.7308 121.277 35.0627 121.691 35.3992 122.102C35.7357 122.513 36.0766 122.92 36.422 123.324C36.7674 123.727 37.1172 124.127 37.4714 124.523C37.8256 124.919 38.1842 125.311 38.547 125.699C38.9098 126.087 39.2768 126.471 39.6481 126.851C40.0194 127.231 40.3947 127.606 40.7742 127.978C41.1538 128.35 41.5373 128.717 41.925 129.08C42.3126 129.443 42.7041 129.802 43.0996 130.157C43.4951 130.512 43.8945 130.862 44.2976 131.207C44.7008 131.553 45.1078 131.894 45.5185 132.231C45.9292 132.568 46.3435 132.901 46.7615 133.229C47.1107 133.503 47.4624 133.775 47.8166 134.043C48.1708 134.312 48.5275 134.576 48.8865 134.838C49.2456 135.1 49.6071 135.358 49.9709 135.613C50.3348 135.868 50.7009 136.12 51.0694 136.368C51.4379 136.616 51.8086 136.861 52.1817 137.103C52.5546 137.344 52.9298 137.582 53.3072 137.817C53.6845 138.051 54.064 138.283 54.4457 138.51C54.8273 138.738 55.211 138.962 55.5967 139.182C55.9825 139.403 56.3702 139.62 56.7598 139.833C57.1495 140.047 57.5413 140.256 57.9352 140.462C58.3286 140.669 58.7241 140.871 59.1218 141.07C59.519 141.269 59.9181 141.464 60.3191 141.655C60.72 141.847 61.1226 142.035 61.5269 142.219C61.9312 142.403 62.3373 142.583 62.7454 142.76C63.1529 142.937 63.5621 143.109 63.973 143.278C64.3839 143.447 64.7964 143.613 65.2105 143.774C65.6242 143.936 66.0396 144.093 66.4565 144.247C66.8735 144.401 67.2917 144.551 67.711 144.697C68.1309 144.843 68.5518 144.985 68.974 145.123C69.3962 145.262 69.8198 145.396 70.2448 145.527C70.6693 145.657 71.095 145.784 71.5219 145.907C71.9492 146.03 72.3775 146.148 72.8068 146.263C73.236 146.378 73.6662 146.489 74.0973 146.596C74.5284 146.702 74.9607 146.805 75.3942 146.904C75.8272 147.003 76.2612 147.098 76.696 147.189C77.1309 147.28 77.5668 147.367 78.0036 147.45C78.4399 147.533 78.8771 147.612 79.3153 147.687C79.753 147.762 80.1917 147.833 80.6313 147.899C81.0704 147.966 81.5102 148.029 81.9508 148.087C82.3913 148.146 82.8321 148.201 83.2731 148.251C83.7146 148.302 84.1566 148.348 84.599 148.391C85.0415 148.433 85.4841 148.471 85.927 148.506C89.3859 148.778 92.8964 148.668 96.3595 148.557C98.8883 148.504 101.535 148.046 104.029 147.633C119.733 145.031 133.521 137.309 144.482 125.873C144.881 125.448 145.276 125.019 145.665 124.585C146.054 124.151 146.438 123.713 146.816 123.27C147.195 122.827 147.569 122.379 147.937 121.928C148.305 121.475 148.667 121.019 149.024 120.558C149.381 120.097 149.732 119.633 150.078 119.163C150.424 118.694 150.764 118.221 151.099 117.744C151.433 117.266 151.762 116.785 152.085 116.3C152.408 115.815 152.725 115.326 153.036 114.833C153.347 114.34 153.653 113.844 153.952 113.344C154.251 112.844 154.544 112.34 154.832 111.833C155.119 111.326 155.4 110.815 155.675 110.301C155.95 109.787 156.219 109.27 156.481 108.75C156.744 108.23 157 107.706 157.25 107.18C157.5 106.653 157.744 106.124 157.981 105.592C158.218 105.059 158.45 104.524 158.674 103.986C158.899 103.448 159.117 102.908 159.328 102.365C159.54 101.822 159.745 101.276 159.943 100.728C160.141 100.18 160.333 99.63 160.518 99.0773C160.704 98.5247 160.883 97.9698 161.055 97.4129C161.226 96.856 161.391 96.2972 161.55 95.7365C161.708 95.1758 161.86 94.6132 162.005 94.0488C162.15 93.4843 162.289 92.9179 162.42 92.3497C162.552 91.7819 162.676 91.2128 162.794 90.6422C162.912 90.0711 163.023 89.4989 163.127 88.9255C163.231 88.3521 163.328 87.7775 163.419 87.2017C163.509 86.6259 163.593 86.0492 163.669 85.4715C163.745 84.8939 163.815 84.3153 163.877 83.7357C163.94 83.1562 163.996 82.576 164.044 81.995C164.093 81.4145 164.135 80.8333 164.169 80.2514C164.204 79.6695 164.232 79.0874 164.253 78.505C164.273 77.9227 164.287 77.34 164.294 76.7572C164.301 76.1744 164.301 75.5915 164.294 75.0087C164.283 74.4047 164.264 73.8011 164.238 73.198C164.212 72.5944 164.179 71.9913 164.138 71.3887C164.097 70.7861 164.048 70.1839 163.993 69.5822C163.937 68.981 163.873 68.3805 163.803 67.7807C163.732 67.1809 163.654 66.582 163.568 65.9841C163.482 65.3862 163.389 64.7895 163.289 64.1939C163.188 63.5979 163.08 63.0035 162.965 62.4107C162.85 61.818 162.728 61.2267 162.598 60.6368C162.468 60.0469 162.331 59.4586 162.187 58.872C162.042 58.2854 161.891 57.7007 161.732 57.1178C161.573 56.535 161.407 55.9543 161.233 55.3757C161.06 54.7971 160.88 54.2208 160.692 53.6469C160.505 53.0726 160.31 52.5008 160.108 51.9316C159.907 51.362 159.698 50.7952 159.482 50.2312C159.266 49.6672 159.044 49.1058 158.814 48.547C158.584 47.9882 158.348 47.4324 158.105 46.8797C157.861 46.327 157.611 45.7774 157.353 45.2309C157.097 44.6843 156.833 44.141 156.562 43.6009C156.291 43.0609 156.014 42.5243 155.731 41.9912C155.447 41.458 155.156 40.9285 154.859 40.4025C154.562 39.8765 154.259 39.3543 153.949 38.8358C153.639 38.3174 153.323 37.8029 153 37.2923C152.677 36.7817 152.348 36.2751 152.013 35.7727C151.678 35.2703 151.336 34.7721 150.989 34.2781C150.641 33.7841 150.288 33.2945 149.928 32.8092C149.568 32.324 149.202 31.8433 148.831 31.3672C148.459 30.891 148.082 30.4195 147.698 29.9527C147.315 29.486 146.926 29.024 146.532 28.5668C146.137 28.1096 145.736 27.6574 145.33 27.2102C144.924 26.7629 144.513 26.3208 144.096 25.8838C143.679 25.4467 143.257 25.0149 142.829 24.5884C142.401 24.1618 141.969 23.7406 141.531 23.3248C141.148 22.9633 140.761 22.6061 140.371 22.253C139.981 21.8999 139.586 21.5511 139.188 21.2066C138.791 20.8621 138.389 20.5219 137.984 20.1861C137.579 19.8503 137.17 19.5189 136.757 19.192C136.345 18.8651 135.929 18.5426 135.509 18.2247C135.09 17.9068 134.667 17.5934 134.24 17.2847C133.814 16.9759 133.385 16.6718 132.952 16.3724C132.519 16.0729 132.083 15.7782 131.644 15.4882C131.205 15.1982 130.762 14.913 130.316 14.6326C129.871 14.3522 129.423 14.0767 128.971 13.806C128.52 13.5354 128.066 13.2696 127.609 13.0088C127.151 12.7479 126.691 12.4921 126.228 12.2412C125.766 11.9904 125.301 11.7446 124.833 11.5038C124.365 11.263 123.894 11.0274 123.421 10.7968C122.947 10.5663 122.472 10.3409 121.994 10.1206C121.516 9.90039 121.036 9.68537 120.553 9.47556C120.07 9.2657 119.585 9.06112 119.098 8.86181C118.611 8.66251 118.121 8.4685 117.63 8.2798C117.139 8.09109 116.646 7.90774 116.15 7.72973C115.655 7.55172 115.158 7.37908 114.659 7.21182C114.16 7.0446 113.659 6.8828 113.156 6.72642C112.654 6.57008 112.149 6.41919 111.644 6.27374C111.138 6.12829 110.63 5.98835 110.121 5.85392C109.613 5.7195 109.102 5.59058 108.591 5.46718C108.079 5.34383 107.566 5.22601 107.052 5.11373C106.537 5.0015 106.022 4.89485 105.506 4.79379C104.989 4.69267 104.472 4.59719 103.953 4.50734C103.434 4.41748 102.915 4.33326 102.394 4.25467C101.874 4.17608 101.352 4.10314 100.83 4.03586C100.309 3.96858 99.7863 3.90697 99.2628 3.85104C98.7394 3.79506 98.2154 3.74477 97.691 3.70015C97.1666 3.65558 96.6417 3.61668 96.1163 3.58346C93.4229 3.39688 90.6333 3.48204 87.9335 3.54367C87.6246 3.55074 87.3137 3.55357 87.0055 3.57611Z" fill="#8C6E47"/>
<path d="M48.9736 91.5565V84.6557H50.0148V87.6546H53.4551V84.6557H54.4997V91.5565H53.4551V88.5475H50.0148V91.5565H48.9736Z" fill="#8C6E47"/>
<path d="M57.7536 91.6543C57.2909 91.6543 56.8921 91.57 56.5574 91.4015C56.225 91.2331 55.9689 91.0039 55.7892 90.7141C55.6095 90.4221 55.5196 90.0919 55.5196 89.7235C55.5196 89.4427 55.578 89.1934 55.6948 88.9755C55.8116 88.7553 55.9745 88.552 56.1834 88.3656C56.3923 88.1791 56.6338 87.9915 56.9079 87.8028L58.0198 87.0177C58.2085 86.8942 58.3557 86.7639 58.4612 86.6269C58.5668 86.4876 58.6196 86.3157 58.6196 86.1113C58.6196 85.9496 58.55 85.7946 58.4107 85.6463C58.2714 85.4981 58.085 85.4239 57.8513 85.4239C57.6896 85.4239 57.547 85.4632 57.4234 85.5419C57.3021 85.6205 57.2066 85.7216 57.137 85.8451C57.0696 85.9664 57.0359 86.0945 57.0359 86.2293C57.0359 86.3865 57.0786 86.5449 57.164 86.7044C57.2516 86.8639 57.3639 87.029 57.5009 87.1997C57.6379 87.3682 57.7817 87.5434 57.9322 87.7253L61.1367 91.5565H59.9978L57.3459 88.4397C57.1235 88.1769 56.9169 87.9298 56.7259 87.6984C56.535 87.4648 56.38 87.2289 56.2609 86.9908C56.1441 86.7504 56.0857 86.491 56.0857 86.2124C56.0857 85.8957 56.1576 85.6149 56.3013 85.37C56.4474 85.1229 56.6507 84.9297 56.9112 84.7905C57.1718 84.6512 57.4773 84.5815 57.8278 84.5815C58.1827 84.5815 58.4871 84.6512 58.7409 84.7905C58.997 84.9275 59.1936 85.1106 59.3306 85.3397C59.4699 85.5666 59.5395 85.8148 59.5395 86.0844C59.5395 86.4123 59.4575 86.7021 59.2935 86.9537C59.1318 87.2031 58.9083 87.4322 58.623 87.6411L57.2381 88.6621C56.9685 88.8598 56.7809 89.0552 56.6754 89.2484C56.572 89.4393 56.5204 89.5887 56.5204 89.6965C56.5204 89.8942 56.5709 90.0773 56.672 90.2458C56.7753 90.4143 56.9191 90.549 57.1033 90.6501C57.2897 90.7512 57.5076 90.8018 57.757 90.8018C58.0131 90.8018 58.2624 90.7467 58.505 90.6367C58.7499 90.5243 58.9712 90.3637 59.1688 90.1548C59.3688 89.9459 59.5271 89.6954 59.644 89.4034C59.7608 89.1114 59.8192 88.7845 59.8192 88.4228H60.729C60.729 88.8676 60.6784 89.2439 60.5773 89.5517C60.4762 89.8572 60.3538 90.1065 60.21 90.2997C60.0685 90.4906 59.9349 90.64 59.8091 90.7478C59.7686 90.7838 59.7304 90.8197 59.6945 90.8557C59.6586 90.8916 59.6204 90.9276 59.5799 90.9635C59.3463 91.1994 59.0633 91.3735 58.7308 91.4858C58.4006 91.5981 58.0749 91.6543 57.7536 91.6543Z" fill="#8C6E47"/>
<path d="M61.8171 91.5565V84.6557H62.8583V87.6546H66.2986V84.6557H67.3432V91.5565H66.2986V88.5475H62.8583V91.5565H61.8171Z" fill="#8C6E47"/>
<path d="M76.7228 86.8998H75.6715C75.631 86.6752 75.5558 86.4775 75.4457 86.3068C75.3356 86.136 75.2008 85.9911 75.0413 85.8721C74.8819 85.753 74.7033 85.6632 74.5056 85.6025C74.3101 85.5419 74.1024 85.5115 73.8822 85.5115C73.4846 85.5115 73.1285 85.6115 72.8141 85.8114C72.5018 86.0114 72.2547 86.3045 72.0728 86.6909C71.893 87.0773 71.8032 87.549 71.8032 88.1061C71.8032 88.6677 71.893 89.1417 72.0728 89.5281C72.2547 89.9144 72.5029 90.2065 72.8174 90.4042C73.1319 90.6018 73.4857 90.7007 73.8788 90.7007C74.0967 90.7007 74.3034 90.6715 74.4988 90.6131C74.6965 90.5524 74.8751 90.4637 75.0346 90.3469C75.1941 90.2301 75.3289 90.0874 75.4389 89.9189C75.5513 89.7482 75.6288 89.5528 75.6715 89.3326L76.7228 89.336C76.6666 89.6752 76.5577 89.9874 76.3959 90.2727C76.2364 90.5558 76.0309 90.8006 75.7793 91.0073C75.5299 91.2117 75.2446 91.3701 74.9234 91.4824C74.6022 91.5947 74.2517 91.6509 73.8721 91.6509C73.2746 91.6509 72.7422 91.5094 72.2749 91.2263C71.8077 90.941 71.4393 90.5333 71.1697 90.0032C70.9024 89.473 70.7687 88.8407 70.7687 88.1061C70.7687 87.3693 70.9035 86.7369 71.1731 86.209C71.4426 85.6789 71.8111 85.2723 72.2783 84.9893C72.7455 84.704 73.2768 84.5613 73.8721 84.5613C74.2383 84.5613 74.5797 84.6141 74.8965 84.7197C75.2154 84.823 75.5019 84.9758 75.7557 85.1779C76.0095 85.3779 76.2196 85.6227 76.3858 85.9125C76.552 86.2001 76.6644 86.5292 76.7228 86.8998Z" fill="#8C6E47"/>
<path d="M77.7789 91.5565V84.6557H78.8201V90.6602H81.947V91.5565H77.7789Z" fill="#8C6E47"/>
<path d="M83.8801 91.5565H82.7749L85.2583 84.6557H86.4612L88.9446 91.5565H87.8393L85.8884 85.9091H85.8345L83.8801 91.5565ZM84.0654 88.8541H87.6507V89.7302H84.0654V88.8541Z" fill="#8C6E47"/>
<path d="M93.4595 86.4685C93.4236 86.1495 93.2754 85.9024 93.0148 85.7272C92.7542 85.5497 92.4262 85.461 92.0309 85.461C91.7478 85.461 91.503 85.5059 91.2963 85.5958C91.0896 85.6834 90.929 85.8047 90.8144 85.9597C90.7021 86.1124 90.646 86.2865 90.646 86.482C90.646 86.646 90.6842 86.7875 90.7605 86.9065C90.8392 87.0256 90.9414 87.1256 91.0672 87.2064C91.1952 87.285 91.3322 87.3513 91.4782 87.4052C91.6243 87.4569 91.7647 87.4996 91.8994 87.5333L92.5734 87.7085C92.7935 87.7624 93.0193 87.8354 93.2506 87.9275C93.482 88.0196 93.6965 88.1409 93.8942 88.2914C94.0919 88.4419 94.2514 88.6284 94.3727 88.8508C94.4963 89.0732 94.558 89.3394 94.558 89.6494C94.558 90.0402 94.4569 90.3873 94.2548 90.6906C94.0548 90.9938 93.7639 91.2331 93.382 91.4083C93.0024 91.5835 92.543 91.6711 92.0039 91.6711C91.4872 91.6711 91.0402 91.5891 90.6628 91.4251C90.2854 91.2611 89.99 91.0286 89.7766 90.7276C89.5632 90.4244 89.4453 90.0649 89.4228 89.6494H90.4674C90.4876 89.8987 90.5685 90.1065 90.71 90.2727C90.8538 90.4367 91.0368 90.5592 91.2592 90.64C91.4839 90.7187 91.7298 90.758 91.9972 90.758C92.2914 90.758 92.5531 90.7119 92.7823 90.6198C93.0136 90.5255 93.1956 90.3952 93.3281 90.2289C93.4607 90.0605 93.5269 89.8639 93.5269 89.6393C93.5269 89.4348 93.4685 89.2675 93.3517 89.1372C93.2372 89.0069 93.081 88.8991 92.8834 88.8137C92.6879 88.7284 92.4667 88.6531 92.2196 88.588L91.4041 88.3656C90.8515 88.2151 90.4135 87.9938 90.09 87.7018C89.7688 87.4097 89.6081 87.0234 89.6081 86.5426C89.6081 86.145 89.716 85.798 89.9316 85.5014C90.1473 85.2049 90.4393 84.9747 90.8077 84.8107C91.1761 84.6444 91.5917 84.5613 92.0544 84.5613C92.5217 84.5613 92.9339 84.6433 93.2911 84.8073C93.6505 84.9713 93.9335 85.197 94.1402 85.4846C94.3469 85.7699 94.4547 86.0978 94.4637 86.4685H93.4595Z" fill="#8C6E47"/>
<path d="M99.3763 86.4685C99.3403 86.1495 99.1921 85.9024 98.9315 85.7272C98.6709 85.5497 98.3429 85.461 97.9476 85.461C97.6645 85.461 97.4197 85.5059 97.213 85.5958C97.0064 85.6834 96.8457 85.8047 96.7312 85.9597C96.6189 86.1124 96.5627 86.2865 96.5627 86.482C96.5627 86.646 96.6009 86.7875 96.6773 86.9065C96.7559 87.0256 96.8581 87.1256 96.9839 87.2064C97.1119 87.285 97.249 87.3513 97.395 87.4052C97.541 87.4569 97.6814 87.4996 97.8162 87.5333L98.4901 87.7085C98.7102 87.7624 98.936 87.8354 99.1674 87.9275C99.3988 88.0196 99.6133 88.1409 99.811 88.2914C100.009 88.4419 100.168 88.6284 100.289 88.8508C100.413 89.0732 100.475 89.3394 100.475 89.6494C100.475 90.0402 100.374 90.3873 100.172 90.6906C99.9716 90.9938 99.6807 91.2331 99.2988 91.4083C98.9191 91.5835 98.4598 91.6711 97.9206 91.6711C97.404 91.6711 96.9569 91.5891 96.5795 91.4251C96.2022 91.2611 95.9067 91.0286 95.6933 90.7276C95.4799 90.4244 95.362 90.0649 95.3395 89.6494H96.3841C96.4043 89.8987 96.4852 90.1065 96.6267 90.2727C96.7705 90.4367 96.9536 90.5592 97.176 90.64C97.4006 90.7187 97.6466 90.758 97.9139 90.758C98.2082 90.758 98.4699 90.7119 98.699 90.6198C98.9304 90.5255 99.1123 90.3952 99.2449 90.2289C99.3774 90.0605 99.4437 89.8639 99.4437 89.6393C99.4437 89.4348 99.3853 89.2675 99.2685 89.1372C99.1539 89.0069 98.9978 88.8991 98.8001 88.8137C98.6047 88.7284 98.3834 88.6531 98.1363 88.588L97.3208 88.3656C96.7682 88.2151 96.3302 87.9938 96.0067 87.7018C95.6855 87.4097 95.5249 87.0234 95.5249 86.5426C95.5249 86.145 95.6327 85.798 95.8483 85.5014C96.064 85.2049 96.356 84.9747 96.7244 84.8107C97.0928 84.6444 97.5084 84.5613 97.9712 84.5613C98.4384 84.5613 98.8506 84.6433 99.2078 84.8073C99.5672 84.9713 99.8503 85.197 100.057 85.4846C100.264 85.7699 100.371 86.0978 100.38 86.4685H99.3763Z" fill="#8C6E47"/>
<path d="M102.57 84.6557V91.5565H101.529V84.6557H102.57Z" fill="#8C6E47"/>
<path d="M109.629 86.8998H108.577C108.537 86.6752 108.462 86.4775 108.352 86.3068C108.241 86.136 108.107 85.9911 107.947 85.8721C107.788 85.753 107.609 85.6632 107.411 85.6025C107.216 85.5419 107.008 85.5115 106.788 85.5115C106.39 85.5115 106.034 85.6115 105.72 85.8114C105.408 86.0114 105.161 86.3045 104.979 86.6909C104.799 87.0773 104.709 87.549 104.709 88.1061C104.709 88.6677 104.799 89.1417 104.979 89.5281C105.161 89.9144 105.409 90.2065 105.723 90.4042C106.038 90.6018 106.392 90.7007 106.785 90.7007C107.003 90.7007 107.209 90.6715 107.405 90.6131C107.602 90.5524 107.781 90.4637 107.94 90.3469C108.1 90.2301 108.235 90.0874 108.345 89.9189C108.457 89.7482 108.535 89.5528 108.577 89.3326L109.629 89.336C109.572 89.6752 109.463 89.9874 109.302 90.2727C109.142 90.5558 108.937 90.8006 108.685 91.0073C108.436 91.2117 108.15 91.3701 107.829 91.4824C107.508 91.5947 107.158 91.6509 106.778 91.6509C106.18 91.6509 105.648 91.5094 105.181 91.2263C104.713 90.941 104.345 90.5333 104.076 90.0032C103.808 89.473 103.675 88.8407 103.675 88.1061C103.675 87.3693 103.809 86.7369 104.079 86.209C104.348 85.6789 104.717 85.2723 105.184 84.9893C105.651 84.704 106.183 84.5613 106.778 84.5613C107.144 84.5613 107.486 84.6141 107.802 84.7197C108.121 84.823 108.408 84.9758 108.662 85.1779C108.915 85.3779 109.125 85.6227 109.292 85.9125C109.458 86.2001 109.57 86.5292 109.629 86.8998Z" fill="#8C6E47"/>
<path d="M114.449 86.4685C114.413 86.1495 114.264 85.9024 114.004 85.7272C113.743 85.5497 113.415 85.461 113.02 85.461C112.737 85.461 112.492 85.5059 112.285 85.5958C112.079 85.6834 111.918 85.8047 111.803 85.9597C111.691 86.1124 111.635 86.2865 111.635 86.482C111.635 86.646 111.673 86.7875 111.749 86.9065C111.828 87.0256 111.93 87.1256 112.056 87.2064C112.184 87.285 112.321 87.3513 112.467 87.4052C112.613 87.4569 112.754 87.4996 112.888 87.5333L113.562 87.7085C113.782 87.7624 114.008 87.8354 114.24 87.9275C114.471 88.0196 114.686 88.1409 114.883 88.2914C115.081 88.4419 115.24 88.6284 115.362 88.8508C115.485 89.0732 115.547 89.3394 115.547 89.6494C115.547 90.0402 115.446 90.3873 115.244 90.6906C115.044 90.9938 114.753 91.2331 114.371 91.4083C113.991 91.5835 113.532 91.6711 112.993 91.6711C112.476 91.6711 112.029 91.5891 111.652 91.4251C111.274 91.2611 110.979 91.0286 110.766 90.7276C110.552 90.4244 110.434 90.0649 110.412 89.6494H111.456C111.477 89.8987 111.557 90.1065 111.699 90.2727C111.843 90.4367 112.026 90.5592 112.248 90.64C112.473 90.7187 112.719 90.758 112.986 90.758C113.28 90.758 113.542 90.7119 113.771 90.6198C114.003 90.5255 114.185 90.3952 114.317 90.2289C114.45 90.0605 114.516 89.8639 114.516 89.6393C114.516 89.4348 114.457 89.2675 114.341 89.1372C114.226 89.0069 114.07 88.8991 113.872 88.8137C113.677 88.7284 113.456 88.6531 113.209 88.588L112.393 88.3656C111.84 88.2151 111.402 87.9938 111.079 87.7018C110.758 87.4097 110.597 87.0234 110.597 86.5426C110.597 86.145 110.705 85.798 110.921 85.5014C111.136 85.2049 111.428 84.9747 111.797 84.8107C112.165 84.6444 112.581 84.5613 113.043 84.5613C113.511 84.5613 113.923 84.6433 114.28 84.8073C114.639 84.9713 114.922 85.197 115.129 85.4846C115.336 85.7699 115.444 86.0978 115.453 86.4685H114.449Z" fill="#8C6E47"/>
<path d="M118.923 91.5565V84.6557H119.964V90.6602H123.091V91.5565H118.923Z" fill="#8C6E47"/>
<path d="M122.85 85.552V84.6557H128.191V85.552H126.037V91.5565H125V85.552H122.85Z" fill="#8C6E47"/>
<path d="M131.415 91.5565H129.181V84.6557H131.486C132.162 84.6557 132.743 84.7938 133.228 85.0701C133.713 85.3442 134.085 85.7384 134.343 86.2528C134.604 86.765 134.734 87.3794 134.734 88.096C134.734 88.8148 134.603 89.4326 134.34 89.9493C134.079 90.4659 133.702 90.8635 133.208 91.1421C132.713 91.4184 132.116 91.5565 131.415 91.5565ZM130.222 90.6468H131.358C131.883 90.6468 132.32 90.5479 132.669 90.3502C133.017 90.1503 133.277 89.8617 133.45 89.4843C133.623 89.1046 133.71 88.6419 133.71 88.096C133.71 87.5546 133.623 87.0952 133.45 86.7178C133.28 86.3405 133.025 86.054 132.685 85.8586C132.346 85.6632 131.925 85.5654 131.422 85.5654H130.222V90.6468Z" fill="#8C6E47"/>
<path fill-rule="evenodd" clip-rule="evenodd" d="M29.703 101.092C34.7896 101.004 39.8872 101.032 44.9822 101.06C47.4864 101.074 49.99 101.087 52.4912 101.087L146.856 101.087C147.526 101.087 148.198 101.079 148.87 101.072C150.23 101.058 151.592 101.043 152.946 101.088C153.312 101.1 153.668 101.119 154.011 101.258C153.876 102.042 153.334 103.141 152.886 104.052L152.885 104.052C152.753 104.321 152.629 104.573 152.525 104.796C148.742 112.949 143.133 120.132 136.606 126.254C134.861 127.811 133.047 129.282 131.162 130.667C130.715 130.993 130.265 131.313 129.81 131.627C129.356 131.942 128.898 132.251 128.436 132.554C127.974 132.858 127.508 133.155 127.039 133.447C126.57 133.739 126.097 134.025 125.621 134.305C125.144 134.585 124.664 134.86 124.181 135.128C123.698 135.396 123.212 135.658 122.722 135.914C122.232 136.17 121.739 136.42 121.244 136.664C120.747 136.908 120.248 137.146 119.747 137.377C119.245 137.609 118.74 137.835 118.233 138.054C117.726 138.273 117.216 138.485 116.703 138.692C116.191 138.898 115.676 139.098 115.158 139.293C114.64 139.486 114.12 139.673 113.598 139.854C113.076 140.035 112.551 140.209 112.025 140.377C111.498 140.545 110.97 140.706 110.439 140.861C109.909 141.015 109.376 141.164 108.842 141.305C108.308 141.447 107.772 141.582 107.234 141.71C106.697 141.839 106.158 141.96 105.617 142.075C105.077 142.19 104.535 142.298 103.992 142.399C103.448 142.501 102.904 142.596 102.358 142.684C101.813 142.772 101.266 142.853 100.719 142.927C100.171 143.002 99.6227 143.069 99.0733 143.13C98.5239 143.192 97.9738 143.246 97.423 143.293C96.8727 143.34 96.3216 143.38 95.7699 143.414C95.2182 143.448 94.6662 143.474 94.114 143.494C93.5618 143.515 93.0093 143.528 92.4566 143.534C91.9039 143.54 91.3513 143.539 90.7986 143.532C90.2464 143.525 89.6939 143.511 89.1412 143.489C88.589 143.468 88.0373 143.44 87.486 143.405C86.9343 143.37 86.3832 143.329 85.8329 143.281C85.2821 143.232 84.7322 143.177 84.1833 143.115C83.6339 143.053 83.0855 142.984 82.538 142.908C81.991 142.833 81.4446 142.75 80.899 142.661C80.36 142.573 79.8224 142.478 79.2862 142.377C78.7495 142.276 78.2143 142.168 77.6804 142.054C77.1461 141.939 76.6135 141.819 76.0825 141.691C75.5514 141.564 75.0221 141.43 74.4944 141.289C73.9671 141.149 73.4413 141.002 72.9169 140.849C72.393 140.696 71.8709 140.536 71.3507 140.37C70.8305 140.205 70.3125 140.032 69.7966 139.854C69.2802 139.675 68.7663 139.49 68.2551 139.299C67.7434 139.108 67.2343 138.91 66.7278 138.707C66.2213 138.503 65.7174 138.293 65.216 138.077C64.7142 137.861 64.2153 137.639 63.7191 137.41C63.223 137.182 62.7299 136.948 62.2399 136.708C61.7494 136.468 61.262 136.221 60.7776 135.969C60.2932 135.717 59.8122 135.459 59.3344 135.195C58.8562 134.931 58.3815 134.661 57.9103 134.386C57.4386 134.11 56.9708 133.829 56.5067 133.542C56.042 133.255 55.5809 132.962 55.1235 132.664C54.6662 132.366 54.2126 132.062 53.7627 131.752C53.3127 131.443 52.8666 131.128 52.4244 130.808C51.9822 130.488 51.544 130.162 51.1097 129.831C50.6755 129.5 50.2454 129.164 49.8193 128.822C49.3933 128.48 48.9715 128.134 48.5539 127.782C48.1364 127.43 47.7233 127.073 47.3144 126.711C46.9057 126.349 46.5013 125.982 46.1015 125.61C45.7017 125.238 45.3064 124.861 44.9158 124.48C44.5252 124.098 44.1393 123.712 43.7582 123.321C43.377 122.93 43.0007 122.535 42.6292 122.135C42.2577 121.734 41.8911 121.329 41.5296 120.92C41.168 120.511 40.8115 120.097 40.46 119.68C40.1085 119.262 39.7622 118.84 39.4211 118.414C39.08 117.987 38.7441 117.557 38.4135 117.122C38.0828 116.687 37.7576 116.249 37.4377 115.806C36.7455 114.85 36.0773 113.878 35.4333 112.889C34.7892 111.899 34.1701 110.895 33.5758 109.875C32.9814 108.856 32.4127 107.822 31.8697 106.774C31.3265 105.726 30.8097 104.665 30.3192 103.591C30.2728 103.492 30.2111 103.37 30.1418 103.232C29.8337 102.62 29.3756 101.711 29.451 101.234L29.703 101.092ZM67.6339 133.065L64.966 123.446H66.4926L68.3667 130.895H68.4559L70.4052 123.446H71.9176L73.8668 130.9H73.9561L75.8255 123.446H77.3567L74.6841 133.065H73.2233L71.1989 125.86H71.1238L69.0994 133.065H67.6339ZM80.3961 133.065V123.446H78.9447V133.065H80.3961ZM90.5384 123.446V133.065H89.2044L84.3149 126.01H84.2256V133.065H82.7742V123.446H84.1176L89.0118 130.51H89.1011V123.446H90.5384ZM100.684 133.065V123.446H99.2468V130.51H99.1576L94.2633 123.446H92.92V133.065H94.3713V126.01H94.4606L99.3501 133.065H100.684ZM103.066 133.065V123.446H109.097V124.695H104.517V127.626H108.782V128.871H104.517V131.816H109.153V133.065H103.066ZM111.3 133.065V123.446H114.729C115.474 123.446 116.092 123.574 116.584 123.831C117.079 124.088 117.448 124.443 117.693 124.897C117.937 125.348 118.059 125.869 118.059 126.461C118.059 127.05 117.935 127.568 117.688 128.016C117.444 128.46 117.074 128.806 116.579 129.054C116.489 129.099 116.395 129.14 116.296 129.177L118.425 133.065H116.772L114.818 129.424L114.797 129.424L114.775 129.425C114.767 129.425 114.759 129.425 114.751 129.425C114.742 129.425 114.733 129.425 114.724 129.425H112.751V133.065H111.3ZM112.751 124.69V128.176H114.593C115.062 128.176 115.444 128.108 115.739 127.974C116.036 127.839 116.254 127.643 116.391 127.386C116.529 127.13 116.598 126.821 116.598 126.461C116.598 126.098 116.528 125.783 116.387 125.517C116.249 125.251 116.031 125.047 115.734 124.906C115.44 124.762 115.053 124.69 114.574 124.69H112.751ZM74.9263 115.544V114.078L78.3503 110.908C78.6416 110.626 78.8858 110.373 79.0831 110.147C79.2835 109.922 79.4353 109.701 79.5387 109.485C79.642 109.266 79.6937 109.029 79.6937 108.776C79.6937 108.494 79.6295 108.251 79.5011 108.048C79.3727 107.841 79.1974 107.683 78.975 107.573C78.7527 107.46 78.5007 107.404 78.2188 107.404C77.9245 107.404 77.6677 107.464 77.4485 107.582C77.2293 107.701 77.0602 107.872 76.9413 108.094C76.8223 108.317 76.7628 108.581 76.7628 108.888H74.8323C74.8323 108.259 74.9748 107.712 75.2597 107.249C75.5447 106.786 75.9439 106.427 76.4575 106.173C76.971 105.92 77.5628 105.793 78.2329 105.793C78.9218 105.793 79.5215 105.915 80.0319 106.159C80.5454 106.4 80.9446 106.735 81.2296 107.164C81.5145 107.593 81.657 108.085 81.657 108.639C81.657 109.003 81.585 109.361 81.441 109.715C81.3 110.069 81.048 110.462 80.6848 110.894C80.3215 111.323 79.8095 111.838 79.1488 112.439L77.7444 113.815V113.881H81.7838V115.544H74.9263ZM85.2082 115.159C85.7906 115.553 86.4857 115.752 87.2936 115.755C88.1015 115.755 88.7951 115.558 89.3744 115.163C89.9537 114.769 90.3983 114.197 90.7083 113.449C91.0215 112.701 91.178 111.799 91.178 110.744C91.1811 109.695 91.0262 108.802 90.713 108.066C90.3999 107.327 89.9521 106.764 89.3697 106.375C88.7904 105.987 88.0984 105.793 87.2936 105.793C86.4889 105.793 85.7953 105.987 85.2129 106.375C84.6336 106.761 84.1873 107.323 83.8742 108.062C83.5642 108.801 83.4092 109.695 83.4092 110.744C83.4061 111.796 83.5595 112.696 83.8695 113.444C84.1827 114.193 84.6289 114.764 85.2082 115.159ZM87.2936 114.069C87.8447 114.069 88.2847 113.792 88.6135 113.238C88.9423 112.683 89.1051 111.852 89.102 110.744C89.102 110.014 89.0268 109.406 88.8765 108.921C88.7293 108.436 88.5195 108.071 88.2471 107.827C87.9778 107.582 87.66 107.46 87.2936 107.46C86.7456 107.46 86.3073 107.734 85.9785 108.282C85.6497 108.83 85.4837 109.651 85.4806 110.744C85.4806 111.483 85.5542 112.099 85.7013 112.594C85.8516 113.086 86.063 113.455 86.3354 113.703C86.6079 113.947 86.9273 114.069 87.2936 114.069ZM92.8927 115.544V114.078L96.3168 110.908C96.608 110.626 96.8523 110.373 97.0495 110.147C97.2499 109.922 97.4018 109.701 97.5051 109.485C97.6085 109.266 97.6601 109.029 97.6601 108.776C97.6601 108.494 97.596 108.251 97.4676 108.048C97.3392 107.841 97.1638 107.683 96.9415 107.573C96.7192 107.46 96.4671 107.404 96.1853 107.404C95.891 107.404 95.6342 107.464 95.415 107.582C95.1958 107.701 95.0267 107.872 94.9077 108.094C94.7887 108.317 94.7292 108.581 94.7292 108.888H92.7988C92.7988 108.259 92.9413 107.712 93.2262 107.249C93.5112 106.786 93.9104 106.427 94.4239 106.173C94.9375 105.92 95.5293 105.793 96.1994 105.793C96.8883 105.793 97.4879 105.915 97.9983 106.159C98.5119 106.4 98.9111 106.735 99.1961 107.164C99.481 107.593 99.6235 108.085 99.6235 108.639C99.6235 109.003 99.5515 109.361 99.4074 109.715C99.2665 110.069 99.0145 110.462 98.6512 110.894C98.288 111.323 97.776 111.838 97.1153 112.439L95.7109 113.815V113.881H99.7503V115.544H92.8927ZM101.136 113.853V112.251L105.152 105.924H105.791H106.533H107.698V112.223H108.891V113.853H107.698V115.544H105.753V113.853H101.136ZM105.791 108.141H105.716L103.184 112.148V112.223H105.791V108.141Z" fill="#8C6E47"/>
<path fill-rule="evenodd" clip-rule="evenodd" d="M88.4424 9.66328C88.2973 9.66719 88.1524 9.67412 88.0077 9.68406C84.7058 9.96796 81.4229 10.296 78.1725 10.9702C77.7183 11.0645 77.2652 11.1636 76.8134 11.2673C76.3611 11.3711 75.9101 11.4795 75.4607 11.5926C75.0107 11.7057 74.5621 11.8235 74.115 11.9458C73.6674 12.0682 73.2212 12.1953 72.7764 12.3269C72.3316 12.4586 71.8885 12.5948 71.447 12.7357C71.005 12.8765 70.5645 13.0219 70.1253 13.1719C69.6867 13.3219 69.2494 13.4764 68.8136 13.6355C68.3778 13.7945 67.9438 13.9581 67.5117 14.1262C67.0792 14.2942 66.6488 14.4668 66.2205 14.6437C65.7917 14.8208 65.3649 15.0022 64.9399 15.188C64.5149 15.3738 64.0918 15.5641 63.6705 15.7587C63.2498 15.9533 62.8309 16.1523 62.4139 16.3556C61.9969 16.5589 61.5823 16.7665 61.17 16.9784C60.7573 17.1903 60.3469 17.4065 59.9388 17.6269C59.5308 17.8473 59.1251 18.0719 58.7218 18.3008C58.3185 18.5296 57.9175 18.7626 57.5189 18.9998C57.1203 19.237 56.724 19.4782 56.3301 19.7236C55.9367 19.9689 55.5458 20.2184 55.1574 20.4719C54.769 20.7254 54.3832 20.9828 54.0002 21.2443C53.6171 21.5058 53.2368 21.7712 52.8592 22.0406C52.4817 22.31 52.107 22.5832 51.7351 22.8604C51.3632 23.1375 50.9942 23.4185 50.6281 23.7033C50.2621 23.9881 49.899 24.2767 49.5389 24.569C49.1788 24.8613 48.8218 25.1574 48.4679 25.4571C48.1139 25.7569 47.7631 26.0603 47.4155 26.3672C47.0679 26.6743 46.7235 26.9849 46.3822 27.299C46.0411 27.6132 45.7032 27.9308 45.3685 28.252C45.034 28.5732 44.7027 28.8978 44.3748 29.2258C44.0469 29.5539 43.7225 29.8853 43.4015 30.22C43.0805 30.5548 42.763 30.8929 42.449 31.2342C42.135 31.5756 41.8246 31.9202 41.5178 32.268C41.2109 32.6158 40.9077 32.9667 40.6082 33.3208C30.5019 45.3111 25.2659 59.7201 24.7496 75.3345L151.027 75.3571C151.756 75.3573 152.488 75.3633 153.22 75.3693H153.22H153.22H153.221H153.221H153.221H153.221H153.222H153.222H153.222H153.222H153.223H153.223H153.223H153.223H153.223H153.224H153.224H153.224H153.224H153.225H153.225H153.225H153.225H153.226H153.226H153.226H153.226H153.226H153.227H153.227H153.227H153.227H153.228H153.228H153.228H153.228H153.229H153.229H153.229H153.229H153.229H153.23H153.23H153.23H153.23H153.231H153.231H153.231H153.231H153.231H153.232H153.232H153.232H153.232H153.233H153.233H153.233H153.233H153.234H153.234H153.234H153.234H153.234H153.235H153.235H153.235H153.235H153.236H153.236H153.236H153.236H153.237H153.237H153.237H153.237H153.237H153.238H153.238H153.238H153.238H153.239H153.239H153.239H153.239H153.24H153.24C155.067 75.3842 156.899 75.3992 158.717 75.3239C158.17 57.1376 150.905 40.299 137.603 27.7889C123.949 14.9477 107.044 9.10932 88.4424 9.66328ZM60.7424 66.6306H58.0892L62.1319 54.92H65.3226L69.3595 66.6306H66.7064L65.8393 63.9602H61.6111L60.7424 66.6306ZM65.2118 62.0275L63.773 57.596H63.6815L62.2399 62.0275H65.2118ZM68.2309 54.92L71.5817 66.6306H73.9947L76.219 58.9741H76.3105L78.5406 66.6306H80.9536L84.3044 54.92H81.5997L79.6613 63.0739H79.5584L77.4255 54.92H75.1097L72.9712 63.0568H72.874L70.9355 54.92H68.2309ZM85.8244 66.6306L86.6931 63.9602H90.9213L91.7884 66.6306H94.4416L90.4046 54.92H87.2139L83.1712 66.6306H85.8244ZM88.855 57.596L90.2938 62.0275H87.3219L88.7635 57.596H88.855ZM95.2071 54.92V66.6306H97.683V62.4793H99.4903L101.709 66.6306H104.442L101.957 62.0811C101.993 62.0656 102.028 62.0496 102.063 62.0332C102.7 61.7359 103.186 61.309 103.521 60.7524C103.857 60.192 104.024 59.523 104.024 58.7454C104.024 57.9715 103.859 57.2987 103.527 56.7269C103.199 56.1513 102.721 55.7072 102.092 55.3946C101.466 55.0782 100.712 54.92 99.8273 54.92H95.2071ZM99.3641 60.4894H97.683V56.9442H99.3527C99.8292 56.9442 100.224 57.0147 100.536 57.1557C100.853 57.293 101.087 57.495 101.24 57.7619C101.396 58.0287 101.474 58.3565 101.474 58.7454C101.474 59.1304 101.396 59.4525 101.24 59.7117C101.087 59.9709 100.855 60.1653 100.542 60.295C100.229 60.4246 99.8368 60.4894 99.3641 60.4894ZM109.281 66.6306H105.13V54.92H109.316C110.494 54.92 111.508 55.1544 112.358 55.6233C113.208 56.0884 113.861 56.7574 114.319 57.6303C114.78 58.5033 115.011 59.5478 115.011 60.7638C115.011 61.9837 114.78 63.032 114.319 63.9088C113.861 64.7855 113.204 65.4584 112.346 65.9272C111.492 66.3961 110.471 66.6306 109.281 66.6306ZM109.178 64.5092H107.606V57.0414H109.184C109.916 57.0414 110.532 57.171 111.031 57.4302C111.53 57.6894 111.906 58.0935 112.157 58.6424C112.413 59.1914 112.541 59.8985 112.541 60.7638C112.541 61.6368 112.413 62.3496 112.157 62.9024C111.906 63.4513 111.528 63.8573 111.025 64.1203C110.526 64.3796 109.91 64.5092 109.178 64.5092ZM121.964 57.2129C122.311 57.4683 122.508 57.8267 122.553 58.2879H124.926C124.915 57.5903 124.728 56.9766 124.366 56.4467C124.004 55.9168 123.497 55.5032 122.845 55.2059C122.197 54.9085 121.438 54.7599 120.569 54.7599C119.715 54.7599 118.953 54.9085 118.282 55.2059C117.611 55.5032 117.083 55.9168 116.698 56.4467C116.317 56.9766 116.128 57.596 116.132 58.3051C116.128 59.1704 116.412 59.8585 116.984 60.3693C117.556 60.8801 118.335 61.2556 119.323 61.4958L120.598 61.816C121.025 61.9189 121.385 62.0332 121.679 62.159C121.976 62.2848 122.201 62.4373 122.353 62.6165C122.51 62.7957 122.588 63.0168 122.588 63.2798C122.588 63.5619 122.502 63.8116 122.33 64.0289C122.159 64.2461 121.917 64.4158 121.604 64.5378C121.295 64.6597 120.931 64.7207 120.512 64.7207C120.085 64.7207 119.702 64.6559 119.363 64.5263C119.027 64.3929 118.759 64.1966 118.556 63.9374C118.358 63.6743 118.246 63.3465 118.219 62.9539H115.823C115.842 63.7963 116.046 64.5034 116.435 65.0753C116.828 65.6432 117.373 66.0721 118.07 66.3618C118.772 66.6515 119.595 66.7964 120.541 66.7964C121.494 66.7964 122.308 66.6534 122.982 66.3675C123.661 66.0778 124.179 65.6718 124.538 65.1496C124.9 64.6235 125.083 64.0022 125.086 63.2855C125.083 62.7976 124.993 62.3649 124.818 61.9875C124.646 61.6101 124.404 61.2823 124.092 61.004C123.779 60.7257 123.409 60.4913 122.982 60.3007C122.555 60.1101 122.086 59.9576 121.576 59.8432L120.523 59.5916C120.268 59.5345 120.028 59.4658 119.803 59.3858C119.578 59.3019 119.38 59.2047 119.208 59.0942C119.037 58.9798 118.901 58.8445 118.802 58.6882C118.707 58.5319 118.663 58.3489 118.671 58.1393C118.671 57.8877 118.743 57.6627 118.888 57.4645C119.037 57.2663 119.25 57.1119 119.529 57.0014C119.807 56.887 120.148 56.8298 120.552 56.8298C121.147 56.8298 121.618 56.9575 121.964 57.2129ZM138.931 40.736C138.891 40.381 138.726 40.106 138.436 39.911C138.146 39.7136 137.781 39.6148 137.341 39.6148C137.026 39.6148 136.754 39.6648 136.524 39.7648C136.294 39.8623 136.115 39.9973 135.988 40.1698C135.863 40.3397 135.8 40.5335 135.8 40.7509C135.8 40.9334 135.843 41.0909 135.928 41.2234C136.015 41.3559 136.129 41.4671 136.269 41.5571C136.411 41.6446 136.564 41.7183 136.726 41.7783C136.889 41.8358 137.045 41.8833 137.195 41.9208L137.945 42.1158C138.19 42.1758 138.441 42.257 138.699 42.3595C138.956 42.462 139.195 42.597 139.415 42.7645C139.635 42.9319 139.812 43.1394 139.947 43.3869C140.085 43.6343 140.153 43.9306 140.153 44.2755C140.153 44.7105 140.041 45.0967 139.816 45.4341C139.593 45.7716 139.27 46.0378 138.845 46.2328C138.422 46.4278 137.911 46.5253 137.311 46.5253C136.736 46.5253 136.239 46.434 135.819 46.2515C135.399 46.0691 135.07 45.8103 134.833 45.4754C134.595 45.1379 134.464 44.738 134.439 44.2755H135.601C135.624 44.553 135.714 44.7842 135.871 44.9692C136.031 45.1517 136.235 45.2879 136.483 45.3779C136.733 45.4654 137.006 45.5091 137.304 45.5091C137.631 45.5091 137.922 45.4579 138.177 45.3554C138.435 45.2504 138.637 45.1054 138.785 44.9204C138.932 44.733 139.006 44.5142 139.006 44.2643C139.006 44.0368 138.941 43.8506 138.811 43.7056C138.684 43.5606 138.51 43.4406 138.29 43.3456C138.072 43.2506 137.826 43.1669 137.551 43.0944L136.644 42.8469C136.029 42.6795 135.541 42.4332 135.182 42.1083C134.824 41.7833 134.645 41.3534 134.645 40.8184C134.645 40.376 134.765 39.9898 135.005 39.6598C135.245 39.3299 135.57 39.0737 135.98 38.8912C136.39 38.7062 136.853 38.6137 137.367 38.6137C137.887 38.6137 138.346 38.7049 138.744 38.8874C139.144 39.0699 139.458 39.3211 139.688 39.6411C139.918 39.9585 140.038 40.3235 140.048 40.736H138.931ZM131.852 39.911C132.142 40.106 132.307 40.381 132.347 40.736H133.465C133.455 40.3235 133.335 39.9585 133.105 39.6411C132.875 39.3211 132.56 39.0699 132.16 38.8874C131.762 38.7049 131.304 38.6137 130.784 38.6137C130.269 38.6137 129.806 38.7062 129.396 38.8912C128.986 39.0737 128.661 39.3299 128.421 39.6598C128.181 39.9898 128.061 40.376 128.061 40.8184C128.061 41.3534 128.24 41.7833 128.598 42.1083C128.958 42.4332 129.445 42.6795 130.06 42.8469L130.967 43.0944C131.242 43.1669 131.489 43.2506 131.706 43.3456C131.926 43.4406 132.1 43.5606 132.227 43.7056C132.357 43.8506 132.422 44.0368 132.422 44.2643C132.422 44.5142 132.348 44.733 132.201 44.9204C132.053 45.1054 131.851 45.2504 131.594 45.3554C131.339 45.4579 131.047 45.5091 130.72 45.5091C130.422 45.5091 130.149 45.4654 129.899 45.3779C129.651 45.2879 129.448 45.1517 129.288 44.9692C129.13 44.7842 129.04 44.553 129.018 44.2755H127.855C127.88 44.738 128.011 45.1379 128.249 45.4754C128.486 45.8103 128.815 46.0691 129.235 46.2515C129.655 46.434 130.152 46.5253 130.727 46.5253C131.327 46.5253 131.838 46.4278 132.261 46.2328C132.686 46.0378 133.01 45.7716 133.232 45.4341C133.457 45.0967 133.57 44.7105 133.57 44.2755C133.57 43.9306 133.501 43.6343 133.363 43.3869C133.228 43.1394 133.051 42.9319 132.831 42.7645C132.611 42.597 132.372 42.462 132.115 42.3595C131.857 42.257 131.606 42.1758 131.361 42.1158L130.611 41.9208C130.461 41.8833 130.305 41.8358 130.142 41.7783C129.98 41.7183 129.827 41.6446 129.685 41.5571C129.545 41.4671 129.431 41.3559 129.344 41.2234C129.259 41.0909 129.216 40.9334 129.216 40.7509C129.216 40.5335 129.279 40.3397 129.404 40.1698C129.531 39.9973 129.71 39.8623 129.94 39.7648C130.17 39.6648 130.442 39.6148 130.757 39.6148C131.197 39.6148 131.562 39.7136 131.852 39.911ZM122.008 46.3978V38.7187H126.823V39.7161H123.167V42.0558H126.571V43.0494H123.167V45.4004H126.868V46.3978H122.008ZM120.529 46.3978V38.7187H119.382V44.358H119.311L115.404 38.7187H114.331V46.3978H115.49V40.7659H115.561L119.464 46.3978H120.529ZM112.855 38.7187V46.3978H111.696V38.7187H112.855ZM108.806 39.911C109.096 40.106 109.261 40.381 109.301 40.736H110.418C110.408 40.3235 110.288 39.9585 110.058 39.6411C109.828 39.3211 109.513 39.0699 109.113 38.8874C108.716 38.7049 108.257 38.6137 107.737 38.6137C107.222 38.6137 106.76 38.7062 106.35 38.8912C105.94 39.0737 105.615 39.3299 105.375 39.6598C105.135 39.9898 105.015 40.376 105.015 40.8184C105.015 41.3534 105.194 41.7833 105.551 42.1083C105.911 42.4332 106.399 42.6795 107.013 42.8469L107.921 43.0944C108.196 43.1669 108.442 43.2506 108.66 43.3456C108.88 43.4406 109.053 43.5606 109.181 43.7056C109.311 43.8506 109.376 44.0368 109.376 44.2643C109.376 44.5142 109.302 44.733 109.154 44.9204C109.007 45.1054 108.805 45.2504 108.547 45.3554C108.292 45.4579 108.001 45.5091 107.673 45.5091C107.376 45.5091 107.102 45.4654 106.852 45.3779C106.605 45.2879 106.401 45.1517 106.241 44.9692C106.084 44.7842 105.994 44.553 105.971 44.2755H104.809C104.834 44.738 104.965 45.1379 105.202 45.4754C105.44 45.8103 105.769 46.0691 106.189 46.2515C106.609 46.434 107.106 46.5253 107.681 46.5253C108.281 46.5253 108.792 46.4278 109.214 46.2328C109.639 46.0378 109.963 45.7716 110.186 45.4341C110.411 45.0967 110.523 44.7105 110.523 44.2755C110.523 43.9306 110.454 43.6343 110.317 43.3869C110.182 43.1394 110.004 42.9319 109.784 42.7645C109.564 42.597 109.326 42.462 109.068 42.3595C108.811 42.257 108.56 42.1758 108.315 42.1158L107.565 41.9208C107.415 41.8833 107.258 41.8358 107.096 41.7783C106.933 41.7183 106.781 41.6446 106.639 41.5571C106.499 41.4671 106.385 41.3559 106.297 41.2234C106.212 41.0909 106.17 40.9334 106.17 40.7509C106.17 40.5335 106.232 40.3397 106.357 40.1698C106.485 39.9973 106.664 39.8623 106.893 39.7648C107.123 39.6648 107.396 39.6148 107.711 39.6148C108.151 39.6148 108.516 39.7136 108.806 39.911ZM102.477 38.7187H103.639V43.7693C103.639 44.3068 103.513 44.783 103.26 45.1979C103.008 45.6104 102.653 45.9353 102.196 46.1728C101.738 46.4078 101.202 46.5253 100.587 46.5253C99.9746 46.5253 99.4396 46.4078 98.9822 46.1728C98.5247 45.9353 98.1698 45.6104 97.9173 45.1979C97.6648 44.783 97.5386 44.3068 97.5386 43.7693V38.7187H98.6972V43.6756C98.6972 44.0231 98.7735 44.3318 98.9259 44.6017C99.0809 44.8717 99.2996 45.0842 99.5821 45.2392C99.8646 45.3916 100.2 45.4679 100.587 45.4679C100.977 45.4679 101.313 45.3916 101.596 45.2392C101.881 45.0842 102.098 44.8717 102.248 44.6017C102.401 44.3318 102.477 44.0231 102.477 43.6756V38.7187ZM90.8413 38.7187V46.3978H93.7846C94.3796 46.3978 94.8683 46.3078 95.2507 46.1278C95.6332 45.9453 95.9156 45.6991 96.0981 45.3891C96.2831 45.0767 96.3756 44.7242 96.3756 44.3318C96.3756 43.9343 96.2956 43.5969 96.1356 43.3194C95.9756 43.0419 95.7732 42.8282 95.5282 42.6782C95.2857 42.5257 95.037 42.4432 94.782 42.4308V42.3558C95.017 42.2958 95.232 42.2008 95.4269 42.0708C95.6244 41.9383 95.7819 41.7633 95.8994 41.5459C96.0169 41.3259 96.0756 41.0559 96.0756 40.736C96.0756 40.356 95.9869 40.0148 95.8094 39.7123C95.6319 39.4074 95.3645 39.1661 95.007 38.9887C94.6495 38.8087 94.1983 38.7187 93.6534 38.7187H90.8413ZM91.9999 45.4041H93.6722C94.2271 45.4041 94.6245 45.2967 94.8645 45.0817C95.1045 44.8667 95.2245 44.598 95.2245 44.2755C95.2245 44.0331 95.1632 43.8106 95.0407 43.6081C94.9183 43.4056 94.7433 43.2444 94.5158 43.1244C94.2908 43.0044 94.0234 42.9444 93.7134 42.9444H91.9999V45.4041ZM91.9999 42.0408H93.5522C93.8121 42.0408 94.0459 41.9908 94.2533 41.8908C94.4633 41.7908 94.6295 41.6508 94.752 41.4709C94.877 41.2884 94.9395 41.0734 94.9395 40.8259C94.9395 40.5085 94.8283 40.2423 94.6058 40.0273C94.3833 39.8123 94.0421 39.7048 93.5822 39.7048H91.9999V42.0408ZM48.1163 46.2365L48.7697 47.0877H49.9546L48.9218 45.7399C49.2573 45.4556 49.5341 45.0999 49.7521 44.673C50.0521 44.083 50.2021 43.3781 50.2021 42.5582C50.2021 41.7383 50.0521 41.0347 49.7521 40.4472C49.4522 39.8573 49.041 39.4049 48.5185 39.0899C47.9986 38.7724 47.4074 38.6137 46.745 38.6137C46.0801 38.6137 45.4864 38.7724 44.964 39.0899C44.444 39.4049 44.0341 39.8573 43.7341 40.4472C43.4341 41.0347 43.2842 41.7383 43.2842 42.5582C43.2842 43.3756 43.4341 44.0793 43.7341 44.6692C44.0341 45.2592 44.444 45.7128 44.964 46.0303C45.4864 46.3453 46.0801 46.5028 46.745 46.5028C47.2422 46.5028 47.6994 46.414 48.1163 46.2365ZM48.751 44.1405C48.6142 44.4328 48.4424 44.6772 48.2355 44.8737L47.4949 43.9081H46.355L47.4474 45.3397C47.228 45.4102 46.9939 45.4454 46.745 45.4454C46.3025 45.4454 45.9076 45.3354 45.5601 45.1154C45.2127 44.8929 44.9377 44.568 44.7352 44.1405C44.5353 43.7106 44.4353 43.1832 44.4353 42.5582C44.4353 41.9333 44.5353 41.4071 44.7352 40.9797C44.9377 40.5497 45.2127 40.2248 45.5601 40.0048C45.9076 39.7823 46.3025 39.6711 46.745 39.6711C47.1849 39.6711 47.5786 39.7823 47.9261 40.0048C48.2761 40.2248 48.551 40.5497 48.751 40.9797C48.9535 41.4071 49.0547 41.9333 49.0547 42.5582C49.0547 43.1832 48.9535 43.7106 48.751 44.1405ZM56.3734 38.7187H57.5358V43.7693C57.5358 44.3068 57.4096 44.783 57.1571 45.1979C56.9046 45.6104 56.5497 45.9353 56.0922 46.1728C55.6348 46.4078 55.0986 46.5253 54.4837 46.5253C53.8712 46.5253 53.3363 46.4078 52.8789 46.1728C52.4214 45.9353 52.0665 45.6104 51.814 45.1979C51.5615 44.783 51.4353 44.3068 51.4353 43.7693V38.7187H52.5939V43.6756C52.5939 44.0231 52.6701 44.3318 52.8226 44.6017C52.9776 44.8717 53.1963 45.0842 53.4788 45.2392C53.7613 45.3916 54.0962 45.4679 54.4837 45.4679C54.8736 45.4679 55.2098 45.3916 55.4923 45.2392C55.7773 45.0842 55.9947 44.8717 56.1447 44.6017C56.2972 44.3318 56.3734 44.0231 56.3734 43.6756V38.7187ZM63.3615 44.3655H60.3611L59.6578 46.3978H58.428L61.1914 38.7187H62.53L65.2934 46.3978H64.0636L63.3615 44.3655ZM60.6985 43.3906L61.8326 40.1135H61.8926L63.0247 43.3906H60.6985ZM66.1913 38.7187V46.3978H70.8295V45.4004H67.3499V38.7187H66.1913ZM73.0986 38.7187V46.3978H71.94V38.7187H73.0986ZM74.196 38.7187V39.7161H76.5882V46.3978H77.743V39.7161H80.139V38.7187H74.196ZM80.6487 38.7187H81.9648L83.9708 42.2095H84.0533L86.0593 38.7187H87.3754L84.5894 43.3831V46.3978H83.4346V43.3831L80.6487 38.7187ZM83.739 26.3948L82.8775 23.7434C82.7838 23.4552 82.376 23.4552 82.2824 23.7434L81.4209 26.3948C81.379 26.5237 81.2589 26.611 81.1233 26.611H78.3355C78.0324 26.611 77.9064 26.9988 78.1516 27.177L80.407 28.8156C80.5166 28.8953 80.5625 29.0365 80.5206 29.1654L79.6591 31.8168C79.5655 32.1051 79.8954 32.3448 80.1406 32.1666L82.396 30.528C82.5057 30.4483 82.6542 30.4483 82.7638 30.528L85.0192 32.1666C85.2644 32.3448 85.5944 32.1051 85.5007 31.8168L84.6392 29.1654C84.5973 29.0365 84.6432 28.8953 84.7529 28.8156L87.0083 27.177C87.2535 26.9988 87.1275 26.611 86.8244 26.611H84.0365C83.901 26.611 83.7809 26.5237 83.739 26.3948ZM92.003 19.7803L93.2274 23.5487C93.2693 23.6776 93.3895 23.7649 93.525 23.7649L97.4873 23.7649C97.7904 23.7649 97.9164 24.1527 97.6712 24.3309L94.4657 26.6599C94.356 26.7395 94.3101 26.8808 94.352 27.0097L95.5764 30.778C95.6701 31.0663 95.3401 31.306 95.0949 31.1279L91.8894 28.7989C91.7797 28.7192 91.6312 28.7192 91.5215 28.7989L88.316 31.1279C88.0708 31.306 87.7408 31.0663 87.8345 30.778L89.0589 27.0097C89.1008 26.8807 89.0549 26.7395 88.9453 26.6599L85.7397 24.3309C85.4945 24.1527 85.6205 23.7649 85.9236 23.7649L89.8859 23.7649C90.0214 23.7649 90.1416 23.6776 90.1835 23.5487L91.4079 19.7803C91.5016 19.492 91.9094 19.492 92.003 19.7803ZM101.99 26.3948L101.129 23.7434C101.035 23.4552 100.627 23.4552 100.534 23.7434L99.6721 26.3948C99.6302 26.5237 99.5101 26.611 99.3745 26.611H96.5867C96.2836 26.611 96.1576 26.9988 96.4028 27.177L98.6582 28.8156C98.7679 28.8953 98.8138 29.0365 98.7719 29.1654L97.9104 31.8168C97.8167 32.1051 98.1466 32.3448 98.3919 32.1666L100.647 30.528C100.757 30.4483 100.905 30.4483 101.015 30.528L103.27 32.1666C103.516 32.3448 103.846 32.1051 103.752 31.8168L102.89 29.1654C102.849 29.0365 102.894 28.8953 103.004 28.8156L105.26 27.177C105.505 26.9988 105.379 26.611 105.076 26.611H102.288C102.152 26.611 102.032 26.5237 101.99 26.3948Z" fill="#8C6E47"/>
</g>
</svg>
