<svg width="38" height="38" viewBox="0 0 38 38" fill="none" xmlns="http://www.w3.org/2000/svg">
<g clip-path="url(#clip0_1920_36727)">
<path d="M19 37.5C29.2173 37.5 37.5 29.2173 37.5 19C37.5 8.78273 29.2173 0.5 19 0.5C8.78273 0.5 0.5 8.78273 0.5 19C0.5 29.2173 8.78273 37.5 19 37.5Z" stroke="#8C6E47"/>
<path d="M16.788 27.667V19.496H15.634C15.4659 19.4957 15.3048 19.4288 15.186 19.31C15.0671 19.1912 15.0003 19.0301 15 18.862V16.275C15.0005 16.107 15.0675 15.9461 15.1863 15.8273C15.3051 15.7085 15.466 15.6415 15.634 15.641H16.788V13.561C16.7883 12.6165 17.1637 11.7107 17.8316 11.0429C18.4996 10.3751 19.4055 10 20.35 10H23.311C23.4791 10 23.6404 10.0668 23.7593 10.1857C23.8782 10.3046 23.945 10.4658 23.945 10.634V13.22C23.945 13.3881 23.8782 13.5494 23.7593 13.6683C23.6404 13.7872 23.4791 13.854 23.311 13.854H21.558C21.4614 13.8545 21.3688 13.8931 21.3005 13.9615C21.2321 14.0298 21.1935 14.1224 21.193 14.219V15.642H23.272C23.4401 15.6423 23.6012 15.7091 23.72 15.828C23.8389 15.9468 23.9057 16.1079 23.906 16.276C23.844 17.152 23.759 18.038 23.684 18.916C23.6705 19.0745 23.5981 19.2221 23.4811 19.3298C23.3641 19.4376 23.211 19.4976 23.052 19.498H21.192V27.669C21.1917 27.8371 21.1249 27.9982 21.006 28.117C20.8872 28.2359 20.7261 28.3027 20.558 28.303H17.421C17.2528 28.3025 17.0916 28.2352 16.9729 28.1159C16.8542 27.9967 16.7877 27.8352 16.788 27.667ZM17.617 27.474H20.365V18.667H22.876L23.062 16.467H20.362V14.22C20.362 13.9036 20.4877 13.6001 20.7114 13.3764C20.9351 13.1527 21.2386 13.027 21.555 13.027H23.114V10.827H20.349C19.6243 10.827 18.9293 11.1148 18.4168 11.6271C17.9043 12.1394 17.6163 12.8343 17.616 13.559V16.467H15.828V18.667H17.616L17.617 27.474Z" fill="#8C6E47" stroke="#8C6E47" stroke-width="0.1"/>
</g>
<defs>
<clipPath id="clip0_1920_36727">
<rect width="38" height="38" fill="white"/>
</clipPath>
</defs>
</svg>
