<svg width="38" height="38" viewBox="0 0 38 38" fill="none" xmlns="http://www.w3.org/2000/svg">
<g clip-path="url(#clip0_1920_36734)">
<path d="M19 37.5C29.2173 37.5 37.5 29.2173 37.5 19C37.5 8.78273 29.2173 0.5 19 0.5C8.78273 0.5 0.5 8.78273 0.5 19C0.5 29.2173 8.78273 37.5 19 37.5Z" stroke="#8C6E47"/>
<path fill-rule="evenodd" clip-rule="evenodd" d="M27.6369 14.4759C27.6364 13.2455 27.1474 12.0656 26.2773 11.1955C25.4073 10.3255 24.2274 9.83647 22.9969 9.83594H14.4759C13.2455 9.83647 12.0656 10.3255 11.1955 11.1955C10.3255 12.0656 9.83647 13.2455 9.83594 14.4759V22.9959C9.83647 24.2264 10.3255 25.4063 11.1955 26.2763C12.0656 27.1464 13.2455 27.6354 14.4759 27.6359H22.9959C24.2264 27.6354 25.4063 27.1464 26.2763 26.2763C27.1464 25.4063 27.6354 24.2264 27.6359 22.9959L27.6369 14.4759ZM26.8759 14.4759V22.9959C26.8757 24.0249 26.4668 25.0116 25.7392 25.7392C25.0116 26.4668 24.0249 26.8757 22.9959 26.8759H14.4759C13.447 26.8757 12.4602 26.4668 11.7327 25.7392C11.0051 25.0116 10.5962 24.0249 10.5959 22.9959V14.4759C10.5962 13.447 11.0051 12.4602 11.7327 11.7327C12.4602 11.0051 13.447 10.5962 14.4759 10.5959H22.9959C24.0249 10.5962 25.0116 11.0051 25.7392 11.7327C26.4668 12.4602 26.8757 13.447 26.8759 14.4759Z" fill="#8C6E47" stroke="#8C6E47" stroke-width="0.2"/>
<path fill-rule="evenodd" clip-rule="evenodd" d="M18.7225 14.3242C17.8503 14.3242 16.9977 14.5829 16.2724 15.0674C15.5472 15.552 14.982 16.2408 14.6482 17.0466C14.3144 17.8524 14.2271 18.7391 14.3972 19.5946C14.5674 20.45 14.9874 21.2358 15.6042 21.8526C16.2209 22.4693 17.0067 22.8893 17.8622 23.0595C18.7176 23.2296 19.6043 23.1423 20.4101 22.8085C21.216 22.4747 21.9047 21.9095 22.3893 21.1843C22.8739 20.4591 23.1325 19.6064 23.1325 18.7342C23.132 17.5648 22.6672 16.4434 21.8403 15.6165C21.0133 14.7895 19.8919 14.3247 18.7225 14.3242ZM18.7225 15.0842C19.4442 15.0842 20.1496 15.2982 20.7497 15.6991C21.3497 16.1 21.8174 16.6699 22.0936 17.3366C22.3699 18.0033 22.4422 18.7369 22.3015 19.4447C22.1607 20.1525 21.8133 20.8027 21.3031 21.3131C20.7929 21.8235 20.1428 22.1711 19.435 22.312C18.7272 22.4529 17.9936 22.3808 17.3268 22.1047C16.66 21.8287 16.09 21.3612 15.689 20.7612C15.2879 20.1613 15.0737 19.4559 15.0735 18.7342C15.0751 17.7673 15.4602 16.8405 16.1443 16.1572C16.8284 15.4738 17.7556 15.0897 18.7225 15.0892V15.0842Z" fill="#8C6E47" stroke="#8C6E47" stroke-width="0.2"/>
<path fill-rule="evenodd" clip-rule="evenodd" d="M23.8955 12.2695C23.6403 12.2695 23.3909 12.3452 23.1788 12.4869C22.9666 12.6287 22.8013 12.8302 22.7037 13.0659C22.606 13.3016 22.5805 13.561 22.6303 13.8112C22.68 14.0614 22.8029 14.2913 22.9833 14.4717C23.1637 14.6521 23.3936 14.775 23.6438 14.8247C23.894 14.8745 24.1534 14.849 24.3891 14.7513C24.6248 14.6537 24.8263 14.4884 24.9681 14.2762C25.1098 14.0641 25.1855 13.8147 25.1855 13.5595C25.1855 13.2174 25.0496 12.8893 24.8076 12.6474C24.5657 12.4054 24.2376 12.2695 23.8955 12.2695ZM23.8955 13.0285C24.0005 13.0285 24.1032 13.0597 24.1905 13.118C24.2778 13.1764 24.3459 13.2593 24.386 13.3563C24.4262 13.4534 24.4368 13.5601 24.4163 13.6631C24.3958 13.7661 24.3452 13.8607 24.2709 13.935C24.1967 14.0093 24.1021 14.0598 23.9991 14.0803C23.8961 14.1008 23.7893 14.0903 23.6923 14.0501C23.5952 14.0099 23.5123 13.9419 23.454 13.8545C23.3956 13.7672 23.3645 13.6646 23.3645 13.5595C23.3645 13.4898 23.3782 13.4208 23.4049 13.3563C23.4316 13.2919 23.4707 13.2334 23.52 13.1841C23.5693 13.1347 23.6278 13.0956 23.6923 13.069C23.7567 13.0423 23.8257 13.0285 23.8955 13.0285Z" fill="#8C6E47" stroke="#8C6E47" stroke-width="0.2"/>
</g>
<defs>
<clipPath id="clip0_1920_36734">
<rect width="38" height="38" fill="white"/>
</clipPath>
</defs>
</svg>
