<svg width="38" height="38" viewBox="0 0 38 38" fill="none" xmlns="http://www.w3.org/2000/svg">
<g clip-path="url(#clip0_1920_36720)">
<path d="M19 37.5C29.2173 37.5 37.5 29.2173 37.5 19C37.5 8.78273 29.2173 0.5 19 0.5C8.78273 0.5 0.5 8.78273 0.5 19C0.5 29.2173 8.78273 37.5 19 37.5Z" stroke="#8C6E47"/>
<path d="M12.0728 26.1599H14.4288V16.8259H12.0728V26.1599ZM19.4298 21.2409C19.4298 19.7689 20.1238 18.5879 21.7218 18.5879C23.2998 18.5879 23.8098 19.8599 23.8098 21.2409V26.1609H26.1518V20.1469C26.1518 18.0109 25.1168 16.5169 22.8608 16.5169C22.3215 16.5103 21.7896 16.6418 21.3155 16.8989C20.8415 17.1561 20.4412 17.5303 20.1528 17.9859L19.4298 19.3049V16.8249H17.1998V26.1589H19.4298V21.2409ZM20.2008 21.2409V26.9309H16.4288V16.0539H20.2008V16.7479C20.9299 16.0922 21.8792 15.7351 22.8598 15.7479C25.5418 15.7479 26.9228 17.5859 26.9228 20.1479V26.9309H23.0377V21.2409C23.0377 20.3129 22.8378 19.3599 21.7208 19.3599C20.5628 19.3589 20.2028 20.2029 20.2028 21.2409H20.2008ZM13.2358 14.7309C13.5289 14.7339 13.8162 14.6497 14.0614 14.4891C14.3065 14.3284 14.4985 14.0986 14.6127 13.8286C14.727 13.5587 14.7585 13.2609 14.7032 12.9731C14.6479 12.6852 14.5084 12.4203 14.3022 12.2119C14.0961 12.0035 13.8327 11.8611 13.5455 11.8027C13.2582 11.7443 12.9601 11.7725 12.689 11.8839C12.4178 11.9952 12.1859 12.1846 12.0226 12.428C11.8593 12.6714 11.772 12.9578 11.7718 13.251C11.7704 13.4445 11.8074 13.6364 11.8804 13.8156C11.9534 13.9949 12.0611 14.1579 12.1973 14.2954C12.3335 14.433 12.4956 14.5422 12.6741 14.6169C12.8527 14.6917 13.0442 14.7304 13.2378 14.7309H13.2358ZM13.2358 15.5019C12.7899 15.5051 12.3531 15.3758 11.9808 15.1304C11.6086 14.885 11.3176 14.5345 11.1447 14.1235C10.9719 13.7125 10.925 13.2594 11.0101 12.8217C11.0951 12.384 11.3082 11.9814 11.6224 11.665C11.9366 11.3486 12.3376 11.1326 12.7747 11.0444C13.2118 10.9563 13.6652 10.9999 14.0774 11.1698C14.4897 11.3397 14.8422 11.6282 15.0903 11.9987C15.3383 12.3692 15.4708 12.8051 15.4708 13.251C15.4724 13.8454 15.2382 14.4163 14.8196 14.8384C14.4011 15.2605 13.8322 15.4995 13.2378 15.503L13.2358 15.5019ZM11.3038 26.9309V16.0539H15.2037V26.9309H11.3038Z" fill="#8C6E47"/>
</g>
<defs>
<clipPath id="clip0_1920_36720">
<rect width="38" height="38" fill="white"/>
</clipPath>
</defs>
</svg>
