<svg width="112" height="90" viewBox="0 0 112 90" fill="none" xmlns="http://www.w3.org/2000/svg">
<path d="M61 27V0H76V27H61Z" fill="#A38B6C"/>
<path d="M36 27V0H51V27H36Z" fill="#A38B6C"/>
<path fill-rule="evenodd" clip-rule="evenodd" d="M2 37H17.0429V59.0443H36V37H51V90H36V68.019H17.0429L17 90.0014L2 90V37ZM42.3804 67.2595H44.2235L44.827 65.4332H47.7642L48.3665 67.2595H50.2096L47.4052 59.2503H45.1888L42.3804 67.2595ZM47.3283 64.1114L46.3288 61.0805H46.2652L45.2637 64.1114H47.3283Z" fill="#A38B6C"/>
<path fill-rule="evenodd" clip-rule="evenodd" d="M61 37V90H76V68.1392L95 68V90H110V37H95V59H76V37H61ZM62.3225 67.2152H65.2063C66.0325 67.2152 66.7422 67.0549 67.3354 66.7342C67.9312 66.4135 68.388 65.9533 68.7058 65.3537C69.0262 64.754 69.1864 64.0371 69.1864 63.2028C69.1864 62.3711 69.0262 61.6567 68.7058 61.0597C68.388 60.4626 67.9339 60.0051 67.3433 59.687C66.7528 59.3663 66.0484 59.206 65.2301 59.206H62.3225V67.2152ZM64.0424 65.7643H65.1348C65.6432 65.7643 66.0709 65.6757 66.4178 65.4984C66.7674 65.3185 67.0295 65.0408 67.2043 64.6654C67.3817 64.2874 67.4704 63.7998 67.4704 63.2028C67.4704 62.6109 67.3817 62.1273 67.2043 61.7519C67.0295 61.3765 66.7687 61.1001 66.4218 60.9228C66.0749 60.7455 65.6472 60.6569 65.1388 60.6569H64.0424V65.7643Z" fill="#A38B6C"/>
<path d="M59.4473 59.206V67.2152H57.9617L54.4224 62.1742H54.3629V67.2152H52.6429V59.206H54.1523L57.6638 64.243H57.7352V59.206H59.4473Z" fill="#A38B6C"/>
</svg>
