<svg width="266" height="90" viewBox="0 0 266 90" fill="none" xmlns="http://www.w3.org/2000/svg">
<path d="M90 44.9266C90 44.9266 84.8426 38.8249 77.5787 36.1736C82.4818 30.2535 83.9346 22.4084 83.9346 22.4084C83.9346 22.4084 76.4165 19.7208 68.7893 21.0283C70.0969 13.4375 67.4092 5.95563 67.4092 5.95563C67.4092 5.95563 59.5642 7.40841 53.6077 12.3479C50.9564 5.12028 44.891 -0.0371094 44.891 -0.0371094C44.891 -0.0371094 38.7893 5.12028 36.138 12.3842C30.2542 7.51737 22.4092 6.06459 22.4092 6.06459C22.4092 6.06459 19.7579 13.5828 21.0654 21.2099C13.4746 19.9024 5.99274 22.59 5.99274 22.59C5.99274 22.59 7.44552 30.4351 12.385 36.3915C5.15738 39.0428 0 45.1082 0 45.1082C0 45.1082 5.19371 51.2099 12.4213 53.8612C7.48184 59.7813 6.06538 67.5901 6.06538 67.5901C6.06538 67.5901 13.5835 70.2777 21.2107 68.9702C19.9031 76.561 22.5908 84.0428 22.5908 84.0428C22.5908 84.0428 30.4358 82.5901 36.3559 77.6506C39.0073 84.8782 45.0726 90.0356 45.0726 90.0356C45.0726 90.0356 51.1743 84.8782 53.8257 77.6143C59.7458 82.5537 67.5908 83.9702 67.5908 83.9702C67.5908 83.9702 70.2785 76.452 68.9709 68.8249C76.5617 70.1324 84.0436 67.4448 84.0436 67.4448C84.0436 67.4448 82.5908 59.5997 77.6513 53.6433C84.8426 50.992 90 44.9266 90 44.9266Z" fill="white"/>
<path d="M40.5684 17.5048C45.7985 26.5483 41.4038 38.8244 41.4038 38.8244C41.4038 38.8244 28.5466 36.4636 23.3166 27.4563C18.0866 18.4491 22.4813 6.13672 22.4813 6.13672C22.4813 6.13672 35.3384 8.46117 40.5684 17.5048Z" fill="#FFDE2F"/>
<path d="M27.4184 23.426C36.462 28.656 38.7865 41.4768 38.7865 41.4768C38.7865 41.4768 26.4741 45.8715 17.4669 40.6415C8.45959 35.4115 6.0625 22.5906 6.0625 22.5906C6.0625 22.5906 18.3748 18.196 27.4184 23.426Z" fill="#FFDE2F"/>
<path d="M18.9225 35.1211C29.3463 35.1211 37.8087 45.0727 37.8087 45.0727C37.8087 45.0727 29.3463 55.0243 18.9225 55.0243C8.49879 55.0243 0 45.0727 0 45.0727C0 45.0727 8.46247 35.1211 18.9225 35.1211Z" fill="#FFD12E"/>
<path d="M17.5399 49.5041C26.5835 44.2741 38.8595 48.6688 38.8595 48.6688C38.8595 48.6688 36.4988 61.5259 27.4915 66.7196C18.4479 71.9496 6.17188 67.555 6.17188 67.555C6.17188 67.555 8.49633 54.6978 17.5399 49.5041Z" fill="#FFD12E"/>
<path d="M23.4608 62.6493C28.6908 53.6057 41.5116 51.2812 41.5116 51.2812C41.5116 51.2812 45.9063 63.5936 40.6763 72.6008C35.4463 81.6081 22.6254 83.9689 22.6254 83.9689C22.6254 83.9689 18.2671 71.6929 23.4608 62.6493Z" fill="#FABB25"/>
<path d="M35.1953 71.0776C35.1953 60.6539 45.1469 52.1914 45.1469 52.1914C45.1469 52.1914 55.0985 60.6539 55.0985 71.0776C55.0985 81.5013 45.1469 89.9274 45.1469 89.9274C45.1469 89.9274 35.1953 81.5013 35.1953 71.0776Z" fill="#F8AE24"/>
<path d="M49.5393 72.5305C44.3092 63.487 48.7039 51.2109 48.7039 51.2109C48.7039 51.2109 61.5611 53.5717 66.7548 62.579C71.9848 71.6225 67.5901 83.8986 67.5901 83.8986C67.5901 83.8986 54.7693 81.5378 49.5393 72.5305Z" fill="#F8AE24"/>
<path d="M62.6884 66.5731C53.6448 61.3431 51.3203 48.5223 51.3203 48.5223C51.3203 48.5223 63.6327 44.1276 72.6399 49.3576C81.6472 54.5877 84.008 67.4085 84.008 67.4085C84.008 67.4085 71.7319 71.8032 62.6884 66.5731Z" fill="#F8AE24"/>
<path d="M71.1155 54.8778C60.6918 54.8778 52.2656 44.9262 52.2656 44.9262C52.2656 44.9262 60.6918 34.9746 71.1518 34.9746C81.6119 34.9746 90.0017 44.9262 90.0017 44.9262C90.0017 44.9262 81.5393 54.8778 71.1155 54.8778Z" fill="#FABB25"/>
<path d="M72.5657 40.5318C63.5221 45.7618 51.2461 41.3671 51.2461 41.3671C51.2461 41.3671 53.6069 28.51 62.6141 23.3163C71.6214 18.1226 83.9337 22.4809 83.9337 22.4809C83.9337 22.4809 81.6093 35.3017 72.5657 40.5318Z" fill="#FFD12E"/>
<path d="M66.6466 27.3841C61.4165 36.4276 48.5957 38.7521 48.5957 38.7521C48.5957 38.7521 44.201 26.4397 49.3948 17.4325C54.6248 8.38891 67.4456 6.06445 67.4456 6.06445C67.4456 6.06445 71.8403 18.3405 66.6466 27.3841Z" fill="#FFD12E"/>
<path d="M54.9149 18.9214C54.9149 29.3451 44.9633 37.8076 44.9633 37.8076C44.9633 37.8076 35.0117 29.3451 35.0117 18.9214C35.0117 8.49763 44.9633 0.0351562 44.9633 0.0351562C44.9633 0.0351562 54.9149 8.49763 54.9149 18.9214Z" fill="#FFDE2F"/>
<path d="M60.1429 27.4931C55.1308 25.4592 49.4287 26.0767 44.9977 29.1638C37.6974 24.1154 27.6732 25.9677 22.6248 33.268C19.5376 37.699 18.9202 43.4011 20.9541 48.4132C24.1139 56.2583 40.3488 67.0452 44.9977 66.7546C49.6466 67.0452 65.8451 56.2583 69.0413 48.4132C72.3463 40.205 68.3875 30.8345 60.1429 27.4931Z" fill="#633000"/>
<path d="M106.198 15.3268V19.104H112.772C113.171 19.0677 113.571 19.1404 113.934 19.2493C114.769 19.6125 115.169 20.5568 114.806 21.3922C114.624 21.7917 114.333 22.0823 113.934 22.2639C113.571 22.3728 113.171 22.4091 112.808 22.4091H106.198V27.1307H113.571C114.297 27.167 115.06 27.167 115.532 28.0387C115.677 28.2929 115.75 28.5835 115.75 28.8377C115.786 29.4915 115.387 30.1089 114.769 30.3631C114.406 30.5084 113.97 30.5447 113.571 30.5084H104.237C103.91 30.5084 103.583 30.5084 103.292 30.4358C102.021 30.0726 102.021 28.874 102.021 28.2203V14.0556C101.985 13.4745 102.13 12.9297 102.457 12.4576C102.929 11.9128 103.619 11.9128 104.237 11.8764H113.498C113.934 11.8401 114.333 11.9128 114.733 12.058C115.314 12.3486 115.641 12.966 115.641 13.6198C115.641 13.9467 115.568 14.2735 115.423 14.5641C114.951 15.2905 114.188 15.2905 113.534 15.2905L106.198 15.3268Z" fill="black"/>
<path d="M129.368 27.7837C129.332 28.8006 129.332 30.6892 127.443 30.6892C126.208 30.6892 125.845 29.7813 125.664 29.1275C125.409 29.3817 125.155 29.5997 124.864 29.8176C123.848 30.5076 122.649 30.8345 121.414 30.8345C118.509 30.8345 116.656 29.0912 116.656 26.4762C116.656 25.9314 116.765 25.3503 116.947 24.8418C117.201 24.1517 117.71 23.5343 118.363 23.1711C119.417 22.5173 120.506 22.2994 123.484 21.7909C124.828 21.573 125.373 21.3914 125.373 20.665C125.373 19.4665 123.702 19.4665 123.194 19.4665C121.632 19.4665 121.305 19.9023 120.906 20.4108C120.579 20.8466 120.034 21.1372 119.489 21.1735C118.581 21.2098 117.818 20.4834 117.782 19.5391C117.782 18.2679 119.162 16.4883 123.521 16.4883C125.954 16.4883 127.116 17.1057 127.879 17.7231C129.404 19.0307 129.404 20.7377 129.404 22.0815L129.368 27.7837ZM125.518 23.8975C124.973 24.1154 124.756 24.2244 122.976 24.5512C121.886 24.7692 120.542 25.0597 120.542 26.3672C120.542 27.2752 121.269 27.82 122.358 27.82C122.903 27.82 123.448 27.711 123.956 27.4568C124.61 27.1662 125.155 26.6941 125.518 26.0767V23.8975Z" fill="black"/>
<path d="M139.577 20.4112C139.25 19.9754 138.814 19.3579 137.325 19.3579C136.126 19.3579 135.473 19.8301 135.473 20.5202C135.473 21.2829 136.308 21.5371 137.615 21.9366C138.051 22.0819 138.523 22.2272 139.032 22.3725C141.029 22.9899 143.318 23.6437 143.318 26.5492C143.318 28.1473 142.337 30.9076 137.47 30.9076C133.511 30.9076 131.368 29.0916 131.368 27.4935C131.332 26.5492 132.095 25.7502 133.039 25.7139C133.075 25.7139 133.112 25.7139 133.112 25.7139C134.02 25.7139 134.456 26.295 134.855 26.9124C135.109 27.2756 135.618 28.0383 137.397 28.0383C138.632 28.0383 139.359 27.6025 139.359 26.7671C139.359 25.9318 138.632 25.7502 138.015 25.5686C137.688 25.4596 135.945 24.9875 135.545 24.8785C134.165 24.4427 131.768 23.7163 131.768 21.065C131.732 20.048 132.095 19.0674 132.785 18.3047C133.947 16.9972 135.799 16.5977 137.543 16.5977C140.848 16.5977 142.773 18.1957 142.773 19.5395C142.736 20.5202 141.937 21.2829 140.993 21.2466C140.376 21.1739 139.867 20.8834 139.577 20.4112Z" fill="black"/>
<path d="M150.22 16.815C151.346 16.815 151.6 16.815 151.927 16.9603C152.399 17.2145 152.69 17.723 152.654 18.2678C152.654 18.522 152.581 18.7763 152.472 18.9942C152.072 19.7569 151.564 19.7569 150.22 19.7569V26.3307C150.22 27.493 150.656 27.6383 151.6 27.6383C152.69 27.6383 152.871 28.4373 152.871 29.0184C152.871 30.6165 151.055 30.7254 150.039 30.7254C146.479 30.7254 146.407 28.6552 146.407 27.0571V19.7932C145.971 19.8295 145.571 19.7569 145.172 19.6116C144.7 19.3574 144.445 18.8489 144.445 18.3041C144.445 18.0862 144.482 17.832 144.591 17.6504C144.954 16.8513 145.753 16.8513 146.407 16.8513V14.999C146.443 14.3816 146.443 13.6915 146.915 13.1467C147.278 12.7472 147.787 12.5293 148.332 12.5293C148.586 12.5293 148.84 12.5656 149.058 12.6746C150.184 13.1104 150.184 14.2363 150.22 14.999V16.815Z" fill="black"/>
<path d="M165.544 21.2817C165.544 25.4948 167.723 27.3834 170.375 27.3834C172.082 27.3834 173.28 26.5844 173.934 25.6037C174.079 25.3495 174.225 25.0589 174.406 24.8047C174.697 24.3325 175.205 24.0783 175.786 24.0783C176.694 24.0783 177.893 24.6957 177.893 26.0032C177.893 26.3301 177.82 26.657 177.711 26.9839C177.384 27.7103 176.876 28.4003 176.259 28.9088C174.297 30.6158 172.082 30.8701 170.375 30.8701C167.651 30.8701 166.307 30.1437 165.508 29.6715C163.256 28.3277 161.113 25.4948 161.113 21.1364C161.113 15.8338 164.418 11.5117 170.266 11.5117C171.573 11.5117 172.845 11.7296 174.043 12.1655C175.568 12.7829 177.457 14.2357 177.457 15.7611C177.457 16.8144 176.585 17.6861 175.532 17.7224C174.951 17.6861 174.443 17.4318 174.079 16.9597C173.861 16.7417 173.716 16.5238 173.498 16.3422C173.171 15.9064 172.336 15.0347 170.302 15.0347C166.162 14.9984 165.544 19.1388 165.544 21.2817Z" fill="black"/>
<path d="M183.778 18.1965C184.722 17.1796 186.03 16.5985 187.41 16.6348C188.282 16.5985 189.117 16.8164 189.843 17.2522C191.841 18.4871 191.841 20.412 191.877 21.6469V28.3297C191.877 28.9471 191.841 29.6372 191.369 30.1457C191.006 30.5089 190.497 30.6905 189.989 30.6905C189.516 30.6905 189.044 30.5452 188.681 30.2546C188.1 29.7462 188.064 29.0198 188.064 28.4023V22.9907C188.064 21.7922 188.064 19.9762 186.03 19.9762C185.594 19.9762 185.158 20.0851 184.759 20.3394C183.742 21.0658 183.742 22.3006 183.742 23.1723V28.1481C183.742 28.7655 183.705 29.4556 183.306 30.0004C182.943 30.4362 182.398 30.6905 181.817 30.6905C181.562 30.6905 181.308 30.6542 181.09 30.5815C179.892 30.2183 179.855 29.0924 179.855 28.3297V13.9834C179.855 13.366 179.892 12.6759 180.437 12.1675C180.8 11.8769 181.272 11.6953 181.744 11.6953C181.998 11.6953 182.289 11.7316 182.543 11.8406C183.705 12.3127 183.742 13.4387 183.742 14.1287L183.778 18.1965Z" fill="black"/>
<path d="M197.978 24.8414C198.014 25.6042 198.305 26.3305 198.813 26.9117C199.358 27.4928 200.121 27.8197 200.956 27.8197C201.646 27.856 202.336 27.6381 202.845 27.1659C202.99 27.0206 203.135 26.839 203.317 26.7301C203.607 26.4395 204.043 26.2942 204.443 26.2942C205.387 26.2942 206.15 27.0933 206.15 28.0376C206.15 28.5824 205.896 29.1635 205.097 29.7083C203.825 30.5436 202.336 30.9431 200.847 30.9068C195.726 30.9068 193.91 27.0933 193.91 23.7882C193.91 19.7204 196.561 16.5605 200.884 16.5605C205.714 16.5605 207.167 20.4468 207.167 23.0255C207.167 24.8051 206.222 24.8051 205.496 24.8414H197.978ZM203.499 21.9722C203.426 21.5 203.281 21.0279 203.026 20.592C202.518 19.902 201.683 19.5024 200.811 19.5388C198.741 19.5388 198.268 21.1005 197.978 21.9722H203.499Z" fill="black"/>
<path d="M216.429 20.4112C216.103 19.9754 215.667 19.3579 214.178 19.3579C212.979 19.3579 212.289 19.8301 212.289 20.5202C212.289 21.2829 213.124 21.5371 214.468 21.9366C214.904 22.0819 215.376 22.2272 215.848 22.3725C217.846 22.9899 220.134 23.6437 220.134 26.5492C220.134 28.1473 219.153 30.9076 214.287 30.9076C210.328 30.9076 208.185 29.0916 208.185 27.4935C208.149 26.5492 208.911 25.7502 209.856 25.7139C209.892 25.7139 209.892 25.7139 209.928 25.7139C210.836 25.7139 211.272 26.295 211.672 26.9124C211.926 27.2756 212.434 28.0383 214.214 28.0383C215.449 28.0383 216.175 27.6025 216.175 26.7671C216.175 25.9318 215.449 25.7502 214.831 25.5686C214.468 25.4596 212.761 24.9875 212.362 24.8785C210.981 24.4427 208.584 23.7163 208.584 21.065C208.548 20.048 208.911 19.0674 209.601 18.3047C210.764 16.9972 212.616 16.5977 214.359 16.5977C217.664 16.5977 219.589 18.1957 219.589 19.5395C219.553 20.5202 218.754 21.2829 217.81 21.2466C217.228 21.1739 216.72 20.8834 216.429 20.4112Z" fill="black"/>
<path d="M226.019 18.1965C226.963 17.1796 228.307 16.5985 229.687 16.6348C230.559 16.5985 231.394 16.8164 232.121 17.2522C234.118 18.4871 234.118 20.412 234.155 21.6469V28.3297C234.155 28.9471 234.118 29.6372 233.646 30.1457C233.283 30.5089 232.774 30.6905 232.266 30.6905C231.794 30.6905 231.322 30.5452 230.958 30.2546C230.377 29.7462 230.341 29.0198 230.341 28.4023V22.9907C230.341 21.7922 230.341 19.9762 228.307 19.9762C227.871 19.9762 227.435 20.0851 227.036 20.3394C226.019 21.0658 226.019 22.3006 226.019 23.1723V28.1481C226.019 28.7655 225.983 29.4556 225.583 30.0004C225.22 30.4362 224.675 30.6905 224.094 30.6905C223.84 30.6905 223.586 30.6542 223.368 30.5815C222.169 30.2183 222.133 29.0924 222.133 28.3297V13.9834C222.133 13.366 222.169 12.6759 222.714 12.1675C223.077 11.8769 223.549 11.6953 224.021 11.6953C224.276 11.6953 224.566 11.7316 224.82 11.8406C225.983 12.3127 226.019 13.4387 226.019 14.1287V18.1965Z" fill="black"/>
<path d="M236.984 13.4367C236.984 12.3834 237.856 11.5117 238.909 11.5117C239.963 11.548 240.798 12.456 240.762 13.5093C240.725 14.4899 239.926 15.289 238.909 15.3616C237.856 15.3616 236.984 14.5262 236.984 13.4367ZM236.984 19.0299C236.984 18.0129 237.239 17.5771 237.529 17.2502C237.892 16.887 238.401 16.7054 238.909 16.7417C239.2 16.7417 239.49 16.7781 239.745 16.887C240.798 17.3229 240.834 18.3761 240.834 18.9936V28.2187C240.871 28.7999 240.762 29.4173 240.435 29.9258C240.072 30.3979 239.527 30.6885 238.946 30.6522C238.691 30.6522 238.437 30.6158 238.183 30.5069C237.057 30.071 237.021 28.9451 237.021 28.2187L236.984 19.0299Z" fill="black"/>
<path d="M243.523 19.1763C243.523 18.5589 243.523 17.7962 244.105 17.2151C244.431 16.8882 244.904 16.7066 245.376 16.7066C245.666 16.7066 245.957 16.7793 246.175 16.8882C247.192 17.3967 247.192 18.5589 247.192 19.0311V19.3579C247.301 18.9584 247.482 18.5589 247.737 18.1594C248.281 17.1788 249.335 16.5977 250.46 16.5977C251.877 16.5977 252.422 17.4693 252.422 18.3773C252.458 18.8495 252.276 19.2853 251.986 19.6122C251.586 19.9391 251.114 20.1207 250.606 20.1207C250.243 20.157 249.879 20.157 249.552 20.1933C247.519 20.5202 247.482 22.6267 247.482 24.0795V28.1836C247.482 28.801 247.482 29.6001 246.937 30.1085C246.574 30.4717 246.066 30.6897 245.557 30.6533C245.339 30.6533 245.085 30.617 244.867 30.5444C243.56 30.1812 243.523 28.9826 243.523 28.1836V19.1763Z" fill="black"/>
<path d="M256.236 24.8414C256.272 25.6042 256.563 26.3305 257.071 26.9117C257.616 27.4928 258.415 27.8197 259.214 27.8197C259.904 27.856 260.594 27.6381 261.103 27.1659C261.248 27.0206 261.393 26.839 261.575 26.7301C261.902 26.4395 262.301 26.2942 262.701 26.2942C263.645 26.2942 264.408 27.0933 264.408 28.0376C264.408 28.5824 264.153 29.1635 263.354 29.7083C262.083 30.5436 260.63 30.9431 259.105 30.9068C253.984 30.9068 252.168 27.0933 252.168 23.7882C252.168 19.7204 254.819 16.5605 259.141 16.5605C263.972 16.5605 265.425 20.4468 265.425 23.0255C265.425 24.8051 264.48 24.8051 263.754 24.8414H256.236ZM261.756 21.9722C261.684 21.5 261.538 21.0279 261.284 20.592C260.776 19.902 259.94 19.5024 259.069 19.5388C256.998 19.5388 256.526 21.1005 256.236 21.9722H261.756Z" fill="black"/>
<path d="M106.234 44.1284H112.953V39.4068C112.953 38.7531 112.99 38.0267 113.498 37.4456C113.898 37.0097 114.479 36.7918 115.06 36.8281C115.387 36.8281 115.677 36.8644 115.968 36.9734C117.13 37.4819 117.166 38.6441 117.166 39.4068V53.063C117.166 53.6804 117.166 54.4432 116.731 55.0606C116.331 55.5327 115.75 55.8233 115.132 55.787C114.878 55.787 114.588 55.7507 114.333 55.6417C113.026 55.2059 112.99 53.9347 112.99 53.1356V47.5787H106.271V53.2083C106.271 54.0073 106.234 55.787 104.2 55.787C103.619 55.8233 103.038 55.6054 102.639 55.1695C102.094 54.5884 102.094 53.8257 102.094 53.2083V39.5884C102.094 38.8983 102.13 38.0993 102.711 37.4819C103.111 37.0824 103.655 36.8281 104.2 36.8644C104.818 36.8644 105.399 37.1187 105.798 37.5908C106.307 38.2083 106.307 38.971 106.307 39.6247L106.234 44.1284Z" fill="black"/>
<path d="M126.54 41.6223C128.465 41.586 130.317 42.3487 131.661 43.7652C132.823 45.1453 133.477 46.925 133.441 48.7047C133.441 53.0267 130.317 55.9323 126.322 55.9323C121.383 55.9323 119.312 52.3003 119.312 48.7047C119.313 44.5279 122.291 41.6223 126.54 41.6223ZM124.506 45.3996C123.271 46.4165 123.271 48.1962 123.271 48.7047C123.271 51.1744 124.325 52.8088 126.395 52.8088C127.448 52.8088 128.392 52.264 128.901 51.356C129.337 50.5206 129.555 49.5763 129.518 48.632C129.555 47.7967 129.373 46.9613 129.01 46.1986C128.501 45.2543 127.521 44.7095 126.431 44.7458C125.705 44.7095 125.015 44.9637 124.506 45.3996Z" fill="black"/>
<path d="M142.915 45.5089C142.588 45.073 142.153 44.4556 140.664 44.4556C139.465 44.4556 138.811 44.9278 138.811 45.6178C138.811 46.3805 139.647 46.6348 140.99 47.0343C141.426 47.1796 141.898 47.3249 142.407 47.4701C144.404 48.0876 146.693 48.7413 146.693 51.6469C146.693 53.2449 145.712 56.0052 140.845 56.0052C136.886 56.0052 134.743 54.1893 134.743 52.5912C134.707 51.6469 135.47 50.8479 136.414 50.8115C136.45 50.8115 136.487 50.8115 136.487 50.8115C137.395 50.8115 137.831 51.3926 138.23 52.0101C138.484 52.337 138.993 53.136 140.772 53.136C142.007 53.136 142.734 52.7002 142.734 51.8648C142.734 51.0295 142.007 50.8479 141.39 50.6663C141.063 50.5573 139.32 50.0851 138.92 49.9399C137.54 49.5403 135.179 48.814 135.179 46.1626C135.143 45.1457 135.506 44.165 136.196 43.4023C137.358 42.0948 139.211 41.6953 140.954 41.6953C144.259 41.6953 146.184 43.2934 146.184 44.6372C146.148 45.6178 145.349 46.3805 144.404 46.3442C143.714 46.3079 143.17 46.0173 142.915 45.5089Z" fill="black"/>
<path d="M148.547 44.3453C148.583 43.7279 148.583 43.0015 149.092 42.4203C149.455 42.0571 149.963 41.8392 150.472 41.8756C151.997 41.8756 152.251 43.0741 152.36 43.5826C153.232 42.3114 154.685 41.585 156.247 41.6213C157.736 41.5487 159.152 42.1298 160.169 43.2194C161.767 44.9264 161.985 47.2509 161.985 48.5584C161.985 53.0983 159.697 55.9676 155.956 55.9676C155.375 55.9676 154.758 55.8949 154.213 55.677C153.486 55.4591 152.869 55.0233 152.397 54.4058V57.2388C152.433 57.8562 152.324 58.5099 152.034 59.091C151.707 59.5995 151.089 59.8901 150.472 59.8538C150.218 59.8538 149.963 59.8174 149.745 59.7448C148.547 59.309 148.547 58.1467 148.547 57.4567V44.3453ZM153.159 45.7618C152.615 46.4155 152.36 47.3598 152.36 48.8489C152.36 50.5559 152.687 51.246 152.978 51.6455C153.45 52.3719 154.285 52.8078 155.157 52.7714C157.518 52.7714 158.063 50.338 158.063 48.5947C158.063 46.6334 157.336 44.7811 155.266 44.7811C154.467 44.7811 153.704 45.1443 153.159 45.7618Z" fill="black"/>
<path d="M164.02 38.5695C164.02 37.5162 164.892 36.6445 165.945 36.6445C166.998 36.6809 167.834 37.5888 167.797 38.6421C167.761 39.6227 166.962 40.4218 165.945 40.4944C164.855 40.4944 164.02 39.6227 164.02 38.5695ZM164.02 44.1264C164.02 43.1094 164.274 42.6736 164.565 42.3467C164.928 41.9835 165.437 41.8019 165.945 41.8019C166.236 41.8019 166.526 41.8382 166.78 41.9472C167.834 42.383 167.87 43.4363 167.87 44.0537V53.2789C167.906 53.86 167.797 54.4775 167.47 54.986C167.144 55.4581 166.562 55.7487 165.981 55.7123C165.727 55.7123 165.473 55.676 165.219 55.5671C164.093 55.1312 164.056 54.0053 164.056 53.2789L164.02 44.1264Z" fill="black"/>
<path d="M178.84 51.5369C179.095 51.1011 179.385 50.4473 180.293 50.4473C181.31 50.411 182.146 51.1737 182.182 52.1907C182.182 52.227 182.182 52.227 182.182 52.2633C182.182 53.5708 180.366 56.0406 176.552 56.0406C171.903 56.0406 169.797 52.8444 169.797 48.9582C169.797 43.9098 173.029 41.6217 176.77 41.6217C178.332 41.549 179.821 42.0938 181.02 43.1108C181.819 43.8008 182.109 44.4183 182.109 45.1084C182.109 46.0527 181.347 46.8154 180.402 46.8154H180.366C179.894 46.8154 179.458 46.6338 179.167 46.2706C178.986 46.089 178.84 45.8711 178.695 45.6895C177.824 44.6725 176.334 44.4546 175.208 45.1447C174.664 45.4716 173.756 46.1979 173.756 48.8493C173.756 50.6289 174.192 52.7355 176.77 52.7355C178.114 52.7718 178.514 52.0817 178.84 51.5369Z" fill="black"/>
<path d="M187.412 49.9762C187.448 50.7389 187.738 51.4653 188.247 52.0464C188.792 52.6275 189.591 52.9544 190.39 52.9544C191.08 52.9907 191.77 52.7728 192.278 52.3007C192.424 52.1554 192.569 51.9738 192.751 51.8648C193.077 51.5743 193.477 51.429 193.876 51.429C194.821 51.4653 195.583 52.228 195.583 53.1723C195.583 53.7171 195.329 54.2982 194.53 54.843C193.259 55.6784 191.806 56.0779 190.281 56.0416C185.123 56.0416 183.344 52.228 183.344 48.9229C183.344 44.8551 185.995 41.6953 190.317 41.6953C195.148 41.6953 196.6 45.5815 196.6 48.1965C196.6 49.9762 195.656 49.9762 194.93 50.0125H187.412V49.9762ZM192.932 47.1069C192.859 46.6348 192.714 46.1626 192.46 45.7268C191.952 45.0367 191.116 44.6372 190.244 44.6735C188.174 44.6735 187.702 46.2353 187.412 47.1069H192.932Z" fill="black"/>
<path d="M114.915 68.825C114.878 69.9146 114.697 71.4764 114.443 73.5103C114.116 75.7984 113.825 77.2512 113.571 77.796C113.317 77.8323 113.062 77.796 112.845 77.6507C112.409 77.2875 111.719 75.6531 110.738 72.6749C110.121 70.8226 109.539 68.9703 108.922 67.118C108.777 67.5538 108.305 68.825 107.542 70.9316C106.779 72.8928 106.271 74.3819 105.98 75.3989C105.871 75.7984 105.799 76.1616 105.69 76.5248C105.544 77.0696 105.326 77.3238 105.072 77.3238C104.636 77.3238 104.237 76.5611 103.801 75.072C103.51 74.164 103.22 72.6386 102.82 70.5321C102.639 69.2972 102.385 68.0986 102.021 66.9364C101.84 66.5006 101.694 65.9921 101.477 65.4473C101.477 65.1567 101.876 64.7935 102.094 64.7935C102.602 64.7935 103.075 65.7015 103.474 67.4086C103.474 67.4812 103.692 68.5345 104.092 70.6773C104.237 71.4037 104.346 71.8759 104.418 72.2028C104.564 72.8202 104.745 73.4013 105 73.9824C105.944 71.6216 106.67 69.5151 107.251 67.7354C107.469 67.009 107.796 65.9558 108.232 64.6119C108.305 64.394 108.559 64.2851 108.958 64.2851C109.067 64.2851 109.176 64.2851 109.249 64.3214C109.721 65.4473 110.302 67.1906 111.065 69.6604C111.828 72.1301 112.409 73.8008 112.881 74.8904C113.135 74.4909 113.317 73.5466 113.462 72.0212C113.535 70.7863 113.68 69.5151 113.753 68.2439C113.789 67.3722 113.825 66.1011 113.934 64.4303C114.007 64.1035 114.225 63.9219 114.443 63.9219C114.588 63.9219 114.806 64.0672 115.096 64.394L114.915 68.825Z" fill="black"/>
<path d="M121.744 78.1225C121.49 78.1225 120.982 77.5777 120.945 77.1418C120.909 76.9602 120.909 76.7786 120.945 76.5607C120.945 76.2338 120.945 76.0522 120.945 76.0159C120.982 74.5994 120.909 73.183 120.764 71.8028C120.764 71.5849 120.655 71.476 120.51 71.476C118.766 72.5655 117.895 74.4178 117.895 76.9965C117.786 77.2145 117.64 77.3597 117.459 77.505C117.277 77.4687 117.095 77.3961 116.95 77.2508L116.623 76.9239C116.442 75.8706 116.369 74.8174 116.405 73.7641L116.296 71.476C116.296 71.0764 116.296 70.4227 116.333 69.5147C116.369 68.6067 116.369 68.0619 116.369 67.844C116.369 67.6261 116.333 67.3718 116.26 67.1539C116.224 66.827 116.188 66.6454 116.188 66.6454C116.26 66.028 116.66 65.5195 117.168 65.5195C117.459 65.5195 117.604 65.7738 117.677 66.2822V67.0813C117.604 68.2798 117.531 69.1878 117.531 69.7326L117.604 72.4203C119.238 70.459 120.401 69.5147 121.054 69.5147C121.236 69.4784 121.418 69.5147 121.563 69.6237C121.744 69.66 121.89 70.2048 122.035 71.2217C122.108 71.8392 122.144 72.4566 122.18 73.1103V75.3985C122.144 76.1249 122.253 76.8149 122.471 77.505C122.471 77.7956 122.253 78.0498 121.744 78.1225Z" fill="black"/>
<path d="M127.918 77.6506C127.482 77.8322 126.974 77.9412 126.502 77.9775C125.594 78.0138 124.722 77.5417 124.25 76.779C123.778 76.0889 123.523 75.2535 123.523 74.4182C123.523 73.4376 123.741 72.4569 124.141 71.5489C124.795 70.2778 125.63 69.624 126.611 69.5514C126.901 69.515 127.155 69.5514 127.446 69.624C128.063 69.8056 128.608 70.2778 128.899 70.8589C129.08 71.2947 129.189 71.7305 129.298 72.1664C129.371 72.4569 129.444 72.7838 129.48 73.1107C129.516 73.2923 129.516 73.5102 129.516 73.6918C129.516 73.946 129.335 74.0913 129.008 74.1639C128.79 74.1639 128.136 74.2366 127.046 74.3455C126.393 74.3819 125.739 74.4908 125.085 74.6361C125.049 74.7451 125.049 74.854 125.049 74.963C125.049 75.4715 125.267 75.9436 125.63 76.2705C125.957 76.6337 126.465 76.8516 126.937 76.8516C127.264 76.8153 127.628 76.7426 127.918 76.5974C128.245 76.4884 128.572 76.3431 128.899 76.1615L129.444 75.7257H129.734C129.879 75.871 130.025 76.0526 129.952 76.1252C129.444 76.8516 128.717 77.3964 127.918 77.6506ZM127.7 71.6216C127.482 71.1131 127.155 70.8589 126.792 70.8589C126.429 70.8589 125.993 71.1131 125.557 71.6216C125.194 72.0211 124.976 72.4932 124.94 73.038C124.94 73.1107 124.976 73.1833 125.013 73.256C125.267 73.256 125.666 73.2196 126.175 73.1833C126.683 73.147 127.119 73.1107 127.337 73.1107C127.954 73.038 127.882 72.8564 127.954 72.7475C127.991 72.348 127.882 71.9848 127.7 71.6216Z" fill="black"/>
<path d="M136.016 71.9849C135.907 71.9849 135.726 71.767 135.544 71.3312C135.435 70.968 135.072 70.7138 134.673 70.6774C134.128 70.6774 133.583 71.2222 133.038 72.2755C132.566 73.1835 132.348 74.2004 132.348 75.2174C132.348 75.4353 132.348 75.6895 132.348 76.0164C132.348 76.3433 132.348 76.5975 132.348 76.7428C132.348 77.3239 132.275 77.6508 132.058 77.7961C131.912 77.905 131.731 77.9414 131.513 77.9414C131.222 77.9414 131.004 77.0334 130.859 75.2537C130.786 74.0915 130.75 72.8203 130.75 71.4765C130.75 70.3506 130.823 69.7331 130.968 69.6605C131.077 69.5515 131.222 69.4426 131.404 69.4062C131.694 69.4789 131.84 69.7694 131.949 70.169C131.949 70.4232 132.021 70.7864 132.094 71.2222C132.82 69.9874 133.765 69.4062 134.963 69.4062C135.326 69.4062 135.653 69.6605 135.98 70.1326C136.271 70.4958 136.452 70.968 136.488 71.4401C136.525 71.767 136.271 71.9849 136.016 71.9849Z" fill="black"/>
<path d="M141.212 77.6506C140.74 77.8322 140.268 77.9412 139.759 77.9775C138.851 78.0138 137.98 77.5417 137.508 76.779C137.035 76.0889 136.781 75.2535 136.781 74.4182C136.781 73.4376 136.999 72.4569 137.399 71.5489C138.052 70.2778 138.888 69.624 139.868 69.5514C140.159 69.515 140.413 69.5514 140.704 69.624C141.321 69.8056 141.866 70.2778 142.12 70.8589C142.302 71.2947 142.411 71.7305 142.52 72.1664C142.592 72.4569 142.665 72.7838 142.701 73.1107C142.738 73.2923 142.738 73.5102 142.738 73.6918C142.738 73.946 142.556 74.0913 142.229 74.1639C142.011 74.1639 141.358 74.2366 140.268 74.3455C139.614 74.3819 138.96 74.4908 138.307 74.6361C138.27 74.7451 138.27 74.854 138.27 74.963C138.307 75.9799 139.142 76.8153 140.195 76.8516C140.522 76.8153 140.885 76.7426 141.176 76.5974C141.503 76.4884 141.83 76.3431 142.157 76.1615L142.701 75.7257H142.992C143.137 75.871 143.282 76.0526 143.21 76.1252C142.701 76.8516 142.011 77.3964 141.212 77.6506ZM140.994 71.6216C140.776 71.1131 140.45 70.8589 140.086 70.8589C139.723 70.8589 139.287 71.1131 138.851 71.6216C138.488 72.0211 138.27 72.4932 138.234 73.038C138.234 73.1107 138.27 73.1833 138.307 73.256C138.561 73.256 138.96 73.2196 139.469 73.1833C139.977 73.147 140.413 73.1107 140.631 73.1107C141.249 73.038 141.176 72.8564 141.249 72.7475C141.249 72.348 141.176 71.9848 140.994 71.6216Z" fill="black"/>
<path d="M154.467 73.2936C154.358 73.6568 154.213 73.9837 154.068 74.3469C153.777 75.1096 152.978 76.0902 151.671 77.2161C151.162 77.5793 150.581 77.8699 150.036 78.0878C150.182 79.25 150.218 79.9764 150.218 80.3033C150.218 81.3566 150.036 81.9014 149.637 81.9014C149.165 81.9014 148.874 81.1386 148.729 79.6132C148.692 78.451 148.584 77.2525 148.547 76.0902C148.511 75.4728 148.511 74.8554 148.511 74.2379C148.547 73.3662 148.547 72.7488 148.547 72.3856C148.547 72.204 148.293 71.7319 148.293 71.5866C148.293 71.6956 148.329 71.514 148.475 71.0055C148.511 70.8239 148.511 70.6423 148.475 70.4607C148.438 69.9522 148.475 69.8069 149.056 69.7706C149.274 69.7706 149.492 69.7343 149.709 69.698C150.363 69.5164 151.017 69.4074 151.707 69.3711C153.632 69.3711 154.576 70.2064 154.613 71.9135C154.649 72.3856 154.576 72.8578 154.467 73.2936ZM151.562 70.5696C151.416 70.5696 151.235 70.5696 151.09 70.606C150.145 70.7876 149.709 71.5503 149.709 72.9667V74.2742C149.709 75.6907 149.891 76.3808 150.254 76.3445C150.872 76.2718 151.525 75.727 152.288 74.7464C153.051 73.7658 153.378 73.0031 153.45 72.3493C153.559 71.1508 152.76 70.5696 151.562 70.5696Z" fill="black"/>
<path d="M159.77 77.6506C159.334 77.8322 158.825 77.9412 158.353 77.9775C157.445 78.0138 156.574 77.5417 156.101 76.779C155.629 76.0889 155.375 75.2535 155.375 74.4182C155.375 73.4376 155.593 72.4569 155.992 71.5489C156.646 70.2778 157.482 69.624 158.462 69.5514C158.753 69.515 159.007 69.5514 159.298 69.624C159.915 69.8056 160.46 70.2778 160.714 70.8589C160.896 71.2947 161.005 71.7305 161.114 72.1664C161.186 72.4569 161.259 72.7838 161.295 73.1107C161.331 73.2923 161.331 73.5102 161.295 73.6918C161.295 73.946 161.114 74.0913 160.787 74.1639C160.569 74.1639 159.915 74.2366 158.825 74.3455C158.172 74.3819 157.518 74.4908 156.864 74.6361C156.828 74.7451 156.828 74.854 156.828 74.963C156.828 75.4715 157.046 75.9436 157.409 76.2705C157.736 76.6337 158.244 76.8516 158.716 76.8516C159.043 76.8153 159.406 76.7426 159.697 76.5974C160.024 76.4884 160.351 76.3794 160.678 76.1615L161.222 75.7257H161.513C161.658 75.871 161.804 76.0526 161.731 76.1252C161.259 76.8516 160.569 77.3964 159.77 77.6506ZM159.552 71.6216C159.298 71.1131 159.007 70.8589 158.644 70.8589C158.281 70.8589 157.845 71.1131 157.409 71.6216C157.046 72.0211 156.828 72.4932 156.791 73.038C156.791 73.1107 156.828 73.1833 156.864 73.256C157.118 73.256 157.518 73.2196 158.026 73.1833C158.535 73.147 158.971 73.1107 159.189 73.1107C159.806 73.038 159.733 72.8564 159.806 72.7475C159.842 72.3843 159.733 71.9848 159.552 71.6216Z" fill="black"/>
<path d="M167.651 76.4163C166.998 77.6874 166.162 78.3412 165.109 78.3412C164.274 78.3412 163.475 77.9417 162.966 77.2879C162.494 76.6342 162.276 75.8715 162.312 75.0724C162.349 74.0192 162.53 73.0022 162.857 72.0216C163.366 70.3509 164.092 69.4429 165.036 69.3339C165.654 69.2613 166.344 69.4792 167.179 69.9877C167.651 70.3509 168.015 70.8594 168.16 71.4405C168.342 71.9853 168.414 72.5664 168.414 73.1112C168.414 74.2734 168.124 75.363 167.651 76.4163ZM166.852 71.5131C166.562 70.932 166.199 70.6414 165.799 70.6414C164.927 70.6414 164.346 71.4405 163.947 73.0749C163.838 73.5107 163.765 73.9465 163.729 74.4187C163.62 75.0361 163.656 75.6535 163.874 76.2347C164.056 76.7795 164.601 77.1426 165.182 77.1426C165.799 77.1426 166.308 76.5615 166.743 75.4356C167.107 74.6366 167.288 73.7649 167.288 72.8933C167.216 72.4211 167.107 71.9489 166.852 71.5131Z" fill="black"/>
<path d="M175.786 73.2936C175.677 73.6568 175.532 73.9837 175.387 74.3469C175.096 75.1096 174.297 76.0902 172.99 77.2161C172.481 77.5793 171.9 77.8699 171.355 78.0878C171.464 79.25 171.573 79.9764 171.573 80.3033C171.573 81.3566 171.355 81.9014 170.992 81.9014C170.52 81.9014 170.23 81.1386 170.084 79.6132C170.012 78.451 169.975 77.2525 169.903 76.0902C169.866 75.6181 169.866 75.037 169.903 74.2379C169.939 73.3662 169.939 72.7488 169.903 72.3856C169.903 72.204 169.648 71.7319 169.648 71.5866C169.648 71.6956 169.721 71.514 169.83 71.0055C169.866 70.8239 169.866 70.6423 169.83 70.4607C169.757 69.9522 169.83 69.8069 170.411 69.7706C170.629 69.7706 170.847 69.7343 171.065 69.698C171.719 69.5164 172.372 69.4074 173.062 69.3711C174.987 69.3711 175.932 70.2064 175.968 71.9135C175.968 72.3856 175.895 72.8578 175.786 73.2936ZM172.881 70.5696C172.736 70.5696 172.554 70.5696 172.409 70.606C171.464 70.7876 171.029 71.5503 171.029 72.9667V74.2742C171.029 75.6907 171.21 76.3808 171.573 76.3445C172.191 76.2718 172.845 75.727 173.607 74.7464C174.37 73.7658 174.697 73.0031 174.77 72.3493C174.878 71.1508 174.079 70.5696 172.881 70.5696Z" fill="black"/>
<path d="M178.729 77.3967C178.657 77.7599 178.62 78.0142 178.584 78.1958C178.511 78.2684 178.402 78.2684 178.33 78.2684C178.039 78.2684 177.785 78.1594 177.603 77.9415C177.494 77.7599 177.458 77.542 177.494 77.3604C177.494 77.1425 177.494 76.7067 177.531 76.1982C177.567 75.6897 177.567 75.2539 177.567 74.9633C177.567 75.0359 177.531 74.4912 177.458 73.3289L177.059 66.9367C177.059 66.4645 177.131 66.0287 177.24 65.5929C177.349 64.9754 177.494 64.6849 177.64 64.6849C177.93 64.5033 178.293 64.5759 178.475 64.8301C178.584 65.3386 178.62 65.8108 178.657 66.3192C178.657 66.6824 178.548 67.082 178.402 67.4088C178.402 68.8979 178.439 69.9149 178.475 70.5323C178.584 71.3313 178.62 71.9488 178.62 72.4209C178.62 73.002 178.693 73.8737 178.729 75.1086C178.802 76.2708 178.802 76.8519 178.802 76.8519C178.802 76.9972 178.766 77.1788 178.729 77.3967Z" fill="black"/>
<path d="M184.361 77.6506C183.889 77.8322 183.416 77.9775 182.908 77.9775C182 78.0138 181.128 77.5417 180.656 76.779C180.184 76.0889 179.93 75.2535 179.93 74.4182C179.93 73.4376 180.148 72.4569 180.547 71.5489C181.201 70.2778 182.036 69.624 183.017 69.5514C183.307 69.515 183.562 69.5514 183.852 69.624C184.47 69.8056 185.014 70.2778 185.269 70.8589C185.45 71.2947 185.559 71.7305 185.668 72.1664C185.741 72.4569 185.813 72.7838 185.85 73.1107C185.886 73.2923 185.886 73.5102 185.85 73.6918C185.85 73.946 185.668 74.0913 185.341 74.1639C185.123 74.1639 184.47 74.2366 183.38 74.3455C182.726 74.3819 182.073 74.4908 181.419 74.6361C181.382 74.7451 181.382 74.854 181.382 74.963C181.382 75.4715 181.6 75.9436 181.964 76.2705C182.29 76.6337 182.799 76.8516 183.271 76.8516C183.598 76.8153 183.961 76.7426 184.252 76.5974C184.579 76.4884 184.905 76.3794 185.232 76.1615L185.777 75.7257H186.068C186.177 75.871 186.358 76.0526 186.286 76.1252C185.813 76.8516 185.16 77.3964 184.361 77.6506ZM184.143 71.6216C183.889 71.1131 183.598 70.8589 183.235 70.8589C182.872 70.8589 182.436 71.1131 182 71.6216C181.637 72.0211 181.419 72.4932 181.382 73.038C181.382 73.1107 181.419 73.1833 181.455 73.256C181.709 73.256 182.109 73.2196 182.617 73.1833C183.126 73.147 183.562 73.1107 183.78 73.1107C184.397 73.038 184.324 72.8564 184.397 72.7475C184.433 72.348 184.324 71.9848 184.143 71.6216Z" fill="black"/>
<path d="M196.452 77.4321C195.653 77.9769 195.035 78.2312 194.527 78.2312C193.728 78.2675 192.929 77.9769 192.311 77.4685C191.657 76.9237 191.294 76.0883 191.331 75.253C191.331 73.9818 191.73 72.7106 192.42 71.621C193.292 70.2409 194.345 69.5508 195.616 69.5508C195.762 69.5508 195.871 69.5508 196.016 69.5508C196.27 69.6234 196.488 69.7687 196.633 70.0229C196.779 70.2045 196.888 70.4225 196.924 70.6404C196.924 71.2941 196.742 71.621 196.415 71.621C196.161 71.5847 195.943 71.4757 195.798 71.2578C195.653 71.0399 195.362 70.8946 195.108 70.8946C194.563 70.8946 194.018 71.4394 193.437 72.4927C192.892 73.5096 192.674 74.345 192.711 75.035C192.783 76.1973 193.546 76.96 194.345 76.96C194.999 76.96 195.616 76.7784 196.197 76.4152C196.524 76.161 196.924 75.9794 197.323 75.8341C197.469 75.8341 197.614 75.943 197.723 76.052C197.65 76.4515 197.251 76.9237 196.452 77.4321Z" fill="black"/>
<path d="M203.608 76.4163C202.955 77.6874 202.119 78.3412 201.066 78.3412C200.231 78.3412 199.432 77.9417 198.923 77.2879C198.451 76.6342 198.233 75.8715 198.27 75.0724C198.306 74.0192 198.487 73.0022 198.814 72.0216C199.323 70.3509 200.049 69.4429 200.993 69.3339C201.611 69.2613 202.301 69.4792 203.136 69.9877C203.608 70.3509 203.972 70.8594 204.117 71.4405C204.299 71.9853 204.371 72.5664 204.371 73.1112C204.371 74.2734 204.117 75.363 203.608 76.4163ZM202.846 71.5131C202.555 70.932 202.192 70.6414 201.793 70.6414C200.921 70.6414 200.34 71.4405 199.94 73.0749C199.831 73.5107 199.722 73.9465 199.686 74.4187C199.577 75.0361 199.613 75.6535 199.831 76.2347C200.013 76.7795 200.558 77.1426 201.139 77.1426C201.756 77.1426 202.265 76.5615 202.7 75.4356C203.064 74.6366 203.245 73.7649 203.245 72.8933C203.209 72.4211 203.064 71.9489 202.846 71.5131Z" fill="black"/>
<path d="M215.446 77.5411C215.337 77.7227 215.156 77.8317 214.938 77.868C214.502 77.868 214.248 77.4321 214.102 76.5605C214.102 76.0883 214.066 75.6162 214.03 75.144C214.03 74.4176 213.921 73.3643 213.739 71.9479C213.703 71.7663 213.557 71.5847 213.376 71.512C212.795 71.7663 212.323 72.4564 211.996 73.6549C211.742 74.8171 211.451 76.052 211.16 77.3232C210.325 77.6501 210.071 77.3232 209.998 76.3062C209.998 75.5072 209.962 74.7082 209.889 73.9091C209.708 72.7106 209.453 72.0932 209.126 72.0205C208.8 72.0932 208.436 72.6379 208.073 73.6186C207.892 74.1997 207.601 75.1077 207.238 76.3789C207.056 77.1779 206.875 77.6501 206.729 77.7953C206.148 77.6864 205.858 77.4685 205.858 77.0689L205.785 75.2893C205.785 75.253 205.712 74.4903 205.603 73.0738C205.495 71.6573 205.422 70.9309 205.422 70.8583C205.422 69.9866 205.64 69.5508 206.112 69.5508C206.439 69.5508 206.657 69.9503 206.729 70.713C206.802 71.3668 206.838 71.9479 206.911 72.4564L206.984 72.9285C207.238 72.3111 207.528 71.6936 207.892 71.1125C208.436 70.3135 208.945 69.8777 209.453 69.8413C209.853 69.805 210.216 70.1682 210.543 70.8946C210.725 71.3668 210.87 71.8389 210.979 72.3474C211.415 71.621 211.669 71.1852 211.814 70.9672C212.141 70.5314 212.577 70.2045 213.049 69.9866C213.34 69.8413 213.63 69.805 213.957 69.805C214.611 69.8777 214.974 70.713 215.047 72.3474L215.228 76.0883C215.228 76.2336 215.482 76.6331 215.482 76.7058C215.628 76.9963 215.591 77.2869 215.446 77.5411Z" fill="black"/>
<path d="M220.895 77.6506C220.459 77.8322 219.95 77.9412 219.478 77.9775C218.57 78.0138 217.699 77.5417 217.226 76.779C216.754 76.0889 216.5 75.2535 216.5 74.4182C216.5 73.4376 216.718 72.4569 217.117 71.5489C217.771 70.2778 218.607 69.624 219.587 69.5514C219.878 69.515 220.132 69.5514 220.423 69.624C221.04 69.8056 221.585 70.2778 221.839 70.8589C222.021 71.2947 222.13 71.7305 222.239 72.1664C222.311 72.4569 222.384 72.7838 222.42 73.1107C222.456 73.2923 222.456 73.5102 222.42 73.6918C222.42 73.946 222.239 74.0913 221.912 74.1639C221.694 74.1639 221.04 74.2366 219.95 74.3455C219.297 74.3819 218.643 74.4908 217.989 74.6361C217.953 74.7451 217.953 74.854 217.953 74.963C217.953 75.4715 218.171 75.9436 218.534 76.2705C218.861 76.6337 219.369 76.8516 219.841 76.8516C220.168 76.8153 220.531 76.7426 220.822 76.5974C221.149 76.4884 221.476 76.3794 221.803 76.1615L222.347 75.7257H222.638C222.747 75.871 222.929 76.0526 222.856 76.1252C222.384 76.8516 221.694 77.3964 220.895 77.6506ZM220.677 71.6216C220.423 71.1131 220.132 70.8589 219.769 70.8589C219.406 70.8589 218.97 71.1131 218.534 71.6216C218.171 72.0211 217.953 72.4932 217.916 73.038C217.916 73.1107 217.953 73.1833 217.989 73.256C218.243 73.256 218.643 73.2196 219.151 73.1833C219.66 73.147 220.096 73.1107 220.314 73.1107C220.931 73.038 220.858 72.8564 220.931 72.7475C220.931 72.3843 220.858 71.9848 220.677 71.6216Z" fill="black"/>
<path d="M233.787 77.2509C233.097 78.0862 232.044 78.5584 230.99 78.4857C229.973 78.2678 229.138 77.5414 228.775 76.5245C228.448 75.4349 228.303 74.3453 228.339 73.2194C228.339 72.8199 228.339 72.4567 228.339 72.0571C228.303 71.8755 228.194 71.7303 228.048 71.6213C227.939 71.5124 227.83 71.4034 227.758 71.2581C227.758 71.0402 227.83 70.8223 227.976 70.677C228.266 70.3501 228.375 70.1685 228.412 70.1685L228.702 67.9894C228.993 66.5729 229.429 65.8828 229.973 65.8828C230.3 65.8828 230.627 66.3186 230.554 66.5366C229.973 68.2073 229.683 69.2969 229.683 69.8053C230.01 69.8417 230.373 69.8417 230.7 69.8053C231.571 69.8053 232.152 69.8417 232.189 69.8417C232.77 69.9143 232.915 70.2412 232.915 70.3864C232.915 70.8223 232.334 71.0039 231.898 71.0039C231.826 71.0039 231.426 70.9312 231.317 70.9312C231.027 70.9676 230.772 71.0039 230.482 71.1128C230.155 71.2218 229.864 71.3671 229.574 71.5487C229.501 72.0935 229.465 72.6383 229.465 73.1831C229.465 74.091 229.61 74.999 229.864 75.8707C230.228 76.7061 230.7 77.1056 231.281 77.1056C231.898 77.1419 232.516 76.8877 232.988 76.4518C233.351 76.1249 233.678 75.6891 233.896 75.2533C234.259 75.0354 234.477 75.1443 234.513 75.5802C234.441 76.1976 234.186 76.7787 233.787 77.2509Z" fill="black"/>
<path d="M239.421 76.4163C238.767 77.6874 237.932 78.3412 236.879 78.3412C236.043 78.3412 235.244 77.9417 234.736 77.2879C234.264 76.6342 234.046 75.8715 234.082 75.0724C234.118 74.0192 234.3 73.0022 234.627 72.0216C235.135 70.3509 235.862 69.4429 236.806 69.3339C237.423 69.2613 238.114 69.4792 238.949 69.9877C239.421 70.3509 239.784 70.8594 239.929 71.4405C240.111 71.9853 240.184 72.5664 240.184 73.1112C240.147 74.2734 239.893 75.363 239.421 76.4163ZM238.622 71.5131C238.331 70.932 237.968 70.6414 237.569 70.6414C236.697 70.6414 236.116 71.4405 235.716 73.0749C235.607 73.5107 235.535 73.9465 235.462 74.4187C235.353 75.0361 235.39 75.6535 235.607 76.2347C235.789 76.7795 236.334 77.1426 236.915 77.1426C237.532 77.1426 238.041 76.5615 238.477 75.4356C238.84 74.6366 239.021 73.7649 239.021 72.8933C238.985 72.4211 238.876 71.9489 238.622 71.5131Z" fill="black"/>
<path d="M247.628 77.3967C247.555 77.7599 247.482 78.0142 247.482 78.1958C247.41 78.2684 247.301 78.2684 247.228 78.2684C246.938 78.2684 246.683 78.1594 246.502 77.9415C246.393 77.7599 246.357 77.542 246.393 77.3604C246.393 77.1425 246.393 76.7067 246.429 76.1982C246.466 75.6897 246.465 75.2539 246.465 74.9633C246.465 75.0359 246.429 74.4912 246.357 73.3289L245.957 66.9367C245.957 66.4645 246.03 66.0287 246.139 65.5929C246.248 64.9754 246.393 64.6849 246.538 64.6849C246.829 64.5033 247.192 64.5759 247.373 64.8301C247.482 65.3386 247.519 65.8108 247.555 66.3192C247.555 66.6824 247.446 67.082 247.301 67.4088C247.301 68.8979 247.337 69.9149 247.41 70.5323C247.482 71.3313 247.519 71.9488 247.555 72.4209C247.555 73.002 247.628 73.8737 247.664 75.1086C247.737 76.2708 247.773 76.8519 247.773 76.8519C247.7 76.9972 247.7 77.1788 247.628 77.3967Z" fill="black"/>
<path d="M250.605 77.9045C250.424 77.8682 250.242 77.7592 250.133 77.5776C249.988 77.4687 249.879 77.2871 249.77 77.1418C249.588 76.706 249.516 75.3985 249.516 73.2193C249.516 72.6382 249.588 72.0934 249.697 71.5486C249.879 70.7132 250.097 70.3137 250.387 70.3137C250.678 70.3137 250.932 70.4953 251.005 70.7859C251.114 70.9675 251.186 71.1491 251.186 71.367C251.15 71.6939 251.077 72.0207 251.005 72.3476C250.896 72.7471 250.859 73.1103 250.823 73.5098C250.787 74.2725 250.859 75.0353 251.005 75.798C251.186 76.0885 251.295 76.3791 251.368 76.706C251.404 77.2507 251.077 77.7229 250.605 77.9045ZM251.368 66.9723C251.223 67.2265 251.005 67.4081 250.714 67.4445C250.46 67.4445 250.351 67.4082 250.315 67.4082C249.951 67.1176 249.734 66.7181 249.661 66.2459C249.661 66.028 249.806 65.8464 250.133 65.7011C250.351 65.5922 250.605 65.5195 250.859 65.5195C251.114 65.5559 251.332 65.7374 251.441 65.9917C251.513 66.137 251.586 66.3186 251.622 66.4638C251.586 66.6454 251.477 66.827 251.368 66.9723Z" fill="black"/>
<path d="M258.449 71.9842C258.05 72.8559 257.687 73.7639 257.287 74.5992C256.27 76.9963 255.653 78.2312 255.435 78.2312C254.817 78.2312 254.2 77.1779 253.51 75.0351C253.365 74.5629 252.965 73.0738 252.348 70.5678C252.348 70.4225 252.348 70.2772 252.42 70.1319C252.566 69.914 252.82 69.7687 253.074 69.7324C253.219 69.7324 253.328 69.7687 253.437 69.8777L253.691 70.1319C253.8 70.9673 253.946 71.7663 254.164 72.6017C254.382 73.6913 254.781 74.7082 255.29 75.6888C255.544 75.3983 256.125 74.2361 257.033 72.1658C257.723 70.4951 258.231 69.6961 258.667 69.7687C258.776 69.7687 258.922 69.8414 258.994 70.023C259.067 70.0956 259.103 70.2046 259.103 70.3135C258.885 70.931 258.667 71.4758 258.449 71.9842Z" fill="black"/>
<path d="M263.824 77.6506C263.389 77.8322 262.88 77.9412 262.408 77.9775C261.5 78.0138 260.628 77.5417 260.156 76.779C259.684 76.0889 259.43 75.2535 259.43 74.4182C259.43 73.4376 259.648 72.4569 260.047 71.5489C260.701 70.2778 261.536 69.624 262.517 69.5514C262.807 69.515 263.062 69.5514 263.352 69.624C263.97 69.8056 264.514 70.2778 264.769 70.8589C264.95 71.2947 265.059 71.7305 265.168 72.1664C265.241 72.4569 265.313 72.7838 265.35 73.1107C265.386 73.2923 265.386 73.5102 265.35 73.6918C265.35 73.946 265.168 74.0913 264.841 74.1639C264.623 74.1639 263.97 74.2366 262.88 74.3455C262.226 74.3819 261.573 74.4908 260.919 74.6361C260.882 74.7451 260.882 74.854 260.882 74.963C260.882 75.4715 261.1 75.9436 261.464 76.2705C261.79 76.6337 262.299 76.8516 262.771 76.8516C263.098 76.8153 263.461 76.7426 263.752 76.5974C264.079 76.4884 264.405 76.3794 264.732 76.1615L265.277 75.7257H265.568C265.677 75.871 265.858 76.0526 265.786 76.1252C265.313 76.8516 264.623 77.3964 263.824 77.6506ZM263.606 71.6216C263.352 71.1131 263.062 70.8589 262.698 70.8589C262.335 70.8589 261.899 71.1131 261.464 71.6216C261.1 72.0211 260.882 72.4932 260.846 73.038C260.846 73.1107 260.882 73.1833 260.919 73.256C261.173 73.256 261.573 73.2196 262.081 73.1833C262.589 73.147 263.025 73.1107 263.243 73.1107C263.861 73.038 263.788 72.8564 263.861 72.7475C263.897 72.3843 263.788 71.9848 263.606 71.6216Z" fill="black"/>
</svg>
