<svg width="38" height="38" viewBox="0 0 38 38" fill="none" xmlns="http://www.w3.org/2000/svg">
<g clip-path="url(#clip0_1920_36754)">
<path d="M19 37.5C29.2173 37.5 37.5 29.2173 37.5 19C37.5 8.78273 29.2173 0.5 19 0.5C8.78273 0.5 0.5 8.78273 0.5 19C0.5 29.2173 8.78273 37.5 19 37.5Z" stroke="#8C6E47"/>
<path d="M30 14.1875L20.5815 20.2437C20.2573 20.4493 19.8825 20.5583 19.5 20.5583C19.1175 20.5583 18.7427 20.4493 18.4185 20.2437L9 14.1875M11.1 11H27.9C29.0598 11 30 11.9514 30 13.125V25.875C30 27.0486 29.0598 28 27.9 28H11.1C9.9402 28 9 27.0486 9 25.875V13.125C9 11.9514 9.9402 11 11.1 11Z" stroke="#8C6E47" stroke-linecap="round" stroke-linejoin="round"/>
</g>
<defs>
<clipPath id="clip0_1920_36754">
<rect width="38" height="38" fill="white"/>
</clipPath>
</defs>
</svg>
