<svg width="506" height="113" viewBox="0 0 506 113" fill="none" xmlns="http://www.w3.org/2000/svg">
<path opacity="0.7" fill-rule="evenodd" clip-rule="evenodd" d="M253.342 0.50354C255.366 0.530758 258.142 0.59881 259.496 0.680465C260.85 0.762119 262.696 0.884598 263.599 0.966252C264.501 1.04791 266.252 1.29287 267.496 1.51062C268.741 1.72836 270.395 2.0822 271.189 2.29995C271.982 2.51769 272.994 2.8307 273.445 2.99401C273.896 3.14371 274.334 3.33424 274.402 3.38868C274.471 3.45672 274.785 3.5792 275.086 3.67446C275.387 3.76973 275.961 4.0283 276.358 4.27327C276.755 4.50462 277.384 4.87206 277.753 5.10342C278.109 5.33477 278.984 5.90636 279.681 6.38268C280.392 6.85899 281.076 7.36252 281.213 7.49862C281.336 7.64832 281.486 7.75719 281.555 7.75719C281.61 7.74358 282.061 8.07019 282.567 8.46486C283.073 8.85952 283.934 9.52637 284.481 9.94825C285.028 10.3701 285.74 10.8873 286.068 11.105C286.396 11.3228 286.656 11.5405 286.642 11.5949C286.642 11.663 286.752 11.731 286.888 11.7719C287.011 11.7991 287.463 12.1257 287.887 12.4795C288.311 12.8334 289.049 13.4322 289.528 13.8132C290.006 14.1807 290.676 14.7523 291.018 15.0789C291.36 15.4055 291.784 15.7457 291.976 15.841C292.167 15.9499 292.701 16.2765 293.179 16.5895C293.644 16.9025 294.054 17.2019 294.095 17.2836C294.136 17.3516 294.396 17.5829 294.683 17.7871C294.971 18.0048 295.504 18.4267 295.887 18.7397C296.256 19.0527 297.172 19.8148 297.925 20.4273C298.677 21.0397 299.347 21.6112 299.429 21.6929C299.511 21.7746 299.921 22.1012 300.345 22.4142C300.783 22.7408 301.138 23.0538 301.138 23.1355C301.138 23.2035 301.248 23.2988 301.371 23.3396C301.508 23.3668 302.055 23.7751 302.574 24.2378C303.094 24.7005 303.969 25.4082 304.489 25.8301C305.009 26.252 305.706 26.8099 306.021 27.0685C306.335 27.3407 306.951 27.8442 307.388 28.2117C307.826 28.5655 308.523 29.1099 308.934 29.4365C309.357 29.7495 310.028 30.2258 310.438 30.498C310.848 30.7702 311.409 31.1104 311.669 31.2737C311.929 31.4234 312.421 31.6548 312.763 31.7772C313.105 31.9133 313.597 32.0766 313.857 32.1447C314.13 32.2127 319.765 32.3488 326.985 32.4577C333.946 32.553 343.724 32.7027 348.73 32.7843C353.735 32.866 360.723 33.0021 364.252 33.0701C367.78 33.1518 371.541 33.2742 372.594 33.3423C373.647 33.4103 376.45 33.5328 378.816 33.6145C381.182 33.6961 383.767 33.8322 384.56 33.9002C385.353 33.9683 386.926 34.0772 388.047 34.1588C389.169 34.2269 391.275 34.3494 392.697 34.431C394.119 34.5127 395.856 34.6624 396.526 34.7712C397.196 34.8665 398.345 34.989 399.056 35.0434C399.767 35.0842 401.285 35.2339 402.407 35.3836C403.528 35.5333 405.32 35.7375 406.373 35.86C407.426 35.9688 409.053 36.173 409.997 36.3227C410.94 36.4724 412.472 36.7173 413.416 36.867C414.359 37.0303 415.59 37.2481 416.151 37.357C416.712 37.4658 417.641 37.6836 418.202 37.8333C418.763 37.9966 419.72 38.2415 420.322 38.3912C420.924 38.5409 421.813 38.8131 422.305 39.0173C422.797 39.2078 423.249 39.3983 423.331 39.4528C423.413 39.5072 423.768 39.6705 424.151 39.8202C424.643 39.9971 425.163 40.3918 426.025 41.2355C426.886 42.0793 427.255 42.542 427.365 42.9367C427.461 43.2361 427.556 44.0935 427.597 44.842C427.638 45.7129 427.584 46.6656 427.447 47.4957C427.338 48.2034 427.078 49.3057 426.886 49.9454C426.695 50.585 426.449 51.2791 426.353 51.5104C426.243 51.7418 426.12 52.1364 426.066 52.395C426.011 52.6536 425.628 53.579 425.204 54.4364C424.794 55.2937 424.261 56.3008 424.014 56.6819C423.782 57.0493 423.413 57.7978 423.194 58.315C422.961 58.8321 422.647 59.4309 422.483 59.635C422.305 59.8528 422.168 60.1658 422.168 60.3563C422.168 60.6965 422.195 60.6965 423.221 60.6965C423.809 60.6965 424.684 60.7646 425.177 60.8462C425.669 60.9143 426.285 61.1184 426.544 61.2953C426.804 61.4587 427.324 61.9078 427.693 62.2752C428.062 62.6426 428.514 63.2414 428.678 63.6225C428.856 63.9899 429.033 64.6432 429.088 65.0515C429.129 65.4597 429.102 66.5348 429.006 67.433C428.91 68.3312 428.76 69.3111 428.664 69.6105C428.568 69.9099 428.281 70.6448 428.049 71.2436C427.803 71.8424 427.529 72.6045 427.433 72.9447C427.338 73.285 427.023 74.0743 426.722 74.7139C426.421 75.3535 426.107 76.0884 426.011 76.347C425.929 76.6056 425.683 77.0683 425.478 77.3813C425.272 77.6943 424.931 78.2114 424.712 78.5381C424.493 78.8647 424.001 79.4771 423.631 79.8854C423.248 80.2936 422.688 80.8108 422.387 81.0285C422.072 81.2463 421.457 81.5729 421.006 81.7634C420.377 82.0084 419.761 82.1173 418.407 82.2125C417.423 82.267 413.949 82.3214 410.681 82.3214C407.412 82.335 404.021 82.267 403.159 82.1989C401.887 82.09 401.436 81.9948 400.834 81.6954C400.424 81.4912 399.685 80.9333 399.193 80.4706C398.701 79.9942 398.14 79.4907 397.921 79.341C397.702 79.1777 397.456 79.1096 397.306 79.1641C397.183 79.2049 397.032 79.3138 396.978 79.3954C396.909 79.4771 396.909 80.0623 396.95 80.7019C396.991 81.3415 397.032 83.0019 397.046 84.39C397.073 86.5266 397.114 86.9757 397.292 87.1798C397.415 87.3295 397.812 87.5745 398.154 87.7378C398.496 87.9147 399.043 88.1733 399.357 88.3094C399.685 88.4591 400.383 88.704 400.902 88.8537C401.422 89.0034 402.393 89.3028 403.05 89.5342C403.72 89.7655 404.704 90.0514 405.238 90.1602C405.785 90.2827 406.701 90.5005 407.262 90.6502C407.822 90.7999 408.561 91.0176 408.903 91.1129C409.245 91.2217 410.284 91.4123 411.228 91.5211C412.171 91.6436 413.238 91.8069 413.621 91.875C413.99 91.943 415.385 92.0655 416.698 92.1335C418.011 92.2152 421.676 92.2833 424.835 92.2833C427.994 92.2833 432.11 92.2152 433.998 92.1335C435.871 92.0519 438.114 91.9022 438.948 91.7933C439.796 91.6844 440.876 91.5892 441.341 91.5892C441.82 91.5756 442.695 91.4803 443.297 91.3714C443.899 91.2625 445.061 91.0856 445.895 90.9768C446.73 90.8679 447.742 90.7182 448.152 90.6365C448.562 90.5685 449.738 90.378 450.75 90.2419C451.762 90.0922 453.116 89.8744 453.759 89.752C454.402 89.6295 455.715 89.3845 456.699 89.2076C457.684 89.0307 458.915 88.8538 459.434 88.7993C459.954 88.7585 460.952 88.6088 461.622 88.4591C462.293 88.3094 463.523 88.1053 464.358 87.9828C465.192 87.8739 466.477 87.6834 467.229 87.5745C467.982 87.452 469.267 87.2751 470.101 87.1662C470.936 87.0574 472.891 86.8124 474.478 86.6219C476.064 86.4313 478.526 86.2272 479.948 86.1455C481.37 86.0775 484.365 85.9686 486.581 85.9278C489.097 85.8733 491.928 85.9006 494.102 85.9958C496.017 86.0911 498.082 86.2136 498.684 86.2816C499.285 86.3633 500.735 86.5402 501.897 86.6899C503.06 86.8396 504.468 87.0574 506 87.3704V89.0035H505.207C504.783 89.0035 503.839 88.9082 503.128 88.7993C502.417 88.7041 501.46 88.5544 501.008 88.4727C500.557 88.3911 498.834 88.2277 497.179 88.1052C495.524 87.9828 492.967 87.8467 491.504 87.7923C490.041 87.7514 487.661 87.7514 486.239 87.7923C484.816 87.8467 482.232 87.9828 480.495 88.1052C478.758 88.2277 476.584 88.4183 475.64 88.5271C474.696 88.6496 472.946 88.8265 471.742 88.9354C470.539 89.0443 469.24 89.194 468.871 89.2893C468.488 89.3709 467.476 89.5614 466.614 89.6975C465.753 89.8336 464.371 90.0514 463.537 90.1602C462.703 90.2827 461.417 90.5005 460.665 90.6365C459.913 90.7726 458.956 90.9359 458.545 90.9768C458.135 91.0312 457.274 91.1809 456.631 91.317C455.988 91.4531 455.031 91.6028 454.511 91.6572C453.991 91.6981 452.884 91.8614 452.049 91.9975C451.215 92.1335 449.902 92.2969 449.109 92.3377C448.316 92.3785 447.003 92.5418 446.169 92.6779C445.335 92.814 444.077 93.0045 443.365 93.0862C442.654 93.1678 441.752 93.2903 441.382 93.3584C441 93.44 439.194 93.6169 437.348 93.7803C435.502 93.93 433.232 94.1205 432.288 94.2021C431.345 94.2838 427.994 94.3518 424.835 94.3518C420.322 94.3518 418.722 94.311 417.382 94.1341C416.438 94.0116 414.934 93.8483 414.031 93.7666C413.129 93.685 411.775 93.4945 411.022 93.3311C410.27 93.1814 409.163 92.9365 408.561 92.8004C407.959 92.6643 406.865 92.4602 406.127 92.3377C405.402 92.2288 404.691 92.0791 404.554 92.0111C404.431 91.9566 403.829 91.7933 403.227 91.6572C402.626 91.5211 402.038 91.3714 401.928 91.3034C401.819 91.2489 400.711 90.8543 399.467 90.446C398.222 90.0241 397.101 89.6839 396.964 89.6839C396.841 89.6839 396.636 89.82 396.526 89.9833C396.417 90.1602 396.239 90.6365 396.116 91.0448C395.993 91.4531 395.774 92.0111 395.637 92.2696C395.487 92.5282 395.377 92.8548 395.364 92.9773C395.364 93.1134 394.94 94.0932 394.42 95.1548C393.887 96.2299 393.299 97.3458 393.094 97.6452C392.902 97.9446 392.642 98.3665 392.519 98.5979C392.41 98.8292 392.191 99.1286 392.054 99.2783C391.918 99.428 391.808 99.5913 391.808 99.6458C391.808 99.7138 391.521 100.068 391.152 100.462C390.796 100.843 390.345 101.32 390.153 101.51C389.962 101.701 389.62 102.014 389.401 102.191C389.182 102.368 388.676 102.762 388.266 103.075C387.87 103.388 387.281 103.797 386.967 104.001C386.666 104.205 385.791 104.681 385.039 105.049C384.287 105.43 383.206 105.892 382.645 106.083C382.085 106.273 380.977 106.614 380.184 106.831C379.213 107.09 377.873 107.321 376.081 107.498C374.618 107.661 372.703 107.784 371.842 107.784C370.98 107.784 368.86 107.634 367.124 107.444C365.387 107.267 363.759 107.049 363.499 106.981C363.24 106.899 362.255 106.586 361.311 106.287C360.368 105.988 359.479 105.688 359.328 105.62C359.178 105.552 358.645 105.307 358.125 105.076C357.619 104.844 357.168 104.654 357.099 104.654C357.045 104.654 356.415 104.3 355.704 103.878C354.993 103.456 353.94 102.776 353.379 102.368C352.819 101.959 351.902 101.156 351.355 100.585C350.808 100.013 350.002 99.0606 349.564 98.4618C349.14 97.863 348.47 96.7334 348.087 95.9441C347.704 95.1548 347.349 94.2974 347.294 94.0388C347.239 93.7802 347.048 93.127 346.87 92.6099C346.706 92.0927 346.46 90.9904 346.337 90.1602C346.159 89.0307 346.118 88.0644 346.172 86.2136C346.2 84.8663 346.309 83.1788 346.391 82.4711C346.487 81.7634 346.678 80.8244 346.829 80.3889C346.966 79.967 347.184 79.1641 347.294 78.6197C347.417 78.089 347.677 77.1772 347.868 76.6192C348.073 76.0612 348.319 75.476 348.415 75.3263C348.511 75.1766 348.593 74.9589 348.593 74.85C348.593 74.7411 348.675 74.4962 348.784 74.3056C348.88 74.1151 349.277 73.4483 349.632 72.8086C350.002 72.169 350.576 71.2844 350.918 70.8353C351.26 70.3862 351.93 69.5288 352.436 68.93C352.928 68.3312 353.544 67.6644 353.803 67.4603C354.063 67.2425 354.651 66.7934 355.116 66.4396C355.595 66.0857 356.539 65.3645 357.236 64.8201C357.933 64.2894 358.727 63.7586 358.987 63.6497C359.246 63.5408 359.561 63.3503 359.67 63.2278C359.78 63.1054 359.93 62.9965 360.012 63.0101C360.094 63.0101 360.395 62.8876 360.696 62.7243C360.997 62.5746 361.517 62.3432 361.858 62.1935C362.2 62.0575 362.939 61.7717 363.499 61.5403C364.06 61.3226 365.017 61.0368 365.619 60.9007C366.221 60.7782 366.987 60.5877 367.329 60.4924C367.671 60.3835 368.587 60.2338 369.38 60.1522C370.173 60.0705 371.732 60.0161 372.867 60.0161C373.989 60.0161 375.479 60.1114 376.149 60.2066C376.82 60.3155 377.558 60.4652 377.791 60.5605C378.023 60.6421 378.502 60.7782 378.885 60.8462C379.254 60.9143 379.938 61.1457 380.389 61.3498C380.84 61.5403 381.702 62.0166 382.304 62.3705C382.905 62.7379 383.521 63.1598 383.671 63.2959C383.822 63.432 384.136 63.6905 384.382 63.8538C384.615 64.0308 385.121 64.4118 385.49 64.7112C385.859 65.0106 386.269 65.4053 386.379 65.5958C386.502 65.7863 386.83 66.181 387.131 66.4804C387.418 66.7798 387.842 67.365 388.075 67.7733C388.307 68.1815 388.649 68.9164 388.827 69.4064C389.018 69.8963 389.237 70.5631 389.333 70.9034C389.429 71.2436 389.593 71.9785 389.702 72.5365C389.811 73.0944 389.948 74.4825 390.003 75.6257C390.058 76.7553 390.058 78.4156 390.017 79.3002C389.962 80.212 389.798 81.396 389.634 82.022C389.483 82.648 389.347 83.3012 389.347 83.4918C389.347 83.7095 389.511 83.9681 389.784 84.2131C390.03 84.4172 390.482 84.6758 390.782 84.7846C391.083 84.8799 391.699 85.1793 392.15 85.4379C392.601 85.6828 393.217 85.9958 393.518 86.1047C393.818 86.2136 394.242 86.2952 394.475 86.2816C394.707 86.268 394.967 86.1591 395.063 86.0367C395.2 85.8461 395.213 85.1657 395.131 82.6752C395.077 80.9469 395.022 79.1777 395.022 78.715C395.022 78.2659 395.104 77.7351 395.2 77.5582C395.282 77.3813 395.583 77.1227 395.842 76.9866C396.102 76.8641 396.581 76.7553 396.895 76.7553C397.288 76.7553 397.734 76.8868 398.236 77.1499C398.646 77.3677 399.508 77.9937 400.15 78.5245C400.793 79.0552 401.559 79.6132 401.86 79.7629C402.215 79.9262 402.981 80.0759 404.048 80.1711C405.156 80.28 407.932 80.3072 412.527 80.2528C416.643 80.212 419.597 80.1167 419.939 80.0351C420.267 79.9534 420.855 79.6404 421.238 79.3546C421.635 79.0688 422.223 78.5653 422.524 78.2387C422.838 77.912 423.44 77.0138 423.864 76.2381C424.288 75.476 424.63 74.782 424.63 74.7139C424.63 74.6323 424.78 74.224 424.972 73.7885C425.163 73.3666 425.423 72.8359 425.532 72.6045C425.655 72.3731 425.915 71.6791 426.134 71.0395C426.339 70.3998 426.654 69.4472 426.818 68.93C427.023 68.304 427.146 67.4875 427.201 66.5485C427.255 65.3372 427.228 65.0378 427.009 64.5887C426.873 64.2893 426.531 63.8947 426.271 63.6769C426.011 63.4728 425.355 63.1462 424.835 62.9284C423.905 62.561 423.837 62.561 422.168 62.6563C421.225 62.7107 420.24 62.7651 419.98 62.7651C419.72 62.7651 419.242 62.6426 418.913 62.4793C418.407 62.2344 418.339 62.1255 418.298 61.7036C418.284 61.4178 418.366 61.0368 418.503 60.819C418.64 60.6013 418.859 60.3699 418.982 60.3019C419.118 60.2202 419.46 59.9344 419.734 59.6487C420.021 59.3629 420.541 58.7368 420.91 58.2469C421.266 57.757 421.799 56.9268 422.1 56.4097C422.387 55.8925 422.729 55.2393 422.866 54.9807C423.002 54.7222 423.426 53.7967 423.796 52.9394C424.178 52.082 424.548 51.1294 424.616 50.83C424.698 50.5306 424.876 49.9181 425.026 49.469C425.177 49.0199 425.396 48.0673 425.532 47.3596C425.669 46.652 425.765 45.5768 425.751 44.978C425.737 44.0254 425.696 43.8213 425.368 43.345C425.163 43.0456 424.862 42.6645 424.712 42.4876C424.548 42.3243 424.055 42.0249 423.604 41.8344C423.153 41.6438 421.949 41.1947 420.937 40.8273C419.925 40.4598 418.722 40.0924 418.271 40.0107C417.819 39.9291 417.135 39.7658 416.766 39.6569C416.383 39.548 415.289 39.3167 414.305 39.1261C413.32 38.9492 411.966 38.7315 411.296 38.6498C410.626 38.5682 409.327 38.3912 408.424 38.2415C407.521 38.1055 406.045 37.8877 405.142 37.7516C404.239 37.6291 403.036 37.4794 402.475 37.4114C401.914 37.3434 400.52 37.2073 399.398 37.0848C398.263 36.9759 396.731 36.8262 395.979 36.7445C395.227 36.6765 393.627 36.5132 392.424 36.4043C391.22 36.2818 389.497 36.1321 388.594 36.0641C387.692 35.996 385.052 35.8736 382.714 35.7919C380.375 35.7103 377.585 35.5878 376.491 35.5197C375.397 35.4517 371.117 35.302 366.987 35.1795C362.843 35.0706 358.016 34.9073 356.251 34.8393C354.487 34.7712 346.856 34.6488 339.294 34.5671C331.731 34.4854 322.869 34.4174 319.601 34.3902C314.294 34.363 313.57 34.3357 312.899 34.118C312.489 33.9819 311.751 33.6825 311.258 33.4375C310.766 33.2062 310.041 32.7979 309.631 32.5393C309.221 32.2672 308.687 31.9269 308.455 31.7772C308.209 31.6275 307.73 31.2601 307.375 30.9607C307.019 30.6613 306.404 30.1441 306.007 29.8039C305.61 29.4637 305.077 29.0282 304.817 28.8241C304.557 28.6199 303.956 28.1436 303.463 27.7489C302.971 27.3679 302.232 26.7691 301.822 26.4289C301.412 26.0886 300.92 25.6668 300.728 25.4898C300.537 25.3129 300.14 24.9863 299.839 24.7686C299.538 24.5508 298.937 24.0745 298.513 23.7207C298.089 23.3532 296.981 22.455 296.051 21.7065C295.121 20.958 294.246 20.2231 294.095 20.0734C293.931 19.9237 293.63 19.6788 293.412 19.5427C293.179 19.393 292.673 18.9983 292.263 18.6581C291.866 18.3178 291.183 17.6918 290.759 17.2836C290.335 16.8753 289.651 16.3445 289.241 16.1132C288.83 15.8818 288.242 15.4871 287.941 15.2558C287.64 15.0244 286.998 14.5209 286.505 14.1535C286.013 13.786 285.193 13.16 284.673 12.7653C284.167 12.3707 283.387 11.7583 282.963 11.418C282.539 11.0778 282.02 10.6968 281.787 10.5879C281.555 10.4654 281.227 10.2068 281.035 10.0027C280.844 9.79855 280.515 9.53999 280.283 9.43112C280.05 9.30863 279.627 9.00923 279.326 8.77787C279.025 8.53291 278.259 7.97494 277.616 7.55305C276.973 7.13117 276.235 6.65486 275.975 6.51877C275.715 6.36907 275.223 6.09689 274.881 5.90636C274.539 5.71583 273.828 5.3756 273.308 5.15786C272.789 4.94011 271.9 4.59988 271.353 4.42296C270.819 4.23244 269.671 3.96026 268.823 3.79695C267.989 3.64725 266.183 3.33424 264.829 3.11649C262.641 2.76266 261.834 2.69461 257.65 2.57213C254.409 2.47687 250.511 2.47687 245.205 2.57213C240.952 2.65379 236.343 2.81709 234.948 2.92596C233.553 3.03484 231.488 3.18454 230.367 3.26619C229.232 3.33424 227.919 3.47033 227.426 3.53837C226.934 3.60642 225.307 3.75612 223.802 3.8786C222.298 3.98747 220.452 4.178 219.7 4.28687C218.948 4.39575 217.566 4.58627 216.623 4.69515C215.679 4.80402 213.833 5.03538 212.52 5.2259C211.207 5.41643 209.334 5.68861 208.349 5.85192C207.364 6.00162 206.475 6.16492 206.366 6.20575C206.257 6.24658 205.368 6.39628 204.383 6.53237C203.398 6.68207 202.168 6.89982 201.648 7.0223C201.128 7.14478 200.321 7.3353 199.87 7.44418C199.419 7.55305 198.284 7.78441 197.34 7.96133C196.396 8.13825 195.042 8.43765 194.331 8.64178C193.62 8.84592 192.389 9.14532 191.596 9.32224C190.803 9.49915 189.982 9.7169 189.75 9.79855C189.518 9.89382 189.162 10.0163 188.929 10.0707C188.697 10.1388 187.808 10.3701 186.946 10.5879C186.085 10.8192 184.827 11.1595 184.143 11.3636C183.459 11.5541 182.42 11.8671 181.818 12.0441C181.216 12.221 180.204 12.5204 179.562 12.7245C178.919 12.9286 178.003 13.2008 177.51 13.3233C177.018 13.4594 175.787 13.8541 174.775 14.1943C173.763 14.5345 172.71 14.8747 172.45 14.9564C172.19 15.0244 171.356 15.3102 170.604 15.5688C169.852 15.8274 168.99 16.0859 168.689 16.1404C168.389 16.1812 167.924 16.3173 167.664 16.4262C167.404 16.535 166.748 16.712 166.228 16.8208C165.708 16.9297 164.778 17.2563 164.176 17.5557C163.575 17.8415 162.795 18.1409 162.426 18.2226C162.07 18.3042 161.619 18.4539 161.4 18.5628C161.195 18.6581 160.32 18.9711 159.458 19.2569C158.597 19.5291 157.763 19.8284 157.612 19.8965C157.462 19.9781 156.997 20.1687 156.586 20.3048C156.176 20.4545 155.561 20.6586 155.219 20.7811C154.877 20.89 153.988 21.2166 153.236 21.516C152.484 21.8018 151.595 22.1284 151.253 22.2373C150.911 22.3461 149.954 22.7136 149.133 23.0538C148.313 23.394 147.547 23.6798 147.451 23.6798C147.369 23.6798 146.904 23.8295 146.425 24.0201C145.96 24.2106 145.331 24.4828 145.031 24.6325C144.73 24.7822 143.69 25.2176 142.706 25.5987C141.721 25.9798 140.709 26.3608 140.449 26.4289C140.189 26.5105 139.601 26.7691 139.15 27.0141C138.699 27.259 138.083 27.5312 137.782 27.6265C137.482 27.7217 136.811 27.9803 136.278 28.198C135.745 28.4158 135.129 28.688 134.911 28.7832C134.692 28.8785 134.227 29.0418 133.885 29.1235C133.543 29.2187 132.804 29.5045 132.244 29.7767C131.683 30.0489 130.876 30.3619 130.466 30.498C130.056 30.6341 129.221 30.9335 128.62 31.1648C128.018 31.3962 127.211 31.682 126.842 31.7772C126.459 31.8861 125.912 32.0766 125.611 32.1991C125.31 32.3216 124.667 32.5393 124.175 32.6618C123.683 32.7979 123.04 32.9476 122.739 32.9884C122.438 33.0429 120.961 33.1654 119.457 33.2742C117.953 33.3967 116.257 33.5328 115.696 33.6009C115.136 33.6689 113.659 33.7914 112.414 33.873C111.17 33.9547 109.228 34.118 108.106 34.2269C106.971 34.3357 104.701 34.4854 103.046 34.5671C101.391 34.6488 99.5726 34.7712 99.0119 34.8393C98.4512 34.9209 96.8785 35.0298 95.5246 35.1115C94.1707 35.1795 92.6664 35.2748 92.1741 35.3156C91.6817 35.3564 89.9039 35.5061 88.2081 35.6558C86.5123 35.8055 84.9943 35.9552 84.8165 35.996C84.6524 36.0369 84.3242 36.2002 84.0917 36.3635C83.8729 36.5404 83.531 36.9215 83.3532 37.2209C83.1755 37.5203 82.8062 38.4729 82.5327 39.3303C82.2592 40.1876 81.9447 41.0995 81.8353 41.3308C81.7258 41.5758 81.5207 42.2562 81.3703 42.8278C81.2198 43.413 80.9463 44.4745 80.7412 45.1822C80.5361 45.8899 80.2352 47.1147 80.0574 47.904C79.8796 48.6933 79.5104 50.34 79.2505 51.5785C78.9907 52.8169 78.6762 54.5588 78.5668 55.457C78.4437 56.3552 78.2932 57.4848 78.2249 57.9747C78.1565 58.4647 78.0881 59.2948 78.1018 59.812C78.1018 60.6149 78.1702 60.8871 78.4984 61.5131C78.7719 62.0166 79.1275 62.3977 79.5651 62.6971C79.9207 62.9284 80.5497 63.2551 80.96 63.4184C81.3703 63.5681 81.9994 63.8811 82.3549 64.0988C82.7242 64.3302 83.0114 64.5479 83.0114 64.6023C82.9977 64.6704 83.2028 64.8065 83.4353 64.9154C83.6815 65.0242 84.1054 65.3372 84.3789 65.5958C84.6388 65.8544 85.1721 66.3443 85.555 66.6845C85.9379 67.0248 86.526 67.6372 86.8542 68.0455C87.1961 68.4537 87.6201 69.0117 87.7978 69.2703C87.9893 69.5288 88.3449 70.0868 88.591 70.4951C88.8509 70.9034 89.4663 71.7199 89.9586 72.3187C90.4646 72.9039 91.3672 73.7613 91.9689 74.2104C92.5707 74.6595 93.4049 75.2038 93.8151 75.408C94.2254 75.6121 94.8682 75.9115 95.2511 76.0748C95.6203 76.2245 96.646 76.5103 97.5076 76.7008C98.3691 76.8777 100.243 77.1772 101.679 77.3677C103.115 77.5582 105.658 77.7623 107.354 77.844C109.05 77.9257 111.689 78.0481 113.235 78.1162C114.78 78.1978 117.269 78.3203 118.773 78.3884C120.278 78.4564 121.659 78.4836 121.85 78.4292C122.042 78.3884 122.343 78.225 122.52 78.0617C122.698 77.912 122.985 77.4493 123.163 77.0547C123.341 76.6736 123.614 75.8979 123.751 75.3535C123.902 74.8228 124.189 73.979 124.38 73.4891C124.585 72.9992 124.886 72.2098 125.064 71.7199C125.228 71.23 125.748 70.0596 126.213 69.0933C126.664 68.1407 127.184 67.2153 127.348 67.0384C127.526 66.8479 127.909 66.3307 128.209 65.868C128.51 65.3917 128.88 64.8201 129.03 64.5751C129.18 64.3302 129.468 63.9491 129.659 63.7314C129.851 63.5272 130.165 63.1326 130.343 62.874C130.521 62.6154 130.89 62.1527 131.15 61.8533C131.41 61.5539 132.039 60.9143 132.545 60.4244C133.037 59.9344 134.049 58.9818 134.801 58.3013C135.54 57.6209 136.36 56.954 136.62 56.818C136.88 56.6819 137.714 56.1511 138.466 55.6476C139.218 55.144 140.107 54.6133 140.449 54.45C140.791 54.3003 141.502 54.0145 142.022 53.824C142.542 53.6198 143.253 53.3476 143.595 53.2115C143.936 53.0755 144.648 52.8577 145.167 52.7352C145.687 52.6127 146.371 52.4358 146.672 52.327C146.972 52.2181 148.108 52.0003 149.202 51.837C150.665 51.6193 151.841 51.5376 153.715 51.5376C155.11 51.5376 156.792 51.6057 157.475 51.7009C158.159 51.7962 159.54 52.0548 160.552 52.2861C161.564 52.5039 162.672 52.7625 163.014 52.8577C163.356 52.953 164.067 53.2524 164.587 53.5246C165.106 53.7967 165.64 54.0281 165.749 54.0281C165.859 54.0281 166.351 54.2594 166.843 54.518C167.336 54.7902 168.074 55.1849 168.484 55.389C168.895 55.5931 169.51 55.9742 169.852 56.2192C170.194 56.4777 170.741 56.8588 171.083 57.0629C171.425 57.2671 171.985 57.6617 172.327 57.9475C172.669 58.2197 173.38 58.8185 173.9 59.2676C174.42 59.7303 175.24 60.5196 175.732 61.0368C176.225 61.5675 176.662 62.003 176.717 62.0166C176.785 62.0438 177.004 62.316 177.223 62.629C177.442 62.9556 177.743 63.3367 177.88 63.4864C178.03 63.6361 178.303 64.0036 178.509 64.303C178.714 64.6024 179.124 65.2148 179.411 65.6639C179.712 66.113 180.136 66.7254 180.355 67.0248C180.587 67.3242 181.039 68.1543 181.381 68.862C181.722 69.5697 182.16 70.5359 182.351 70.9986C182.543 71.4749 182.707 71.9376 182.707 72.0193C182.707 72.1146 182.803 72.3731 182.926 72.6045C183.035 72.8359 183.268 73.353 183.418 73.7613C183.569 74.1695 183.815 74.9725 183.952 75.5305C184.088 76.0884 184.348 76.8097 184.512 77.1363C184.745 77.5582 184.964 77.7487 185.305 77.8712C185.565 77.9529 186.003 78.1298 186.263 78.2659C186.523 78.4156 187.288 78.5925 187.972 78.6605C188.656 78.7422 189.449 78.8783 189.75 78.9736C190.147 79.096 192.307 79.1369 197.819 79.1369C205.039 79.1369 205.409 79.1232 207.186 78.8238C208.281 78.6333 209.347 78.3748 209.785 78.1706C210.195 77.9801 210.783 77.599 211.084 77.3268C211.385 77.0547 211.768 76.6192 211.932 76.3606C212.096 76.0884 212.356 75.6529 212.493 75.3944C212.643 75.1358 212.848 74.4689 213.135 72.9447L212.383 72.1962L205.094 72.101C201.101 72.0465 197.572 71.9513 197.272 71.8832C196.971 71.8152 196.26 71.5974 195.699 71.3933C195.138 71.1891 194.454 70.8625 194.195 70.6584C193.935 70.4543 193.607 70.2093 193.47 70.0868C193.333 69.9779 192.567 68.9028 191.76 67.7052C190.967 66.5076 190.201 65.2556 190.065 64.9154C189.914 64.5751 189.723 64.1533 189.627 63.9627C189.518 63.7722 189.394 63.4048 189.34 63.1462C189.285 62.8876 189.025 62.2344 188.752 61.7172C188.492 61.2001 188.136 60.3971 187.972 59.948C187.794 59.4989 187.452 58.6416 187.22 58.0428C186.974 57.444 186.659 56.4641 186.523 55.8653C186.399 55.2665 186.208 54.4364 186.112 54.0281C185.934 53.2932 185.934 53.266 186.878 51.3879L188.177 50.7483C188.888 50.3945 189.846 50.027 190.297 49.9318C190.748 49.8365 191.295 49.6868 191.528 49.5915C191.76 49.4963 192.335 49.3874 192.827 49.333C193.319 49.2785 194.017 49.156 194.4 49.0608C194.769 48.9655 195.302 48.843 195.562 48.8022C195.822 48.7614 197.203 48.6661 198.639 48.5845C200.075 48.5164 202.769 48.3803 204.656 48.3123C207.214 48.2034 208.157 48.1081 208.376 47.9584C208.663 47.7815 208.691 47.659 208.691 46.5023C208.691 45.6177 208.787 44.9236 209.005 44.1615C209.183 43.5627 209.498 42.8006 209.73 42.4604C209.949 42.1201 210.633 41.4533 211.248 40.9634C212.11 40.2829 212.752 39.9155 214.12 39.3439C215.077 38.9356 216.39 38.4865 217.033 38.3504C217.676 38.2143 218.496 38.0374 218.879 37.9558C219.248 37.8741 220.917 37.7652 222.572 37.7108C224.226 37.6427 229.669 37.6291 234.675 37.6564C239.68 37.6836 249.923 37.8061 257.445 37.9149C264.966 38.0238 275.797 38.1599 291.907 38.2824L292.29 37.9558C292.523 37.7516 292.701 37.4522 292.742 37.1528C292.783 36.8126 292.728 36.5812 292.263 35.996L288.256 35.9688C286.054 35.9552 276.891 35.8736 267.906 35.7919C258.922 35.7239 247.188 35.5878 241.854 35.5061C236.521 35.4381 227.399 35.3156 211.084 35.1387L209.716 34.7168C208.704 34.4038 208.226 34.1724 207.87 33.8458C207.61 33.6008 207.241 33.3015 207.05 33.1926C206.831 33.0565 206.407 32.4033 205.928 31.4234C205.491 30.566 205.135 29.7903 205.135 29.695C205.135 29.6134 204.944 28.9601 204.725 28.2661C204.492 27.5856 204.219 26.701 204.096 26.3336C203.973 25.9525 203.754 25.1632 203.617 24.5644C203.48 23.9656 203.207 22.8905 203.002 22.1828C202.797 21.4752 202.55 20.4545 202.441 19.9373C202.332 19.4202 202.154 18.59 202.044 18.1001C201.935 17.6102 201.853 16.9297 201.853 16.5623C201.853 16.1812 201.976 15.6368 202.181 15.2014C202.359 14.8203 202.742 14.2215 203.029 13.8949C203.33 13.5683 203.809 13.1736 204.109 13.0375C204.41 12.8878 205.121 12.6429 205.682 12.4932C206.243 12.3435 207.145 12.1393 207.665 12.0304C208.185 11.9216 209.169 11.7038 209.853 11.5677C210.537 11.418 211.631 11.1867 212.315 11.037C212.999 10.8873 214.065 10.6968 214.708 10.6151C215.351 10.5334 216.336 10.3565 216.896 10.2477C217.457 10.1252 218.633 9.92104 219.495 9.79855C220.356 9.66246 221.71 9.45832 222.503 9.34945C223.296 9.22697 224.951 9.00922 226.196 8.85952C227.44 8.69621 229.533 8.45126 230.845 8.28795C232.158 8.13825 234.934 7.89328 236.999 7.75719C239.064 7.60749 241.499 7.41697 242.401 7.32171C243.468 7.22644 246.901 7.15839 252.179 7.15839C257.759 7.14478 260.549 7.19922 261.069 7.29448C261.479 7.38974 262.464 7.56666 263.257 7.68915C264.05 7.82524 265.158 8.11102 265.718 8.32877C266.279 8.56012 266.812 8.79148 266.881 8.84592C266.949 8.90035 267.264 9.02284 267.565 9.1181C267.865 9.21336 268.577 9.55359 269.137 9.8666C269.698 10.1932 270.382 10.5471 270.642 10.6695C270.901 10.792 271.558 11.1867 272.078 11.5677C272.597 11.9352 273.637 12.6565 274.361 13.16C275.1 13.6771 275.907 14.2215 276.139 14.3848C276.385 14.5481 276.891 14.9156 277.261 15.2014C277.63 15.4871 278.273 15.9363 278.697 16.1948C279.121 16.4534 280.078 17.1202 280.83 17.6782C281.582 18.2362 282.321 18.7942 282.471 18.9439C282.622 19.0799 282.991 19.3794 283.292 19.5971C283.592 19.8148 284.194 20.2912 284.618 20.645C285.042 21.0124 286.3 22.0603 287.408 22.9994C288.516 23.9384 289.637 24.891 289.911 25.1224C290.184 25.3401 290.718 25.8301 291.087 26.1839C291.47 26.5377 292.236 27.2046 292.796 27.6673C293.357 28.13 293.972 28.6199 294.15 28.7832C294.342 28.9329 294.834 29.3412 295.244 29.7087C295.668 30.0625 296.352 30.6341 296.762 31.0015C297.172 31.3554 297.802 31.9133 298.157 32.2536C298.513 32.5938 299.155 33.179 299.593 33.5736C300.031 33.9683 300.605 34.4854 300.892 34.7304C301.166 34.9754 301.836 35.5742 302.369 36.0641C302.916 36.554 303.641 37.2209 303.997 37.5339C304.338 37.8605 305.063 38.4457 305.583 38.8404C306.103 39.235 306.882 39.7385 307.292 39.9699C307.703 40.2013 308.428 40.5415 308.906 40.7456C309.617 41.045 310.096 41.1267 311.778 41.2355C312.886 41.3036 318.37 41.3716 323.977 41.3852C329.584 41.3989 337.488 41.4533 341.55 41.5213C345.612 41.5758 352.997 41.6983 357.961 41.7799C362.925 41.8616 368.491 41.984 370.337 42.0521C372.184 42.1201 375.561 42.2698 377.859 42.3923C380.156 42.5012 382.769 42.6509 383.671 42.7189C384.574 42.8006 386.105 42.9231 387.09 42.9911C388.075 43.0728 389.811 43.1953 390.96 43.2769C392.095 43.345 394.037 43.5355 395.254 43.6852C396.485 43.8349 397.949 44.0526 398.509 44.1615C399.07 44.2704 400.055 44.4201 400.697 44.5017C401.34 44.5834 402.42 44.8147 403.091 45.0053C403.761 45.1958 404.636 45.4952 405.005 45.6721C405.388 45.849 405.744 45.9987 405.826 45.9987C405.908 45.9987 406.195 46.1757 406.496 46.3798C406.783 46.5839 407.139 46.965 407.303 47.2235C407.508 47.591 407.562 47.8632 407.521 48.3939C407.48 48.843 407.371 49.2105 407.193 49.401C407.043 49.5643 406.742 49.7957 406.509 49.9045C406.25 50.0406 405.703 50.1223 405.005 50.1359C404.403 50.1495 398.195 50.1087 391.193 50.0542C384.191 49.9862 340.88 49.9862 294.93 50.0542C220.903 50.1359 211.371 50.1767 211.248 50.3536C211.152 50.4897 211.207 51.0069 211.412 52.0548C211.576 52.8713 211.823 54.2186 211.973 55.0488C212.11 55.8653 212.383 57.3759 212.575 58.383C212.78 59.3901 212.999 60.4924 213.067 60.8326C213.149 61.1729 213.272 61.9622 213.354 62.6018C213.423 63.2414 213.573 64.126 213.682 64.5751C213.792 65.0242 213.983 66.0585 214.093 66.8887C214.216 67.7052 214.38 68.6306 214.448 68.93C214.53 69.2294 214.694 69.5833 214.818 69.7194C215.036 69.9507 217.348 69.9643 267.154 69.9507C299.634 69.9507 320.366 70.0052 322.199 70.0868C323.813 70.1549 326.001 70.291 327.054 70.359C328.107 70.4407 329.926 70.6312 331.088 70.7673C332.251 70.917 333.728 71.1075 334.37 71.1891C335.013 71.2708 336.093 71.4885 336.764 71.6791C337.434 71.8696 338.172 72.101 338.405 72.1962C338.637 72.2915 338.965 72.414 339.157 72.4684C339.348 72.5228 339.772 72.7678 340.114 72.9992C340.456 73.2169 340.935 73.598 341.181 73.8293C341.441 74.0471 341.851 74.7003 342.111 75.2583C342.48 76.0612 342.603 76.5647 342.712 77.599C342.808 78.4836 342.808 79.273 342.712 79.9534C342.63 80.5114 342.48 81.2054 342.357 81.4776C342.247 81.7634 342.083 82.267 342.015 82.6072C341.947 82.9474 341.673 83.519 341.427 83.9C341.153 84.3219 340.784 84.6758 340.483 84.8118C340.21 84.9479 339.95 85.1113 339.909 85.1929C339.868 85.2746 339.512 85.4923 339.116 85.6828C338.733 85.887 337.967 86.1592 337.447 86.2953C336.928 86.4313 336.175 86.6219 335.806 86.7307C335.423 86.8396 333.673 87.0301 331.909 87.1526C330.145 87.2751 326.206 87.4248 323.156 87.5065C319.71 87.5881 295.901 87.6425 260.111 87.6289C228.48 87.6153 198.762 87.5745 194.058 87.5201C186.276 87.452 185.47 87.4112 185.059 87.1934C184.786 87.0573 184.526 86.7443 184.362 86.3769C184.211 86.0639 184.034 85.1385 183.938 84.3083C183.842 83.4782 183.623 82.2533 183.459 81.5865C183.281 80.906 183.076 80.212 183.008 80.0215C182.94 79.8309 182.721 79.5723 182.516 79.4363C182.324 79.3138 181.777 79.096 181.298 78.9736C180.833 78.8511 180.341 78.783 180.204 78.8375C179.999 78.9191 179.972 79.1641 179.972 81.0421C179.972 82.1989 179.904 83.7503 179.821 84.4716C179.739 85.2065 179.521 86.4449 179.343 87.2343C179.151 88.0236 178.946 88.7177 178.878 88.7993C178.809 88.881 178.659 89.2892 178.536 89.7111C178.427 90.1466 178.18 90.7862 177.989 91.1401C177.797 91.5075 177.415 92.1608 177.155 92.6099C176.881 93.059 176.526 93.5761 176.362 93.7666C176.184 93.9572 175.965 94.2566 175.869 94.4471C175.773 94.6376 175.568 94.9642 175.404 95.182C175.24 95.3861 174.72 95.9985 174.228 96.5157C173.736 97.0464 172.902 97.8221 172.382 98.2576C171.862 98.6795 171.274 99.115 171.083 99.2103C170.891 99.3055 170.495 99.5777 170.194 99.8227C169.893 100.054 169.059 100.544 168.348 100.911C167.636 101.265 166.529 101.742 165.886 101.959C165.243 102.177 164.012 102.531 163.151 102.762C161.633 103.157 161.469 103.171 158.364 103.184C155.287 103.198 155.082 103.184 153.578 102.817C152.716 102.613 151.882 102.381 151.732 102.3C151.581 102.231 151.02 102.055 150.501 101.918C149.981 101.782 149.202 101.497 148.791 101.265C148.381 101.034 147.793 100.721 147.492 100.558C147.191 100.394 146.576 99.9996 146.125 99.673C145.673 99.3463 145.031 98.8837 144.702 98.6387C144.36 98.3937 143.718 97.8494 143.266 97.4411C142.829 97.0328 142.077 96.2163 141.625 95.6447C141.16 95.0595 140.641 94.3654 140.463 94.0796C140.285 93.7939 139.875 93.0726 139.547 92.4738C139.054 91.5892 138.89 91.0993 138.671 89.888C138.521 89.0579 138.343 88.1733 138.261 87.9147C138.193 87.6562 138.056 86.7035 137.974 85.8053C137.878 84.6485 137.878 83.5054 137.974 81.8587C138.056 80.593 138.22 79.1913 138.329 78.7558C138.439 78.3339 138.603 77.531 138.685 76.9866C138.767 76.4559 139.013 75.5713 139.218 75.0541C139.437 74.537 139.93 73.5435 140.312 72.8767C140.709 72.1962 141.283 71.3525 141.598 70.985C141.899 70.6312 142.61 69.8827 143.143 69.3247C143.69 68.7667 144.21 68.3176 144.278 68.3176C144.347 68.3176 144.702 68.0727 145.058 67.7733C145.427 67.4603 146.015 67.1336 146.398 67.0248C146.767 66.9159 147.328 66.7118 147.629 66.5757C147.93 66.426 148.791 66.1266 149.544 65.8952C150.296 65.6775 151.212 65.4189 151.595 65.3372C151.964 65.2692 152.798 65.1603 153.441 65.1195C154.084 65.0787 154.904 65.0923 155.287 65.1739C155.657 65.2556 156.368 65.4053 156.86 65.5142C157.352 65.6094 158.118 65.868 158.569 66.0585C159.021 66.2627 159.773 66.6301 160.238 66.8615C160.717 67.1064 161.455 67.5964 161.879 67.9638C162.317 68.3312 162.795 68.794 162.946 68.9981C163.096 69.2022 163.383 69.5833 163.588 69.8282C163.78 70.0868 164.163 70.8353 164.436 71.5158C164.696 72.1826 165.093 73.285 165.298 73.9518C165.64 75.0269 165.736 75.1902 166.091 75.3399C166.324 75.4216 167.39 75.5305 168.484 75.5849C169.578 75.6393 171.055 75.7346 171.766 75.8162C172.478 75.8843 173.531 76.0476 174.091 76.1565C174.652 76.2789 175.555 76.3878 177.032 76.415L176.991 75.8298C176.977 75.4488 176.662 74.6186 176.061 73.3802C175.568 72.3595 175.049 71.3661 174.912 71.1755C174.775 70.985 174.529 70.5904 174.365 70.291C174.201 69.9916 173.736 69.3111 173.339 68.794C172.943 68.2768 172.464 67.6916 172.272 67.5011C172.095 67.3106 171.425 66.6982 170.796 66.1266C170.166 65.555 169.291 64.7793 168.867 64.4254C168.443 64.058 167.773 63.5136 167.39 63.2142C166.994 62.9148 166.2 62.3841 165.626 62.0302C165.052 61.6628 164.067 61.132 163.424 60.8326C162.782 60.5332 162.221 60.2883 162.152 60.2883C162.098 60.2883 161.852 60.193 161.605 60.0705C161.373 59.948 160.525 59.7031 159.732 59.5262C158.939 59.3492 157.585 59.1315 156.723 59.0498C155.862 58.9682 154.439 58.941 153.578 58.9818C152.716 59.0362 151.691 59.1315 151.321 59.1859C150.938 59.254 150.091 59.4309 149.407 59.5806C148.723 59.7303 147.684 60.0161 147.082 60.2066C146.48 60.4108 145.195 60.9687 144.21 61.4587C143.225 61.9486 142.118 62.5746 141.748 62.8468C141.365 63.119 141.037 63.3775 140.996 63.4184C140.955 63.4592 140.559 63.7586 140.121 64.0988C139.67 64.439 139.082 65.0378 138.781 65.4189C138.494 65.8136 138.152 66.2218 138.001 66.3035C137.864 66.3987 137.413 66.8751 137.003 67.365C136.593 67.8549 135.964 68.6851 135.608 69.2022C135.239 69.7194 134.842 70.3726 134.705 70.6312C134.569 70.8898 134.268 71.4749 134.022 71.924C133.789 72.3731 133.461 73.0808 133.324 73.4891C133.174 73.8974 132.928 74.605 132.777 75.0541C132.613 75.5032 132.422 75.9932 132.353 76.1429C132.271 76.2926 132.052 77.2044 131.875 78.1842C131.697 79.1777 131.519 80.7836 131.478 81.8587C131.41 83.4237 131.451 84.077 131.683 85.5331C131.847 86.513 132.011 87.5473 132.052 87.8467C132.093 88.1461 132.244 88.6632 132.381 89.0035C132.531 89.3437 132.818 90.1058 133.023 90.7046C133.228 91.3034 133.529 91.9702 133.693 92.2016C133.844 92.4329 134.172 93.059 134.405 93.5897C134.651 94.1341 134.842 94.624 134.842 94.6784C134.828 94.7465 134.911 94.8554 135.006 94.9506C135.102 95.0323 135.376 95.495 135.622 95.9713C135.868 96.434 136.196 97.1281 136.36 97.5091C136.552 97.9582 136.675 98.5842 136.729 99.3464C136.784 100.299 136.743 100.612 136.524 101.116C136.374 101.456 135.799 102.286 135.225 102.953C134.664 103.62 134.049 104.273 133.871 104.395C133.693 104.518 133.447 104.695 133.338 104.804C133.228 104.912 132.791 105.225 132.381 105.484C131.97 105.756 131.314 106.165 130.945 106.396C130.562 106.627 129.892 106.981 129.44 107.172C128.989 107.376 128.127 107.77 127.526 108.056C126.924 108.342 126.185 108.641 125.885 108.737C125.584 108.832 125.269 108.954 125.201 109.022C125.132 109.077 124.599 109.295 124.038 109.499C123.478 109.703 122.575 109.975 122.055 110.111C121.522 110.247 120.291 110.574 119.32 110.832C118.336 111.091 117.023 111.377 116.38 111.458C115.737 111.54 114.78 111.69 114.26 111.799C113.727 111.908 112.195 112.084 110.841 112.193C109.487 112.302 107.518 112.438 106.465 112.479C105.248 112.534 103.251 112.479 100.995 112.343C99.0392 112.221 96.7554 112.03 95.9349 111.935C95.1143 111.826 93.5006 111.622 92.3792 111.472C91.2441 111.322 89.562 111.009 88.6184 110.778C87.6748 110.547 86.3619 110.247 85.6781 110.098C84.9943 109.961 83.7635 109.648 82.943 109.417C82.1224 109.186 80.8916 108.846 80.2078 108.669C79.5241 108.492 78.5804 108.233 78.0881 108.083C77.5958 107.934 77.0077 107.743 76.7889 107.648C76.5564 107.566 76.0094 107.417 75.5581 107.308C75.1068 107.212 74.2179 106.94 73.5751 106.695C72.9324 106.464 71.9477 106.124 71.387 105.96C70.8263 105.783 69.9237 105.47 69.4041 105.266C68.8707 105.062 68.0502 104.776 67.5578 104.64C67.0655 104.504 65.78 104.082 64.6859 103.701C63.5919 103.32 62.6346 102.953 62.5662 102.898C62.4842 102.844 61.9645 102.64 61.4038 102.436C60.8431 102.245 60.1046 102.014 59.7627 101.932C59.4208 101.85 58.4635 101.51 57.643 101.184C56.8088 100.871 55.8651 100.544 55.5232 100.462C55.1814 100.381 54.5112 100.176 54.0189 100.013C53.5266 99.8499 52.8155 99.6049 52.4462 99.4688C52.0633 99.3327 51.4479 99.1286 51.0787 99.0061C50.6957 98.8836 49.9025 98.6387 49.3008 98.4481C48.6991 98.2576 47.6187 97.9446 46.9076 97.7677C46.1964 97.5772 45.2938 97.3458 44.9246 97.2506C44.5417 97.1553 43.9263 96.9784 43.557 96.8559C43.1741 96.7334 42.2852 96.5021 41.5741 96.3524C40.8629 96.2027 39.7142 95.9305 39.0441 95.7263C38.3603 95.5358 37.0748 95.2364 36.1722 95.0595C35.2696 94.8826 33.6695 94.5832 32.6165 94.3927C31.5635 94.2021 30.6062 94.0116 30.4968 93.9708C30.3874 93.9435 28.9651 93.7802 27.3514 93.6305C25.7376 93.4808 23.8914 93.2903 23.2486 93.2223C22.6059 93.1542 20.2674 93.059 18.0519 93.0181C15.7954 92.9637 12.8141 92.9909 11.2824 93.059C9.77811 93.1406 7.78146 93.3039 6.83784 93.4128C5.89422 93.5353 4.26681 93.7258 3.21378 93.8483C2.16076 93.9708 1.012 94.0932 0 94.1749V92.4057L1.12141 92.2696C1.75049 92.2016 2.72146 92.1063 3.28216 92.0655C3.84287 92.0247 4.85487 91.9022 5.53865 91.7933C6.20876 91.6844 8.13703 91.5347 9.80546 91.4531C11.4876 91.385 14.7971 91.317 17.163 91.317C19.5289 91.317 22.5375 91.385 23.823 91.4531C25.1222 91.5347 26.9548 91.6844 27.8984 91.7933C28.842 91.9158 30.5241 92.0927 31.6592 92.188C33.0815 92.3241 34.408 92.5418 35.967 92.9365C37.2115 93.2359 38.5928 93.5489 39.0441 93.6169C39.4954 93.6986 40.5347 93.9435 41.3689 94.1749C42.1895 94.3926 43.516 94.7329 44.3092 94.9098C45.1024 95.1003 46.3332 95.4405 47.0443 95.6719C47.7555 95.9033 48.7401 96.1891 49.2324 96.2979C49.7248 96.4068 50.3402 96.5837 50.6 96.6926C50.8598 96.7878 51.7214 97.0736 52.5146 97.305C53.3078 97.55 54.5386 97.9582 55.2497 98.2168C55.9609 98.4754 56.9455 98.802 57.4378 98.9517C57.9302 99.0878 58.8191 99.4008 59.4208 99.6322C60.0225 99.8499 60.9388 100.163 61.4722 100.313C61.9918 100.449 62.5799 100.653 62.7714 100.762C62.9628 100.871 63.9748 101.238 65.0278 101.592C66.0809 101.946 67.3117 102.381 67.763 102.558C68.2143 102.735 68.9801 102.994 69.4724 103.143C69.9648 103.279 70.7853 103.565 71.3187 103.769C71.8383 103.96 72.6725 104.246 73.1649 104.382C73.6572 104.518 74.7376 104.858 75.5581 105.13C76.3787 105.402 77.4864 105.756 78.0197 105.892C78.5394 106.028 79.5241 106.314 80.2078 106.505C80.8916 106.695 82.0267 107.008 82.7378 107.172C83.449 107.349 84.6524 107.662 85.4046 107.852C86.1568 108.043 87.4833 108.356 88.3449 108.546C89.2064 108.723 90.0133 108.9 90.1227 108.941C90.2321 108.982 91.2031 109.159 92.2698 109.349C93.3502 109.54 95.2921 109.785 96.5776 109.893C97.8768 110.002 100.42 110.152 102.226 110.234C104.482 110.329 106.219 110.329 107.764 110.234C109.009 110.166 110.54 110.07 111.183 110.029C111.826 109.975 112.893 109.88 113.576 109.812C114.26 109.73 115.327 109.58 115.97 109.472C116.612 109.363 117.925 109.09 118.91 108.859C119.881 108.628 121.577 108.124 122.671 107.757C123.765 107.389 125.365 106.777 126.226 106.409C127.088 106.042 128.018 105.62 128.278 105.484C128.538 105.348 129.153 105.021 129.645 104.763C130.138 104.504 130.753 104.137 131.013 103.96C131.273 103.769 131.792 103.402 132.175 103.13C132.545 102.871 133.228 102.191 133.68 101.646C134.24 100.966 134.541 100.462 134.651 100.04C134.746 99.6458 134.76 99.1558 134.678 98.7339C134.623 98.3529 134.459 97.9038 134.322 97.7133C134.172 97.5227 133.557 96.366 132.941 95.1275C132.326 93.8891 131.834 92.8004 131.834 92.7051C131.834 92.6235 131.71 92.3377 131.574 92.0927C131.423 91.8614 131.15 91.1945 130.972 90.6365C130.78 90.0786 130.466 88.9082 130.274 88.0508C130.083 87.1934 129.864 85.9686 129.782 85.329C129.7 84.6894 129.645 83.5598 129.645 82.8113C129.645 82.0628 129.714 80.8108 129.782 80.0215C129.864 79.2321 130.015 78.2795 130.124 77.912C130.22 77.531 130.411 76.6464 130.534 75.9387C130.657 75.2311 131.04 73.9382 131.369 73.0808C131.697 72.2234 132.175 71.1347 132.422 70.6584C132.654 70.1821 133.01 69.5016 133.201 69.1478C133.393 68.794 133.748 68.236 134.008 67.8958C134.268 67.5691 134.801 66.9567 135.17 66.5348C135.553 66.1266 136.128 65.4461 136.442 65.0378C136.757 64.6296 137.564 63.7858 138.22 63.1462C138.89 62.5066 139.806 61.7036 140.285 61.3362C140.75 60.9823 141.229 60.6965 141.338 60.6965C141.448 60.6965 141.817 60.4516 142.159 60.1522C142.501 59.8528 142.87 59.6078 142.979 59.6078C143.089 59.6078 143.8 59.3356 144.552 58.9954C145.304 58.6552 146.371 58.2605 146.904 58.1108C147.451 57.9475 148.244 57.7434 148.655 57.6481C149.065 57.5392 150.091 57.3487 150.911 57.2126C151.978 57.0357 153.127 56.9676 154.877 56.9813C156.833 56.9813 157.667 57.0493 158.911 57.2943C159.773 57.4576 160.976 57.7434 161.578 57.9339C162.18 58.1244 162.918 58.3694 163.219 58.4919C163.52 58.6144 164.067 58.9138 164.45 59.1723C164.819 59.4173 165.202 59.6214 165.271 59.6214C165.339 59.6214 165.872 59.8936 166.433 60.2474C166.994 60.6013 167.787 61.132 168.197 61.4314C168.607 61.7444 169.195 62.1663 169.496 62.3705C169.811 62.5882 170.207 62.9012 170.399 63.0645C170.59 63.2278 171.739 64.371 172.956 65.6094C174.173 66.8342 175.308 68.0727 175.486 68.3585C175.664 68.6443 176.006 69.1886 176.238 69.5561C176.485 69.9235 176.895 70.6312 177.141 71.1347C177.401 71.6519 177.77 72.3595 177.975 72.7406C178.18 73.108 178.454 73.7885 178.563 74.2376C178.673 74.6867 178.974 75.4896 179.22 76.0068C179.493 76.5784 179.808 77.0274 179.999 77.1227C180.163 77.2044 180.601 77.3813 180.957 77.4902C181.326 77.6126 181.709 77.6671 181.832 77.599C181.955 77.5446 182.105 77.4085 182.16 77.2996C182.228 77.1772 182.133 76.592 181.941 75.9387C181.763 75.2991 181.476 74.3873 181.298 73.8974C181.134 73.4074 180.861 72.7406 180.71 72.4004C180.546 72.0601 180.286 71.4477 180.109 71.0395C179.945 70.6312 179.712 70.114 179.603 69.8827C179.507 69.6513 179.124 68.9845 178.768 68.3721C178.413 67.7733 177.921 67.0384 177.674 66.739C177.428 66.4532 177.032 65.9224 176.785 65.5822C176.539 65.2284 175.951 64.4935 175.459 63.9491C174.98 63.3911 174.146 62.5066 173.613 61.9894C173.079 61.4723 172.355 60.7918 171.985 60.4924C171.616 60.193 171.219 59.8936 171.096 59.8256C170.973 59.7575 170.604 59.4581 170.262 59.1587C169.92 58.8729 169.428 58.5055 169.168 58.3694C168.908 58.2197 168.416 57.9203 168.074 57.7025C167.732 57.4712 167.24 57.199 166.98 57.0901C166.72 56.9677 166.392 56.818 166.255 56.7499C166.132 56.6683 165.421 56.3008 164.682 55.9062C163.917 55.4979 162.85 55.076 162.125 54.8855C161.441 54.7086 160.552 54.4772 160.142 54.3683C159.732 54.2731 158.556 54.0825 157.544 53.9464C156.122 53.7695 155.082 53.7423 152.962 53.7967C151.185 53.8512 149.612 53.9737 148.477 54.1506C147.52 54.3139 146.412 54.5316 146.015 54.6541C145.632 54.763 144.907 55.0079 144.415 55.1849C143.923 55.3618 143.376 55.5523 143.184 55.6067C142.993 55.6476 142.501 55.8381 142.09 56.0286C141.68 56.2055 140.969 56.5458 140.518 56.7771C140.066 57.0085 139.424 57.4168 139.095 57.6889C138.767 57.9611 138.384 58.2333 138.247 58.315C138.124 58.383 137.769 58.6688 137.482 58.9274C137.194 59.1859 136.811 59.4989 136.62 59.6214C136.429 59.7439 136.046 60.0433 135.758 60.3019C135.471 60.5605 134.569 61.4314 133.748 62.2616C132.941 63.0781 132.039 64.058 131.751 64.439C131.478 64.8065 131.191 65.1331 131.122 65.1467C131.068 65.1739 130.89 65.4325 130.739 65.7319C130.589 66.0313 130.357 66.4124 130.22 66.5757C130.097 66.7254 129.878 66.9703 129.741 67.12C129.618 67.2561 129.413 67.5963 129.29 67.8685C129.18 68.1543 128.975 68.5082 128.839 68.6579C128.702 68.8076 128.442 69.2703 128.25 69.6785C128.059 70.0868 127.635 70.9714 127.321 71.6519C126.992 72.3187 126.65 73.1489 126.555 73.4891C126.459 73.8293 126.185 74.5914 125.953 75.1902C125.707 75.789 125.379 76.7961 125.201 77.4357C125.037 78.0754 124.777 78.8375 124.626 79.1369C124.476 79.4363 124.161 79.8445 123.915 80.0487C123.683 80.2664 123.327 80.4705 123.108 80.5114C122.903 80.5658 121.262 80.5658 119.457 80.525C117.652 80.4842 114.206 80.3617 111.799 80.2392C109.392 80.1167 106.561 79.9262 105.508 79.8173C104.455 79.7084 102.786 79.5587 101.815 79.4771C100.831 79.3818 99.1623 79.1369 98.082 78.9191C97.0152 78.7014 95.9759 78.4428 95.7571 78.3339C95.552 78.2387 95.1417 78.1026 94.8408 78.0481C94.54 77.9937 93.9519 77.776 93.5416 77.5718C93.1314 77.3677 92.516 77.0547 92.1741 76.8778C91.8322 76.7008 91.2168 76.3198 90.8065 76.0204C90.3962 75.721 89.6988 75.1086 89.2475 74.6595C88.8098 74.1968 88.3312 73.5844 88.1671 73.285C88.0167 72.9856 87.7431 72.5909 87.5517 72.4004C87.3739 72.2098 87.1141 71.9104 86.991 71.7199C86.8679 71.5294 86.567 71.1075 86.3072 70.7673C86.061 70.427 85.5961 69.8419 85.2815 69.4744C84.9806 69.0934 84.4199 68.4673 84.037 68.0863C83.6678 67.6916 83.1891 67.2561 82.984 67.1337C82.7925 66.9976 82.0814 66.5212 81.4113 66.0857C80.7549 65.6366 79.9617 65.1739 79.6608 65.0378C79.3599 64.9154 78.7445 64.5343 78.2796 64.2077C77.8146 63.8947 77.2949 63.4456 77.1035 63.2142C76.912 62.9829 76.6522 62.5882 76.5154 62.3296C76.3513 62.0166 76.2556 61.4178 76.2145 60.5605C76.1735 59.8392 76.2419 58.3286 76.365 57.1582C76.4881 56.0014 76.7069 54.4364 76.8436 53.6879C76.9941 52.9394 77.1992 51.8098 77.3086 51.1702C77.418 50.5306 77.6368 49.4418 77.8009 48.7478C77.965 48.0673 78.1428 47.3868 78.2112 47.2508C78.2796 47.1283 78.4437 46.4614 78.5668 45.7946C78.6898 45.1141 79.0317 43.8621 79.3189 43.0047C79.6061 42.1474 79.9343 41.0722 80.0437 40.6231C80.1531 40.174 80.3719 39.4119 80.5224 38.922C80.6728 38.4321 80.96 37.6427 81.1515 37.1528C81.3566 36.6629 81.5891 36.1321 81.6848 35.9688C81.7805 35.8055 82.0951 35.4109 82.4096 35.0842C82.8472 34.6215 83.1618 34.431 83.9823 34.186C84.5294 34.0091 85.6371 33.805 86.4303 33.7369C87.2235 33.6689 88.5774 33.56 89.4389 33.4784C90.3005 33.4103 91.2851 33.3151 91.627 33.2742C91.9689 33.2334 94.3075 33.1109 96.8238 33.0021C99.3401 32.8796 101.897 32.7299 102.499 32.6618C103.101 32.5938 104.824 32.4441 106.328 32.3216C107.833 32.2127 110.048 32.0222 111.252 31.9133C112.455 31.8045 114.643 31.6139 116.106 31.5051C117.57 31.3962 119.539 31.2057 120.483 31.0968C121.426 30.9879 122.561 30.7974 123.013 30.6749C123.464 30.566 124.298 30.3755 124.859 30.2666C125.42 30.1441 126.117 29.9264 126.391 29.7903C126.678 29.6542 126.992 29.5317 127.074 29.5317C127.17 29.5317 127.471 29.4229 127.731 29.2868C127.991 29.1371 128.387 28.9874 128.62 28.9329C128.839 28.8785 129.714 28.5655 130.534 28.2389C131.355 27.9123 132.216 27.5992 132.449 27.5448C132.668 27.4904 133.078 27.3407 133.338 27.2046C133.598 27.0685 134.801 26.5513 136.005 26.075C137.208 25.5987 138.617 25.0135 139.15 24.7958C139.67 24.578 140.381 24.265 140.723 24.0881C141.065 23.9248 141.735 23.6526 142.227 23.5029C142.719 23.3532 143.239 23.1627 143.389 23.0674C143.54 22.9722 143.882 22.8497 144.142 22.7952C144.401 22.7408 144.743 22.6047 144.894 22.5094C145.044 22.4142 145.509 22.21 145.919 22.0603C146.33 21.9106 147.26 21.5568 147.971 21.2574C148.682 20.958 149.489 20.6722 149.749 20.6178C150.008 20.5633 150.296 20.4817 150.364 20.4273C150.432 20.3728 150.897 20.1687 151.39 19.9645C151.882 19.774 152.648 19.5018 153.099 19.3794C153.55 19.2569 154.07 19.0663 154.262 18.9711C154.453 18.8622 155.807 18.3451 157.27 17.8143C158.734 17.2836 160.211 16.7664 160.552 16.6711C160.894 16.5623 161.414 16.399 161.715 16.2901C162.016 16.1812 162.563 16.0451 162.946 15.9907C163.315 15.9363 163.93 15.7593 164.313 15.5824C164.682 15.4055 165.339 15.1469 165.749 15.0108C166.159 14.8611 167.582 14.3848 168.895 13.9629C170.207 13.5411 171.356 13.2008 171.425 13.2008C171.493 13.2008 171.739 13.1056 171.972 12.9831C172.204 12.8742 172.778 12.6565 173.271 12.5204C173.763 12.3843 174.652 12.1121 175.254 11.9216C175.856 11.731 176.868 11.3908 177.51 11.1595C178.153 10.9417 179.165 10.6287 179.767 10.4926C180.368 10.3429 181.38 10.0435 182.023 9.82577C182.666 9.60802 183.678 9.29501 184.28 9.14531C184.881 8.99561 186.085 8.68261 186.946 8.43765C187.808 8.19268 188.888 7.9205 189.34 7.82524C189.791 7.71636 190.406 7.55305 190.707 7.44418C191.008 7.3353 192.048 7.06313 193.032 6.84539C194.017 6.61403 195.548 6.26019 196.451 6.05605C197.354 5.86553 198.461 5.60696 198.913 5.48448C199.364 5.37561 200.417 5.19869 201.238 5.08981C202.058 4.98094 203.043 4.80402 203.426 4.70875C203.795 4.59988 204.41 4.4774 204.793 4.42296C205.162 4.38214 205.915 4.24605 206.434 4.13718C206.954 4.0283 208.281 3.82416 209.375 3.68807C210.469 3.53837 212.561 3.23897 214.024 3.00762C215.488 2.78987 217.771 2.50408 219.084 2.3816C220.397 2.27273 222.216 2.0822 223.119 1.97333C224.021 1.86446 225.84 1.67393 227.153 1.55145C228.466 1.42897 230.134 1.27927 230.845 1.21122C231.557 1.15679 234.36 0.993477 237.068 0.870995C239.776 0.748513 243.714 0.612416 245.82 0.55798C247.926 0.517152 251.318 0.489931 253.342 0.50354ZM238.504 9.51277C237.56 9.59442 235.167 9.81216 233.17 10.0027C231.174 10.1932 229.464 10.3701 229.368 10.411C229.286 10.4518 228.015 10.5743 226.565 10.6968C225.129 10.8056 223.597 10.9962 223.187 11.0914C222.777 11.2003 221.819 11.3772 221.067 11.4997C220.315 11.6222 218.811 11.8263 217.717 11.976C216.623 12.1121 215.392 12.3298 214.982 12.4387C214.571 12.5476 213.71 12.7381 213.067 12.8606C212.424 12.9831 211.385 13.1736 210.742 13.2825C210.099 13.405 209.21 13.5819 208.759 13.6908C208.308 13.7996 207.569 13.9902 207.118 14.099C206.667 14.2079 205.942 14.4393 205.504 14.6026C204.971 14.8067 204.588 15.0517 204.342 15.3783C203.986 15.8274 203.973 15.9363 203.973 17.4196C203.973 18.6717 204.041 19.1888 204.287 20.0054C204.465 20.5633 204.711 21.2982 204.834 21.6385C204.944 21.9787 205.149 22.7136 205.286 23.2716C205.422 23.8295 205.655 24.7277 205.805 25.2449C205.956 25.762 206.216 26.6602 206.366 27.2182C206.53 27.7762 206.79 28.5791 206.94 28.9874C207.091 29.3956 207.433 30.1714 207.706 30.6885C207.966 31.2057 208.349 31.7636 208.54 31.9133C208.732 32.063 209.087 32.3216 209.334 32.4849C209.634 32.7026 210.14 32.8387 210.838 32.934C211.426 33.0021 213.97 33.1245 216.486 33.1926C219.002 33.2742 223.625 33.3695 226.743 33.4103C229.861 33.4512 239.981 33.5464 249.239 33.6281C258.498 33.6961 269.042 33.8322 272.693 33.9002C276.344 33.9819 282.43 34.0908 286.232 34.1452C291.237 34.2133 293.248 34.2949 293.548 34.4174C293.781 34.5127 294.095 34.744 294.273 34.9482C294.437 35.1523 294.683 35.4925 294.793 35.7239C294.957 36.0233 295.012 36.3771 294.957 37.0848C294.916 37.9013 294.834 38.1327 294.437 38.7043C294.164 39.0717 293.712 39.4936 293.412 39.6569L292.865 39.9427C267.633 39.8746 257.062 39.8066 253.068 39.7249C249.075 39.6569 240.678 39.5616 234.401 39.5072C224.254 39.4392 222.749 39.4528 220.862 39.6569C219.7 39.7794 218.401 39.9563 217.99 40.0243C217.58 40.106 216.842 40.3101 216.349 40.487C215.857 40.664 214.913 41.0859 214.229 41.4125C213.546 41.7391 212.862 42.0521 212.684 42.1065C212.52 42.1474 212.164 42.4195 211.891 42.6917C211.631 42.9775 211.289 43.4538 211.139 43.7532C211.002 44.0526 210.811 44.7331 210.728 45.2502C210.646 45.7674 210.592 46.5567 210.619 46.9786C210.646 47.4005 210.756 47.8359 210.852 47.9312C211.002 48.0809 228.151 48.1081 307.443 48.0673C391.644 48.0401 403.884 48.0129 404.212 47.836C404.54 47.6726 404.554 47.6454 404.321 47.6318C404.171 47.6318 403.679 47.4685 403.227 47.278C402.776 47.0875 401.791 46.8153 401.039 46.6656C400.287 46.5295 398.878 46.3117 397.894 46.2029C396.909 46.0804 395.35 45.9035 394.407 45.7946C393.463 45.6857 391.494 45.4952 390.03 45.3863C388.567 45.2774 386.803 45.1277 386.133 45.0461C385.463 44.978 382.837 44.8147 380.321 44.7059C377.804 44.5834 375.028 44.4337 374.167 44.3656C373.305 44.2976 370.009 44.1479 366.85 44.0254C363.691 43.9165 360.737 43.7941 360.286 43.7532C359.834 43.7124 357.865 43.6171 355.909 43.5355C353.954 43.4538 343.218 43.345 332.045 43.2769C312.079 43.168 311.71 43.168 310.096 42.8822C309.193 42.7189 308.209 42.474 307.908 42.3379C307.607 42.2018 307.142 42.0521 306.882 41.9977C306.622 41.9432 306.089 41.7119 305.706 41.4669C305.309 41.2219 304.639 40.7864 304.202 40.487C303.764 40.1876 302.725 39.3303 301.891 38.5682C301.07 37.8061 300.044 36.8806 299.634 36.4996C299.224 36.1185 298.567 35.5333 298.198 35.2067C297.815 34.8665 296.803 33.9683 295.942 33.2062C295.08 32.4441 294.054 31.5323 293.671 31.192C293.289 30.8382 292.646 30.2802 292.236 29.94C291.825 29.5998 291.128 28.9874 290.676 28.5655C290.225 28.1436 289.582 27.5584 289.241 27.2726C288.912 26.9732 288.543 26.6738 288.447 26.6058C288.338 26.5241 288.092 26.32 287.9 26.1295C287.695 25.9389 287.189 25.5171 286.779 25.1768C286.355 24.8366 285.644 24.2514 285.206 23.8568C284.755 23.4757 283.757 22.6455 282.991 22.0195C282.211 21.3935 281.158 20.5497 280.625 20.1415C280.092 19.7332 279.531 19.2977 279.38 19.1888C279.244 19.08 278.874 18.8078 278.56 18.5764C278.259 18.3451 277.657 17.896 277.233 17.5557C276.796 17.2155 276.262 16.8208 276.044 16.6575C275.811 16.5078 275.414 16.2629 275.155 16.1268C274.895 16.0043 274.43 15.6913 274.129 15.4463C273.828 15.2014 273.404 14.902 273.172 14.7795C272.939 14.657 272.119 14.099 271.325 13.5411C270.532 12.9831 269.52 12.3298 269.069 12.0985C268.618 11.8671 268.016 11.5541 267.729 11.418C267.455 11.2683 267.195 11.0914 267.154 11.0234C267.113 10.9417 266.881 10.8465 266.635 10.8056C266.402 10.7648 265.924 10.5743 265.582 10.3974C265.24 10.234 264.474 9.94826 263.872 9.78495C263.27 9.62164 262.012 9.4039 261.069 9.29502C260.043 9.18615 257.458 9.09088 254.573 9.05005C251.906 9.02284 247.666 9.07727 245 9.18615C242.36 9.28141 239.447 9.43111 238.504 9.51277ZM198.297 50.4761C197.737 50.5578 196.56 50.7211 195.699 50.83C194.837 50.9388 193.538 51.1566 192.827 51.3199C192.116 51.4832 191.09 51.7418 190.571 51.8915C190.051 52.0412 189.463 52.2317 189.271 52.327C189.08 52.4222 188.765 52.6672 188.547 52.8577C188.246 53.1571 188.177 53.3204 188.177 53.892C188.177 54.2867 188.341 55.0488 188.56 55.6884C188.779 56.3144 189.039 56.9677 189.135 57.1582C189.244 57.3487 189.394 57.7978 189.504 58.1789C189.6 58.5463 189.818 59.2948 190.01 59.812C190.188 60.3291 190.625 61.3498 190.981 62.0575C191.323 62.7651 191.706 63.5272 191.829 63.7586C191.938 63.9899 192.294 64.6568 192.595 65.2556C192.895 65.8544 193.415 66.6301 193.743 66.9839C194.072 67.3514 194.331 67.6916 194.331 67.7733C194.331 67.8413 194.742 68.1951 195.248 68.549C195.767 68.9028 196.424 69.2975 196.725 69.4336C197.025 69.5561 197.887 69.733 198.639 69.801C199.391 69.8827 202.769 69.9507 206.161 69.9507C211.029 69.9643 212.356 69.9235 212.493 69.7874C212.629 69.6513 212.643 69.3383 212.575 68.5218C212.534 67.923 212.411 67.2153 212.301 66.9567C212.192 66.6982 211.987 65.6503 211.836 64.6432C211.686 63.6361 211.412 62.0438 211.221 61.1048C211.029 60.1658 210.728 58.4783 210.537 57.3623C210.346 56.2328 210.099 54.831 209.976 54.2322C209.867 53.6334 209.634 52.5583 209.484 51.8506C209.334 51.143 209.142 50.4489 209.087 50.3128C208.978 50.1087 208.732 50.0814 206.53 50.1087C205.204 50.1087 203.029 50.1631 201.716 50.2175C200.403 50.2856 198.858 50.3945 198.297 50.4761ZM368.354 62.2208C367.124 62.3977 366.002 62.6699 365.209 62.9557C364.539 63.2006 363.664 63.5136 363.294 63.6769C362.911 63.8266 362.296 64.1124 361.927 64.303C361.544 64.4935 361.188 64.7112 361.106 64.7793C361.024 64.8473 360.696 64.997 360.354 65.1195C360.012 65.242 359.493 65.5686 359.192 65.8544C358.891 66.1266 358.248 66.5757 357.756 66.8478C357.263 67.12 356.374 67.8005 355.773 68.3585C355.171 68.9028 354.364 69.7738 353.995 70.2773C353.612 70.7809 353.27 71.1892 353.202 71.1755C353.147 71.1755 353.01 71.3797 352.887 71.611C352.75 71.856 352.463 72.3051 352.231 72.6045C351.985 72.9039 351.602 73.4755 351.355 73.8565C351.109 74.2512 350.918 74.6186 350.918 74.6731C350.932 74.7411 350.808 74.9317 350.658 75.1222C350.508 75.3127 350.234 75.9251 350.029 76.4831C349.837 77.0411 349.605 77.7215 349.523 77.9801C349.441 78.2387 349.304 78.6197 349.195 78.8238C349.085 79.0416 348.839 79.8037 348.648 80.525C348.456 81.2599 348.21 82.5664 348.101 83.4237C347.991 84.2811 347.909 85.574 347.909 86.2816C347.909 86.9893 348.005 88.3366 348.114 89.2756C348.224 90.2283 348.497 91.5075 348.716 92.2016C348.921 92.8684 349.414 94.066 349.796 94.8554C350.179 95.6447 350.795 96.7198 351.164 97.2369C351.533 97.7541 352.203 98.557 352.655 99.0061C353.092 99.4552 353.968 100.204 354.583 100.666C355.198 101.143 355.868 101.605 356.074 101.687C356.292 101.782 356.798 102.082 357.209 102.368C357.619 102.64 358.002 102.871 358.057 102.885C358.125 102.885 358.918 103.211 359.834 103.62C360.764 104.014 361.913 104.45 362.405 104.572C362.898 104.695 364.129 104.981 365.141 105.212C366.604 105.539 367.534 105.647 369.585 105.756C371.336 105.838 372.949 105.838 374.508 105.743C376.081 105.647 377.298 105.484 378.269 105.253C379.062 105.062 380.225 104.749 380.868 104.559C381.51 104.355 382.153 104.123 382.304 104.014C382.454 103.919 382.7 103.837 382.851 103.837C383.001 103.851 383.275 103.728 383.466 103.579C383.657 103.429 384.027 103.239 384.287 103.143C384.546 103.048 385.326 102.613 385.996 102.15C386.666 101.701 387.5 101.102 387.842 100.803C388.184 100.517 388.786 99.9588 389.182 99.5777C389.593 99.183 390.071 98.6251 390.263 98.3257C390.454 98.0263 390.659 97.7541 390.714 97.7133C390.769 97.6724 391.097 97.2097 391.453 96.6926C391.808 96.1754 392.218 95.3997 392.369 94.9914C392.519 94.5832 392.875 93.7802 393.162 93.2223C393.463 92.6643 393.832 91.7117 393.996 91.1129C394.16 90.5141 394.297 89.7383 394.311 89.3845C394.338 88.8538 394.27 88.6768 393.928 88.323C393.695 88.078 393.258 87.765 392.957 87.6017C392.642 87.4384 391.876 87.0437 391.247 86.7171C390.618 86.4041 389.784 86.0911 389.401 86.0367L388.69 85.9414C388.061 87.2071 387.842 87.7514 387.787 87.9828C387.733 88.2141 387.391 88.881 387.035 89.4798C386.666 90.0786 386.338 90.691 386.297 90.8407C386.242 90.9904 385.928 91.3714 385.586 91.6844C385.244 92.0111 384.97 92.3241 384.97 92.4057C384.97 92.4874 384.382 93.0453 383.657 93.6578C382.933 94.2838 382.153 94.9098 381.907 95.0595C381.674 95.2092 381.237 95.5086 380.936 95.7399C380.649 95.9713 379.65 96.5293 378.721 96.992C377.791 97.4683 376.956 97.8494 376.861 97.8494C376.779 97.8494 376.218 97.9991 375.63 98.1896C374.973 98.4073 373.838 98.6115 372.621 98.7339C370.898 98.9109 370.501 98.9109 369.038 98.7203C368.136 98.6115 367.055 98.4345 366.645 98.3257C366.235 98.2304 365.455 98.0263 364.935 97.8766C364.416 97.7269 363.363 97.2914 362.611 96.8967C361.858 96.5157 361.093 96.053 360.901 95.8897C360.71 95.7264 360.34 95.4269 360.081 95.2364C359.821 95.0459 359.328 94.624 358.987 94.2974C358.645 93.9571 358.057 93.2903 357.687 92.814C357.304 92.3241 356.853 91.6844 356.675 91.385C356.498 91.0856 356.197 90.4732 356.019 90.0241C355.827 89.575 355.568 88.5952 355.417 87.8467C355.267 87.0982 355.089 86.0911 355.007 85.6012C354.911 85.084 354.884 84.0225 354.925 83.0155C354.966 82.0764 355.062 81.151 355.144 80.9333C355.226 80.7291 355.362 80.1167 355.445 79.5723C355.527 79.0416 355.759 78.1978 355.937 77.7079C356.128 77.218 356.347 76.7281 356.443 76.6192C356.539 76.5103 356.703 76.1973 356.812 75.9387C356.908 75.6802 357.386 74.9044 357.865 74.2376C358.357 73.5435 359.178 72.6181 359.78 72.0873C360.354 71.5702 361.229 70.8761 361.722 70.5495C362.214 70.2093 362.98 69.7874 363.431 69.5969C363.882 69.4064 364.812 69.0525 365.482 68.8212C366.7 68.3993 366.754 68.3857 369.312 68.3857C371.732 68.3857 371.965 68.4129 372.662 68.6987C373.072 68.8756 373.907 69.2567 374.508 69.5425C375.11 69.8282 375.999 70.359 376.491 70.7128C376.984 71.0803 377.599 71.5974 377.859 71.856C378.119 72.1146 378.611 72.6725 378.926 73.0808C379.254 73.4891 379.582 74.0743 379.664 74.3737C379.746 74.6731 379.924 75.0677 380.061 75.2583C380.197 75.4488 380.444 75.9659 380.608 76.415C380.799 76.973 380.922 77.7623 380.977 78.9463C381.045 80.1575 381.127 80.7291 381.278 80.8924C381.387 81.0285 381.784 81.2871 382.167 81.4504C382.536 81.6273 383.247 81.8723 383.739 81.9948C384.232 82.1173 384.683 82.267 384.765 82.335C384.847 82.3894 385.244 82.5391 385.654 82.6752C386.064 82.8113 386.461 82.961 386.543 83.0291C386.625 83.0835 386.83 83.0563 387.022 82.961C387.213 82.8658 387.418 82.6616 387.473 82.5255C387.528 82.3894 387.705 81.5321 387.856 80.6339C387.993 79.7357 388.116 78.4292 388.116 77.7351C388.116 77.0547 388.02 75.7346 387.911 74.8092C387.801 73.8974 387.651 72.6998 387.569 72.1554C387.473 71.4477 387.24 70.7537 386.707 69.6377C386.146 68.4673 385.805 67.9366 385.216 67.365C384.806 66.9567 384.163 66.3307 383.794 65.9905C383.425 65.6503 382.659 65.0651 382.098 64.684C381.538 64.3166 380.512 63.745 379.842 63.432C379.172 63.119 378.502 62.806 378.365 62.7243C378.242 62.6563 377.435 62.4385 376.587 62.248C375.438 61.9758 374.618 61.8805 373.278 61.8533C372.293 61.8397 371.226 61.8533 370.884 61.8805C370.542 61.9214 369.394 62.0711 368.354 62.2208ZM149.831 67.5283C149.598 67.6236 148.901 67.9502 148.258 68.2632C147.615 68.5626 146.863 68.9981 146.603 69.2158C146.343 69.4472 145.933 69.7466 145.687 69.8963C145.454 70.0324 144.907 70.4951 144.456 70.917C144.019 71.3388 143.444 71.9377 143.184 72.2643C142.924 72.5909 142.542 73.1353 142.336 73.4755C142.131 73.8157 141.885 74.2512 141.789 74.4417C141.707 74.6323 141.516 74.9317 141.393 75.1222C141.27 75.3127 141.01 75.8571 140.818 76.347C140.627 76.8369 140.326 77.6943 140.176 78.2523C140.012 78.8102 139.806 79.5179 139.738 79.8173C139.656 80.1167 139.588 81.6818 139.574 83.2876C139.56 86.1728 139.574 86.2408 139.998 87.9147C140.244 88.8538 140.613 90.0786 140.832 90.6365C141.037 91.1945 141.379 91.875 141.598 92.1335C141.817 92.3921 142.077 92.7732 142.172 92.9773C142.282 93.195 142.542 93.5625 142.76 93.7938C142.993 94.0388 143.526 94.6512 143.964 95.1412C144.401 95.6447 145.154 96.3796 145.646 96.7743C146.138 97.1825 146.904 97.7677 147.355 98.0807C147.807 98.3937 148.887 99.0061 149.749 99.428C150.61 99.8499 151.718 100.272 152.21 100.381C152.703 100.476 153.277 100.626 153.509 100.707C153.742 100.803 154.631 100.952 155.492 101.061C156.354 101.156 157.626 101.238 158.296 101.252C158.98 101.252 160.087 101.184 160.758 101.102C161.441 101.034 162.672 100.789 163.493 100.571C164.327 100.34 165.462 99.9588 166.023 99.7138C166.583 99.4688 167.39 99.0742 167.801 98.8428C168.211 98.6115 168.854 98.244 169.223 98.0263C169.578 97.8221 170.139 97.4275 170.454 97.1689C170.768 96.9103 171.384 96.3796 171.821 96.0121C172.259 95.6311 172.861 94.9914 173.175 94.5832C173.476 94.1749 173.845 93.7122 173.982 93.5625C174.119 93.4128 174.515 92.9365 174.844 92.501C175.185 92.0791 175.773 91.072 176.156 90.2555C176.553 89.4525 177.018 88.2413 177.196 87.5745C177.387 86.9077 177.688 85.642 177.866 84.7846C178.071 83.7776 178.194 82.7569 178.194 81.9267C178.194 81.1374 178.112 80.3481 177.975 79.8854C177.852 79.4771 177.688 79.0552 177.592 78.9463C177.51 78.8511 177.223 78.6469 176.963 78.5245C176.635 78.3611 175.609 78.1842 173.818 77.9801C172.355 77.8168 170.754 77.6263 170.262 77.5582C169.77 77.5038 168.703 77.4493 167.869 77.4357C166.624 77.4221 166.31 77.4629 166.036 77.6671C165.763 77.8848 165.708 78.0754 165.599 79.273C165.53 80.0215 165.366 81.0285 165.216 81.5185C165.079 82.0084 164.901 82.6208 164.819 82.8794C164.737 83.1379 164.505 83.8184 164.313 84.3764C164.122 84.9343 163.794 85.6012 163.588 85.8597C163.383 86.1047 163.069 86.5402 162.877 86.8124C162.686 87.0982 162.18 87.6425 161.756 88.0236C161.318 88.4183 160.73 88.8538 160.457 89.0035C160.17 89.1532 159.841 89.3301 159.732 89.4117C159.622 89.4798 159.158 89.7111 158.706 89.9153C157.927 90.2827 157.79 90.2963 155.834 90.2963C154.18 90.2963 153.701 90.2555 153.373 90.065C153.14 89.9425 152.716 89.6567 152.415 89.4117C152.115 89.1804 151.581 88.636 151.226 88.2141C150.747 87.6561 150.473 87.1526 150.227 86.3769C150.036 85.7781 149.885 85.0024 149.885 84.5805C149.885 84.1722 150.008 83.3012 150.159 82.6344C150.309 81.9812 150.556 81.2735 150.706 81.0421C150.856 80.8108 151.171 80.3617 151.417 80.0215C151.663 79.6812 152.224 79.0688 152.662 78.6605C153.113 78.2523 153.906 77.6535 154.439 77.3268C154.986 77.0138 155.766 76.6464 156.176 76.5375C156.586 76.4287 157.038 76.279 157.175 76.2109C157.298 76.1293 157.858 75.9796 158.405 75.8571C158.939 75.7482 160.265 75.5849 161.346 75.5168C162.412 75.4488 163.411 75.3263 163.561 75.2583C163.753 75.163 163.835 74.9861 163.835 74.6731C163.835 74.4417 163.78 74.1695 163.712 74.1015C163.643 74.0198 163.52 73.7204 163.424 73.421C163.329 73.1216 163.137 72.727 163.014 72.5365C162.877 72.3459 162.658 72.0057 162.522 71.7743C162.371 71.5294 162.016 71.0122 161.701 70.6176C161.4 70.2093 160.812 69.5969 160.402 69.2567C159.992 68.9164 159.171 68.3993 158.569 68.1271C157.968 67.8549 157.366 67.5691 157.243 67.5011C157.106 67.4194 156.614 67.3106 156.149 67.2289C155.67 67.1609 154.645 67.1064 153.851 67.1064C153.058 67.12 151.923 67.1881 151.321 67.2425C150.72 67.3106 150.05 67.4466 149.831 67.5283ZM365.072 71.0122C364.402 71.2708 363.746 71.5566 363.636 71.6519C363.527 71.7471 363.226 71.924 362.98 72.0465C362.747 72.169 361.968 72.8358 361.27 73.5163C360.573 74.2104 359.698 75.2174 359.315 75.7346C358.932 76.2517 358.398 77.1499 358.139 77.7079C357.879 78.2659 357.564 78.9736 357.441 79.273C357.318 79.5724 357.154 80.1575 357.072 80.5658C356.99 80.9741 356.88 82.022 356.839 82.8794C356.785 83.832 356.826 84.9888 356.935 85.8053C357.017 86.5538 357.25 87.6017 357.414 88.1189C357.592 88.636 357.974 89.575 358.262 90.1874C358.645 91.004 359.028 91.5483 359.752 92.2968C360.272 92.8412 360.86 93.3992 361.052 93.5217C361.229 93.6578 361.626 93.9435 361.927 94.1613C362.228 94.3926 362.747 94.7193 363.089 94.8962C363.431 95.0731 364.074 95.4133 364.525 95.6447C364.976 95.876 365.988 96.2163 366.782 96.4068C367.575 96.5837 368.929 96.8014 369.79 96.8831C370.857 96.9784 371.732 96.992 372.484 96.8967C373.113 96.8151 373.729 96.7062 373.852 96.6382C373.989 96.5837 374.563 96.4204 375.124 96.2979C375.685 96.1755 376.587 95.8624 377.107 95.5902C377.626 95.3317 378.283 95.0323 378.543 94.937C378.803 94.8418 379.459 94.4471 379.979 94.066C380.498 93.6714 381.51 92.9229 382.208 92.3785C382.987 91.7661 383.657 91.1129 383.945 90.6638C384.204 90.2827 384.478 89.9561 384.56 89.9561C384.642 89.9561 384.738 89.82 384.779 89.6431C384.82 89.4798 385.025 89.0987 385.216 88.7993C385.408 88.4999 385.668 88.0916 385.818 87.8739C385.955 87.6698 386.215 87.071 386.406 86.5538C386.652 85.887 386.707 85.5059 386.639 85.2882C386.57 85.1249 386.228 84.8391 385.846 84.6622C385.476 84.4852 384.806 84.1858 384.355 84.0089C383.904 83.832 383.151 83.6006 382.673 83.4918C382.071 83.3421 381.729 83.3285 381.483 83.4237C381.264 83.5054 381.114 83.6959 381.086 83.9273C381.045 84.145 380.977 84.6485 380.936 85.0568C380.881 85.4651 380.717 86.2 380.567 86.6899C380.416 87.1798 380.047 88.0644 379.76 88.6632C379.473 89.262 378.98 90.0514 378.666 90.4324C378.365 90.7999 378.064 91.1809 378.009 91.249C377.968 91.3306 377.681 91.5756 377.38 91.8069C377.079 92.0383 376.655 92.3241 376.423 92.4466C376.191 92.569 375.575 92.882 375.055 93.1406C374.44 93.4536 373.565 93.7258 372.594 93.9299C371.103 94.2293 371.076 94.2294 369.995 93.9844C369.394 93.8483 368.587 93.5897 368.218 93.3992C367.835 93.1951 367.151 92.6643 366.672 92.2152C366.194 91.7525 365.674 91.1401 365.496 90.8407C365.318 90.5413 365.059 89.9289 364.935 89.4798C364.812 89.0307 364.648 88.4183 364.566 88.1189C364.498 87.8195 364.47 87.0301 364.511 86.3497C364.552 85.6828 364.73 84.6349 364.908 84.0361C365.072 83.4373 365.373 82.7297 365.551 82.4711C365.729 82.2125 365.988 81.8723 366.112 81.7226C366.248 81.5729 366.59 81.1782 366.877 80.8516C367.192 80.4978 367.725 80.1031 368.218 79.8854C368.669 79.6676 369.284 79.4363 369.585 79.3546C369.886 79.2729 370.775 79.1641 371.568 79.1096C372.443 79.0688 373.455 79.096 374.167 79.1913C374.809 79.2866 375.999 79.5451 376.833 79.7765C377.667 80.0214 378.488 80.1984 378.679 80.1848C378.871 80.1711 379.103 80.0487 379.199 79.9126C379.295 79.7901 379.363 79.4363 379.363 79.1369C379.363 78.8375 379.268 78.2387 379.158 77.8032C379.049 77.3813 378.693 76.5239 378.392 75.8979C378.078 75.2855 377.791 74.7547 377.736 74.7139C377.681 74.6731 377.353 74.2512 376.984 73.7613C376.628 73.2713 376.191 72.7814 376.026 72.6725C375.849 72.5637 375.452 72.2371 375.11 71.9649C374.782 71.6927 374.112 71.2844 373.619 71.0667C373.127 70.8489 372.252 70.5359 371.664 70.3726C370.857 70.1549 370.255 70.0868 369.065 70.1004C368.067 70.114 367.329 70.1957 366.918 70.3318C366.577 70.4543 365.742 70.7537 365.072 71.0122ZM214.722 73.8974C214.64 75.0677 214.571 75.3127 213.997 76.4831C213.532 77.4357 213.149 77.9801 212.561 78.5653C212.123 78.9872 211.59 79.409 211.358 79.5043C211.125 79.586 210.852 79.7357 210.742 79.8309C210.633 79.9262 210.14 80.1439 209.648 80.3345C208.978 80.593 208.048 80.7427 205.819 80.9877C203.275 81.2599 202.154 81.3007 197.614 81.3007C193.524 81.3007 191.829 81.2599 190.024 81.0693C188.752 80.9333 187.22 80.7427 186.646 80.6339C185.784 80.4706 185.538 80.4569 185.374 80.593C185.251 80.6883 185.155 80.9197 185.169 81.1102C185.169 81.3007 185.292 82.1036 185.442 82.9066C185.593 83.7231 185.811 84.5533 185.921 84.7846C186.03 85.016 186.263 85.2746 186.441 85.3562C186.673 85.4923 193.142 85.5467 215.802 85.642C231.789 85.6964 261.876 85.7237 282.676 85.6828C313.898 85.642 321.488 85.5876 326.233 85.4107C329.392 85.3018 332.688 85.0976 333.55 84.9888C334.411 84.8663 335.492 84.7166 335.943 84.6485C336.394 84.5805 337.078 84.39 337.447 84.2266C337.83 84.0633 338.432 83.7095 338.801 83.4373C339.17 83.1652 339.676 82.6344 339.909 82.267C340.155 81.8859 340.483 81.2735 340.634 80.906C340.784 80.525 340.948 79.8309 340.989 79.341C341.044 78.8511 341.017 78.1434 340.948 77.776C340.88 77.3677 340.593 76.7553 340.265 76.2381C339.841 75.6121 339.471 75.2447 338.788 74.8092C338.158 74.4009 337.488 74.1151 336.695 73.911C336.052 73.7477 334.699 73.4346 333.687 73.2305C332.675 73.0128 331.444 72.8086 330.951 72.7542C330.459 72.7134 328.121 72.5501 325.755 72.4004C321.584 72.1418 319.669 72.1282 268.221 72.1282C217.662 72.1282 214.995 72.1418 214.9 72.3595C214.845 72.4956 214.763 73.1897 214.722 73.8974ZM157.817 77.9393C157.257 78.089 156.518 78.3611 156.176 78.5517C155.834 78.7286 155.287 79.0552 154.945 79.273C154.604 79.4771 154.111 79.899 153.851 80.212C153.592 80.5114 153.044 81.4232 152.662 82.2261C151.978 83.6142 151.937 83.7503 151.937 84.7438C151.937 85.71 151.991 85.8734 152.388 86.4858C152.621 86.8532 153.003 87.3295 153.236 87.5337C153.468 87.7378 154.043 88.0372 154.535 88.1869C155.027 88.3366 155.67 88.4591 155.971 88.4591C156.272 88.4591 156.874 88.3638 157.311 88.255C157.735 88.1461 158.378 87.9011 158.747 87.7106C159.103 87.5201 159.472 87.3704 159.568 87.3704C159.65 87.3704 159.759 87.2887 159.8 87.1934C159.828 87.1118 160.197 86.758 160.621 86.4177C161.045 86.0775 161.387 85.7645 161.373 85.6964C161.373 85.642 161.619 85.2746 161.906 84.8799C162.207 84.4988 162.768 83.4373 163.164 82.5391C163.876 80.9197 163.889 80.8924 163.944 79.273C163.985 77.8032 163.971 77.6262 163.739 77.4629C163.575 77.3541 163 77.2996 161.988 77.3132C161.168 77.3132 160.115 77.4085 159.664 77.5038C159.212 77.599 158.378 77.7896 157.817 77.9393ZM369.585 81.5185C369.284 81.6137 368.792 81.8587 368.491 82.0492C368.19 82.2397 367.821 82.5527 367.671 82.7433C367.52 82.9202 367.26 83.3829 367.082 83.764C366.918 84.1314 366.7 84.8391 366.618 85.329C366.535 85.8325 366.508 86.7307 366.563 87.3976C366.618 88.2686 366.754 88.881 367.069 89.6431C367.301 90.2283 367.657 90.8543 367.862 91.0312C368.053 91.2217 368.614 91.5483 369.107 91.7797C369.954 92.1744 370.077 92.2016 371.637 92.188C373.168 92.188 373.332 92.1608 374.167 91.7661C374.659 91.5347 375.397 91.0176 375.821 90.6229C376.259 90.2146 376.82 89.575 377.093 89.2076C377.367 88.8265 377.832 88.0372 378.119 87.4384C378.406 86.8396 378.762 85.887 378.926 85.329C379.076 84.771 379.226 83.9817 379.254 83.587C379.295 82.9474 379.254 82.8113 378.953 82.5528C378.734 82.3622 378.324 82.2125 377.859 82.1445C377.449 82.09 376.546 81.8995 375.876 81.709C375.206 81.532 374.084 81.3007 373.414 81.1782C372.744 81.0694 372.06 80.9741 371.91 80.9877C371.76 81.0013 371.295 81.0829 370.884 81.1646C370.474 81.2599 369.886 81.4096 369.585 81.5185Z" fill="#8C6E47"/>
</svg>
