<svg width="109" height="150" viewBox="0 0 109 150" fill="none" xmlns="http://www.w3.org/2000/svg">
<g opacity="0.8">
<path fill-rule="evenodd" clip-rule="evenodd" d="M0 100.775H108.946V128.4H0V100.775ZM20.668 112.234H17.653C17.5979 111.844 17.4854 111.498 17.3156 111.195C17.1459 110.888 16.9279 110.626 16.6617 110.41C16.3955 110.195 16.0881 110.029 15.7393 109.915C15.3951 109.8 15.0211 109.743 14.6172 109.743C13.8876 109.743 13.252 109.924 12.7104 110.286C12.1689 110.644 11.749 111.167 11.4507 111.856C11.1524 112.54 11.0033 113.37 11.0033 114.348C11.0033 115.353 11.1524 116.197 11.4507 116.881C11.7536 117.565 12.1758 118.081 12.7173 118.43C13.2588 118.779 13.8853 118.953 14.5966 118.953C14.9958 118.953 15.3653 118.9 15.7049 118.795C16.049 118.689 16.3542 118.535 16.6204 118.333C16.8866 118.127 17.1068 117.877 17.2812 117.583C17.4602 117.289 17.5841 116.954 17.653 116.578L20.668 116.592C20.59 117.239 20.395 117.863 20.0829 118.464C19.7754 119.061 19.3601 119.595 18.837 120.068C18.3184 120.536 17.6988 120.908 16.9783 121.183C16.2624 121.454 15.4525 121.589 14.5484 121.589C13.291 121.589 12.1666 121.305 11.1754 120.736C10.1887 120.167 9.40855 119.343 8.8349 118.265C8.26585 117.186 7.98132 115.881 7.98132 114.348C7.98132 112.81 8.27044 111.502 8.84867 110.424C9.4269 109.346 10.2116 108.524 11.2029 107.96C12.1942 107.391 13.3093 107.106 14.5484 107.106C15.3653 107.106 16.1225 107.221 16.82 107.45C17.5222 107.68 18.144 108.015 18.6855 108.455C19.227 108.891 19.6676 109.426 20.0072 110.059C20.3514 110.692 20.5716 111.418 20.668 112.234ZM24.3559 107.299V121.397H33.3804V118.939H27.3365V107.299H24.3559ZM36.5009 121.397H39.695L40.7408 118.182H45.8309L46.8747 121.397H50.0687L45.2088 107.299H41.3677L36.5009 121.397ZM43.3433 110.52L45.0755 115.855H41.4977L43.2332 110.52H43.3433ZM60.6421 111.353C60.587 110.798 60.3507 110.367 59.9331 110.059C59.5154 109.752 58.9487 109.598 58.2328 109.598C57.7463 109.598 57.3356 109.667 57.0006 109.804C56.6656 109.938 56.4086 110.123 56.2296 110.362C56.0552 110.601 55.968 110.871 55.968 111.174C55.9589 111.427 56.0116 111.647 56.1264 111.835C56.2457 112.023 56.4086 112.186 56.6151 112.324C56.8216 112.457 57.0603 112.574 57.331 112.675C57.6018 112.771 57.8909 112.854 58.1984 112.923L59.465 113.226C60.0799 113.363 60.6444 113.547 61.1584 113.776C61.6723 114.006 62.1175 114.288 62.4938 114.623C62.8701 114.958 63.1615 115.353 63.368 115.807C63.5791 116.261 63.687 116.782 63.6916 117.37C63.687 118.232 63.4667 118.98 63.0307 119.614C62.5994 120.243 61.9752 120.731 61.1584 121.08C60.3461 121.424 59.3663 121.596 58.219 121.596C57.0809 121.596 56.0896 121.422 55.2452 121.073C54.4054 120.724 53.7492 120.208 53.2765 119.524C52.8084 118.836 52.5629 117.985 52.5399 116.97H55.4242C55.4563 117.443 55.5917 117.838 55.8304 118.154C56.0736 118.466 56.3971 118.703 56.801 118.863C57.2094 119.019 57.6706 119.098 58.1846 119.098C58.6894 119.098 59.1277 119.024 59.4994 118.877C59.8757 118.73 60.1671 118.526 60.3736 118.265C60.5801 118.003 60.6834 117.702 60.6834 117.363C60.6834 117.046 60.5893 116.78 60.4012 116.564C60.2176 116.349 59.9468 116.165 59.5889 116.014C59.2355 115.862 58.8018 115.724 58.2879 115.601L56.7528 115.215C55.5642 114.926 54.6257 114.474 53.9373 113.859C53.249 113.244 52.9071 112.416 52.9117 111.374C52.9071 110.52 53.1342 109.775 53.5932 109.137C54.0567 108.499 54.6923 108.001 55.4999 107.643C56.3076 107.285 57.2255 107.106 58.2534 107.106C59.2998 107.106 60.213 107.285 60.9932 107.643C61.7779 108.001 62.3883 108.499 62.8242 109.137C63.2602 109.775 63.4851 110.514 63.4988 111.353H60.6421ZM74.1862 110.059C74.6038 110.367 74.8402 110.798 74.8952 111.353H77.752C77.7382 110.514 77.5133 109.775 77.0774 109.137C76.6414 108.499 76.031 108.001 75.2463 107.643C74.4661 107.285 73.5529 107.106 72.5066 107.106C71.4786 107.106 70.5608 107.285 69.7531 107.643C68.9454 108.001 68.3098 108.499 67.8463 109.137C67.3874 109.775 67.1602 110.52 67.1648 111.374C67.1602 112.416 67.5021 113.244 68.1905 113.859C68.8789 114.474 69.8173 114.926 71.0059 115.215L72.541 115.601C73.055 115.724 73.4887 115.862 73.842 116.014C74.2 116.165 74.4707 116.349 74.6543 116.564C74.8425 116.78 74.9365 117.046 74.9365 117.363C74.9365 117.702 74.8333 118.003 74.6268 118.265C74.4203 118.526 74.1288 118.73 73.7525 118.877C73.3808 119.024 72.9426 119.098 72.4377 119.098C71.9238 119.098 71.4626 119.019 71.0541 118.863C70.6503 118.703 70.3267 118.466 70.0835 118.154C69.8449 117.838 69.7095 117.443 69.6774 116.97H66.7931C66.816 117.985 67.0616 118.836 67.5297 119.524C68.0023 120.208 68.6586 120.724 69.4984 121.073C70.3428 121.422 71.3341 121.596 72.4722 121.596C73.6194 121.596 74.5992 121.424 75.4115 121.08C76.2284 120.731 76.8525 120.243 77.2839 119.614C77.7199 118.98 77.9401 118.232 77.9447 117.37C77.9401 116.782 77.8323 116.261 77.6212 115.807C77.4147 115.353 77.1233 114.958 76.747 114.623C76.3706 114.288 75.9255 114.006 75.4115 113.776C74.8975 113.547 74.3331 113.363 73.7181 113.226L72.4515 112.923C72.144 112.854 71.8549 112.771 71.5842 112.675C71.3134 112.574 71.0748 112.457 70.8683 112.324C70.6617 112.186 70.4988 112.023 70.3795 111.835C70.2648 111.647 70.212 111.427 70.2212 111.174C70.2212 110.871 70.3084 110.601 70.4828 110.362C70.6617 110.123 70.9187 109.938 71.2537 109.804C71.5888 109.667 71.9995 109.598 72.4859 109.598C73.2018 109.598 73.7686 109.752 74.1862 110.059ZM84.481 107.299V121.397H81.5003V107.299H84.481ZM97.9077 112.234H100.923C100.826 111.418 100.606 110.692 100.262 110.059C99.9223 109.426 99.4818 108.891 98.9403 108.455C98.3987 108.015 97.7769 107.68 97.0748 107.45C96.3772 107.221 95.62 107.106 94.8031 107.106C93.5641 107.106 92.4489 107.391 91.4577 107.96C90.4664 108.524 89.6817 109.346 89.1034 110.424C88.5252 111.502 88.2361 112.81 88.2361 114.348C88.2361 115.881 88.5206 117.186 89.0897 118.265C89.6633 119.343 90.4435 120.167 91.4301 120.736C92.4214 121.305 93.5457 121.589 94.8031 121.589C95.7072 121.589 96.5172 121.454 97.2331 121.183C97.9536 120.908 98.5731 120.536 99.0917 120.068C99.6149 119.595 100.03 119.061 100.338 118.464C100.65 117.863 100.845 117.239 100.923 116.592L97.9077 116.578C97.8389 116.954 97.715 117.289 97.536 117.583C97.3616 117.877 97.1413 118.127 96.8752 118.333C96.609 118.535 96.3038 118.689 95.9596 118.795C95.62 118.9 95.2506 118.953 94.8513 118.953C94.14 118.953 93.5136 118.779 92.9721 118.43C92.4306 118.081 92.0084 117.565 91.7055 116.881C91.4072 116.197 91.258 115.353 91.258 114.348C91.258 113.37 91.4072 112.54 91.7055 111.856C92.0038 111.167 92.4237 110.644 92.9652 110.286C93.5067 109.924 94.1423 109.743 94.872 109.743C95.2758 109.743 95.6498 109.8 95.994 109.915C96.3428 110.029 96.6503 110.195 96.9165 110.41C97.1826 110.626 97.4006 110.888 97.5704 111.195C97.7402 111.498 97.8526 111.844 97.9077 112.234Z" fill="white"/>
<path d="M59.5311 27.1593V0H74.3165V27.1593H59.5311Z" fill="white"/>
<path d="M34.6292 27.1593V0H49.8038V27.1593H34.6292Z" fill="white"/>
<path fill-rule="evenodd" clip-rule="evenodd" d="M0 36.7224H15.1746V59.2914H34.6292V36.7224H49.8038V90.6584H34.6292V68.472H15.1746V90.6584H0V36.7224ZM40.734 67.7069H42.5932L43.202 65.8672H46.165L46.7725 67.7069H48.6318L45.8028 59.6391H43.5669L40.734 67.7069ZM45.7252 64.5357L44.7169 61.4827H44.6528L43.6426 64.5357H45.7252Z" fill="white"/>
<path fill-rule="evenodd" clip-rule="evenodd" d="M59.5311 36.7224V90.6584H74.3165V68.472H93.7711V90.6584H108.946V36.7224H93.7711V59.2914H74.3165V36.7224H59.5311ZM60.8507 67.7069H63.7598C64.5932 67.7069 65.3091 67.5454 65.9075 67.2224C66.5086 66.8994 66.9694 66.4358 67.2899 65.8318C67.6132 65.2278 67.7748 64.5055 67.7748 63.6651C67.7748 62.8274 67.6132 62.1078 67.2899 61.5064C66.9694 60.905 66.5112 60.4441 65.9155 60.1237C65.3198 59.8006 64.6093 59.6391 63.7838 59.6391H60.8507V67.7069ZM62.5857 66.2454H63.6876C64.2005 66.2454 64.632 66.1561 64.9819 65.9775C65.3345 65.7963 65.599 65.5166 65.7753 65.1385C65.9543 64.7577 66.0438 64.2665 66.0438 63.6651C66.0438 63.069 65.9543 62.5818 65.7753 62.2036C65.599 61.8255 65.3359 61.5471 64.9859 61.3685C64.636 61.1899 64.2045 61.1006 63.6917 61.1006H62.5857V66.2454Z" fill="white"/>
<path d="M57.9503 59.6391V67.7069H56.4517L52.8815 62.6291H52.8214V67.7069H51.0864V59.6391H52.609L56.1512 64.713H56.2233V59.6391H57.9503Z" fill="white"/>
<path d="M105.245 139.757C105.19 139.202 104.954 138.77 104.536 138.463C104.119 138.155 103.552 138.002 102.836 138.002C102.349 138.002 101.939 138.071 101.604 138.208C101.269 138.341 101.012 138.527 100.833 138.766C100.658 139.004 100.571 139.275 100.571 139.578C100.562 139.83 100.615 140.051 100.729 140.239C100.849 140.427 101.012 140.59 101.218 140.728C101.425 140.861 101.663 140.978 101.934 141.079C102.205 141.175 102.494 141.258 102.801 141.327L104.068 141.629C104.683 141.767 105.247 141.951 105.761 142.18C106.275 142.41 106.721 142.692 107.097 143.027C107.473 143.362 107.765 143.756 107.971 144.211C108.182 144.665 108.29 145.186 108.295 145.773C108.29 146.636 108.07 147.384 107.634 148.017C107.202 148.646 106.578 149.135 105.761 149.484C104.949 149.828 103.969 150 102.822 150C101.684 150 100.693 149.826 99.8483 149.477C99.0085 149.128 98.3523 148.612 97.8796 147.928C97.4115 147.24 97.166 146.388 97.143 145.374H100.027C100.059 145.847 100.195 146.241 100.433 146.558C100.677 146.87 101 147.107 101.404 147.267C101.812 147.423 102.274 147.501 102.788 147.501C103.292 147.501 103.731 147.428 104.102 147.281C104.479 147.134 104.77 146.93 104.977 146.668C105.183 146.407 105.286 146.106 105.286 145.767C105.286 145.45 105.192 145.184 105.004 144.968C104.821 144.752 104.55 144.569 104.192 144.417C103.839 144.266 103.405 144.128 102.891 144.004L101.356 143.619C100.167 143.33 99.2288 142.878 98.5404 142.263C97.852 141.648 97.5101 140.819 97.5147 139.778C97.5101 138.924 97.7373 138.178 98.1962 137.54C98.6597 136.903 99.2953 136.405 100.103 136.047C100.911 135.689 101.829 135.51 102.856 135.51C103.903 135.51 104.816 135.689 105.596 136.047C106.381 136.405 106.991 136.903 107.427 137.54C107.863 138.178 108.088 138.917 108.102 139.757H105.245Z" fill="white"/>
<path d="M94.3595 135.703V149.8H91.7849L85.6516 140.927H85.5483V149.8H82.5677V135.703H85.1835L91.2687 144.569H91.3926V135.703H94.3595Z" fill="white"/>
<path d="M79.5842 142.751C79.5842 144.289 79.2928 145.597 78.7099 146.675C78.1317 147.754 77.3424 148.577 76.3419 149.146C75.3461 149.711 74.2263 149.993 72.9827 149.993C71.7298 149.993 70.6055 149.709 69.6097 149.14C68.6138 148.57 67.8268 147.747 67.2485 146.668C66.6703 145.59 66.3812 144.284 66.3812 142.751C66.3812 141.214 66.6703 139.906 67.2485 138.828C67.8268 137.749 68.6138 136.928 69.6097 136.363C70.6055 135.794 71.7298 135.51 72.9827 135.51C74.2263 135.51 75.3461 135.794 76.3419 136.363C77.3424 136.928 78.1317 137.749 78.7099 138.828C79.2928 139.906 79.5842 141.214 79.5842 142.751ZM76.5622 142.751C76.5622 141.756 76.4131 140.916 76.1148 140.232C75.8211 139.548 75.4058 139.03 74.8688 138.676C74.3319 138.323 73.7032 138.146 72.9827 138.146C72.2622 138.146 71.6335 138.323 71.0965 138.676C70.5596 139.03 70.142 139.548 69.8437 140.232C69.55 140.916 69.4032 141.756 69.4032 142.751C69.4032 143.747 69.55 144.587 69.8437 145.271C70.142 145.955 70.5596 146.473 71.0965 146.827C71.6335 147.18 72.2622 147.357 72.9827 147.357C73.7032 147.357 74.3319 147.18 74.8688 146.827C75.4058 146.473 75.8211 145.955 76.1148 145.271C76.4131 144.587 76.5622 143.747 76.5622 142.751Z" fill="white"/>
<path d="M63.4012 135.703V149.8H60.4206V135.703H63.4012Z" fill="white"/>
<path d="M46.1602 138.16V135.703H57.7386V138.16H53.4225V149.8H50.4763V138.16H46.1602Z" fill="white"/>
<path d="M43.784 140.638H40.769C40.7139 140.248 40.6015 139.902 40.4317 139.599C40.2619 139.291 40.0439 139.03 39.7777 138.814C39.5115 138.598 39.2041 138.433 38.8553 138.318C38.5111 138.204 38.1371 138.146 37.7332 138.146C37.0036 138.146 36.368 138.328 35.8264 138.69C35.2849 139.048 34.865 139.571 34.5667 140.26C34.2684 140.943 34.1193 141.774 34.1193 142.751C34.1193 143.756 34.2684 144.601 34.5667 145.285C34.8696 145.968 35.2918 146.485 35.8333 146.833C36.3749 147.182 37.0013 147.357 37.7126 147.357C38.1118 147.357 38.4813 147.304 38.8209 147.198C39.1651 147.093 39.4702 146.939 39.7364 146.737C40.0026 146.531 40.2229 146.28 40.3972 145.987C40.5762 145.693 40.7001 145.358 40.769 144.982L43.784 144.996C43.706 145.643 43.511 146.267 43.1989 146.868C42.8914 147.465 42.4761 147.999 41.953 148.472C41.4344 148.94 40.8149 149.312 40.0944 149.587C39.3784 149.858 38.5685 149.993 37.6644 149.993C36.407 149.993 35.2826 149.709 34.2914 149.14C33.3047 148.57 32.5246 147.747 31.9509 146.668C31.3819 145.59 31.0973 144.284 31.0973 142.751C31.0973 141.214 31.3864 139.906 31.9647 138.828C32.5429 137.749 33.3277 136.928 34.3189 136.363C35.3102 135.794 36.4253 135.51 37.6644 135.51C38.4813 135.51 39.2385 135.624 39.936 135.854C40.6382 136.083 41.26 136.418 41.8015 136.859C42.343 137.295 42.7836 137.83 43.1232 138.463C43.4674 139.096 43.6877 139.821 43.784 140.638Z" fill="white"/>
<path d="M25.1368 135.703H28.1174V144.858C28.1174 145.886 27.8719 146.785 27.3809 147.556C26.8944 148.327 26.2129 148.928 25.3364 149.36C24.4599 149.787 23.4388 150 22.2732 150C21.1029 150 20.0795 149.787 19.203 149.36C18.3265 148.928 17.645 148.327 17.1585 147.556C16.6721 146.785 16.4289 145.886 16.4289 144.858V135.703H19.4095V144.603C19.4095 145.14 19.5265 145.617 19.7606 146.035C19.9992 146.453 20.3342 146.781 20.7656 147.019C21.197 147.258 21.6995 147.377 22.2732 147.377C22.8514 147.377 23.3539 147.258 23.7807 147.019C24.2121 146.781 24.5448 146.453 24.7788 146.035C25.0175 145.617 25.1368 145.14 25.1368 144.603V135.703Z" fill="white"/>
<path d="M3.58314 149.8H0.389092L5.25588 135.703H9.097L13.9569 149.8H10.7629L7.23151 138.924H7.12137L3.58314 149.8ZM3.38351 144.259H10.9281V146.586H3.38351V144.259Z" fill="white"/>
</g>
</svg>
