<svg width="154" height="150" viewBox="0 0 154 150" fill="none" xmlns="http://www.w3.org/2000/svg">
<g opacity="0.8">
<path d="M89.2528 78.0692C89.52 78.0222 89.5705 78.0363 89.8281 78.1282C90.1174 78.6709 90.0233 79.6679 90.0488 80.286C90.6774 79.4235 91.2777 78.6159 92.3108 78.2246C92.8192 78.0324 93.3831 77.9944 93.8824 78.2382C93.9856 78.2896 94.0827 78.3507 94.1734 78.4214C94.2642 78.4921 94.3471 78.5713 94.4219 78.659C94.4968 78.7463 94.5623 78.8403 94.6183 78.9409C94.6742 79.0418 94.7196 79.1471 94.7544 79.2567C94.8651 79.5953 94.8611 79.9957 94.688 80.3132C94.5326 80.5985 94.2778 80.7658 93.9686 80.8497C93.0404 81.1015 92.1662 80.4561 91.407 80.007C91.0615 80.3733 90.7228 80.7539 90.4482 81.1769C89.7572 82.2425 89.7974 87.7904 90.1413 89.1015C90.2666 89.5807 90.4476 89.701 90.8453 89.934C91.4893 90.2414 92.1071 90.6111 92.729 90.961C90.1481 90.796 87.5598 90.8363 84.9766 90.9004C85.7063 90.4075 86.5964 90.1864 87.2722 89.6216C87.7652 88.5639 87.5615 81.5433 87.25 80.2605C86.8234 79.99 85.4044 80.1607 84.8461 80.1692C86.1641 79.1728 87.7289 78.6664 89.2528 78.0692Z" fill="white"/>
<path d="M98.9729 78.0959C100.15 78.0023 101.529 78.7401 102.635 78.2575C102.8 78.1849 102.886 78.2592 103.056 78.3108C103.292 78.6148 103.361 78.934 103.394 79.3083C103.457 80.0161 103.52 81.9295 103.097 82.4421C102.224 81.7304 102.049 80.2775 101.159 79.5051C100.732 79.1331 99.9306 78.9959 99.3786 79.0543C98.7834 79.1172 98.1497 79.3633 97.7939 79.8658C97.5664 80.1879 97.512 80.5599 97.5891 80.9421C97.9579 82.7676 101.009 83.4402 102.413 84.3334C103.398 84.9589 103.999 85.7596 104.25 86.904C104.434 87.7479 104.269 88.5962 103.8 89.3198C103.043 90.4898 101.922 90.9656 100.612 91.2406C99.4092 91.3625 97.3565 90.9497 95.9949 90.906C95.9393 90.8073 95.9001 90.7353 95.8712 90.6247C95.6488 89.7764 95.5126 87.09 95.9733 86.3874C96.4221 86.6108 97.1988 88.8151 98.1355 89.5671C98.7698 90.0764 99.6254 90.3809 100.444 90.2595C100.967 90.1824 101.48 89.8813 101.788 89.448C102.051 89.0771 102.184 88.5747 102.085 88.1261C101.722 86.4742 98.8509 85.505 97.5108 84.694C96.6643 84.1814 95.9495 83.4237 95.7293 82.4336C95.5308 81.5393 95.7407 80.5849 96.2383 79.8227C96.914 78.7883 97.7945 78.3437 98.9729 78.0959Z" fill="white"/>
<path d="M67.1393 78.1021C67.9591 77.9932 68.9174 78.1078 69.681 78.4276C70.9615 78.9641 71.9221 80.1079 72.4174 81.3856C72.6131 81.8909 72.7447 82.3814 72.5172 82.9014C71.9079 83.4685 65.4088 83.1629 64.0705 83.1572C64.1181 83.7073 64.1573 84.2761 64.273 84.8171C64.5709 86.211 65.3935 87.5794 66.6247 88.337C67.4042 88.8168 68.3625 89.0368 69.26 88.8021C70.5445 88.4663 71.2486 87.4314 71.8829 86.3511C71.9521 86.1741 72.0259 86.1169 72.1615 85.9881L72.3465 86.0789C72.3799 86.1713 72.4072 86.2303 72.4225 86.3244C72.5405 87.0373 72.2086 87.9764 71.8182 88.5559C70.9564 89.8364 69.8478 90.9032 68.2819 91.1935C66.9668 91.4374 65.5183 91.0245 64.4358 90.2635C63.1082 89.33 62.3729 87.8573 62.0944 86.2893C61.7426 84.3101 62.0898 81.9986 63.2858 80.3466C64.2713 78.9845 65.5127 78.3607 67.1393 78.1021ZM66.594 79.1932C65.4752 79.6452 64.8908 80.1238 64.4177 81.2523C64.2696 81.6056 64.1249 81.9595 63.9717 82.3105L67.2113 82.3196C67.8428 82.3343 68.6422 82.4455 69.2175 82.1631C69.411 81.9294 69.5154 81.8631 69.4921 81.5415C69.4507 80.9603 68.9673 80.2599 68.6757 79.7693C67.9784 79.4438 67.381 79.1677 66.594 79.1932Z" fill="white"/>
<path d="M125.008 24.7441C127.951 24.4547 131.764 25.7953 134.038 27.5879C137.623 30.414 138.171 32.9614 138.672 37.2035C136.21 36.8614 133.909 35.8104 131.913 34.3505C129.475 32.5673 125.463 27.7326 125.008 24.7441Z" fill="white"/>
<path d="M27.9135 24.6652C28.0221 24.6683 28.127 24.7275 28.2275 24.7673C28.2376 24.8015 28.2527 24.8346 28.2579 24.8699C28.3754 25.6669 26.7118 28.4165 26.2028 29.1992C23.5414 33.2914 20.037 36.0653 15.2302 37.0944C14.935 36.8401 14.9175 36.5289 14.8737 36.1688C14.6131 34.026 15.9664 31.2439 17.2678 29.5915C20.0446 26.0659 23.6793 25.1578 27.9135 24.6652Z" fill="white"/>
<path d="M125.748 7.27829C128.656 7.94662 131.928 10.7063 133.621 13.0819C135.964 16.3706 136.544 19.8798 135.889 23.8277C135.863 23.8318 135.837 23.8388 135.81 23.8399C134.658 23.891 132.952 22.4452 132.145 21.6832C128.977 18.6927 127.261 14.1775 126.274 10.0267C126.063 9.14013 125.772 8.18644 125.748 7.27829Z" fill="white"/>
<path d="M27.2252 7.33115L27.4822 7.37509C27.5028 7.41717 27.5255 7.45829 27.5441 7.50127C27.9668 8.47696 25.7168 14.7036 25.2151 15.8265C23.6581 19.3108 21.3776 22.4939 17.6884 23.8996C17.6563 23.8389 17.6244 23.7779 17.5962 23.7152C16.6698 21.6519 17.1356 18.6597 17.9065 16.5934C19.5911 12.078 22.9611 9.27963 27.2252 7.33115Z" fill="white"/>
<path d="M129.583 37.8863C133.19 38.7121 136.726 41.1447 138.828 44.1724C140.867 47.1092 141.4 50.184 140.762 53.6716L140.527 53.9075C139.732 53.9489 138.713 53.0535 138.074 52.5919C133.45 49.2522 130.491 43.4196 129.583 37.8863Z" fill="white"/>
<path d="M23.1692 38.0908C23.4451 38.1131 23.461 38.1375 23.6763 38.3164C23.7644 38.9266 23.558 39.5633 23.3903 40.147C21.7013 46.0266 18.4054 51.021 12.9979 54.0176C12.8271 53.8514 12.7336 53.717 12.6598 53.4874C11.8603 50.9944 12.5182 47.8385 13.7066 45.6024C15.7252 41.8044 19.1114 39.3291 23.1692 38.0908Z" fill="white"/>
<path d="M54.5728 81.6811C55.8959 79.8119 57.2961 77.7097 58.3769 75.6954C59.8089 73.0261 57.3801 73.9153 57.0351 72.7482C57.1225 72.6756 57.1895 72.6178 57.3007 72.5837C57.9157 72.3943 63.0321 72.4561 63.5966 72.7414L63.6352 72.9365C62.7518 73.351 61.5399 73.7253 60.896 74.4739C59.906 75.6239 59.148 76.9991 58.3491 78.2876C57.6212 79.4303 56.8252 80.5435 56.1427 81.714C55.193 83.3427 54.8497 87.2279 55.3904 89.0726C55.7007 90.1331 57.5253 90.4456 58.4456 90.9446C55.3766 90.8172 52.3074 90.8136 49.238 90.9338C49.9716 90.4938 51.7468 90.1836 52.1548 89.4616C52.641 88.6019 52.6053 84.4979 52.2983 83.4952C51.9392 82.3208 47.7981 75.9778 46.9073 74.9678C46.2946 74.2731 45.5837 73.6742 44.7735 73.2319C44.3673 73.0102 44.3162 73.0011 44.1903 72.573C45.7249 72.3796 50.8788 72.3529 52.2762 72.6937L52.3658 72.8866C51.799 73.5041 50.7177 73.2484 50.1622 73.9839C49.9375 75.0563 53.8194 80.4153 54.5728 81.6811Z" fill="white"/>
<path d="M78.2117 78.0919C79.5018 78.0216 81.1199 78.0176 82.1933 78.8507C84.166 80.3813 83.0359 85.7914 83.378 88.1607C83.4421 88.6082 83.5295 88.9178 83.9016 89.1923C84.4537 89.0619 84.7765 88.5883 85.2576 88.281L85.4068 88.3842C85.4295 88.6711 85.4137 88.9053 85.303 89.1758C84.9683 89.9936 83.8687 90.7427 83.0676 91.0325C82.6228 91.1936 82.1644 91.2248 81.7383 90.986C81.1347 90.6475 80.9809 89.9063 80.7863 89.2955C79.8871 90.0628 78.9118 90.8828 77.7107 91.0989C76.6798 91.2849 75.8537 90.952 75.0288 90.3611C74.8132 90.1286 74.6141 89.8393 74.4734 89.5541C74.0683 88.7329 73.8788 87.7865 74.2016 86.9092C75.1355 84.368 78.8647 83.4652 81.1001 82.4586C81.0178 81.9731 80.9361 81.4849 80.826 81.004C80.6791 80.3603 80.2831 79.5613 79.6868 79.2278C79.2284 78.9715 78.7018 79.0016 78.2156 79.1564C76.4761 79.7087 77.5496 81.1174 76.867 82.1892C76.6894 82.4682 76.4994 82.614 76.1811 82.6894C75.8412 82.7699 75.473 82.6463 75.1848 82.4665C74.8989 82.2885 74.6963 82.086 74.6277 81.748C74.5029 81.131 74.6646 80.4255 75.0135 79.905C75.7805 78.7611 76.9289 78.3636 78.2117 78.0919ZM80.6723 83.747C79.2913 84.3124 77.296 85.0457 76.6866 86.5383C76.4835 87.0345 76.5187 87.5834 76.7354 88.0689C76.9294 88.5027 77.2103 88.8435 77.5654 89.1543C78.2292 89.401 78.7189 89.3601 79.3668 89.0704C79.9381 88.8146 80.5327 88.4006 81.0127 87.9963C81.0081 87.2018 81.2209 84.2432 80.8311 83.7476L80.6723 83.747Z" fill="white"/>
<path d="M131.16 51.7752C131.315 51.7769 131.424 51.7814 131.572 51.8279C132.147 52.0088 132.78 52.5317 133.25 52.8958C135.577 54.6935 137.437 56.8722 138.672 59.5552C140.303 63.0984 140.625 66.8441 139.262 70.5211C139.248 70.6107 139.247 70.6408 139.207 70.7349C139.08 71.0315 138.974 71.0877 138.679 71.179C138.49 71.1171 138.369 71.0684 138.224 70.926C133.123 65.8823 131.244 58.7448 131.16 51.7752Z" fill="white"/>
<path d="M21.906 51.6681C22.1326 51.7758 22.1371 51.8308 22.2606 52.0543C22.2671 55.6037 21.6761 58.9706 20.4643 62.313C19.685 64.4623 17.2262 70.1265 15.0154 71.0531C14.6978 71.1864 14.635 71.124 14.3343 71.0004C13.1235 68.5568 13.0391 65.5784 13.6068 62.942C14.6666 58.0207 17.7678 54.3533 21.906 51.6681Z" fill="white"/>
<path d="M23.5134 65.5205L23.7531 65.6248C23.8731 65.8035 23.9405 65.9328 23.9899 66.1454C25.2718 71.669 24.3071 80.6546 21.1546 85.4897C20.8887 85.8974 20.5687 86.308 20.0702 86.4146C19.6543 86.2354 19.554 86.0176 19.2975 85.6575C18.0529 83.8683 17.4735 81.8977 17.4507 79.7246C17.3957 74.5073 19.8942 69.1958 23.5134 65.5205Z" fill="white"/>
<path d="M129.748 65.3838C130.203 65.7003 130.603 66.2617 130.967 66.6813C131.247 67.0057 131.516 67.3384 131.774 67.6794C132.033 68.0204 132.281 68.369 132.518 68.7252C132.755 69.0817 132.981 69.4452 133.196 69.8157C133.411 70.1862 133.613 70.5629 133.804 70.9459C133.996 71.3289 134.175 71.7173 134.342 72.1113C134.509 72.5056 134.664 72.9047 134.806 73.3084C134.948 73.7118 135.077 74.1196 135.194 74.5317C135.311 74.9434 135.415 75.3583 135.506 75.7764C136.303 79.3815 136.077 82.5907 134.048 85.7783C133.947 85.945 133.848 86.118 133.697 86.2456C133.446 86.456 133.382 86.4038 133.07 86.3647C131.61 85.4114 130.206 80.9501 129.757 79.2267C128.997 76.2982 128.257 67.9119 129.748 65.3838Z" fill="white"/>
<path d="M28.1613 77.5792C28.2575 77.6501 28.3334 77.7012 28.3983 77.8044C28.9649 78.7038 29.3063 79.986 29.5876 81.0068C30.7872 85.3604 31.1751 89.8637 30.3892 94.3307C30.1863 95.4842 29.7874 98.2108 28.8057 98.9009C28.2926 98.8289 28.0797 98.5856 27.6733 98.2737C25.5573 96.1902 24.5807 93.6632 24.3997 90.741C24.1552 86.7968 25.4927 80.5962 28.1613 77.5792Z" fill="white"/>
<path d="M125.188 77.5423L125.437 77.6824C127.831 81.2806 129.05 85.7902 129.02 90.0871C128.998 93.2288 128.166 95.9061 125.879 98.1535C125.622 98.3758 125.295 98.7188 124.973 98.8289C124.697 98.923 124.581 98.8249 124.339 98.7075C124.086 98.3718 123.929 98.0417 123.805 97.6419C121.817 91.2717 122.101 83.515 125.188 77.5423Z" fill="white"/>
<path d="M141.568 12.8838L141.866 13.0485C143.926 16.1765 145.138 20.2673 145.498 23.9661C145.917 28.2676 145.333 32.0786 142.522 35.5101C142.449 35.615 142.368 35.7381 142.268 35.8185C142.004 36.0306 141.823 36.028 141.508 36.0182C141.268 35.8357 141.127 35.6292 140.997 35.3631C138.086 29.4321 139.511 19.004 141.568 12.8838Z" fill="white"/>
<path d="M11.8576 12.8227C11.8756 12.8473 11.8958 12.8704 11.9115 12.8964C12.2436 13.4502 12.3759 14.4967 12.535 15.137C13.7637 20.0838 14.5822 25.7705 13.7514 30.8318C13.4293 32.7937 12.5436 34.5346 12.0243 36.4351C11.6592 36.1598 11.3128 35.8602 10.9625 35.5666C8.82632 33.2865 7.9484 30.3724 7.80747 27.3109C7.61219 23.068 8.91239 16.0354 11.8576 12.8227Z" fill="white"/>
<path d="M34.974 87.2335C37.0398 88.7459 38.3449 92.2551 39.1435 94.6018C40.2034 97.7157 41.9016 104.635 40.3768 107.729C40.0408 107.986 39.979 107.939 39.5486 107.916C39.0128 107.699 38.4651 107.445 37.971 107.146C35.6178 105.721 34.3526 103.201 33.7468 100.601C32.901 96.9711 32.9536 90.4835 34.974 87.2335Z" fill="white"/>
<path d="M118.526 87.1019C118.604 87.1875 118.671 87.2555 118.716 87.365C119.064 88.1981 119.244 89.2273 119.442 90.108C120.4 94.3715 120.604 98.9111 118.882 103.024C117.879 105.416 116.334 106.865 113.958 107.843L113.559 107.981C113.354 107.938 113.203 107.938 113.048 107.787C112.399 107.154 112.473 105.416 112.466 104.549C112.417 99.0443 114.576 91.1118 118.526 87.1019Z" fill="white"/>
<path d="M3.82751 31.6167C4.87921 32.1748 7.60518 38.5495 8.14485 39.9462C9.44159 43.3024 11.2642 50.21 9.659 53.6512C9.48664 54.0209 9.4042 54.0204 9.03746 54.1531C6.77037 52.9554 5.17333 51.3102 4.09632 48.9698C1.70696 43.777 1.87734 36.915 3.82751 31.6167Z" fill="white"/>
<path d="M149.523 31.6418L149.781 31.8749C151.194 36.5554 151.581 42.0363 150.145 46.7502C149.151 50.0139 147.491 52.4722 144.421 54.1066L144.128 54.2251L143.874 54.0595C143.501 53.2117 143.398 52.1501 143.309 51.2325C143.167 49.7473 143.156 48.2207 143.373 46.7411C144.007 42.4169 146.78 34.9748 149.523 31.6418Z" fill="white"/>
<path d="M43.6287 94.0063C43.6639 94.0256 43.6991 94.0437 43.7337 94.0647C44.663 94.621 45.5327 95.4853 46.2936 96.2491C49.4725 99.4408 51.7532 103.236 52.9157 107.6C53.2295 108.778 54.064 111.93 53.4564 112.975C52.716 112.879 51.9648 112.835 51.2284 112.724C49.2291 112.423 47.5315 111.007 46.3758 109.408C43.3121 105.173 42.797 99.012 43.6287 94.0063Z" fill="white"/>
<path d="M109.45 94.202L109.71 94.316C110.139 95.1468 110.128 96.4931 110.144 97.4288C110.219 101.907 109.234 107.379 105.958 110.698C104.353 112.324 102.547 112.811 100.331 112.833C100.066 112.898 100.063 112.884 99.8133 112.768C99.5557 112.194 99.739 111.294 99.8258 110.67C100.713 104.276 104.292 98.086 109.45 94.202Z" fill="white"/>
<path d="M0.00760842 52.0055C0.174297 52.0214 0.351652 52.0532 0.492185 52.1501C3.97585 54.5586 9.32708 62.3176 10.5437 66.454C11.1645 68.5642 11.2017 70.5689 11.5754 72.6955C11.5488 72.6966 11.5223 72.6989 11.4958 72.6994C9.08976 72.7284 6.82982 71.5851 5.18029 69.8963C0.662393 65.2705 -0.0877638 58.1472 0.00760842 52.0055Z" fill="white"/>
<path d="M153.073 51.9272C153.263 52.0043 153.286 52.107 153.392 52.2743C153.618 57.8755 152.805 63.8691 149.413 68.5097C147.541 71.0707 145.384 72.2321 142.298 72.7096C142.278 72.6966 142.257 72.6858 142.24 72.6699C141.915 72.3659 141.906 71.6593 141.923 71.2312C142.235 63.7897 147.79 56.7005 153.073 51.9272Z" fill="white"/>
<path d="M1.04393 73.368C2.2824 73.52 3.74022 74.4046 4.8136 75.0109C9.93771 77.9047 15.5934 82.0672 17.1475 88.0762C17.2749 88.5684 17.2205 88.8038 16.9746 89.2353C16.6202 89.3215 16.2642 89.4038 15.9034 89.4593C13.2005 89.8733 10.936 89.2399 8.73322 87.639C4.32788 84.4371 1.88503 78.6062 1.04393 73.368Z" fill="white"/>
<path d="M151.804 73.3476L152.192 73.4349C152.315 73.7553 152.252 74.0071 152.188 74.3355C151.19 79.4008 148.637 85.0434 144.213 87.9866C141.944 89.4968 139.598 89.8637 136.953 89.3238C136.54 89.2269 136.44 89.1055 136.223 88.7715C136.161 88.2651 136.257 87.8267 136.411 87.3458C138.606 80.527 145.825 76.3663 151.804 73.3476Z" fill="white"/>
<path d="M6.90988 93.0627C8.42205 93.0406 10.0278 93.2498 11.5223 93.4812C16.9365 94.3182 22.5762 96.1936 25.8992 100.82C26.1746 101.204 26.4705 101.662 26.3621 102.157C26.2464 102.685 25.6697 102.926 25.2419 103.18C24.0429 103.796 22.7942 104.181 21.4477 104.303C18.075 104.607 15.0721 103.118 12.5413 101.023C10.8091 99.5888 7.12241 95.2783 6.90988 93.0627Z" fill="white"/>
<path d="M144.72 93.1517C145.381 93.0581 146.093 93.0746 146.762 93.0428C144.38 97.3068 142.202 100.805 137.7 103.144C135.013 104.54 132.257 104.643 129.407 103.744C128.831 103.483 128.223 103.22 127.677 102.901C127.32 102.693 127.138 102.462 127.036 102.061C127.085 101.223 127.663 100.559 128.18 99.9398C132.146 95.1915 138.824 93.6677 144.72 93.1517Z" fill="white"/>
<path d="M53.5918 97.9477C55.6688 98.1048 59.8429 100.604 61.4706 101.946C65.7638 105.486 67.6463 109.741 68.158 115.197C65.357 115.274 62.7642 114.506 60.5475 112.756C56.0229 109.185 54.2697 103.432 53.5918 97.9477Z" fill="white"/>
<path d="M99.4078 97.9522C99.506 97.9261 99.6144 97.9755 99.7119 97.9987C99.7641 98.1331 99.8061 98.2324 99.8084 98.3787C99.8237 99.2906 99.5293 100.38 99.3182 101.265C98.4592 104.869 97.1532 108.239 94.6557 111.038C92.2609 113.721 89.541 114.94 85.961 115.134L85.683 115.22L85.422 115.055C84.997 113.351 86.281 109.602 87.0395 108.035C89.5211 102.91 94.1575 99.772 99.4078 97.9522Z" fill="white"/>
<path d="M26.405 107.922C31.4823 107.487 34.7734 108.631 38.866 111.593C38.4433 112.314 37.9038 112.963 37.3108 113.551C34.9137 115.927 32.1163 116.523 28.8728 116.514C23.6019 115.999 19.8518 113.402 16.3194 109.575C19.5508 108.588 23.0466 108.138 26.405 107.922Z" fill="white"/>
<path d="M124.342 107.899C128.017 107.467 133.441 108.403 136.903 109.641C134.502 112.818 130.81 115.191 126.97 116.166C123.977 116.823 120.63 116.654 117.968 115.027C117.2 114.557 115.039 112.968 114.868 111.995C114.81 111.666 114.99 111.331 115.2 111.085C116.978 109.003 121.75 108.066 124.342 107.899Z" fill="white"/>
<path d="M87.8818 118.518C88.6795 118.406 89.5635 118.377 90.368 118.438C97.0327 118.948 103.258 125.852 107.401 130.624C106.764 130.678 106.14 130.786 105.511 130.895C102.156 131.491 98.6956 130.808 95.6188 129.42C90.9121 127.295 87.8001 124.079 85.9857 119.272C86.6064 118.94 87.2078 118.719 87.8818 118.518Z" fill="white"/>
<path d="M63.8 118.405C65.0772 118.459 66.2368 118.703 67.4527 119.076C66.3792 121.675 65.1486 124.028 63.1198 126.016C59.5528 129.511 54.7678 131.001 49.8522 130.963C48.6018 130.934 47.3536 130.734 46.1145 130.571C46.8844 129.434 47.8965 128.4 48.8435 127.404C52.7276 123.322 57.8179 118.556 63.8 118.405Z" fill="white"/>
<path d="M103.634 115.817C110.773 115.062 117.796 118.796 123.586 122.527C122.292 123.186 121.063 123.883 119.695 124.391C117.074 125.347 114.101 125.659 111.331 125.354C107.934 124.981 104.794 123.46 102.644 120.753C101.981 119.919 100.495 118.055 100.62 116.987C101.152 116.247 102.783 116.036 103.634 115.817Z" fill="white"/>
<path d="M45.9774 115.839C48.3608 115.478 50.9111 115.815 53.0512 116.934C51.9647 119.173 50.7415 121.191 48.7517 122.754C45.376 125.406 41.1563 125.74 37.0442 125.238C34.4203 124.918 32.0729 123.686 29.7664 122.482C34.5158 119.3 40.2178 116.392 45.9774 115.839Z" fill="white"/>
<path d="M14.7065 31.8093C14.8528 31.9508 14.8344 32.0021 14.8777 32.1941C14.7871 32.3179 14.7043 32.4469 14.6413 32.5872C14.0022 34.0119 13.4685 37.3219 13.1283 38.9639C12.9521 39.7998 12.7901 40.6384 12.6425 41.4798C12.4948 42.3212 12.3616 43.1648 12.2428 44.0108C12.1239 44.8567 12.0196 45.7045 11.9297 46.5541C11.8398 47.4036 11.7644 48.2544 11.7035 49.1066C11.6427 49.9583 11.5964 50.8111 11.5647 51.6647C11.533 52.5184 11.5158 53.3724 11.5133 54.2269C11.5107 55.0809 11.5227 55.935 11.5493 56.789C11.5759 57.6427 11.6171 58.4958 11.6728 59.3483C11.7285 60.2005 11.7987 61.0517 11.8835 61.902C11.9683 62.7518 12.0676 63.6 12.1813 64.4465C12.295 65.2934 12.4232 66.138 12.5658 66.9803C12.7084 67.8223 12.8653 68.6617 13.0365 69.4988C13.2078 70.3358 13.3932 71.1696 13.5929 72.0002C13.7927 72.8308 14.0065 73.6577 14.2345 74.4807C14.4624 75.3041 14.7044 76.1234 14.9603 76.9385C15.2161 77.7536 15.4859 78.564 15.7695 79.3697C20.3007 92.0675 29.8381 104.4 42.2103 110.25C44.6544 111.401 47.1886 112.298 49.8128 112.941C54.2569 114.049 58.8672 114.423 63.372 115.226C66.0079 115.703 68.6399 116.201 71.2679 116.719C72.9864 117.061 74.9324 117.644 76.6856 117.624C79.8332 117.588 84.5729 116.195 87.8562 115.597C94.3569 114.411 101.094 114.074 107.356 111.814C117.975 107.982 126.181 100.011 132.084 90.597C133.903 87.6946 135.54 84.7293 136.825 81.5473C140.676 72.0082 142.41 60.5233 141.816 50.2634C141.56 46.0105 140.958 41.8071 140.011 37.6531C139.809 36.7796 138.548 32.5312 138.828 31.934L139.019 31.9953C139.55 33.2497 139.711 34.6871 140.113 35.9919C140.13 36.043 140.149 36.0936 140.165 36.1453C140.763 38.1087 141.092 40.2822 141.462 42.3033C144.378 58.2402 142.111 75.9699 134.209 90.2148C127.534 102.25 116.244 112.51 102.53 115.425C97.3333 116.529 92.0206 117.249 86.7952 118.248C84.9712 118.597 83.1018 118.857 81.3169 119.372C81.0547 120.048 80.918 120.718 80.7841 121.427C77.8588 120.222 75.6547 120.531 72.6732 121.297L72.0923 119.365C68.6751 118.289 64.8386 117.777 61.2932 117.229C58.0026 116.72 54.6716 116.315 51.4179 115.6C43.1288 113.776 36.038 109.709 29.8499 103.965C16.6737 91.7358 11.3796 74.4654 10.7458 56.9779C10.4884 49.8761 11.6847 42.6732 13.3592 35.7917C13.649 34.6007 13.8677 32.7113 14.7065 31.8093Z" fill="white"/>
<path d="M56.6847 19.1388C57.3644 19.025 58.144 19.0559 58.8333 19.0798C61.9753 19.1886 65.1877 20.5835 67.3311 22.8994C67.451 23.0266 67.5677 23.1568 67.6812 23.2899C67.7947 23.4231 67.9047 23.559 68.0114 23.6977C68.1177 23.8365 68.2206 23.9779 68.32 24.1219C68.4191 24.2659 68.5146 24.4123 68.6065 24.5611C68.6981 24.71 68.786 24.8611 68.8704 25.0145C68.9543 25.1678 69.0343 25.3232 69.1104 25.4806C69.1868 25.6381 69.2588 25.7974 69.3265 25.9585C69.3946 26.1196 69.4585 26.2823 69.5183 26.4467C69.578 26.6111 69.6335 26.7769 69.6845 26.944C69.736 27.1112 69.7831 27.2796 69.8258 27.4492C69.8681 27.6188 69.9063 27.7894 69.9404 27.961C69.9744 28.1325 70.0039 28.3048 70.0289 28.4778C70.0542 28.6509 70.075 28.8245 70.0913 28.9986C70.1076 29.1727 70.1193 29.3471 70.1265 29.5218C70.134 29.6965 70.1371 29.8713 70.1356 30.0462C70.1341 30.221 70.128 30.3957 70.1174 30.5703C69.967 33.4377 68.5651 36.1097 66.4409 38.0127C69.2613 40.2868 71.6912 42.5582 72.9372 46.0584C74.2358 49.7065 73.913 53.738 72.2586 57.2109C72.1368 57.4664 72.009 57.7186 71.8751 57.9674C71.7408 58.2165 71.6005 58.4623 71.4541 58.7046C71.3077 58.9466 71.1555 59.1849 70.9974 59.4197C70.8393 59.6541 70.6753 59.8846 70.5055 60.111C70.336 60.3375 70.1609 60.5594 69.9801 60.7768C69.7993 60.9945 69.6132 61.2078 69.4218 61.4165C69.2304 61.6248 69.0341 61.8284 68.8329 62.0272C68.6313 62.2257 68.425 62.4193 68.2139 62.6079C68.0029 62.7962 67.7873 62.9792 67.5671 63.1569C67.347 63.3346 67.1225 63.5068 66.8937 63.6735C66.6652 63.8402 66.4326 64.0011 66.1959 64.1561C65.9591 64.3111 65.7187 64.4601 65.4747 64.603C65.2304 64.7463 64.9829 64.8833 64.7321 65.0141C64.4809 65.1449 64.2268 65.2693 63.9696 65.3873C63.7124 65.5056 63.4525 65.6173 63.19 65.7224C62.9271 65.8275 62.662 65.9262 62.3946 66.0185C57.7519 67.6625 51.8923 67.7889 47.3988 65.6243C44.915 64.4277 42.5843 62.414 41.6775 59.7413C41.3253 58.7029 41.2103 57.4468 41.7174 56.4379C42.0652 55.7461 42.7227 55.2827 43.4512 55.0559C44.5229 54.7225 45.7371 54.7383 46.7418 55.2674C48.7996 56.3517 49.5656 58.8067 50.2004 60.8743C50.6662 62.0397 51.2013 63.073 52.1516 63.9219C53.5127 65.1378 55.731 65.4616 57.4909 65.3697C57.674 65.3618 57.8567 65.3491 58.039 65.3317C58.2217 65.3147 58.4036 65.293 58.5848 65.2665C58.766 65.24 58.9466 65.209 59.1266 65.1735C59.3063 65.1379 59.485 65.0981 59.6628 65.0538C59.8405 65.0092 60.017 64.9603 60.1921 64.9069C60.3676 64.8533 60.5414 64.7954 60.7135 64.7334C60.886 64.6714 61.0568 64.6049 61.2258 64.5338C61.3949 64.4631 61.5621 64.3882 61.7274 64.3092C61.8923 64.2298 62.0553 64.1465 62.2164 64.0591C62.3776 63.9718 62.5362 63.8805 62.6924 63.7852C62.849 63.6896 63.003 63.5902 63.1543 63.4869C63.3059 63.3837 63.4548 63.2769 63.6008 63.1665C63.7468 63.0558 63.8898 62.9414 64.0297 62.8234C64.17 62.7055 64.3073 62.5841 64.4416 62.4594C64.5755 62.3346 64.7064 62.2066 64.8342 62.0754C64.9617 61.9439 65.0859 61.8093 65.207 61.6717C67.2046 59.3925 68.1345 56.4232 67.9388 53.413C67.6664 49.2284 64.8943 43.9684 60.6744 42.6871C59.4761 42.3232 56.3318 42.4126 55.752 41.9065L55.748 41.5613C56.4964 40.4427 59.5221 40.1562 60.819 39.1283C62.5308 37.7727 63.3341 35.6275 63.5804 33.5166C63.902 30.7561 63.6104 27.7714 61.825 25.5377C60.4934 23.8709 58.6903 23.1255 56.5934 22.9057C52.8375 22.5119 50.0785 23.9992 47.9089 26.9409C47.333 27.7214 46.7379 28.7544 45.9725 29.3493C45.7291 29.5388 45.6639 29.588 45.3541 29.5534L45.1952 29.2193C45.1731 27.6936 46.5909 25.5823 47.5078 24.3854C49.8589 21.318 52.8596 19.6534 56.6847 19.1388Z" fill="white"/>
<path d="M96.3634 19.1368C96.3952 19.131 96.427 19.1239 96.4587 19.1195C99.3449 18.7213 102.57 19.8881 104.861 21.6176C109.989 25.4882 112.928 32.1477 113.815 38.3725C114.927 46.1826 113.303 54.7486 108.486 61.1125C106.023 64.3659 102.86 66.5708 98.7713 67.1407C95.6435 67.2638 92.9434 66.6236 90.4005 64.7612C85.2444 60.9843 82.3498 54.313 81.3972 48.1555C80.2097 40.4839 81.7541 31.9124 86.4058 25.5799C88.9254 22.1499 92.0941 19.7957 96.3634 19.1368ZM96.8207 20.541C94.7885 20.8632 93.2305 21.9429 92.0351 23.6021C87.2829 30.198 87.6341 47.019 88.9623 54.8773C89.5291 58.2328 90.6042 62.4713 93.5289 64.569C93.7139 64.7009 93.9049 64.8236 94.102 64.937C94.299 65.05 94.5012 65.1531 94.7085 65.2461C94.9161 65.3395 95.1275 65.4223 95.3428 65.4945C95.5584 65.5667 95.777 65.6279 95.9986 65.6782C96.2203 65.7289 96.4438 65.7684 96.6692 65.7967C96.895 65.8251 97.1214 65.8423 97.3484 65.8483C97.5757 65.854 97.8028 65.8487 98.0297 65.8325C98.2563 65.8158 98.4815 65.788 98.7055 65.7491C101.091 65.0692 102.641 63.6781 103.85 61.5237C107.949 54.2138 107.766 36.2281 105.485 28.2181C104.728 25.5607 103.482 22.7393 100.953 21.3352C99.6427 20.6078 98.2936 20.4421 96.8207 20.541Z" fill="white"/>
<path d="M105.985 2.20779C105.94 2.05207 105.877 1.91448 105.796 1.79503C105.715 1.67344 105.616 1.57105 105.498 1.48786C105.383 1.40253 105.251 1.33747 105.102 1.29268C104.955 1.24788 104.791 1.22548 104.612 1.22548C104.277 1.22548 103.983 1.30868 103.729 1.47506C103.477 1.64144 103.281 1.88355 103.14 2.20139C102.999 2.51709 102.929 2.90319 102.929 3.35968C102.929 3.81617 102.998 4.2044 103.137 4.52437C103.276 4.84434 103.472 5.08858 103.726 5.2571C103.98 5.42348 104.279 5.50668 104.625 5.50668C104.939 5.50668 105.206 5.45122 105.428 5.34029C105.652 5.22724 105.823 5.06832 105.94 4.86354C106.059 4.65876 106.119 4.41665 106.119 4.13721L106.401 4.1788H104.711V3.1357H107.453V3.96122C107.453 4.53717 107.332 5.03206 107.089 5.44588C106.846 5.85758 106.511 6.17541 106.084 6.39939C105.657 6.62124 105.169 6.73216 104.619 6.73216C104.004 6.73216 103.465 6.59671 103 6.3258C102.534 6.05276 102.172 5.6656 101.912 5.16431C101.653 4.66089 101.524 4.06361 101.524 3.37248C101.524 2.84133 101.601 2.36777 101.755 1.95181C101.911 1.53372 102.128 1.17962 102.408 0.889516C102.687 0.59941 103.012 0.378631 103.383 0.227178C103.755 0.0757261 104.157 0 104.59 0C104.961 0 105.306 0.0543949 105.626 0.163185C105.946 0.269841 106.23 0.421293 106.478 0.617541C106.727 0.813789 106.931 1.04737 107.089 1.31827C107.247 1.58705 107.348 1.88355 107.393 2.20779H105.985Z" fill="white"/>
<path d="M100.495 0.0896096V6.64259H99.2981L96.4472 2.51818H96.3992V6.64259H95.0138V0.0896096H96.2296L99.0582 4.21082H99.1158V0.0896096H100.495Z" fill="white"/>
<path d="M93.8741 0.0896096V6.64259H92.4886V0.0896096H93.8741Z" fill="white"/>
<path d="M86.2203 1.2319V0.0896096H91.6022V1.2319H89.596V6.64259H88.2265V1.2319H86.2203Z" fill="white"/>
<path d="M81.66 6.64259H80.1754L82.4376 0.0896096H84.223L86.482 6.64259H84.9973L83.3559 1.58707H83.3047L81.66 6.64259ZM81.5673 4.06683H85.0741V5.14833H81.5673V4.06683Z" fill="white"/>
<path d="M74.6173 6.64259V0.0896096H77.2027C77.6976 0.0896096 78.1199 0.178135 78.4698 0.355184C78.8218 0.530101 79.0895 0.778611 79.2729 1.10071C79.4585 1.42068 79.5513 1.79718 79.5513 2.23021C79.5513 2.66536 79.4574 3.03973 79.2697 3.3533C79.082 3.66474 78.81 3.90365 78.4538 4.07003C78.0997 4.23641 77.6709 4.31961 77.1675 4.31961H75.4365V3.20611H76.9435C77.208 3.20611 77.4277 3.16985 77.6027 3.09732C77.7776 3.0248 77.9077 2.91601 77.993 2.77095C78.0805 2.6259 78.1242 2.44565 78.1242 2.23021C78.1242 2.01263 78.0805 1.82918 77.993 1.67986C77.9077 1.53054 77.7765 1.41748 77.5995 1.34069C77.4245 1.26176 77.2038 1.2223 76.9371 1.2223H76.0028V6.64259H74.6173ZM78.1562 3.66047L79.7849 6.64259H78.2554L76.662 3.66047H78.1562Z" fill="white"/>
<path d="M68.6607 6.64259V0.0896096H71.2845C71.7665 0.0896096 72.1686 0.161069 72.4908 0.303989C72.8129 0.446909 73.055 0.64529 73.2171 0.899132C73.3792 1.15084 73.4603 1.44095 73.4603 1.76945C73.4603 2.02543 73.4091 2.25047 73.3067 2.44459C73.2043 2.63657 73.0635 2.79442 72.8843 2.91814C72.7073 3.03973 72.5046 3.12612 72.2764 3.17732V3.24131C72.5259 3.25198 72.7595 3.32237 72.9771 3.45249C73.1968 3.58261 73.3749 3.76499 73.5115 3.99964C73.648 4.23215 73.7162 4.50946 73.7162 4.83156C73.7162 5.17926 73.6298 5.48963 73.4571 5.76267C73.2864 6.03358 73.0336 6.24796 72.6987 6.40581C72.3638 6.56366 71.9511 6.64259 71.4604 6.64259H68.6607ZM70.0462 5.50989H71.1757C71.5618 5.50989 71.8433 5.4363 72.0204 5.28911C72.1974 5.1398 72.286 4.94141 72.286 4.69397C72.286 4.51266 72.2422 4.35267 72.1548 4.21402C72.0673 4.07536 71.9425 3.96657 71.7804 3.88765C71.6204 3.80872 71.4295 3.76926 71.2077 3.76926H70.0462V5.50989ZM70.0462 2.83175H71.0733C71.2631 2.83175 71.4317 2.79869 71.5788 2.73256C71.7282 2.6643 71.8455 2.56831 71.9308 2.44459C72.0183 2.32086 72.062 2.17261 72.062 1.99983C72.062 1.76305 71.9777 1.57214 71.8092 1.42708C71.6428 1.28203 71.4061 1.2095 71.0989 1.2095H70.0462V2.83175Z" fill="white"/>
<path d="M63.1433 6.64259V0.0896096H67.5589V1.2319H64.5288V2.79335H67.3317V3.93564H64.5288V5.50029H67.5717V6.64259H63.1433Z" fill="white"/>
<path d="M58.0311 6.64259V0.0896096H59.4166V5.50029H62.2259V6.64259H58.0311Z" fill="white"/>
<path d="M52.514 6.64259V0.0896096H56.9295V1.2319H53.8994V2.79335H56.7024V3.93564H53.8994V5.50029H56.9423V6.64259H52.514Z" fill="white"/>
<path d="M51.5202 2.38377H50.1188C50.0932 2.20246 50.0409 2.04141 49.962 1.90062C49.8831 1.7577 49.7817 1.63611 49.658 1.53585C49.5343 1.4356 49.3914 1.3588 49.2293 1.30548C49.0693 1.25215 48.8954 1.22548 48.7077 1.22548C48.3685 1.22548 48.0731 1.30974 47.8214 1.47826C47.5697 1.64464 47.3745 1.88782 47.2359 2.20779C47.0972 2.52563 47.0279 2.91172 47.0279 3.36608C47.0279 3.83324 47.0972 4.22573 47.2359 4.54357C47.3766 4.86141 47.5729 5.10138 47.8246 5.2635C48.0763 5.42562 48.3675 5.50668 48.6981 5.50668C48.8837 5.50668 49.0554 5.48215 49.2133 5.43308C49.3733 5.38402 49.5151 5.31256 49.6388 5.2187C49.7625 5.12271 49.8649 5.00646 49.946 4.86994C50.0292 4.73342 50.0868 4.5777 50.1188 4.40278L51.5202 4.40918C51.484 4.70995 51.3933 5.00006 51.2483 5.2795C51.1054 5.55681 50.9123 5.80532 50.6691 6.02503C50.4281 6.24261 50.1401 6.41539 49.8052 6.54338C49.4724 6.66923 49.0959 6.73216 48.6757 6.73216C48.0912 6.73216 47.5686 6.59991 47.1079 6.3354C46.6492 6.07089 46.2866 5.68799 46.02 5.18671C45.7555 4.68542 45.6232 4.07855 45.6232 3.36608C45.6232 2.65148 45.7576 2.04354 46.0264 1.54225C46.2951 1.04097 46.6599 0.659137 47.1207 0.396763C47.5814 0.132254 48.0998 0 48.6757 0C49.0554 0 49.4074 0.0533283 49.7316 0.159985C50.058 0.266641 50.347 0.42236 50.5987 0.62714C50.8504 0.829788 51.0552 1.0783 51.2131 1.37267C51.3731 1.66704 51.4755 2.00408 51.5202 2.38377Z" fill="white"/>
<path d="M105.661 149.995C104.965 149.995 104.346 149.876 103.802 149.637C103.262 149.394 102.835 149.062 102.521 148.64C102.211 148.214 102.051 147.724 102.041 147.168H104.072C104.085 147.401 104.161 147.606 104.301 147.783C104.443 147.957 104.633 148.092 104.869 148.188C105.105 148.284 105.37 148.332 105.665 148.332C105.973 148.332 106.245 148.278 106.481 148.169C106.717 148.061 106.901 147.91 107.035 147.718C107.169 147.525 107.235 147.303 107.235 147.051C107.235 146.797 107.164 146.572 107.021 146.376C106.881 146.177 106.679 146.022 106.415 145.91C106.155 145.798 105.844 145.742 105.484 145.742H104.594V144.261H105.484C105.788 144.261 106.057 144.208 106.29 144.103C106.526 143.997 106.709 143.851 106.839 143.665C106.97 143.475 107.035 143.255 107.035 143.003C107.035 142.764 106.978 142.555 106.863 142.375C106.751 142.191 106.592 142.049 106.387 141.946C106.186 141.844 105.95 141.792 105.679 141.792C105.406 141.792 105.156 141.842 104.929 141.941C104.703 142.038 104.521 142.176 104.384 142.356C104.248 142.536 104.175 142.747 104.166 142.989H102.232C102.242 142.44 102.399 141.955 102.703 141.536C103.007 141.117 103.417 140.789 103.933 140.553C104.451 140.314 105.037 140.195 105.689 140.195C106.347 140.195 106.923 140.314 107.417 140.553C107.911 140.792 108.294 141.115 108.568 141.522C108.844 141.926 108.981 142.379 108.977 142.882C108.981 143.416 108.814 143.862 108.479 144.219C108.147 144.576 107.714 144.803 107.179 144.899V144.974C107.881 145.064 108.415 145.308 108.782 145.705C109.151 146.1 109.335 146.593 109.331 147.186C109.335 147.73 109.178 148.213 108.861 148.635C108.547 149.058 108.114 149.39 107.561 149.632C107.009 149.874 106.375 149.995 105.661 149.995Z" fill="white"/>
<path d="M96.9271 140.195C97.4178 140.195 97.8898 140.277 98.3432 140.441C98.7997 140.606 99.2065 140.868 99.5636 141.229C99.9239 141.589 100.208 142.067 100.416 142.663C100.627 143.257 100.734 143.985 100.737 144.848C100.737 145.659 100.646 146.382 100.463 147.019C100.283 147.652 100.023 148.191 99.6847 148.635C99.3463 149.079 98.9379 149.418 98.4596 149.651C97.9814 149.88 97.4473 149.995 96.8572 149.995C96.2206 149.995 95.6585 149.873 95.171 149.627C94.6834 149.379 94.2906 149.042 93.9925 148.617C93.6974 148.188 93.5189 147.707 93.4568 147.173H95.4458C95.5234 147.52 95.6865 147.79 95.9349 147.983C96.1834 148.172 96.4908 148.267 96.8572 148.267C97.4783 148.267 97.9504 147.997 98.2733 147.457C98.5963 146.913 98.7593 146.169 98.7624 145.225H98.6972C98.5544 145.505 98.3618 145.746 98.1196 145.947C97.8774 146.146 97.5994 146.3 97.2858 146.409C96.9752 146.517 96.6445 146.572 96.2936 146.572C95.7315 146.572 95.23 146.44 94.789 146.176C94.348 145.912 94.0002 145.548 93.7456 145.086C93.4909 144.623 93.3636 144.095 93.3636 143.502C93.3605 142.862 93.508 142.292 93.8061 141.792C94.1043 141.292 94.5204 140.901 95.0545 140.618C95.5918 140.333 96.216 140.191 96.9271 140.195ZM96.9411 141.778C96.6274 141.778 96.3479 141.853 96.1026 142.002C95.8604 142.151 95.6678 142.351 95.525 142.603C95.3853 142.854 95.3169 143.135 95.32 143.446C95.32 143.76 95.3884 144.042 95.525 144.294C95.6647 144.542 95.8542 144.741 96.0933 144.89C96.3355 145.036 96.6119 145.109 96.9224 145.109C97.1554 145.109 97.3712 145.065 97.5699 144.979C97.7687 144.892 97.941 144.772 98.087 144.62C98.236 144.465 98.3525 144.286 98.4364 144.084C98.5202 143.882 98.5621 143.668 98.5621 143.441C98.559 143.14 98.4876 142.864 98.3478 142.612C98.2081 142.361 98.0156 142.159 97.7702 142.007C97.5249 141.854 97.2485 141.778 96.9411 141.778Z" fill="white"/>
<path d="M88.2674 140.195C88.758 140.195 89.2301 140.277 89.6835 140.441C90.14 140.606 90.5468 140.868 90.9039 141.229C91.2641 141.589 91.5483 142.067 91.7564 142.663C91.9675 143.257 92.0747 143.985 92.0778 144.848C92.0778 145.659 91.9862 146.382 91.8029 147.019C91.6228 147.652 91.3635 148.191 91.025 148.635C90.6865 149.079 90.2782 149.418 89.7999 149.651C89.3217 149.88 88.7876 149.995 88.1975 149.995C87.5609 149.995 86.9988 149.873 86.5113 149.627C86.0237 149.379 85.6309 149.042 85.3327 148.617C85.0377 148.188 84.8592 147.707 84.7971 147.173H86.7861C86.8637 147.52 87.0268 147.79 87.2752 147.983C87.5236 148.172 87.8311 148.267 88.1975 148.267C88.8186 148.267 89.2906 147.997 89.6136 147.457C89.9366 146.913 90.0996 146.169 90.1027 145.225H90.0375C89.8946 145.505 89.7021 145.746 89.4599 145.947C89.2177 146.146 88.9397 146.3 88.6261 146.409C88.3155 146.517 87.9848 146.572 87.6339 146.572C87.0718 146.572 86.5703 146.44 86.1293 146.176C85.6883 145.912 85.3405 145.548 85.0859 145.086C84.8312 144.623 84.7039 144.095 84.7039 143.502C84.7008 142.862 84.8483 142.292 85.1464 141.792C85.4445 141.292 85.8607 140.901 86.3948 140.618C86.9321 140.333 87.5562 140.191 88.2674 140.195ZM88.2814 141.778C87.9677 141.778 87.6882 141.853 87.4429 142.002C87.2007 142.151 87.0081 142.351 86.8653 142.603C86.7255 142.854 86.6572 143.135 86.6603 143.446C86.6603 143.76 86.7286 144.042 86.8653 144.294C87.005 144.542 87.1945 144.741 87.4336 144.89C87.6758 145.036 87.9522 145.109 88.2627 145.109C88.4956 145.109 88.7115 145.065 88.9102 144.979C89.109 144.892 89.2813 144.772 89.4273 144.62C89.5763 144.465 89.6928 144.286 89.7766 144.084C89.8605 143.882 89.9024 143.668 89.9024 143.441C89.8993 143.14 89.8279 142.864 89.6881 142.612C89.5484 142.361 89.3559 142.159 89.1105 142.007C88.8652 141.854 88.5888 141.778 88.2814 141.778Z" fill="white"/>
<path d="M82.5484 140.325V149.865H80.5314V142.24H80.4755L78.2908 143.609V141.82L80.6525 140.325H82.5484Z" fill="white"/>
<path d="M73.0818 149.986C72.7744 149.986 72.5104 149.877 72.29 149.66C72.0726 149.44 71.9639 149.176 71.9639 148.868C71.9639 148.564 72.0726 148.303 72.29 148.086C72.5104 147.868 72.7744 147.76 73.0818 147.76C73.38 147.76 73.6408 147.868 73.8644 148.086C74.088 148.303 74.1998 148.564 74.1998 148.868C74.1998 149.073 74.147 149.261 74.0414 149.432C73.9389 149.599 73.8039 149.735 73.6362 149.837C73.4685 149.936 73.2837 149.986 73.0818 149.986Z" fill="white"/>
<path d="M63.2822 141.988V140.325H71.1173V141.988H68.1966V149.865H66.2029V141.988H63.2822Z" fill="white"/>
<path d="M60.2254 143.069C60.1881 142.693 60.0282 142.401 59.7456 142.193C59.463 141.985 59.0795 141.881 58.595 141.881C58.2658 141.881 57.9879 141.927 57.7612 142.021C57.5345 142.111 57.3606 142.236 57.2395 142.398C57.1215 142.559 57.0625 142.743 57.0625 142.948C57.0563 143.118 57.092 143.267 57.1696 143.395C57.2504 143.522 57.3606 143.632 57.5003 143.725C57.6401 143.816 57.8016 143.895 57.9848 143.963C58.168 144.028 58.3637 144.084 58.5717 144.131L59.4288 144.336C59.8449 144.429 60.2269 144.553 60.5747 144.708C60.9225 144.864 61.2238 145.055 61.4784 145.281C61.7331 145.508 61.9303 145.775 62.07 146.082C62.2128 146.39 62.2858 146.742 62.2889 147.14C62.2858 147.724 62.1368 148.23 61.8417 148.658C61.5498 149.084 61.1275 149.415 60.5747 149.651C60.0251 149.884 59.3621 150 58.5857 150C57.8155 150 57.1448 149.882 56.5734 149.646C56.0051 149.41 55.561 149.061 55.2411 148.598C54.9244 148.132 54.7582 147.556 54.7427 146.87H56.6945C56.7162 147.19 56.8078 147.457 56.9693 147.671C57.1339 147.882 57.3528 148.042 57.6261 148.151C57.9025 148.256 58.2146 148.309 58.5624 148.309C58.904 148.309 59.2006 148.259 59.4521 148.16C59.7068 148.061 59.904 147.922 60.0437 147.745C60.1834 147.568 60.2533 147.365 60.2533 147.135C60.2533 146.921 60.1897 146.741 60.0623 146.595C59.9381 146.449 59.7549 146.325 59.5127 146.222C59.2735 146.12 58.9801 146.027 58.6323 145.943L57.5935 145.682C56.7892 145.486 56.1541 145.18 55.6883 144.764C55.2225 144.348 54.9911 143.788 54.9943 143.083C54.9911 142.505 55.1449 142 55.4554 141.569C55.7691 141.137 56.1992 140.8 56.7457 140.558C57.2923 140.316 57.9134 140.195 58.609 140.195C59.317 140.195 59.935 140.316 60.4629 140.558C60.994 140.8 61.407 141.137 61.702 141.569C61.997 142 62.1492 142.5 62.1585 143.069H60.2254Z" fill="white"/>
<path d="M47.0183 149.865V140.325H53.4466V141.988H49.0353V144.261H53.1158V145.924H49.0353V148.202H53.4652V149.865H47.0183Z" fill="white"/>
</g>
</svg>
