<svg width="170" height="150" viewBox="0 0 170 150" fill="none" xmlns="http://www.w3.org/2000/svg">
<g opacity="0.8">
<path d="M19.1545 36.5148L19.324 36.5682C19.427 36.7407 19.4664 36.7863 19.4329 36.9956C19.2853 37.9145 18.5405 39.0214 18.136 39.8783C17.8524 40.4792 16.9238 42.5905 16.6117 42.9962C15.9635 43.8391 11.156 45.5183 9.82934 46.5123C9.80801 46.528 9.78726 46.545 9.76626 46.5614C9.62647 46.5254 9.52491 46.4809 9.39606 46.4187C9.37244 46.2447 9.35562 46.2826 9.40247 46.1393C9.72745 45.1446 11.8763 40.4246 12.5004 39.8878C13.3669 39.1425 17.8067 37.1866 19.1545 36.5148Z" fill="white"/>
<path d="M168.551 82.7801L168.682 82.8397C168.801 83.0026 168.842 83.0674 168.841 83.2807C168.839 83.8501 168.598 84.5758 168.477 85.1438C168.151 86.6745 167.75 88.2542 167.534 89.7999C167.516 89.8209 167.497 89.8418 167.478 89.8628L167.383 89.9648C165.868 91.6107 163.382 93.4587 161.615 94.9527L161.452 94.8801C161.295 94.6157 161.293 94.3997 161.316 94.0896C161.378 93.2735 161.727 92.3338 161.876 91.5099C162.051 90.5479 162.121 89.1442 162.529 88.2582C163.121 86.9696 167.239 83.8756 168.551 82.7801Z" fill="white"/>
<path d="M149.902 35.9336C150.492 35.9885 156.489 38.8684 156.914 39.2928C157.543 39.923 160.101 45.2297 160.089 45.8802C160.021 45.8789 159.903 45.8795 159.829 45.8658C159.078 45.7231 153.161 42.828 152.771 42.2796C152.234 41.5259 150.19 37.3616 149.912 36.4605C149.854 36.2739 149.873 36.1226 149.902 35.9336Z" fill="white"/>
<path d="M1.08598 83.4692C2.01942 83.8776 6.15337 87.5612 7.17359 88.4748C7.38535 90.1271 8.84867 94.2741 8.4504 95.6438C6.92799 94.8827 4.05214 91.9974 2.45205 90.7933C2.06693 89.8896 1.10254 85.3428 1.00621 84.2774C0.979117 83.9777 0.98926 83.7545 1.08598 83.4692Z" fill="white"/>
<path d="M138.945 20.9917C141.526 20.949 144.081 22.1113 146.636 22.3752C147.368 23.1883 151.133 27.4518 151.201 28.188C151.172 28.1896 151.143 28.1918 151.114 28.193C150.131 28.2328 143.732 26.8321 143.132 26.2649C142.261 25.4412 139.727 22.4153 139.071 21.4381C138.969 21.2871 138.953 21.1689 138.945 20.9917Z" fill="white"/>
<path d="M157.785 113.158L157.95 113.182L158.055 113.393C158.029 113.561 158 113.662 157.91 113.809C157.318 114.784 154.91 118.579 154.201 119.143C153.758 119.496 147.877 121.307 146.995 121.529L146.694 121.37L146.637 121.17C146.982 120.297 149.697 116.541 150.447 115.606C150.572 115.45 150.703 115.328 150.888 115.247C151.45 115.002 152.117 114.897 152.707 114.708C154.276 114.205 156.172 113.339 157.785 113.158Z" fill="white"/>
<path d="M122.804 133.241C123.036 133.226 123.166 133.207 123.37 133.329C123.365 133.757 120.682 139.731 120.276 140.568C118.298 141.569 116.273 142.631 114.389 143.8C114.213 143.855 114.142 143.847 113.967 143.79C113.885 143.597 113.867 143.55 113.924 143.335C114.242 142.137 114.938 140.855 115.429 139.708C115.855 138.71 116.262 137.386 116.923 136.53C117.388 135.927 121.755 133.906 122.736 133.285L122.804 133.241Z" fill="white"/>
<path d="M38.404 128.047C38.5045 128.043 38.5479 128.039 38.654 128.049C39.3737 128.114 44.1286 131.553 44.8124 132.315C44.9496 134.18 46.8811 137.568 46.8977 139.455C46.556 139.49 46.4118 139.42 46.1206 139.242C45.0982 138.619 41.3876 136.316 40.8334 135.614C40.3727 135.03 38.6721 129.186 38.404 128.047Z" fill="white"/>
<path d="M46.3595 133.237C46.4579 133.232 46.5056 133.226 46.6093 133.233C47.3001 133.275 52.3858 136.102 52.8622 136.69C53.3209 137.256 55.9386 143.355 55.8607 143.89C55.1075 143.835 50.0257 141.027 49.3918 140.41C49.0624 140.088 46.3895 133.849 46.3595 133.237Z" fill="white"/>
<path d="M130.92 127.948C131.03 128.027 131.097 128.115 131.182 128.218C131.204 128.352 131.204 128.45 131.165 128.581C130.801 129.795 129.356 134.838 128.84 135.58C128.377 136.246 123.945 139.032 122.977 139.567L122.801 139.422C122.744 139.275 122.73 139.179 122.762 139.023C122.973 137.986 123.539 136.69 123.869 135.629C124.179 134.629 124.424 133.29 124.931 132.389C125.6 131.202 129.573 128.91 130.92 127.948Z" fill="white"/>
<path d="M11.5151 113.104C12.4276 113.181 18.5486 115.018 19.0688 115.482C19.7067 116.052 23.0768 120.835 23.0874 121.433C22.9769 121.452 22.8662 121.461 22.7542 121.463C22.1107 121.468 16.5843 119.698 15.8722 119.393C15.714 119.325 15.588 119.24 15.467 119.119C15.437 119.088 15.4088 119.056 15.3793 119.025C15.3458 118.99 15.3113 118.956 15.2783 118.921C14.6265 118.223 11.4841 113.771 11.5151 113.104Z" fill="white"/>
<path d="M20.4358 107.442C21.2973 107.813 24.1883 112.491 24.8508 113.568C24.2869 115.913 24.6415 118.843 24.1354 121.257C24.0237 121.229 23.9865 121.228 23.8907 121.179C23.2582 120.853 19.9864 115.767 19.7876 115.049C20.0384 113.883 19.9521 112.701 20.0155 111.52C20.0599 110.691 20.208 109.871 20.2813 109.045C20.3295 108.501 20.3135 107.978 20.4358 107.442Z" fill="white"/>
<path d="M48.6199 141.041C48.7724 141.038 48.9335 141.037 49.0827 141.073C49.778 141.241 55.0722 144.203 55.2554 144.542L55.1769 144.786C54.2555 145.432 49.5021 145.573 48.0995 146.089C48.0384 146.111 47.9784 146.136 47.9178 146.16L47.718 146.204C47.1486 145.876 46.5255 145.641 45.9426 145.332C45.0379 144.852 44.1632 144.318 43.2606 143.835C42.783 143.58 42.221 143.367 41.7875 143.044C41.5766 142.886 41.5135 142.794 41.4844 142.538C42.4774 141.929 47.0322 141.565 48.6199 141.041Z" fill="white"/>
<path d="M6.82208 103.771C7.46071 103.799 13.5941 106.756 14.0872 107.236C14.4975 107.635 16.854 112.535 17.0552 113.184C17.122 113.4 17.1134 113.531 17.0911 113.751C16.2026 113.667 11.3393 111.12 10.053 110.528C9.55213 109.757 7.04595 104.901 6.85283 104.208C6.81213 104.063 6.81828 103.92 6.82208 103.771Z" fill="white"/>
<path d="M151.711 121.595C151.819 121.602 151.917 121.669 152.013 121.715L152.076 121.918C151.738 122.771 149.496 125.139 148.786 126.059C148.375 126.59 147.958 127.139 147.349 127.454C146.947 127.663 146.497 127.597 146.069 127.688C144.62 127.996 143.199 128.457 141.716 128.628C141.302 128.676 141.041 128.744 140.661 128.933C140.623 128.953 140.585 128.973 140.546 128.992C140.375 128.972 140.244 128.962 140.089 128.876C139.954 128.801 139.983 128.753 139.952 128.613C140.35 127.784 143.789 123.732 144.579 123.094C145.353 123.057 146.139 122.792 146.896 122.623C148.496 122.268 150.101 121.899 151.711 121.595Z" fill="white"/>
<path d="M10.966 62.8541L11.2057 63.0118C11.5551 63.8449 11.0898 68.8302 10.9863 70.0742C9.98466 71.253 8.9741 72.4239 7.95467 73.587C7.28966 74.3501 6.56485 75.1007 5.99892 75.9403L5.70914 75.8663C5.57951 75.706 5.53815 75.5725 5.53357 75.3644C5.52506 74.9842 5.61655 74.5837 5.63722 74.2009C5.68964 73.2304 5.65273 72.2442 5.66824 71.2717C5.67983 70.5467 5.61556 69.5991 5.87242 68.9192C6.233 67.965 10.0402 63.75 10.966 62.8541Z" fill="white"/>
<path d="M120.457 141.043C121.129 141.061 127.814 142.285 128.158 142.486L128.192 142.668C127.776 143.411 122.998 145.719 121.985 146.184L121.861 146.217C120.391 145.643 115.179 145.369 114.427 144.681L114.429 144.489C115.368 143.391 118.97 142.23 120.313 141.161C120.362 141.122 120.409 141.082 120.457 141.043Z" fill="white"/>
<path d="M144.982 27.8474C145.016 27.8501 145.049 27.8506 145.082 27.8553C146.037 27.9909 147.18 28.6007 148.092 28.9387C149.431 29.435 150.846 29.8326 152.14 30.4375C152.338 30.5299 152.477 30.6583 152.612 30.829C153.062 31.4022 156.042 36.1319 156.078 36.4455C156.09 36.5596 156.045 36.6729 156.029 36.7866C154.819 36.7695 150.233 34.7944 148.72 34.2772C147.96 33.4304 145.51 29.5211 145.058 28.4536C144.976 28.2606 144.974 28.0534 144.982 27.8474Z" fill="white"/>
<path d="M10.6626 72.2429L10.8958 72.3842C11.3484 73.0615 11.3769 78.141 11.4204 79.3674C10.8443 80.3719 10.1096 81.3031 9.44417 82.2514C8.62891 83.4136 7.84474 84.6157 6.95677 85.723C6.79906 85.6791 6.75522 85.6425 6.63265 85.5411C6.25925 84.566 6.21756 80.0368 6.15127 78.6194C6.76117 77.5377 7.59947 76.5011 8.31715 75.4861C9.07718 74.4116 9.7963 73.233 10.6626 72.2429Z" fill="white"/>
<path d="M158.674 71.6395C158.716 71.6474 158.759 71.6526 158.801 71.6631C158.994 71.7102 159.101 71.7658 159.245 71.9059C159.884 72.5282 162.988 77.0148 163.559 77.9742C163.546 79.5964 163.507 83.5962 163.132 85.0097L162.895 85.0044C162.375 84.7152 158.689 79.4126 158.273 78.7136C158.255 77.2432 158.404 72.9568 158.674 71.6395Z" fill="white"/>
<path d="M162.735 103.13C162.935 103.209 162.919 103.23 163.036 103.396C163.039 103.55 163.025 103.68 162.971 103.825C162.572 104.896 161.92 105.957 161.405 106.981C160.966 107.852 160.673 108.988 160.012 109.719C159.428 110.363 154.289 112.641 153.165 113.194C153.071 113.184 153.007 113.124 152.929 113.074C152.776 112.472 155.353 107.444 155.801 106.601C158.04 105.334 160.434 104.287 162.735 103.13Z" fill="white"/>
<path d="M159.46 31.3183C160.172 31.8934 162.084 36.4229 162.797 37.6729C162.527 39.1257 162.13 40.5677 161.816 42.013C161.615 42.936 161.507 43.9372 161.224 44.8338C161.149 45.0707 161.022 45.2258 160.863 45.4129C159.969 44.5255 158.275 40.3881 157.481 38.9108C158.116 37.4778 158.741 32.1768 159.182 31.5615C159.254 31.4613 159.367 31.3993 159.46 31.3183Z" fill="white"/>
<path d="M153.867 22.3647C153.898 22.372 153.93 22.3776 153.961 22.3864C154.147 22.4384 154.277 22.5032 154.404 22.653C155.325 23.7359 157.303 27.3119 158.073 28.6788C158.032 28.7838 157.994 28.8894 157.955 28.9947C157.709 29.647 157.746 30.3615 157.659 31.0472C157.441 32.7651 157.307 34.4825 157.01 36.1899L156.674 36.1269C155.787 35.3147 153.51 31.2531 152.85 30.0023C152.857 29.9715 152.865 29.9405 152.874 29.9099C153.313 28.3859 153.353 26.6518 153.524 25.0688C153.621 24.1619 153.791 23.2748 153.867 22.3647Z" fill="white"/>
<path d="M9.80786 31.9566C9.86708 31.9818 9.92938 32.0007 9.98546 32.0323C10.3189 32.2193 11.6636 38.7706 11.7931 39.7068C11.1834 41.017 9.45867 45.1296 8.64609 46.0248C8.49695 45.9103 8.37098 45.8069 8.29042 45.6315C7.98481 44.9673 7.90072 43.9817 7.73405 43.256C7.36254 41.6383 6.8949 40.0293 6.60808 38.3947C7.00137 37.3885 9.27694 32.5836 9.80786 31.9566Z" fill="white"/>
<path d="M168.92 61.6821L169.13 61.7953C169.616 62.8332 169.57 67.6457 169.553 69.0069C168.503 70.3922 166.161 74.2683 165.079 75.1537C164.914 75.0758 164.855 75.0346 164.728 74.9135C164.501 73.9888 164.663 72.7795 164.615 71.8175C164.554 70.5853 164.305 69.3707 164.344 68.1339C165.016 66.88 167.989 62.5525 168.92 61.6821Z" fill="white"/>
<path d="M23.6793 28.4791C23.8188 28.4736 23.9367 28.48 24.0765 28.4989C24.2734 28.5255 24.2347 28.5363 24.3454 28.6812C24.0458 29.7195 23.1765 30.8159 22.6063 31.7341C22.103 32.5446 21.7008 33.4987 21.0756 34.2186C19.6661 35.8413 15.8101 36.2475 13.9003 37.3906C13.8735 37.4066 13.8474 37.4237 13.821 37.4402L13.3831 37.3637C13.2782 37.184 13.2637 37.1565 13.3228 36.9434C13.5585 36.0929 14.4168 35.2172 14.8718 34.4363C15.4015 33.5273 15.951 32.2341 16.6676 31.4717C17.8393 30.2251 21.8951 29.463 23.5916 28.5291C23.6211 28.5129 23.65 28.4957 23.6793 28.4791Z" fill="white"/>
<path d="M130.561 0.677236C131.325 0.883243 135.843 3.9759 136.459 4.63554C136.962 5.17588 138.894 11.4775 138.853 12.1635C138.417 12.1022 138.13 11.9066 137.767 11.6729C136.672 10.967 133.431 8.98773 132.772 8.17018C132.426 7.74076 130.562 1.98356 130.421 1.18401C130.373 0.911578 130.41 0.893452 130.561 0.677236Z" fill="white"/>
<path d="M17.7007 121.532C19.1828 121.866 20.6752 122.16 22.1594 122.487C23.1509 122.706 24.1673 123.035 25.1787 123.101C26.6362 124.64 27.983 126.337 29.3148 127.986C29.6062 128.348 29.7429 128.492 29.6933 128.969C28.757 128.96 22.6102 127.625 21.7777 127.204C20.6165 125.536 18.7695 123.845 17.7643 122.216C17.594 121.939 17.6305 121.846 17.7007 121.532Z" fill="white"/>
<path d="M143.526 129.672C144.027 129.62 144.618 129.48 145.052 129.779C144.847 130.522 140.583 134.144 139.741 134.805C137.585 134.82 135.434 135.131 133.267 135.171L132.939 135.199C132.631 135.228 132.374 135.29 132.085 135.146L132.049 134.939C132.344 134.214 136.188 131.05 137.083 130.191C139.162 129.817 141.414 129.835 143.526 129.672Z" fill="white"/>
<path d="M29.8757 21.2935C30.1094 21.4002 30.1168 21.3917 30.227 21.6212C30.2075 21.7549 30.1781 21.8673 30.1074 21.9844C29.5089 22.9756 28.5661 23.9001 27.8068 24.7822C27.1823 25.5077 26.6466 26.4297 25.8837 27.0087C25.0793 27.6193 19.9059 28.3848 18.4576 28.7832C18.3714 28.7544 18.2713 28.6838 18.1915 28.6384C18.1597 28.4726 18.1331 28.4687 18.2102 28.3053C18.5804 27.5211 19.673 26.4562 20.2422 25.7518C21.0011 24.8128 21.7726 23.6658 22.7818 22.9804C23.5996 22.425 28.4442 21.7792 29.8757 21.2935Z" fill="white"/>
<path d="M15.1019 44.8403C15.2535 44.8482 15.3949 44.8789 15.5437 44.9071C15.5747 44.966 15.6347 45.0177 15.6364 45.0844C15.6533 45.7179 13.9604 50.6554 13.654 51.669C12.0558 53.1401 9.23294 54.7755 7.36311 56.1007C7.14984 56.1111 7.15304 56.1347 6.95345 56.0221C6.91765 55.9089 6.90509 55.8932 6.90614 55.7558C6.91163 55.0359 7.63161 53.4026 7.88441 52.6749C8.22928 51.6828 8.35231 50.5068 8.81648 49.5808C9.33339 48.5495 13.8394 45.8658 15.1019 44.8403Z" fill="white"/>
<path d="M0.397486 62.3483C1.31516 62.6578 4.51252 67.5789 5.23727 68.6234C5.22477 70.9982 5.25861 73.4745 4.83239 75.8199C4.67527 75.7904 4.5828 75.7649 4.45493 75.6622C3.68404 75.0431 0.824616 70.7116 0 69.5474C0.0252601 68.075 0.128853 66.6215 0.206923 65.1524C0.256265 64.2245 0.249918 63.2664 0.397486 62.3483Z" fill="white"/>
<path d="M153.92 44.182C154.655 44.3233 159.338 47.6458 160.125 48.3244L160.262 48.4441C160.391 48.5541 160.483 48.6352 160.565 48.7864C160.902 49.41 162.474 54.3253 162.608 55.0229C162.64 55.1969 162.608 55.3344 162.562 55.5019C161.489 55.265 157.133 52.0407 155.957 51.2411C155.119 49.3465 154.598 47.1949 153.99 45.212C153.867 44.8096 153.803 44.5962 153.92 44.182Z" fill="white"/>
<path d="M132.148 14.6633C132.664 14.6064 133.274 14.7188 133.798 14.7424C135.857 14.8352 137.896 15.0183 139.95 15.1496C140.711 15.69 141.403 16.4135 142.105 17.0319C143.022 17.8391 144.069 18.6409 144.894 19.5399C145.119 19.7846 145.123 19.8764 145.106 20.2035C144.328 20.3166 143.409 20.1759 142.624 20.1315C140.871 20.0392 139.119 19.9186 137.369 19.7697C137.108 19.5781 136.854 19.3781 136.606 19.1697C135.844 18.5235 132.785 15.9071 132.307 15.2779C132.149 15.0701 132.168 14.9109 132.148 14.6633Z" fill="white"/>
<path d="M158.131 80.8516C158.192 80.8555 158.254 80.8536 158.314 80.864C158.324 80.866 158.531 80.9347 158.55 80.9478C158.868 81.1703 161.71 87.0717 162.058 87.7517C161.662 89.0827 161.461 90.5191 161.196 91.8836C161.015 92.8141 160.751 93.7368 160.662 94.6805L160.312 94.6118C159.613 93.9914 157.33 89.0919 156.701 87.8636C156.881 85.9651 157.55 82.6584 158.131 80.8516Z" fill="white"/>
<path d="M156.557 89.8968C156.643 89.9276 156.722 89.9524 156.801 90.0002C157.101 90.1808 158.979 96.1883 159.105 96.7995C159.17 97.1149 159.161 97.3315 159.093 97.6502C158.898 98.5559 157.278 103.216 156.821 103.915C156.695 103.863 156.559 103.809 156.464 103.706C155.985 103.183 154.046 97.0121 154.142 96.2923C154.256 95.4344 156.053 90.3176 156.557 89.8968Z" fill="white"/>
<path d="M31.69 121.906C31.7503 121.921 31.8114 121.934 31.8709 121.952C32.6469 122.186 36.9348 126.21 37.3228 126.942C37.3868 128.708 38.7286 133.168 38.2514 134.458C37.2774 134.012 33.883 130.624 32.8329 129.715C32.7485 128.426 31.3169 122.624 31.69 121.906Z" fill="white"/>
<path d="M38.4003 1.0333L38.552 1.09985C38.6772 1.30677 38.7015 1.38884 38.6444 1.629C38.3867 2.71309 36.7637 8.04892 36.214 8.74246C35.8074 9.25551 31.3279 12.214 30.4595 12.7172C30.3296 12.6484 30.2838 12.5885 30.1909 12.4777C30.2424 11.7852 32.183 6.01116 32.5608 5.01189C34.3958 3.57815 36.4516 2.31187 38.4003 1.0333Z" fill="white"/>
<path d="M15.1331 22.9743C15.1741 23.004 15.2263 23.0398 15.2577 23.0768C15.5856 23.4632 16.3811 30.0059 16.3678 30.8694C15.0937 32.769 13.9977 34.8378 12.7963 36.7897C12.5177 36.7322 12.3914 36.7182 12.2333 36.4854C12.1455 35.2175 11.0915 29.4796 11.5888 28.6325C12.1973 27.5956 14.3867 23.5825 15.1331 22.9743Z" fill="white"/>
<path d="M24.6375 129.619C25.6743 129.552 26.7832 129.713 27.8246 129.789C29.3779 129.903 30.9507 129.977 32.4952 130.175C33.7933 131.207 34.9808 132.389 36.2105 133.502C36.5925 133.847 37.1647 134.231 37.4737 134.632C37.6576 134.871 37.6207 134.978 37.6127 135.269C36.3961 135.179 35.1789 135.173 33.9632 135.093C32.6247 135.004 31.3024 134.829 29.959 134.803C29.7518 134.673 29.5692 134.538 29.3855 134.377C28.3312 133.449 25.4994 131.133 24.781 130.182C24.6332 129.986 24.6531 129.857 24.6375 129.619Z" fill="white"/>
<path d="M2.39743 51.8019C2.56267 51.8483 2.67189 51.9086 2.77803 52.0479C3.53492 53.0466 4.08357 54.4758 4.6533 55.604C5.12368 56.5352 5.92507 57.7164 6.15764 58.7157C6.32864 59.4506 4.99791 64.3632 4.86251 65.5568L4.54041 65.5889C3.82796 65.2401 1.56071 60.0723 0.964542 59.0318C1.05564 56.9076 1.69604 54.7847 2.02985 52.684C2.09104 52.2986 2.1536 52.1147 2.39743 51.8019Z" fill="white"/>
<path d="M166.954 51.0565C167.031 51.101 167.053 51.1069 167.119 51.1854C167.589 51.7548 168.593 57.3748 168.584 58.3603C167.858 59.5599 165.863 64.5307 164.998 65.0595C164.829 64.9005 164.732 64.7951 164.694 64.5621C164.417 62.8875 163.397 59.5729 163.406 58.1169C163.409 57.5868 166.508 51.5139 166.954 51.0565Z" fill="white"/>
<path d="M166.533 93.3795C166.676 93.4698 166.671 93.5098 166.743 93.6564C166.533 94.5575 166.15 95.4226 165.838 96.2923C165.47 97.3178 165.152 98.3785 164.732 99.3824C164.584 99.7338 164.416 100.146 164.134 100.408C163.696 100.814 158.381 104.06 157.756 104.315L157.573 104.279L157.478 104.122C157.484 103.618 159.13 99.1206 159.451 98.3838C159.653 97.9231 159.917 97.5265 160.292 97.1901C160.918 96.6306 165.626 93.7506 166.533 93.3795Z" fill="white"/>
<path d="M3.02678 94.1184C3.79879 94.0595 9.06577 97.3649 9.78535 97.9977C9.9943 98.1816 10.1002 98.3334 10.2253 98.5814C10.6295 99.3811 12.4568 104.104 12.5159 104.886C12.2357 104.899 12.0378 104.881 11.7845 104.747C10.6993 104.172 6.20288 101.545 5.56424 100.814C5.02095 100.191 3.34607 95.2099 3.02678 94.1184Z" fill="white"/>
<path d="M143.698 114.897L143.979 115.012C144.382 115.672 143.98 121.548 143.938 122.794C142.489 124.629 140.882 126.352 139.491 128.231L139.216 128.202C139.05 128.038 138.987 127.947 138.966 127.707C138.866 126.574 139.066 125.261 139.097 124.115C139.126 123.036 139.006 121.664 139.279 120.62C139.611 119.357 142.729 116.09 143.698 114.897Z" fill="white"/>
<path d="M11.3312 81.3777C11.4006 81.4164 11.4325 81.4294 11.4969 81.4857C12.0422 81.9595 12.9987 87.3813 13.0322 88.2516C13.0582 88.9289 10.0514 94.7669 9.52718 95.3532L9.34683 95.2832C8.8731 94.6622 7.975 89.4217 7.78424 88.3746C8.40029 87.0678 10.5732 82.2376 11.3312 81.3777Z" fill="white"/>
<path d="M0.0801536 72.8862C0.234462 72.8979 0.3997 72.9006 0.538565 72.9791C1.42542 73.4784 4.47108 77.4631 5.58468 78.5127C5.54843 79.6455 5.78127 80.7456 5.87046 81.8692C5.97491 83.1852 5.94474 84.5411 5.93793 85.8617C5.7759 85.8323 5.59862 85.8126 5.46244 85.7106C5.02046 85.3794 4.60367 84.746 4.22823 84.3226C2.92178 82.8593 1.63635 81.378 0.371953 79.8785C0.35075 78.7797 0.342702 77.6712 0.269081 76.5744C0.188458 75.3729 -0.0614598 74.0811 0.0801536 72.8862Z" fill="white"/>
<path d="M29.672 7.37848L29.8905 7.52788C30.215 8.0925 29.0027 14.0741 28.8428 15.1904C28.142 15.8799 27.3728 16.5051 26.6523 17.1749C25.6661 18.0914 24.7076 19.1662 23.5798 19.9052L23.3507 19.7544C23.2613 19.4861 23.2619 19.2178 23.2908 18.9386C23.3978 17.9053 24.1908 12.6962 24.6286 12.0078C25.0732 11.3087 28.7989 8.12313 29.672 7.37848Z" fill="white"/>
<path d="M139.071 6.88506C139.273 6.9022 139.416 6.90659 139.594 7.01319C140.136 7.33843 143.867 10.7702 144.402 11.3615C145.012 12.0361 145.999 18.3615 145.932 19.4385C145.766 19.4067 145.603 19.3815 145.461 19.2847C144.938 18.9322 144.441 18.4073 143.969 17.9874L140.379 14.7347C140.057 13.2962 139.841 11.8212 139.583 10.3694C139.386 9.25433 139.067 8.01659 139.071 6.88506Z" fill="white"/>
<path d="M58.317 144.762C60.1035 145.453 63.5555 146.398 65.0227 147.33L65.0154 147.461C64.539 147.977 58.8235 149.779 57.8255 149.997C57.6233 149.993 57.4224 149.982 57.2261 149.929C56.1267 149.626 52.1826 148.302 51.3109 147.779C51.1483 147.681 51.0586 147.553 50.9691 147.391C51.6352 146.71 56.9277 145.419 58.2391 144.8C58.2653 144.788 58.2908 144.775 58.317 144.762Z" fill="white"/>
<path d="M158.453 62.1834C159.176 62.4772 163.167 67.2485 163.849 68.1339C163.884 69.086 163.882 70.0428 163.94 70.9936C164.016 72.2206 164.525 74.2002 164.12 75.3428C163.918 75.3094 163.794 75.2649 163.644 75.1288C163.151 74.6806 162.727 74.0909 162.288 73.5857C161.092 72.2134 159.928 70.8065 158.663 69.497C158.479 68.1012 158.181 64.0517 158.275 62.7409C158.29 62.5322 158.364 62.3699 158.453 62.1834Z" fill="white"/>
<path d="M114.967 137.278C115.115 137.397 115.13 137.43 115.202 137.598C114.713 138.818 113.721 140.094 113.021 141.217C112.449 142.135 111.875 143.3 111.143 144.091C110.298 145.002 106.208 145.896 104.758 146.706C104.725 146.725 104.692 146.744 104.659 146.763C104.433 146.56 104.354 146.552 104.323 146.239C104.664 145.323 107.397 140.99 108.093 140.104C108.254 139.899 108.397 139.762 108.634 139.649C108.679 139.628 108.726 139.609 108.772 139.588C110.745 138.656 112.926 138.066 114.967 137.278Z" fill="white"/>
<path d="M146.946 14.149C146.977 14.1551 147.008 14.1619 147.039 14.1675C147.208 14.1979 147.321 14.2198 147.458 14.3327C148.305 15.0293 151.083 18.6224 151.898 19.6815C151.976 20.937 152.192 26.8405 151.958 27.55C151.896 27.5348 151.83 27.5282 151.77 27.5046C151.351 27.3402 147.469 22.5547 147.033 21.8273L146.974 16.9016C146.955 16.0063 146.834 15.0362 146.946 14.149Z" fill="white"/>
<path d="M39.9713 136.178C40.2169 136.162 40.4279 136.169 40.653 136.276C41.7644 136.802 42.8057 137.679 43.8187 138.374C44.4754 138.825 45.2091 139.222 45.8254 139.723C46.0186 139.88 46.1558 140.012 46.2382 140.253L46.1536 140.405C45.0084 140.874 42.7556 140.751 41.4879 140.829C40.6584 140.88 39.8301 140.98 39.0043 141.072C38.7339 141.086 38.5422 141.044 38.2969 140.923C37.3349 140.452 36.5458 139.751 35.6681 139.155C34.8039 138.568 33.7979 138.111 33.0245 137.399C32.8081 137.2 32.696 137.049 32.6786 136.754L32.8431 136.701L32.7952 136.776C33.1785 136.528 39.0067 136.189 39.9713 136.178Z" fill="white"/>
<path d="M111.297 144.75C112.394 145.239 118.328 146.937 118.668 147.263C118.684 147.408 118.723 147.451 118.625 147.577C118.322 147.967 112.891 149.851 112.178 150C111.227 149.991 106.079 148.238 105.105 147.78C104.834 147.653 104.601 147.459 104.383 147.257C105.927 146.741 107.462 146.197 108.987 145.626C109.746 145.349 110.589 145.134 111.297 144.75Z" fill="white"/>
<path d="M21.7692 14.7432L22.029 14.7636C22.2046 14.9041 22.2513 14.9464 22.274 15.1918C22.3493 16.005 22.2353 17.7738 22.2386 18.7018C22.2426 19.8554 22.4085 21.3017 22.0973 22.4096C21.833 23.3507 18.5012 26.9782 17.659 28.0176C17.5335 27.9904 17.4526 28.0049 17.3706 27.8933C17.0615 27.4717 17.3066 21.1408 17.3521 20.1597C18.8936 18.4279 20.3251 16.5575 21.7692 14.7432Z" fill="white"/>
<path d="M129.231 136.163C130.27 136.185 136.435 136.495 137.023 136.785C137.021 136.812 137.021 136.84 137.014 136.866C136.831 137.57 132.035 140.565 131.139 141.077C130.226 141.063 129.312 140.915 128.401 140.853C127.089 140.762 124.83 140.861 123.631 140.47C123.454 140.412 123.527 140.459 123.424 140.26C123.435 140.228 123.442 140.194 123.457 140.163C123.677 139.709 128.547 136.462 129.231 136.163Z" fill="white"/>
<path d="M130.718 8.87687L132.578 8.84009C134.179 10.114 136.059 11.038 137.694 12.2716C137.914 12.4376 138.24 12.6374 138.277 12.9138C137.162 13.6042 133.814 13.3271 132.341 13.6478L132.203 13.6785C131.663 13.7241 131.119 13.7359 130.577 13.7599C129.38 13.1497 125.478 10.646 124.707 9.7291L124.732 9.51361C125.052 9.19465 129.884 8.93021 130.718 8.87687Z" fill="white"/>
<path d="M54.7208 137.278C56.8706 138.337 59.3527 138.703 61.4651 139.879C62.2498 141.082 62.9879 142.316 63.7529 143.532C64.2647 144.346 64.887 145.192 65.2875 146.067C65.4079 146.331 65.3791 146.418 65.2797 146.684C64.5814 146.606 59.6164 144.771 58.9274 144.392C58.6695 144.25 58.5223 144.101 58.3469 143.87C57.8718 143.239 54.6403 138.229 54.5127 137.668C54.478 137.515 54.6331 137.396 54.7208 137.278Z" fill="white"/>
<path d="M13.0219 90.4478C13.1784 90.5145 13.2998 90.5754 13.4215 90.6991C13.902 91.1879 15.8029 96.6018 15.7431 97.3007C15.685 97.9807 13.9444 103.652 13.5955 104.241C13.5055 104.393 13.4152 104.47 13.2817 104.583C13.1374 104.486 13.018 104.388 12.9288 104.235C12.6001 103.669 11.0868 99.3543 10.87 98.658C10.79 98.4008 10.6652 98.0533 10.6907 97.7856C10.7668 96.9833 12.5589 91.3312 13.0219 90.4478Z" fill="white"/>
<path d="M5.18195 41.6507L5.44181 41.7507C5.96579 42.3889 8.29725 48.5017 8.24476 49.1777C8.17068 50.1331 6.83746 54.4188 6.43952 55.4286C6.36878 55.6086 6.22697 55.7205 6.08555 55.8435C5.50071 55.4247 3.41001 49.751 3.15761 48.7674C3.11246 48.5914 3.0995 48.4304 3.13615 48.2524C3.32906 47.3114 4.85684 42.2273 5.18195 41.6507Z" fill="white"/>
<path d="M16.3455 99.2352C16.4494 99.2607 16.5114 99.2646 16.5995 99.3209C16.9764 99.5624 19.5534 104.839 19.6935 105.506C19.8327 106.169 18.3905 112.667 18.0668 113.21C17.9543 113.217 17.8764 113.195 17.7679 113.169C17.2356 112.559 15.4816 108.808 15.0526 107.856C14.8918 107.5 14.693 107.097 14.693 106.699C14.6929 105.606 15.9353 100.312 16.3455 99.2352Z" fill="white"/>
<path d="M163.808 40.9854C163.931 41.0114 164.049 41.0399 164.153 41.1166C164.62 41.461 165.943 46.2362 166.19 47.1458C166.268 47.4298 166.343 47.7505 166.292 48.0456C166.1 49.1587 164.159 54.1957 163.614 55.1262C163.535 55.1099 163.396 55.0844 163.324 55.0543C163.314 55.0497 163.125 54.9411 163.107 54.9142C162.939 54.661 162.831 53.9352 162.738 53.627C162.281 52.1121 161.71 49.8773 161.117 48.4827C161.724 46.153 163.015 43.3653 163.808 40.9854Z" fill="white"/>
<path d="M169.169 72.1087C169.386 72.1774 169.36 72.1801 169.496 72.3397C169.827 73.7696 169.438 77.8178 169.218 79.3582C168.173 80.6055 167.114 81.8419 166.042 83.0674C165.426 83.7748 164.825 84.5438 164.122 85.1674C163.939 85.1203 163.882 85.0928 163.734 84.9887C163.605 84.4037 163.864 83.4378 163.91 82.8181C164.023 81.3064 163.975 79.7561 163.995 78.2399C165.494 76.0456 167.476 74.1577 169.169 72.1087Z" fill="white"/>
<path d="M153.336 98.6089C153.374 98.62 153.414 98.6259 153.451 98.6429C153.987 98.8883 154.946 105.144 155.386 106.165C154.705 107.767 153.123 111.38 152.217 112.696C152.119 112.656 152.037 112.594 151.949 112.534C151.47 111.33 150.272 106.434 150.218 105.179C150.193 104.622 152.838 99.1952 153.336 98.6089Z" fill="white"/>
<path d="M12.6108 53.843C12.7733 53.8875 12.8237 53.9294 12.9517 54.0321C13.1798 54.7899 11.8849 59.9734 11.6066 61.0198C9.65918 62.6196 7.74242 64.2557 5.85638 65.9279C5.71202 65.8906 5.58343 65.8356 5.44587 65.7787C5.41492 65.71 5.3629 65.6478 5.35301 65.5732C5.32998 65.4004 6.58225 59.5788 6.73106 58.8243C8.7696 57.2734 10.5911 55.424 12.6108 53.843Z" fill="white"/>
<path d="M137.687 121.899C137.8 121.922 137.878 121.972 137.979 122.027C138.062 122.232 138.097 122.392 138.074 122.616C137.989 123.454 137.017 129.173 136.737 129.664C136.335 130.368 132.52 133.664 131.63 134.404C131.443 134.373 131.452 134.36 131.316 134.249C131.085 133.471 132.282 127.634 132.568 126.521C133.967 125.11 136.145 123.059 137.687 121.899Z" fill="white"/>
<path d="M36.5094 15.11C36.7285 15.093 36.7737 15.0972 36.9735 15.1869L37.0331 15.3616C36.9851 15.4828 36.9824 15.5053 36.8974 15.6294C36.2964 16.5078 35.1958 17.2339 34.3836 17.9226C33.6764 18.5222 33.0892 19.3726 32.3094 19.8644C31.2126 20.556 26.1116 20.6526 24.5442 20.8136C24.274 20.7755 24.2196 20.7833 24.0177 20.6063L24.0365 20.3916C24.8756 19.3897 28.3684 16.2099 29.4507 15.5434C31.8097 15.465 34.1448 15.1763 36.5094 15.11Z" fill="white"/>
<path d="M36.6074 9.2294C38.0017 9.01842 39.6756 9.39909 41.0881 9.48959C42.0073 9.54849 42.9484 9.50634 43.8624 9.60627C44.1709 9.64004 44.3263 9.70646 44.5198 9.94663C44.5138 9.97307 44.5116 10.0006 44.5019 10.0259C44.289 10.5805 39.5885 13.5641 38.7785 14.0636C37.6612 14.4075 35.5597 13.8375 34.3556 13.7684C33.5228 13.7205 32.681 13.8145 31.851 13.724C31.4857 13.6841 31.2083 13.6379 30.9755 13.3421C31.0198 13.1391 31.0498 13.0632 31.2064 12.9115C31.6947 12.4379 32.426 12.0641 32.9988 11.6819C34.209 10.8751 35.4118 10.0576 36.6074 9.2294Z" fill="white"/>
<path d="M149.31 106.857C149.396 106.905 149.454 106.972 149.524 107.042C149.86 108.418 149.848 109.709 149.957 111.11C150.055 112.375 150.239 113.597 150.231 114.872C149.227 116.244 147.269 119.734 146.285 120.624C146.123 120.568 146.073 120.523 145.949 120.411C145.633 119.641 145.33 113.917 145.332 112.802C146.027 111.588 146.845 110.441 147.625 109.281C148.165 108.477 148.68 107.593 149.31 106.857Z" fill="white"/>
<path d="M156.533 53.256C156.718 53.2717 156.885 53.2848 157.05 53.3764C157.783 53.7821 158.483 54.5072 159.126 55.053C160.353 56.1048 161.588 57.1477 162.831 58.1817C163.092 59.215 164.334 64.5471 164.198 65.265C164.001 65.2637 163.86 65.2493 163.686 65.1491C163.005 64.7552 162.336 64.0582 161.726 63.5413C160.454 62.4635 159.165 61.4085 157.917 60.3026C157.58 58.8099 156.369 54.5222 156.533 53.256Z" fill="white"/>
<path d="M25.5832 114.877C25.5987 114.88 25.6142 114.883 25.6299 114.887C25.6839 114.897 25.7384 114.905 25.792 114.917C26.4296 115.063 29.9491 119.639 30.4863 120.431C30.5931 121.898 30.908 127.102 30.584 128.27L30.3258 128.245C29.5759 127.662 26.3527 123.656 25.7116 122.731L25.5816 117.824C25.5574 116.858 25.4547 115.832 25.5832 114.877Z" fill="white"/>
<path d="M49.3641 0.336551C49.4868 0.321434 49.6521 0.288647 49.7785 0.297154C50.039 0.314692 50.0714 0.333801 50.2241 0.523316C49.7612 1.41841 48.4415 2.70046 47.7528 3.52704C47.0506 4.36978 45.9179 5.89075 45.1269 6.54699C44.1475 7.35969 39.4095 7.8026 37.8978 8.42134C37.8719 8.43194 37.8462 8.44313 37.8204 8.45406C37.6774 8.52827 37.4995 8.56721 37.3417 8.53324C37.2004 8.50288 37.2442 8.50046 37.1573 8.35158C37.2466 8.05592 37.3912 7.84147 37.5738 7.59319C38.1841 6.76314 41.645 2.53313 42.2584 2.14722C42.9178 1.73233 48.3037 0.50421 49.3641 0.336551Z" fill="white"/>
<path d="M118.853 0.00306609C118.873 0.00260801 118.893 0.00267324 118.913 0.0016262C120.046 -0.0543909 125.799 1.35238 127 1.81224C128.049 3.3387 129.611 4.87708 130.828 6.30865C131.179 6.7206 131.682 7.20473 131.907 7.69024C131.978 7.84422 131.979 8.01266 131.985 8.17855C130.902 8.04754 124.529 6.65536 124.029 6.23772C123.323 5.64771 119.413 1.17753 118.987 0.4762C118.893 0.322676 118.873 0.17825 118.853 0.00306609Z" fill="white"/>
<path d="M80.4749 0.445835C81.2727 0.38131 82.071 0.367109 82.8707 0.356639C84.5892 0.334127 86.3378 0.302193 88.0543 0.383601C88.5874 0.40812 89.1203 0.438723 89.653 0.475414C90.1852 0.512147 90.7173 0.554946 91.2491 0.603808C91.7805 0.652714 92.3112 0.707706 92.8412 0.768784C93.3718 0.829818 93.9014 0.896917 94.4301 0.97008C94.9589 1.04324 95.4866 1.12247 96.0132 1.20776C96.5402 1.29301 97.0661 1.38427 97.5909 1.48156C98.1158 1.57889 98.6395 1.6822 99.1622 1.79149C99.6844 1.90078 100.205 2.01602 100.726 2.13721C101.245 2.25845 101.763 2.38562 102.28 2.51873C102.797 2.65179 103.313 2.79079 103.826 2.93572C104.34 3.0806 104.852 3.23136 105.363 3.38798C105.873 3.5446 106.381 3.70702 106.887 3.87525C107.394 4.04352 107.898 4.21757 108.401 4.3974C108.904 4.57718 109.404 4.76271 109.903 4.95397C110.401 5.14527 110.897 5.34223 111.391 5.54483C111.885 5.74748 112.376 5.95573 112.865 6.16959C113.354 6.3835 113.84 6.60294 114.325 6.82792C114.809 7.05295 115.29 7.2835 115.769 7.51956C116.248 7.75559 116.724 7.99706 117.197 8.24399C117.67 8.49096 118.14 8.7433 118.608 9.00101C119.075 9.25871 119.539 9.52174 120.001 9.79009C120.462 10.0584 120.92 10.332 121.376 10.6108C121.831 10.8897 122.283 11.1737 122.731 11.4629C123.18 11.7521 123.625 12.0464 124.067 12.3457C124.509 12.6451 124.947 12.9495 125.382 13.259C125.817 13.5684 126.249 13.8827 126.677 14.202C127.104 14.5213 127.528 14.8455 127.949 15.1745C128.369 15.5035 128.785 15.8372 129.198 16.1758C129.611 16.5143 130.02 16.8576 130.424 17.2055C130.829 17.5534 131.23 17.9058 131.627 18.2629C132.023 18.62 132.416 18.9816 132.804 19.3477C133.193 19.7137 133.577 20.0842 133.957 20.4591C134.367 20.8622 134.773 21.2703 135.173 21.6834C135.574 22.0965 135.97 22.5144 136.36 22.9372C136.75 23.3601 137.136 23.7876 137.516 24.2199C137.895 24.6521 138.269 25.089 138.639 25.5304C139.008 25.9719 139.371 26.4178 139.729 26.8682C140.088 27.3186 140.44 27.7734 140.787 28.2324C141.134 28.6915 141.476 29.1547 141.811 29.6222C142.147 30.0896 142.476 30.5611 142.801 31.0366C143.124 31.5121 143.442 31.9916 143.755 32.4749C144.067 32.9583 144.373 33.4454 144.673 33.9363C144.974 34.4272 145.268 34.9217 145.556 35.4197C145.844 35.9178 146.126 36.4194 146.402 36.9244C146.678 37.4294 146.947 37.9378 147.211 38.4494C147.474 38.9611 147.731 39.4759 147.981 39.9938C148.232 40.5118 148.477 41.0327 148.714 41.5567C148.952 42.0805 149.184 42.6073 149.409 43.1369C149.634 43.6665 149.852 44.199 150.064 44.7343C150.276 45.2692 150.481 45.8066 150.68 46.3468C150.879 46.8869 151.07 47.4291 151.255 47.9736C151.441 48.5185 151.62 49.0656 151.791 49.6148C151.963 50.1641 152.128 50.7153 152.287 51.2685C152.445 51.8217 152.597 52.3767 152.742 52.9333C152.886 53.4904 153.024 54.0491 153.155 54.6093C153.286 55.1694 153.41 55.7314 153.528 56.295C153.645 56.8582 153.755 57.423 153.859 57.9893C153.962 58.5551 154.058 59.1223 154.148 59.6907C154.237 60.2592 154.319 60.8287 154.395 61.3994C154.47 61.9696 154.539 62.5409 154.6 63.1133C154.662 63.6852 154.716 64.258 154.763 64.8317C154.811 65.405 154.851 65.9789 154.884 66.5535C154.917 67.128 154.943 67.7028 154.963 68.2778C154.982 68.8528 154.994 69.4281 154.999 70.0035C155.001 70.575 154.996 71.1465 154.985 71.718C154.973 72.2896 154.955 72.8606 154.929 73.4313C154.904 74.0024 154.871 74.573 154.832 75.1432C154.792 75.7134 154.746 76.283 154.692 76.8519C154.639 77.4212 154.579 77.9896 154.512 78.5572C154.445 79.1248 154.371 79.6913 154.29 80.2567C154.209 80.8226 154.121 81.3873 154.026 81.951C153.932 82.5146 153.83 83.077 153.722 83.638C153.613 84.1995 153.498 84.7595 153.376 85.3179C153.254 85.8759 153.125 86.4326 152.99 86.9879C152.854 87.5433 152.712 88.0967 152.563 88.6482C152.414 89.2 152.258 89.75 152.096 90.2979C151.933 90.8459 151.764 91.3919 151.588 91.9359C151.413 92.4795 151.23 93.0211 151.041 93.5608C150.853 94.1 150.657 94.6371 150.455 95.1719C150.253 95.7064 150.045 96.2384 149.829 96.768C149.614 97.2977 149.393 97.8245 149.165 98.3484C148.938 98.8728 148.703 99.3942 148.462 99.9124C148.222 100.431 147.975 100.947 147.722 101.459C147.469 101.971 147.21 102.481 146.945 102.987C146.679 103.493 146.408 103.996 146.13 104.495C145.852 104.995 145.568 105.491 145.279 105.984C144.989 106.477 144.693 106.965 144.391 107.451C144.09 107.936 143.782 108.418 143.469 108.896C143.155 109.374 142.836 109.848 142.511 110.318C142.186 110.788 141.856 111.254 141.519 111.717C141.183 112.179 140.841 112.636 140.494 113.09C140.146 113.544 139.793 113.994 139.435 114.439C139.076 114.884 138.712 115.325 138.343 115.761C137.974 116.197 137.6 116.629 137.22 117.057C136.841 117.484 136.456 117.906 136.066 118.324C135.676 118.742 135.281 119.155 134.881 119.563C134.569 119.884 134.253 120.201 133.934 120.515C133.616 120.83 133.294 121.141 132.969 121.45C132.644 121.758 132.317 122.063 131.986 122.364C131.656 122.666 131.322 122.965 130.986 123.26C130.65 123.556 130.31 123.848 129.968 124.137C129.626 124.425 129.281 124.711 128.934 124.993C128.586 125.275 128.236 125.554 127.883 125.83C127.53 126.105 127.174 126.377 126.816 126.645C126.458 126.914 126.097 127.179 125.734 127.44C125.37 127.702 125.004 127.96 124.636 128.214C124.268 128.469 123.897 128.719 123.524 128.967C123.15 129.214 122.775 129.457 122.397 129.697C122.019 129.937 121.639 130.173 121.256 130.406C120.874 130.639 120.489 130.868 120.102 131.093C119.715 131.318 119.326 131.539 118.935 131.757C118.544 131.974 118.15 132.188 117.755 132.398C117.359 132.608 116.962 132.814 116.563 133.017C116.163 133.219 115.762 133.417 115.359 133.612C114.956 133.806 114.551 133.997 114.143 134.184C113.737 134.37 113.328 134.553 112.918 134.732C112.507 134.911 112.095 135.086 111.682 135.256C111.268 135.427 110.852 135.594 110.435 135.757C110.018 135.92 109.599 136.078 109.179 136.233C108.759 136.387 108.338 136.538 107.915 136.684C107.492 136.831 107.067 136.973 106.641 137.111C106.216 137.25 105.788 137.384 105.36 137.514C104.932 137.644 104.502 137.77 104.071 137.891C103.64 138.013 103.208 138.13 102.775 138.244C102.342 138.357 101.908 138.466 101.473 138.571C101.037 138.676 100.601 138.777 100.164 138.873C99.7269 138.97 99.2889 139.062 98.85 139.149C98.4111 139.237 97.9714 139.321 97.5307 139.401C94.8182 139.898 91.9637 140.423 89.2014 140.447C85.9504 140.578 82.6849 140.65 79.4364 140.406C79.0486 140.376 78.6612 140.343 78.2742 140.306C77.8868 140.27 77.4998 140.23 77.1133 140.187C76.7267 140.144 76.3406 140.098 75.955 140.049C75.5693 140 75.1839 139.947 74.7986 139.891C74.4138 139.836 74.0295 139.777 73.6456 139.715C73.2617 139.652 72.8784 139.587 72.4958 139.518C72.1127 139.45 71.7303 139.378 71.3486 139.303C70.9669 139.228 70.586 139.151 70.206 139.069C69.8256 138.988 69.4458 138.903 69.0667 138.816C68.688 138.729 68.31 138.638 67.9326 138.544C67.5548 138.45 67.1781 138.353 66.8025 138.253C66.4268 138.153 66.0519 138.05 65.6775 137.943C65.3036 137.837 64.9304 137.727 64.5578 137.615C64.1857 137.502 63.8144 137.387 63.444 137.268C63.0737 137.149 62.7043 137.027 62.3361 136.902C61.9679 136.777 61.6008 136.649 61.2348 136.519C60.8683 136.387 60.5031 136.253 60.1393 136.116C59.7754 135.979 59.4127 135.839 59.051 135.696C58.6894 135.552 58.329 135.406 57.9699 135.258C57.6109 135.108 57.2529 134.956 56.8961 134.801C56.5396 134.646 56.1843 134.488 55.83 134.327C55.4762 134.166 55.1235 134.002 54.7719 133.835C54.4207 133.668 54.071 133.498 53.7228 133.325C53.3743 133.152 53.0272 132.977 52.6817 132.798C52.3362 132.62 51.9921 132.439 51.6496 132.254C51.307 132.07 50.9661 131.883 50.6267 131.693C50.2873 131.503 49.9495 131.311 49.6133 131.115C49.2772 130.919 48.9426 130.721 48.6097 130.52C48.2768 130.319 47.9457 130.115 47.6162 129.908C47.2867 129.702 46.959 129.492 46.633 129.28C46.307 129.068 45.9828 128.853 45.6604 128.636C45.3379 128.418 45.0173 128.198 44.6986 127.975C44.2235 127.643 43.7525 127.305 43.2857 126.961C42.8189 126.617 42.3565 126.268 41.8983 125.912C41.4402 125.557 40.9865 125.196 40.5373 124.83C40.0881 124.463 39.6434 124.091 39.2034 123.713C38.7634 123.336 38.328 122.953 37.8975 122.565C37.4669 122.176 37.0412 121.783 36.6204 121.384C36.1996 120.985 35.7838 120.581 35.3729 120.172C34.9621 119.763 34.5564 119.349 34.1557 118.93C33.7551 118.511 33.3598 118.087 32.9696 117.658C32.5795 117.229 32.1947 116.795 31.8153 116.357C31.4359 115.919 31.062 115.476 30.6935 115.028C30.3251 114.58 29.9622 114.128 29.6049 113.671C29.2477 113.215 28.8961 112.754 28.5502 112.289C28.2043 111.823 27.8643 111.354 27.5299 110.88C27.1957 110.406 26.8673 109.929 26.5449 109.446C26.2224 108.965 25.9059 108.479 25.5955 107.99C25.285 107.5 24.9806 107.006 24.6824 106.51C24.3841 106.012 24.0921 105.511 23.8062 105.007C23.5203 104.503 23.2407 103.995 22.9674 103.484C22.694 102.972 22.4271 102.457 22.1664 101.939C21.9059 101.421 21.6517 100.9 21.404 100.376C21.1562 99.852 20.915 99.3248 20.6803 98.7947C20.4456 98.2647 20.2175 97.7317 19.996 97.196C19.7745 96.6603 19.5596 96.1217 19.3514 95.5803C19.1432 95.0393 18.9417 94.4957 18.747 93.9495C18.5522 93.4037 18.3642 92.8553 18.183 92.3043C18.0018 91.7538 17.8274 91.201 17.6599 90.6461C17.4923 90.0907 17.3316 89.5336 17.1779 88.9747C17.0241 88.4159 16.8773 87.855 16.7374 87.2922C16.5974 86.7295 16.4645 86.1651 16.3385 85.5993C16.2125 85.0335 16.0936 84.4661 15.9816 83.8972C15.8697 83.3283 15.7649 82.7581 15.667 82.1866C15.5714 81.6225 15.4828 81.0571 15.4011 80.4904C15.3193 79.9241 15.2445 79.3567 15.1767 78.7882C15.1089 78.2198 15.048 77.6507 14.9942 77.0809C14.9403 76.5111 14.8934 75.9409 14.8535 75.3703C14.8136 74.7992 14.7807 74.2279 14.7548 73.6564C14.729 73.0844 14.7101 72.5123 14.6982 71.9399C14.6864 71.3679 14.6815 70.7958 14.6836 70.2234C14.6858 69.651 14.695 69.0788 14.7112 68.5069C14.7274 67.9345 14.7506 67.3625 14.7807 66.791C14.8109 66.2195 14.8481 65.6484 14.8923 65.0778C14.9365 64.5072 14.9877 63.9372 15.0459 63.3678C15.1041 62.7985 15.1692 62.23 15.2413 61.6624C15.3134 61.0944 15.3925 60.5277 15.4785 59.9623C15.5645 59.3965 15.6574 58.8317 15.7572 58.268C15.857 57.7044 15.9638 57.142 16.0774 56.581C16.191 56.0204 16.3115 55.4611 16.4388 54.9031C16.5662 54.3451 16.7003 53.7886 16.8413 53.2337C16.9822 52.6792 17.13 52.1265 17.2845 51.5754C17.439 51.024 17.6003 50.4747 17.7682 49.9277C17.9362 49.3806 18.1109 48.8357 18.2922 48.293C18.4736 47.7502 18.6615 47.2097 18.8561 46.6713C19.0507 46.133 19.2518 45.5972 19.4596 45.0641C19.6673 44.5306 19.8815 43.9998 20.1022 43.4719C20.323 42.9441 20.5501 42.4188 20.7837 41.8961C21.0173 41.3737 21.2573 40.8541 21.5037 40.3375C21.75 39.8209 22.0026 39.3074 22.2615 38.797C22.5204 38.2866 22.7856 37.7794 23.0569 37.2755C23.3283 36.7716 23.6058 36.2711 23.8894 35.774C24.173 35.2769 24.4627 34.7833 24.7584 34.2933C25.0542 33.8033 25.3558 33.317 25.6634 32.8344C25.9711 32.3518 26.2846 31.873 26.604 31.3981C26.9234 30.9231 27.2485 30.4522 27.5794 29.9852C27.8882 29.5474 28.2019 29.1132 28.5206 28.6825C28.8393 28.2518 29.163 27.8249 29.4915 27.4017C29.82 26.9785 30.1534 26.5591 30.4916 26.1436C30.8297 25.728 31.1726 25.3164 31.5203 24.9088C31.8679 24.5011 32.2202 24.0974 32.5771 23.6979C32.934 23.2983 33.2955 22.9029 33.6615 22.5116C34.0274 22.1204 34.3979 21.7334 34.7728 21.3506C35.1477 20.9678 35.5269 20.5894 35.9105 20.2154C36.2941 19.8414 36.6819 19.4718 37.074 19.1067C37.4661 18.7415 37.8623 18.381 38.2626 18.0249C38.663 17.6689 39.0674 17.3175 39.4759 16.9708C39.8843 16.6241 40.2967 16.2821 40.7129 15.9448C41.1292 15.6076 41.5493 15.2752 41.9733 14.9476C42.3972 14.62 42.8249 14.2973 43.2562 13.9795C43.6876 13.6618 44.1225 13.349 44.561 13.0412C44.9996 12.7334 45.4416 12.4307 45.8871 12.1331C46.3326 11.8355 46.7814 11.543 47.2336 11.2557C47.6859 10.9684 48.1413 10.6863 48.6 10.4095C49.0587 10.1327 49.5205 9.86116 49.9855 9.59495C50.4504 9.32869 50.9183 9.06785 51.3893 8.81241C51.8604 8.55693 52.3342 8.3069 52.8106 8.06233C53.2875 7.81771 53.7669 7.57864 54.249 7.3451C54.7311 7.11152 55.2158 6.88353 55.7031 6.66112C56.1908 6.43866 56.6808 6.22186 57.1729 6.0107C57.6654 5.79955 58.1602 5.59406 58.6571 5.39425C59.1544 5.19448 59.6539 5.00043 60.1557 4.81209C60.6569 4.62376 61.1604 4.44122 61.666 4.26449C62.1721 4.08775 62.6799 3.91684 63.1895 3.75176C63.699 3.58668 64.2106 3.42746 64.7241 3.27411C65.2376 3.1208 65.7526 2.97341 66.2691 2.83193C66.7861 2.69045 67.3044 2.55492 67.824 2.42535C68.344 2.29577 68.8654 2.17218 69.388 2.05456C70.5925 1.77997 71.8036 1.53823 73.0213 1.32935C74.2389 1.12046 75.4613 0.944732 76.6886 0.802159C77.8927 0.664537 79.1014 0.698763 80.297 0.479472L80.4749 0.445835ZM80.5607 3.31122C79.2885 3.46369 78.0085 3.53345 76.7383 3.69398C73.9697 4.06825 71.2258 4.57548 68.5065 5.21567C68.0559 5.32809 67.6063 5.44519 67.1578 5.56695C66.7093 5.68871 66.2624 5.8151 65.8169 5.94611C65.3711 6.07717 64.9267 6.21285 64.4839 6.35315C64.0406 6.49341 63.5991 6.63828 63.1594 6.78774C62.7196 6.93721 62.2814 7.09124 61.8447 7.24982C61.408 7.40836 60.9728 7.57144 60.5391 7.73905C60.1059 7.90667 59.6744 8.07875 59.2447 8.25531C58.815 8.43192 58.3872 8.61295 57.9614 8.79841C57.5352 8.98386 57.1111 9.17373 56.6893 9.368C56.267 9.56231 55.8471 9.76097 55.4295 9.96396C55.0116 10.167 54.5958 10.3743 54.1822 10.586C53.7687 10.7976 53.3573 11.0135 52.948 11.2337C52.5388 11.4539 52.132 11.6784 51.7276 11.907C51.3231 12.1357 50.9211 12.3685 50.5215 12.6055C50.1219 12.8425 49.7248 13.0836 49.3301 13.3289C48.9355 13.5741 48.5435 13.8235 48.1541 14.0769C47.7647 14.3303 47.378 14.5877 46.9939 14.8492C46.6098 15.1106 46.2285 15.376 45.85 15.6454C45.4715 15.9148 45.0958 16.1881 44.7229 16.4652C44.35 16.7424 43.98 17.0234 43.613 17.3083C43.246 17.5932 42.8819 17.8818 42.5209 18.1743C42.1599 18.4667 41.8019 18.7628 41.4471 19.0627C41.0922 19.3626 40.7405 19.6661 40.3919 19.9733C40.0433 20.2805 39.698 20.5912 39.3559 20.9056C39.0138 21.2199 38.675 21.5378 38.3395 21.8592C38.004 22.1806 37.6719 22.5055 37.3431 22.8338C37.0143 23.1621 36.689 23.4938 36.3672 23.8289C36.0453 24.1639 35.727 24.5023 35.4121 24.844C35.0973 25.1857 34.7861 25.5306 34.4784 25.8787C34.1708 26.2269 33.8667 26.5782 33.5664 26.9326C33.266 27.2871 32.9694 27.6446 32.6764 28.0053C32.3835 28.3659 32.0944 28.7295 31.809 29.0962C31.4684 29.5328 31.1331 29.9736 30.8032 30.4185C30.4734 30.8634 30.1491 31.3123 29.8303 31.7652C29.5116 32.2182 29.1985 32.6749 28.891 33.1355C28.5834 33.5962 28.2817 34.0605 27.9856 34.5286C27.6896 34.9967 27.3993 35.4683 27.1149 35.9435C26.8305 36.4188 26.552 36.8974 26.2794 37.3796C26.0067 37.8616 25.7401 38.347 25.4795 38.8357C25.2188 39.3243 24.9642 39.8161 24.7157 40.3111C24.4672 40.806 24.2248 41.304 23.9886 41.8049C23.7523 42.3059 23.5223 42.8097 23.2985 43.3162C23.0747 43.8227 22.8572 44.332 22.6459 44.8442C22.4346 45.356 22.2297 45.8703 22.0312 46.3873C21.8326 46.9043 21.6404 47.4237 21.4546 47.9455C21.2689 48.4672 21.0896 48.9912 20.9167 49.5173C20.7439 50.0435 20.5775 50.5718 20.4177 51.1023C20.2579 51.6324 20.1047 52.1646 19.9579 52.6991C19.8113 53.2331 19.6712 53.7688 19.5377 54.3063C19.4042 54.8438 19.2773 55.3828 19.1572 55.9233C19.037 56.4639 18.9235 57.0059 18.8167 57.5495C18.7098 58.0931 18.6097 58.6378 18.5164 59.1836C18.423 59.7293 18.3363 60.2762 18.2564 60.8242C18.1765 61.3726 18.1033 61.9216 18.0369 62.4713C17.9706 63.021 17.911 63.5716 17.8582 64.123C17.8054 64.6745 17.7594 65.2263 17.7203 65.7787C17.6811 66.331 17.6487 66.8837 17.6232 67.4369C17.5976 67.9906 17.5789 68.5442 17.5669 69.0978C17.5551 69.6514 17.55 70.2051 17.5518 70.7587C17.5535 71.3127 17.5621 71.8666 17.5775 72.4202C17.5929 72.9738 17.6151 73.5273 17.6442 74.0804C17.6732 74.6332 17.7091 75.1857 17.7518 75.7381C17.7945 76.2904 17.844 76.842 17.9002 77.393C17.9565 77.9441 18.0196 78.4942 18.0894 79.0435C18.2888 80.7174 18.6298 82.3796 18.9658 84.0313C19.0646 84.513 19.1687 84.9937 19.2781 85.4736C19.3875 85.9531 19.5021 86.4313 19.622 86.9081C19.7419 87.3849 19.867 87.8605 19.9973 88.3347C20.1277 88.8094 20.2632 89.2823 20.404 89.7535C20.5447 90.2246 20.6906 90.6943 20.8417 91.1624C20.9928 91.6305 21.1489 92.0969 21.3103 92.5615C21.4716 93.0261 21.638 93.4888 21.8095 93.9495C21.981 94.4106 22.1576 94.8698 22.3391 95.327C22.5208 95.7838 22.7073 96.2388 22.8989 96.6921C23.0905 97.145 23.2871 97.5956 23.4886 98.0441C23.6901 98.493 23.8965 98.9396 24.1079 99.3837C24.3192 99.8278 24.5354 100.27 24.7564 100.709C24.9774 101.148 25.2033 101.585 25.4339 102.02C25.6645 102.454 25.8999 102.886 26.1401 103.315C26.3802 103.744 26.625 104.171 26.8746 104.595C27.1241 105.018 27.3782 105.439 27.6369 105.858C27.8957 106.276 28.1591 106.691 28.427 107.104C28.6949 107.516 28.9673 107.926 29.2442 108.332C29.5211 108.739 29.8025 109.142 30.0882 109.543C30.374 109.943 30.6642 110.34 30.9586 110.734C31.2532 111.128 31.552 111.518 31.855 111.906C32.1582 112.293 32.4655 112.677 32.777 113.057C33.0886 113.438 33.4043 113.815 33.7241 114.189C34.0439 114.562 34.3678 114.933 34.6957 115.299C35.0237 115.666 35.3557 116.029 35.6916 116.388C36.0276 116.747 36.3674 117.102 36.7112 117.454C37.055 117.806 37.4025 118.154 37.7539 118.498C38.1053 118.842 38.4605 119.183 38.8194 119.518C39.1783 119.855 39.5408 120.187 39.907 120.516C40.2732 120.844 40.643 121.168 41.0163 121.488C41.3896 121.808 41.7664 122.125 42.1467 122.436C42.527 122.748 42.9107 123.056 43.2977 123.36C43.621 123.614 43.9467 123.866 44.2747 124.114C44.6026 124.363 44.9328 124.608 45.2653 124.85C45.5978 125.092 45.9325 125.332 46.2694 125.568C46.6063 125.804 46.9453 126.037 47.2865 126.267C47.6277 126.497 47.971 126.723 48.3163 126.947C48.6617 127.171 49.0091 127.391 49.3585 127.608C49.7079 127.825 50.0593 128.039 50.4127 128.25C50.766 128.461 51.1213 128.668 51.4784 128.872C51.8357 129.077 52.1946 129.278 52.5554 129.475C52.9162 129.673 53.2789 129.867 53.6437 130.058C54.008 130.249 54.3742 130.436 54.7424 130.62C55.1102 130.805 55.4797 130.985 55.851 131.162C56.2222 131.34 56.595 131.514 56.9694 131.684C57.3437 131.854 57.7197 132.022 58.0975 132.185C58.4749 132.349 58.8538 132.509 59.2342 132.665C59.6147 132.821 59.9966 132.975 60.3801 133.124C60.7632 133.274 61.1477 133.42 61.5338 133.562C61.9199 133.705 62.3071 133.844 62.6954 133.979C63.0841 134.114 63.4739 134.246 63.8648 134.373C64.2557 134.502 64.6479 134.626 65.0415 134.747C65.4345 134.868 65.8287 134.985 66.224 135.099C66.6197 135.213 67.0162 135.323 67.4137 135.429C67.8111 135.535 68.2094 135.638 68.6086 135.737C69.0078 135.836 69.4081 135.931 69.8094 136.023C70.2104 136.114 70.6122 136.202 71.0149 136.286C71.4175 136.37 71.8211 136.451 72.2255 136.528C72.6295 136.605 73.0344 136.678 73.4401 136.747C73.8454 136.816 74.2515 136.882 74.6586 136.944C75.0652 137.006 75.4725 137.064 75.8804 137.118C76.2883 137.173 76.6964 137.223 77.1048 137.27C77.5135 137.317 77.9228 137.359 78.3324 137.399C78.7421 137.438 79.152 137.474 79.562 137.505C82.7647 137.757 86.0152 137.656 89.2217 137.553C91.5632 137.504 94.0139 137.08 96.3227 136.697C110.864 134.288 123.63 127.138 133.78 116.549C134.149 116.156 134.515 115.758 134.875 115.356C135.235 114.955 135.591 114.549 135.941 114.139C136.292 113.728 136.638 113.314 136.978 112.896C137.319 112.477 137.655 112.054 137.985 111.628C138.316 111.201 138.641 110.771 138.961 110.336C139.281 109.902 139.596 109.464 139.906 109.022C140.216 108.58 140.52 108.134 140.819 107.685C141.118 107.236 141.412 106.783 141.7 106.327C141.988 105.871 142.271 105.411 142.548 104.948C142.825 104.485 143.097 104.018 143.363 103.549C143.628 103.08 143.889 102.607 144.143 102.131C144.398 101.655 144.647 101.176 144.89 100.694C145.133 100.213 145.37 99.7281 145.602 99.2404C145.834 98.7531 146.059 98.2629 146.279 97.7699C146.499 97.2769 146.713 96.7816 146.921 96.2838C147.128 95.7856 147.33 95.2851 147.526 94.7826C147.722 94.2795 147.912 93.7743 148.095 93.267C148.279 92.7596 148.457 92.25 148.628 91.7383C148.8 91.2265 148.965 90.7128 149.125 90.1971C149.284 89.6815 149.436 89.1641 149.583 88.6449C149.73 88.1257 149.87 87.6048 150.005 87.0822C150.139 86.5595 150.267 86.0351 150.389 85.509C150.511 84.9833 150.626 84.4563 150.735 83.9279C150.844 83.3992 150.947 82.8693 151.043 82.3384C151.14 81.8075 151.23 81.2754 151.314 80.7423C151.397 80.2092 151.475 79.6752 151.545 79.1403C151.616 78.6054 151.68 78.0697 151.738 77.5331C151.796 76.9965 151.848 76.4592 151.893 75.9213C151.938 75.3838 151.977 74.8457 152.009 74.3069C152.041 73.7681 152.067 73.2291 152.086 72.6898C152.105 72.1506 152.118 71.6112 152.125 71.0715C152.131 70.5318 152.13 69.9922 152.124 69.4525C152.114 68.8932 152.097 68.3343 152.072 67.7759C152.048 67.217 152.017 66.6586 151.979 66.1006C151.941 65.5426 151.897 64.9851 151.845 64.428C151.793 63.8713 151.734 63.3153 151.669 62.7599C151.604 62.2045 151.531 61.65 151.452 61.0964C151.372 60.5428 151.286 59.9902 151.193 59.4388C151.1 58.8869 151 58.3365 150.894 57.7877C150.787 57.2389 150.674 56.6914 150.554 56.1452C150.434 55.599 150.307 55.0543 150.173 54.5111C150.039 53.9679 149.899 53.4265 149.752 52.8869C149.605 52.3472 149.451 51.8095 149.29 51.2738C149.13 50.738 148.963 50.2045 148.789 49.6731C148.615 49.1413 148.435 48.6119 148.248 48.0848C148.062 47.5574 147.868 47.0326 147.669 46.5104C147.469 45.9881 147.263 45.4683 147.05 44.9509C146.837 44.4335 146.618 43.9189 146.393 43.4072C146.168 42.8954 145.936 42.3865 145.698 41.8804C145.46 41.3744 145.216 40.8713 144.965 40.3712C144.714 39.8712 144.458 39.3744 144.195 38.8807C143.932 38.3871 143.663 37.8967 143.388 37.4097C143.113 36.9227 142.832 36.4392 142.545 35.9591C142.258 35.4791 141.965 35.0027 141.666 34.5299C141.368 34.0571 141.063 33.5881 140.753 33.1228C140.442 32.6577 140.126 32.1964 139.805 31.739C139.483 31.2816 139.155 30.8282 138.822 30.3789C138.489 29.9297 138.15 29.4846 137.806 29.0437C137.462 28.6028 137.113 28.1662 136.758 27.734C136.403 27.3018 136.043 26.874 135.677 26.4507C135.312 26.0274 134.941 25.6087 134.565 25.1946C134.189 24.7805 133.808 24.3711 133.422 23.9665C133.036 23.5618 132.645 23.162 132.249 22.767C131.853 22.3721 131.452 21.9821 131.047 21.597C130.692 21.2623 130.335 20.9315 129.973 20.6046C129.612 20.2777 129.247 19.9548 128.878 19.6358C128.51 19.3168 128.138 19.0018 127.763 18.6909C127.388 18.3799 127.009 18.0731 126.627 17.7704C126.245 17.4676 125.86 17.1691 125.471 16.8747C125.083 16.5803 124.691 16.2902 124.297 16.0043C123.902 15.7184 123.505 15.4369 123.104 15.1596C122.703 14.8823 122.299 14.6094 121.892 14.341C121.486 14.0724 121.076 13.8084 120.663 13.5487C120.251 13.2891 119.836 13.034 119.418 12.7833C119 12.5327 118.579 12.2867 118.156 12.0452C117.733 11.8037 117.307 11.5668 116.878 11.3345C116.45 11.1022 116.019 10.8746 115.586 10.6517C115.153 10.4287 114.717 10.2105 114.278 9.99708C113.84 9.78361 113.4 9.5749 112.958 9.37094C112.515 9.16703 112.07 8.96794 111.623 8.77367C111.176 8.57935 110.727 8.38992 110.276 8.20538C109.825 8.02084 109.372 7.8412 108.917 7.66648C108.462 7.49175 108.005 7.32198 107.546 7.15715C107.088 6.99233 106.628 6.83248 106.166 6.67761C105.704 6.52277 105.24 6.37296 104.774 6.22816C104.309 6.08341 103.842 5.94369 103.374 5.80902C102.905 5.67434 102.435 5.54477 101.964 5.4203C101.493 5.29583 101.021 5.17647 100.547 5.06221C100.073 4.94799 99.5982 4.8389 99.1222 4.73494C98.6458 4.63102 98.1685 4.53227 97.6904 4.43869C97.2122 4.34507 96.733 4.25666 96.2527 4.17346C95.7723 4.09026 95.2913 4.01228 94.8097 3.93951C94.3276 3.86674 93.8449 3.79921 93.3615 3.73691C92.8785 3.67461 92.3947 3.61756 91.91 3.56578C91.4253 3.51395 90.9402 3.46738 90.4546 3.42606C89.9691 3.38479 89.4831 3.34878 88.9966 3.31802C86.5027 3.14526 83.9197 3.22411 81.4199 3.28118C81.1339 3.28772 80.846 3.29034 80.5607 3.31122Z" fill="white"/>
<path d="M45.3459 84.7746V78.3849H46.31V81.1616H49.4955V78.3849H50.4627V84.7746H49.4955V81.9884H46.31V84.7746H45.3459Z" fill="white"/>
<path d="M53.4756 84.8651C53.0471 84.8651 52.6779 84.7871 52.368 84.6311C52.0601 84.4751 51.823 84.2629 51.6566 83.9946C51.4902 83.7242 51.407 83.4184 51.407 83.0773C51.407 82.8173 51.4611 82.5864 51.5693 82.3847C51.6774 82.1808 51.8282 81.9926 52.0217 81.82C52.2151 81.6473 52.4387 81.4736 52.6925 81.2989L53.7221 80.572C53.8968 80.4576 54.033 80.3369 54.1308 80.2101C54.2285 80.0811 54.2774 79.922 54.2774 79.7327C54.2774 79.5829 54.2129 79.4394 54.084 79.3021C53.955 79.1649 53.7824 79.0962 53.5661 79.0962C53.4163 79.0962 53.2842 79.1326 53.1698 79.2054C53.0575 79.2782 52.9691 79.3718 52.9046 79.4862C52.8422 79.5985 52.811 79.7171 52.811 79.8419C52.811 79.9875 52.8505 80.1341 52.9296 80.2818C53.0107 80.4295 53.1147 80.5824 53.2416 80.7405C53.3685 80.8965 53.5016 81.0587 53.6409 81.2272L56.608 84.7746H55.5535L53.0981 81.8886C52.8921 81.6452 52.7008 81.4164 52.524 81.2022C52.3472 80.9859 52.2037 80.7675 52.0934 80.547C51.9853 80.3245 51.9312 80.0842 51.9312 79.8263C51.9312 79.533 51.9978 79.273 52.1309 79.0463C52.2661 78.8175 52.4543 78.6386 52.6956 78.5097C52.9369 78.3807 53.2197 78.3162 53.5442 78.3162C53.8729 78.3162 54.1547 78.3807 54.3897 78.5097C54.6268 78.6366 54.8088 78.8061 54.9357 79.0182C55.0647 79.2283 55.1292 79.4581 55.1292 79.7077C55.1292 80.0114 55.0532 80.2797 54.9014 80.5127C54.7516 80.7436 54.5447 80.9557 54.2805 81.1492L52.9982 82.0945C52.7486 82.2776 52.5749 82.4585 52.4772 82.6374C52.3815 82.8142 52.3337 82.9525 52.3337 83.0524C52.3337 83.2354 52.3805 83.4049 52.4741 83.5609C52.5697 83.7169 52.7029 83.8417 52.8734 83.9353C53.0461 84.0289 53.2478 84.0757 53.4787 84.0757C53.7158 84.0757 53.9467 84.0247 54.1713 83.9228C54.3981 83.8188 54.6029 83.6701 54.786 83.4767C54.9711 83.2832 55.1177 83.0513 55.2259 82.7809C55.334 82.5105 55.3881 82.2079 55.3881 81.873H56.2305C56.2305 82.2848 56.1837 82.6332 56.0901 82.9182C55.9965 83.2011 55.8832 83.432 55.75 83.6108C55.619 83.7876 55.4952 83.9259 55.3788 84.0258C55.3413 84.0591 55.306 84.0923 55.2727 84.1256C55.2394 84.1589 55.204 84.1922 55.1666 84.2255C54.9503 84.4439 54.6882 84.6051 54.3804 84.7091C54.0746 84.8131 53.773 84.8651 53.4756 84.8651Z" fill="white"/>
<path d="M57.238 84.7746V78.3849H58.2021V81.1616H61.3876V78.3849H62.3548V84.7746H61.3876V81.9884H58.2021V84.7746H57.238Z" fill="white"/>
<path d="M71.0396 80.4628H70.0662C70.0287 80.2548 69.959 80.0717 69.8571 79.9137C69.7552 79.7556 69.6304 79.6214 69.4827 79.5112C69.335 79.4009 69.1697 79.3177 68.9866 79.2616C68.8057 79.2054 68.6133 79.1773 68.4095 79.1773C68.0413 79.1773 67.7116 79.2699 67.4204 79.455C67.1313 79.6401 66.9025 79.9116 66.734 80.2693C66.5676 80.6271 66.4844 81.0639 66.4844 81.5797C66.4844 82.0997 66.5676 82.5386 66.734 82.8964C66.9025 83.2541 67.1323 83.5245 67.4235 83.7075C67.7147 83.8906 68.0423 83.9821 68.4063 83.9821C68.6081 83.9821 68.7995 83.9551 68.9804 83.901C69.1634 83.8448 69.3288 83.7627 69.4765 83.6545C69.6242 83.5463 69.749 83.4143 69.8509 83.2583C69.9549 83.1002 70.0266 82.9192 70.0662 82.7154L71.0396 82.7185C70.9876 83.0326 70.8867 83.3217 70.737 83.5859C70.5893 83.8479 70.399 84.0747 70.166 84.266C69.9351 84.4553 69.671 84.6019 69.3735 84.7059C69.0761 84.8099 68.7516 84.8619 68.4001 84.8619C67.8468 84.8619 67.3539 84.7309 66.9212 84.4688C66.4886 84.2047 66.1475 83.8271 65.8979 83.3363C65.6504 82.8454 65.5266 82.2599 65.5266 81.5797C65.5266 80.8975 65.6514 80.312 65.901 79.8232C66.1506 79.3323 66.4917 78.9558 66.9243 78.6937C67.357 78.4296 67.8489 78.2975 68.4001 78.2975C68.7391 78.2975 69.0553 78.3464 69.3486 78.4441C69.6439 78.5398 69.9091 78.6813 70.1442 78.8685C70.3792 79.0536 70.5737 79.2803 70.7276 79.5486C70.8815 79.8149 70.9855 80.1196 71.0396 80.4628Z" fill="white"/>
<path d="M72.0175 84.7746V78.3849H72.9816V83.9447H75.8769V84.7746H72.0175Z" fill="white"/>
<path d="M77.6668 84.7746H76.6434L78.9428 78.3849H80.0567L82.3561 84.7746H81.3327L79.5263 79.5455H79.4763L77.6668 84.7746ZM77.8384 82.2724H81.158V83.0836H77.8384V82.2724Z" fill="white"/>
<path d="M86.5366 80.0634C86.5033 79.7681 86.3661 79.5393 86.1248 79.377C85.8835 79.2127 85.5798 79.1305 85.2138 79.1305C84.9517 79.1305 84.725 79.1721 84.5336 79.2553C84.3422 79.3365 84.1935 79.4488 84.0874 79.5923C83.9834 79.7337 83.9314 79.8949 83.9314 80.0759C83.9314 80.2277 83.9668 80.3588 84.0375 80.469C84.1103 80.5793 84.205 80.6718 84.3214 80.7467C84.44 80.8195 84.5669 80.8809 84.7021 80.9308C84.8373 80.9786 84.9673 81.0181 85.0921 81.0493L85.7161 81.2116C85.9199 81.2615 86.1289 81.3291 86.3432 81.4144C86.5574 81.4996 86.7561 81.612 86.9391 81.7513C87.1221 81.8907 87.2698 82.0633 87.3821 82.2692C87.4965 82.4752 87.5537 82.7216 87.5537 83.0087C87.5537 83.3706 87.4601 83.6919 87.2729 83.9727C87.0878 84.2535 86.8185 84.4751 86.4649 84.6373C86.1133 84.7995 85.688 84.8807 85.1888 84.8807C84.7104 84.8807 84.2965 84.8047 83.947 84.6529C83.5976 84.5011 83.3241 84.2858 83.1265 84.0071C82.9289 83.7263 82.8197 83.3935 82.7989 83.0087H83.7661C83.7848 83.2396 83.8597 83.4319 83.9907 83.5859C84.1238 83.7377 84.2934 83.8511 84.4993 83.9259C84.7073 83.9987 84.935 84.0351 85.1826 84.0351C85.455 84.0351 85.6974 83.9925 85.9095 83.9072C86.1237 83.8199 86.2922 83.6992 86.4149 83.5453C86.5377 83.3893 86.599 83.2073 86.599 82.9993C86.599 82.81 86.5449 82.6551 86.4368 82.5344C86.3307 82.4138 86.1861 82.314 86.0031 82.2349C85.8221 82.1559 85.6173 82.0862 85.3885 82.0259L84.6334 81.82C84.1218 81.6806 83.7162 81.4757 83.4167 81.2053C83.1192 80.9349 82.9705 80.5772 82.9705 80.1321C82.9705 79.7639 83.0703 79.4425 83.27 79.168C83.4697 78.8934 83.7401 78.6802 84.0812 78.5284C84.4223 78.3745 84.8071 78.2975 85.2356 78.2975C85.6682 78.2975 86.0499 78.3734 86.3806 78.5253C86.7134 78.6771 86.9755 78.8861 87.1669 79.1524C87.3582 79.4165 87.4581 79.7202 87.4664 80.0634H86.5366Z" fill="white"/>
<path d="M92.0151 80.0634C91.9818 79.7681 91.8445 79.5393 91.6032 79.377C91.362 79.2127 91.0583 79.1305 90.6922 79.1305C90.4301 79.1305 90.2034 79.1721 90.0121 79.2553C89.8207 79.3365 89.672 79.4488 89.5659 79.5923C89.4619 79.7337 89.4099 79.8949 89.4099 80.0759C89.4099 80.2277 89.4453 80.3588 89.516 80.469C89.5888 80.5793 89.6834 80.6718 89.7999 80.7467C89.9185 80.8195 90.0453 80.8809 90.1805 80.9308C90.3157 80.9786 90.4457 81.0181 90.5705 81.0493L91.1945 81.2116C91.3984 81.2615 91.6074 81.3291 91.8216 81.4144C92.0359 81.4996 92.2345 81.612 92.4176 81.7513C92.6006 81.8907 92.7483 82.0633 92.8606 82.2692C92.975 82.4752 93.0322 82.7216 93.0322 83.0087C93.0322 83.3706 92.9386 83.6919 92.7514 83.9727C92.5663 84.2535 92.2969 84.4751 91.9433 84.6373C91.5918 84.7995 91.1664 84.8807 90.6672 84.8807C90.1889 84.8807 89.7749 84.8047 89.4255 84.6529C89.0761 84.5011 88.8025 84.2858 88.6049 84.0071C88.4073 83.7263 88.2981 83.3935 88.2773 83.0087H89.2445C89.2633 83.2396 89.3381 83.4319 89.4692 83.5859C89.6023 83.7377 89.7718 83.8511 89.9777 83.9259C90.1857 83.9987 90.4135 84.0351 90.661 84.0351C90.9335 84.0351 91.1758 83.9925 91.388 83.9072C91.6022 83.8199 91.7707 83.6992 91.8934 83.5453C92.0161 83.3893 92.0775 83.2073 92.0775 82.9993C92.0775 82.81 92.0234 82.6551 91.9152 82.5344C91.8092 82.4138 91.6646 82.314 91.4816 82.2349C91.3006 82.1559 91.0957 82.0862 90.8669 82.0259L90.1119 81.82C89.6002 81.6806 89.1946 81.4757 88.8951 81.2053C88.5977 80.9349 88.4489 80.5772 88.4489 80.1321C88.4489 79.7639 88.5488 79.4425 88.7485 79.168C88.9481 78.8934 89.2185 78.6802 89.5597 78.5284C89.9008 78.3745 90.2856 78.2975 90.714 78.2975C91.1467 78.2975 91.5284 78.3734 91.8591 78.5253C92.1919 78.6771 92.454 78.8861 92.6453 79.1524C92.8367 79.4165 92.9365 79.7202 92.9448 80.0634H92.0151Z" fill="white"/>
<path d="M94.9726 78.3849V84.7746H94.0085V78.3849H94.9726Z" fill="white"/>
<path d="M101.508 80.4628H100.534C100.497 80.2548 100.427 80.0717 100.325 79.9137C100.224 79.7556 100.099 79.6214 99.9511 79.5112C99.8034 79.4009 99.638 79.3177 99.455 79.2616C99.274 79.2054 99.0816 79.1773 98.8778 79.1773C98.5096 79.1773 98.18 79.2699 97.8888 79.455C97.5997 79.6401 97.3708 79.9116 97.2024 80.2693C97.036 80.6271 96.9528 81.0639 96.9528 81.5797C96.9528 82.0997 97.036 82.5386 97.2024 82.8964C97.3708 83.2541 97.6007 83.5245 97.8919 83.7075C98.1831 83.8906 98.5107 83.9821 98.8747 83.9821C99.0764 83.9821 99.2678 83.9551 99.4488 83.901C99.6318 83.8448 99.7971 83.7627 99.9448 83.6545C100.093 83.5463 100.217 83.4143 100.319 83.2583C100.423 83.1002 100.495 82.9192 100.534 82.7154L101.508 82.7185C101.456 83.0326 101.355 83.3217 101.205 83.5859C101.058 83.8479 100.867 84.0747 100.634 84.266C100.403 84.4553 100.139 84.6019 99.8419 84.7059C99.5444 84.8099 99.22 84.8619 98.8684 84.8619C98.3152 84.8619 97.8222 84.7309 97.3896 84.4688C96.9569 84.2047 96.6158 83.8271 96.3662 83.3363C96.1187 82.8454 95.9949 82.2599 95.9949 81.5797C95.9949 80.8975 96.1197 80.312 96.3693 79.8232C96.6189 79.3323 96.9601 78.9558 97.3927 78.6937C97.8253 78.4296 98.3172 78.2975 98.8684 78.2975C99.2075 78.2975 99.5236 78.3464 99.8169 78.4441C100.112 78.5398 100.377 78.6813 100.612 78.8685C100.848 79.0536 101.042 79.2803 101.196 79.5486C101.35 79.8149 101.454 80.1196 101.508 80.4628Z" fill="white"/>
<path d="M105.971 80.0634C105.938 79.7681 105.8 79.5393 105.559 79.377C105.318 79.2127 105.014 79.1305 104.648 79.1305C104.386 79.1305 104.159 79.1721 103.968 79.2553C103.776 79.3365 103.628 79.4488 103.522 79.5923C103.418 79.7337 103.366 79.8949 103.366 80.0759C103.366 80.2277 103.401 80.3588 103.472 80.469C103.545 80.5793 103.639 80.6718 103.756 80.7467C103.874 80.8195 104.001 80.8809 104.136 80.9308C104.271 80.9786 104.401 81.0181 104.526 81.0493L105.15 81.2116C105.354 81.2615 105.563 81.3291 105.777 81.4144C105.992 81.4996 106.19 81.612 106.373 81.7513C106.556 81.8907 106.704 82.0633 106.816 82.2692C106.931 82.4752 106.988 82.7216 106.988 83.0087C106.988 83.3706 106.894 83.6919 106.707 83.9727C106.522 84.2535 106.253 84.4751 105.899 84.6373C105.548 84.7995 105.122 84.8807 104.623 84.8807C104.145 84.8807 103.731 84.8047 103.381 84.6529C103.032 84.5011 102.758 84.2858 102.561 84.0071C102.363 83.7263 102.254 83.3935 102.233 83.0087H103.2C103.219 83.2396 103.294 83.4319 103.425 83.5859C103.558 83.7377 103.728 83.8511 103.933 83.9259C104.141 83.9987 104.369 84.0351 104.617 84.0351C104.889 84.0351 105.132 83.9925 105.344 83.9072C105.558 83.8199 105.726 83.6992 105.849 83.5453C105.972 83.3893 106.033 83.2073 106.033 82.9993C106.033 82.81 105.979 82.6551 105.871 82.5344C105.765 82.4138 105.62 82.314 105.437 82.2349C105.256 82.1559 105.051 82.0862 104.823 82.0259L104.068 81.82C103.556 81.6806 103.15 81.4757 102.851 81.2053C102.553 80.9349 102.405 80.5772 102.405 80.1321C102.405 79.7639 102.505 79.4425 102.704 79.168C102.904 78.8934 103.174 78.6802 103.515 78.5284C103.857 78.3745 104.241 78.2975 104.67 78.2975C105.102 78.2975 105.484 78.3734 105.815 78.5253C106.148 78.6771 106.41 78.8861 106.601 79.1524C106.792 79.4165 106.892 79.7202 106.901 80.0634H105.971Z" fill="white"/>
<path d="M110.114 84.7746V78.3849H111.078V83.9447H113.973V84.7746H110.114Z" fill="white"/>
<path d="M113.75 79.2148V78.3849H118.695V79.2148H116.701V84.7746H115.74V79.2148H113.75Z" fill="white"/>
<path d="M121.681 84.7746H119.612V78.3849H121.746C122.372 78.3849 122.91 78.5128 123.359 78.7686C123.808 79.0224 124.153 79.3874 124.392 79.8637C124.633 80.338 124.754 80.9069 124.754 81.5704C124.754 82.236 124.632 82.808 124.389 83.2864C124.147 83.7647 123.798 84.1329 123.34 84.3908C122.883 84.6467 122.33 84.7746 121.681 84.7746ZM120.576 83.9322H121.628C122.114 83.9322 122.519 83.8407 122.841 83.6576C123.164 83.4725 123.405 83.2052 123.565 82.8558C123.725 82.5043 123.805 82.0758 123.805 81.5704C123.805 81.0691 123.725 80.6437 123.565 80.2943C123.407 79.9449 123.171 79.6797 122.857 79.4987C122.543 79.3177 122.153 79.2273 121.687 79.2273H120.576V83.9322Z" fill="white"/>
<path fill-rule="evenodd" clip-rule="evenodd" d="M27.5028 93.6033C32.2126 93.5226 36.9326 93.5484 41.6501 93.5741C43.9689 93.5868 46.287 93.5994 48.603 93.5994L135.978 93.5988C136.598 93.5988 137.22 93.5921 137.842 93.5854C139.102 93.572 140.363 93.5585 141.617 93.6001C141.956 93.6112 142.285 93.6289 142.603 93.7578C142.478 94.4833 141.976 95.501 141.561 96.3441L141.56 96.3449C141.438 96.5935 141.323 96.8269 141.227 97.0331C137.724 104.582 132.531 111.233 126.487 116.901C124.872 118.344 123.191 119.706 121.446 120.988C121.033 121.289 120.616 121.586 120.195 121.877C119.774 122.168 119.35 122.455 118.922 122.736C118.494 123.016 118.063 123.292 117.629 123.562C117.194 123.832 116.756 124.097 116.315 124.356C115.874 124.616 115.43 124.87 114.982 125.118C114.535 125.366 114.085 125.609 113.632 125.847C113.178 126.083 112.722 126.315 112.263 126.541C111.803 126.767 111.341 126.987 110.877 127.201C110.412 127.416 109.945 127.625 109.475 127.827C109.006 128.03 108.533 128.227 108.059 128.418C107.584 128.609 107.107 128.795 106.627 128.975C106.148 129.154 105.667 129.327 105.183 129.494C104.7 129.662 104.214 129.823 103.727 129.978C103.239 130.134 102.75 130.284 102.259 130.427C101.767 130.57 101.274 130.707 100.78 130.838C100.285 130.969 99.7887 131.094 99.2909 131.213C98.7931 131.332 98.2941 131.445 97.7937 131.551C97.2933 131.657 96.7915 131.758 96.2885 131.851C95.7855 131.946 95.2814 132.033 94.7762 132.114C94.271 132.196 93.7649 132.271 93.258 132.34C92.751 132.409 92.2432 132.472 91.7345 132.528C91.2258 132.585 90.7165 132.635 90.2065 132.679C89.6969 132.722 89.1867 132.76 88.6758 132.791C88.165 132.822 87.6539 132.847 87.1426 132.865C86.6313 132.884 86.1197 132.896 85.608 132.902C85.0962 132.907 84.5845 132.907 84.0728 132.9C83.5614 132.893 83.0499 132.88 82.5382 132.86C82.0269 132.841 81.516 132.815 81.0056 132.783C80.4947 132.75 79.9845 132.712 79.4749 132.667C78.9649 132.622 78.4558 132.571 77.9475 132.514C77.4388 132.456 76.931 132.392 76.4241 132.323C75.9175 132.252 75.4117 132.176 74.9065 132.094C74.4074 132.012 73.9096 131.924 73.4131 131.83C72.9162 131.737 72.4206 131.637 71.9263 131.531C71.4316 131.425 70.9384 131.313 70.4467 131.196C69.955 131.077 69.4649 130.953 68.9763 130.823C68.4881 130.694 68.0012 130.558 67.5156 130.416C67.0305 130.274 66.5471 130.126 66.0655 129.973C65.5838 129.819 65.1042 129.66 64.6264 129.494C64.1483 129.329 63.6725 129.158 63.1992 128.981C62.7254 128.803 62.254 128.621 61.785 128.432C61.316 128.243 60.8494 128.049 60.3852 127.849C59.9206 127.649 59.4586 127.444 58.9992 127.232C58.5398 127.021 58.0832 126.804 57.6295 126.581C57.1754 126.359 56.724 126.131 56.2756 125.898C55.8271 125.664 55.3816 125.425 54.9393 125.18C54.4964 124.936 54.0569 124.686 53.6206 124.431C53.1839 124.176 52.7507 123.915 52.321 123.65C51.8907 123.384 51.4638 123.113 51.0403 122.837C50.6168 122.561 50.1968 122.279 49.7803 121.993C49.3636 121.706 48.9506 121.415 48.5411 121.118C48.1317 120.822 47.7259 120.52 47.3238 120.213C46.9218 119.907 46.5235 119.596 46.129 119.28C45.7345 118.963 45.344 118.642 44.9574 118.316C44.5708 117.99 44.1882 117.66 43.8097 117.325C43.4312 116.99 43.0568 116.65 42.6866 116.305C42.3164 115.961 41.9504 115.612 41.5887 115.259C41.227 114.906 40.8697 114.548 40.5168 114.186C40.1639 113.824 39.8154 113.458 39.4715 113.088C39.1275 112.717 38.7881 112.342 38.4533 111.963C38.1185 111.584 37.7884 111.201 37.463 110.815C37.1375 110.428 36.8169 110.037 36.501 109.642C36.1851 109.247 35.8741 108.849 35.568 108.447C35.2619 108.044 34.9607 107.638 34.6645 107.228C34.0236 106.343 33.4049 105.442 32.8086 104.527C32.2122 103.611 31.6389 102.68 31.0887 101.736C30.5384 100.792 30.0118 99.835 29.5089 98.8648C29.0061 97.8941 28.5275 96.9118 28.0733 95.918C28.0304 95.8262 27.9732 95.7127 27.9091 95.5853C27.6238 95.0189 27.1997 94.1767 27.2694 93.7349L27.5028 93.6033ZM62.624 123.208L60.1537 114.302H61.5672L63.3025 121.199H63.3851L65.19 114.302H66.5903L68.3952 121.203H68.4778L70.2088 114.302H71.6266L69.1519 123.208H67.7994L65.9249 116.537H65.8554L63.9809 123.208H62.624ZM74.4408 123.208V114.302H73.097V123.208H74.4408ZM83.8318 114.302V123.208H82.5967L78.0693 116.676H77.9867V123.208H76.6428V114.302H77.8866L82.4184 120.842H82.501V114.302H83.8318ZM93.226 123.208V114.302H91.8952V120.842H91.8126L87.2808 114.302H86.037V123.208H87.3809V116.676H87.4635L91.9909 123.208H93.226ZM95.4312 123.208V114.302H101.015V115.458H96.7751V118.172H100.724V119.325H96.7751V122.052H101.068V123.208H95.4312ZM103.056 123.208V114.302H106.23C106.92 114.302 107.493 114.42 107.948 114.658C108.406 114.896 108.748 115.225 108.975 115.645C109.201 116.063 109.314 116.546 109.314 117.094C109.314 117.639 109.199 118.119 108.97 118.533C108.744 118.945 108.402 119.265 107.944 119.494C107.86 119.536 107.773 119.574 107.682 119.609L109.653 123.208H108.122L106.313 119.837L106.293 119.837L106.273 119.838C106.266 119.838 106.258 119.838 106.251 119.838C106.242 119.838 106.234 119.838 106.226 119.838H104.399V123.208H103.056ZM104.399 115.454V118.681H106.104C106.539 118.681 106.893 118.619 107.165 118.494C107.441 118.369 107.642 118.188 107.77 117.95C107.897 117.713 107.961 117.427 107.961 117.094C107.961 116.757 107.896 116.466 107.766 116.219C107.638 115.973 107.436 115.785 107.161 115.654C106.888 115.521 106.53 115.454 106.087 115.454H104.399ZM69.3762 106.985V105.628L72.5466 102.693C72.8163 102.432 73.0424 102.197 73.2251 101.988C73.4106 101.779 73.5512 101.575 73.6469 101.375C73.7426 101.172 73.7904 100.953 73.7904 100.718C73.7904 100.457 73.731 100.232 73.6121 100.044C73.4933 99.8526 73.3309 99.7062 73.125 99.6047C72.9192 99.5004 72.6858 99.4482 72.4248 99.4482C72.1523 99.4482 71.9146 99.5032 71.7116 99.6134C71.5086 99.7236 71.3521 99.8816 71.2419 100.087C71.1317 100.293 71.0766 100.538 71.0766 100.822H69.2892C69.2892 100.24 69.4211 99.7338 69.6849 99.3046C69.9488 98.8755 70.3185 98.5436 70.7939 98.3087C71.2694 98.0739 71.8174 97.9564 72.4379 97.9564C73.0757 97.9564 73.631 98.0695 74.1036 98.2957C74.5791 98.5189 74.9487 98.8291 75.2126 99.2264C75.4764 99.6236 75.6083 100.079 75.6083 100.592C75.6083 100.928 75.5417 101.26 75.4083 101.588C75.2778 101.916 75.0444 102.279 74.7081 102.68C74.3718 103.077 73.8977 103.554 73.286 104.11L71.9856 105.385V105.446H75.7258V106.985H69.3762ZM78.8964 106.628C79.4357 106.994 80.0794 107.178 80.8274 107.181C81.5755 107.181 82.2177 106.998 82.7541 106.633C83.2904 106.267 83.7021 105.738 83.9892 105.045C84.2791 104.352 84.4241 103.517 84.4241 102.54C84.427 101.569 84.2835 100.743 83.9935 100.061C83.7036 99.3771 83.289 98.8552 82.7497 98.4957C82.2133 98.1362 81.5726 97.9564 80.8274 97.9564C80.0823 97.9564 79.4401 98.1362 78.9008 98.4957C78.3644 98.8523 77.9512 99.3728 77.6613 100.057C77.3743 100.741 77.2308 101.569 77.2308 102.54C77.2279 103.515 77.3699 104.348 77.657 105.041C77.9469 105.734 78.3601 106.263 78.8964 106.628ZM80.8274 105.619C81.3377 105.619 81.7451 105.363 82.0495 104.85C82.3539 104.337 82.5047 103.567 82.5018 102.54C82.5018 101.865 82.4322 101.302 82.293 100.853C82.1568 100.404 81.9625 100.066 81.7103 99.8396C81.4609 99.6134 81.1666 99.5003 80.8274 99.5003C80.32 99.5003 79.9141 99.754 79.6097 100.261C79.3052 100.769 79.1516 101.528 79.1487 102.54C79.1487 103.225 79.2168 103.796 79.3531 104.254C79.4923 104.709 79.688 105.051 79.9402 105.28C80.1925 105.506 80.4882 105.619 80.8274 105.619ZM86.0118 106.985V105.628L89.1822 102.693C89.4519 102.432 89.678 102.197 89.8607 101.988C90.0462 101.779 90.1869 101.575 90.2825 101.375C90.3782 101.172 90.4261 100.953 90.4261 100.718C90.4261 100.457 90.3666 100.232 90.2477 100.044C90.1289 99.8526 89.9665 99.7062 89.7607 99.6047C89.5548 99.5004 89.3214 99.4482 89.0605 99.4482C88.7879 99.4482 88.5502 99.5032 88.3472 99.6134C88.1443 99.7236 87.9877 99.8816 87.8775 100.087C87.7673 100.293 87.7123 100.538 87.7123 100.822H85.9248C85.9248 100.24 86.0567 99.7338 86.3206 99.3046C86.5844 98.8755 86.9541 98.5436 87.4296 98.3087C87.9051 98.0739 88.453 97.9564 89.0735 97.9564C89.7114 97.9564 90.2666 98.0695 90.7392 98.2957C91.2147 98.5189 91.5844 98.8291 91.8482 99.2264C92.112 99.6236 92.244 100.079 92.244 100.592C92.244 100.928 92.1773 101.26 92.0439 101.588C91.9134 101.916 91.68 102.279 91.3437 102.68C91.0074 103.077 90.5333 103.554 89.9216 104.11L88.6212 105.385V105.446H92.3614V106.985H86.0118ZM93.6447 105.419V103.936L97.3632 98.0782H97.9546H98.6418H99.7203V103.91H100.825V105.419H99.7203V106.985H97.9198V105.419H93.6447ZM97.9546 100.131H97.885L95.5409 103.841V103.91H97.9546V100.131Z" fill="white"/>
<path fill-rule="evenodd" clip-rule="evenodd" d="M81.8911 8.94748C81.7567 8.9511 81.6226 8.95751 81.4886 8.96672C78.4313 9.22959 75.3915 9.5333 72.3819 10.1576C71.9614 10.2449 71.5419 10.3366 71.1235 10.4327C70.7047 10.5288 70.2872 10.6292 69.871 10.7339C69.4543 10.8386 69.039 10.9476 68.625 11.0609C68.2105 11.1743 67.7974 11.2919 67.3855 11.4138C66.9737 11.5357 66.5634 11.6619 66.1546 11.7923C65.7454 11.9227 65.3375 12.0573 64.9309 12.1962C64.5247 12.3351 64.1198 12.4782 63.7163 12.6254C63.3127 12.7727 62.9109 12.9242 62.5109 13.0798C62.1104 13.2354 61.7118 13.3951 61.3153 13.559C60.9183 13.7229 60.523 13.8909 60.1295 14.063C59.736 14.235 59.3442 14.4112 58.9542 14.5914C58.5646 14.7716 58.1768 14.9558 57.7907 15.144C57.4046 15.3323 57.0206 15.5245 56.6389 15.7207C56.2567 15.9169 55.8767 16.1171 55.4989 16.3212C55.1211 16.5253 54.7455 16.7333 54.372 16.9452C53.9986 17.1571 53.6273 17.3728 53.2582 17.5924C52.8892 17.812 52.5222 18.0354 52.1575 18.2625C51.7932 18.4898 51.4313 18.7207 51.0717 18.9554C50.712 19.1901 50.3548 19.4285 50.0001 19.6706C49.6455 19.9128 49.2933 20.1585 48.9437 20.408C48.5942 20.6574 48.2472 20.9104 47.9028 21.167C47.5585 21.4236 47.2169 21.6838 46.8779 21.9475C46.539 22.2112 46.2028 22.4784 45.8693 22.7491C45.5359 23.0198 45.2054 23.2939 44.8777 23.5714C44.5499 23.849 44.2251 24.1299 43.9032 24.4141C43.5814 24.6984 43.2625 24.986 42.9465 25.2769C42.6306 25.5678 42.3177 25.8619 42.0079 26.1593C41.6981 26.4567 41.3914 26.7572 41.0878 27.061C40.7842 27.3647 40.4838 27.6715 40.1866 27.9815C39.8893 28.2915 39.5953 28.6045 39.3046 28.9206C39.0139 29.2367 38.7265 29.5557 38.4424 29.8778C38.1583 30.1998 37.8775 30.5247 37.6001 30.8526C28.2425 41.9547 23.3944 55.2964 22.9163 69.7542L139.839 69.7751C140.515 69.7753 141.192 69.7808 141.87 69.7864H141.871H141.871H141.871H141.871H141.871H141.872H141.872H141.872H141.872H141.873H141.873H141.873H141.873H141.873H141.874H141.874H141.874H141.874H141.874H141.875H141.875H141.875H141.875H141.875H141.876H141.876H141.876H141.876H141.877H141.877H141.877H141.877H141.877H141.878H141.878H141.878H141.878H141.878H141.879H141.879H141.879H141.879H141.88H141.88H141.88H141.88H141.88H141.881H141.881H141.881H141.881H141.881H141.882H141.882H141.882H141.882H141.882H141.883H141.883H141.883H141.883H141.884H141.884H141.884H141.884H141.884H141.885H141.885H141.885H141.885H141.885H141.886H141.886H141.886H141.886H141.887H141.887H141.887H141.887H141.887H141.888H141.888H141.888H141.888H141.888H141.889C143.581 69.8002 145.277 69.814 146.961 69.7444C146.454 52.9052 139.727 37.3139 127.41 25.7304C114.768 13.8405 99.1151 8.43456 81.8911 8.94748ZM56.243 61.695H53.7863L57.5295 50.8518H60.4839L64.2218 61.695H61.7651L60.9624 59.2224H57.0473L56.243 61.695ZM60.3813 57.4329L59.0491 53.3297H58.9644L57.6295 57.4329H60.3813ZM63.1768 50.8518L66.2793 61.695H68.5136L70.5732 54.6056H70.6579L72.7227 61.695H74.957L78.0596 50.8518H75.5553L73.7605 58.4018H73.6652L71.6903 50.8518H69.546L67.5659 58.3859H67.4759L65.6811 50.8518H63.1768ZM79.4671 61.695L80.2714 59.2224H84.1864L84.9892 61.695H87.4459L83.708 50.8518H80.7536L77.0104 61.695H79.4671ZM82.2731 53.3297L83.6054 57.4329H80.8536L82.1884 53.3297H82.2731ZM88.1547 50.8518V61.695H90.4472V57.8512H92.1207L94.1745 61.695H96.7053L94.4047 57.4825C94.4378 57.4681 94.4705 57.4534 94.5028 57.4382C95.0923 57.1629 95.5423 56.7676 95.8529 56.2522C96.1635 55.7334 96.3188 55.1139 96.3188 54.3939C96.3188 53.6773 96.1653 53.0543 95.8582 52.5249C95.5546 51.9919 95.1117 51.5807 94.5293 51.2913C93.9504 50.9983 93.2515 50.8518 92.4327 50.8518H88.1547ZM92.0038 56.0087H90.4472V52.7261H91.9932C92.4344 52.7261 92.7997 52.7914 93.0892 52.922C93.3821 53.049 93.5992 53.2361 93.7404 53.4832C93.8851 53.7303 93.9575 54.0338 93.9575 54.3939C93.9575 54.7504 93.8851 55.0486 93.7404 55.2886C93.5992 55.5286 93.3839 55.7087 93.0945 55.8287C92.805 55.9487 92.4415 56.0087 92.0038 56.0087ZM101.186 61.695H97.3426V50.8518H101.218C102.309 50.8518 103.248 51.0689 104.035 51.5031C104.822 51.9337 105.427 52.5531 105.851 53.3614C106.278 54.1697 106.491 55.1368 106.491 56.2628C106.491 57.3923 106.278 58.363 105.851 59.1748C105.427 59.9866 104.818 60.6096 104.024 61.0437C103.234 61.4779 102.288 61.695 101.186 61.695ZM101.091 59.7307H99.6351V52.8161H101.096C101.774 52.8161 102.344 52.9361 102.806 53.1761C103.269 53.4161 103.617 53.7903 103.849 54.2985C104.086 54.8068 104.204 55.4616 104.204 56.2628C104.204 57.0711 104.086 57.7312 103.849 58.243C103.617 58.7512 103.267 59.1271 102.801 59.3707C102.339 59.6107 101.769 59.7307 101.091 59.7307ZM112.93 52.9749C113.251 53.2114 113.433 53.5432 113.475 53.9703H115.673C115.662 53.3244 115.489 52.7561 115.154 52.2655C114.818 51.7748 114.349 51.3919 113.745 51.1166C113.145 50.8412 112.443 50.7036 111.638 50.7036C110.848 50.7036 110.142 50.8412 109.52 51.1166C108.899 51.3919 108.41 51.7748 108.054 52.2655C107.701 52.7561 107.526 53.3297 107.53 53.9862C107.526 54.7874 107.789 55.4245 108.319 55.8975C108.848 56.3705 109.57 56.7181 110.484 56.9405L111.665 57.237C112.06 57.3323 112.394 57.4382 112.665 57.5547C112.941 57.6711 113.149 57.8123 113.29 57.9782C113.435 58.1441 113.507 58.3488 113.507 58.5924C113.507 58.8536 113.428 59.0848 113.269 59.286C113.11 59.4872 112.886 59.6442 112.596 59.7572C112.311 59.8701 111.973 59.9266 111.585 59.9266C111.19 59.9266 110.835 59.8666 110.521 59.7466C110.21 59.6231 109.962 59.4413 109.775 59.2013C109.591 58.9577 109.487 58.6542 109.462 58.2906H107.244C107.261 59.0707 107.45 59.7254 107.81 60.2549C108.174 60.7808 108.679 61.1779 109.324 61.4461C109.974 61.7144 110.736 61.8485 111.612 61.8485C112.494 61.8485 113.248 61.7161 113.872 61.4514C114.501 61.1832 114.981 60.8073 115.313 60.3237C115.648 59.8366 115.817 59.2613 115.821 58.5977C115.817 58.1459 115.734 57.7453 115.572 57.3958C115.413 57.0464 115.189 56.7428 114.9 56.4852C114.61 56.2275 114.268 56.0104 113.872 55.834C113.477 55.6575 113.043 55.5163 112.57 55.4104L111.596 55.1774C111.359 55.1245 111.137 55.061 110.929 54.9868C110.72 54.9092 110.537 54.8192 110.378 54.7168C110.219 54.6109 110.094 54.4856 110.002 54.3409C109.914 54.1962 109.873 54.0268 109.88 53.8326C109.88 53.5997 109.947 53.3914 110.082 53.2079C110.219 53.0243 110.417 52.8814 110.675 52.779C110.932 52.6731 111.248 52.6202 111.622 52.6202C112.173 52.6202 112.609 52.7384 112.93 52.9749ZM128.64 37.7185C128.603 37.3898 128.45 37.1352 128.182 36.9547C127.913 36.7718 127.575 36.6804 127.168 36.6804C126.876 36.6804 126.624 36.7267 126.411 36.8193C126.198 36.9095 126.033 37.0345 125.914 37.1942C125.799 37.3516 125.741 37.531 125.741 37.7324C125.741 37.9013 125.78 38.0471 125.859 38.1698C125.94 38.2925 126.045 38.3955 126.175 38.4788C126.307 38.5598 126.448 38.6281 126.598 38.6836C126.749 38.7369 126.894 38.7808 127.032 38.8156L127.727 38.9961C127.954 39.0516 128.186 39.1269 128.425 39.2218C128.663 39.3167 128.884 39.4416 129.088 39.5967C129.291 39.7518 129.456 39.9439 129.581 40.173C129.708 40.4022 129.772 40.6764 129.772 40.9959C129.772 41.3986 129.668 41.7562 129.459 42.0686C129.253 42.3811 128.953 42.6276 128.56 42.8081C128.169 42.9887 127.696 43.0789 127.14 43.0789C126.608 43.0789 126.147 42.9945 125.758 42.8255C125.369 42.6565 125.065 42.417 124.845 42.1068C124.625 41.7944 124.504 41.424 124.481 40.9959H125.557C125.578 41.2528 125.661 41.4669 125.807 41.6381C125.955 41.8071 126.144 41.9332 126.373 42.0166C126.604 42.0976 126.858 42.1381 127.133 42.1381C127.436 42.1381 127.706 42.0906 127.942 41.9957C128.18 41.8985 128.368 41.7643 128.504 41.593C128.641 41.4194 128.709 41.2169 128.709 40.9854C128.709 40.7748 128.649 40.6024 128.529 40.4681C128.411 40.3339 128.25 40.2228 128.046 40.1348C127.845 40.0469 127.617 39.9694 127.362 39.9022L126.522 39.6731C125.953 39.518 125.501 39.29 125.168 38.9892C124.837 38.6883 124.672 38.2902 124.672 37.7949C124.672 37.3852 124.783 37.0276 125.005 36.7221C125.227 36.4165 125.528 36.1793 125.908 36.0103C126.287 35.8391 126.715 35.7534 127.192 35.7534C127.674 35.7534 128.098 35.8379 128.466 36.0069C128.837 36.1758 129.128 36.4084 129.341 36.7047C129.554 36.9986 129.665 37.3366 129.674 37.7185H128.64ZM122.085 36.9547C122.354 37.1352 122.507 37.3898 122.544 37.7185H123.578C123.569 37.3366 123.458 36.9986 123.245 36.7047C123.032 36.4084 122.74 36.1758 122.37 36.0069C122.002 35.8379 121.577 35.7534 121.096 35.7534C120.619 35.7534 120.191 35.8391 119.811 36.0103C119.432 36.1793 119.131 36.4165 118.909 36.7221C118.686 37.0276 118.575 37.3852 118.575 37.7949C118.575 38.2902 118.741 38.6883 119.072 38.9892C119.405 39.29 119.856 39.518 120.426 39.6731L121.266 39.9022C121.521 39.9694 121.749 40.0469 121.95 40.1348C122.154 40.2228 122.315 40.3339 122.433 40.4681C122.553 40.6024 122.613 40.7748 122.613 40.9854C122.613 41.2169 122.545 41.4194 122.408 41.593C122.272 41.7643 122.084 41.8985 121.846 41.9957C121.61 42.0906 121.34 42.1381 121.037 42.1381C120.761 42.1381 120.508 42.0976 120.277 42.0166C120.047 41.9332 119.859 41.8071 119.711 41.6381C119.565 41.4669 119.482 41.2528 119.461 40.9959H118.384C118.408 41.424 118.529 41.7944 118.749 42.1068C118.969 42.417 119.273 42.6565 119.662 42.8255C120.051 42.9945 120.512 43.0789 121.044 43.0789C121.599 43.0789 122.073 42.9887 122.464 42.8081C122.857 42.6276 123.157 42.3811 123.363 42.0686C123.571 41.7562 123.675 41.3986 123.675 40.9959C123.675 40.6764 123.612 40.4022 123.485 40.173C123.36 39.9439 123.195 39.7518 122.992 39.5967C122.788 39.4416 122.567 39.3167 122.328 39.2218C122.09 39.1269 121.857 39.0516 121.631 38.9961L120.936 38.8156C120.797 38.7808 120.653 38.7369 120.502 38.6836C120.352 38.6281 120.211 38.5598 120.079 38.4788C119.949 38.3955 119.844 38.2925 119.763 38.1698C119.684 38.0471 119.645 37.9013 119.645 37.7324C119.645 37.531 119.703 37.3516 119.818 37.1942C119.936 37.0345 120.102 36.9095 120.315 36.8193C120.528 36.7267 120.78 36.6804 121.072 36.6804C121.479 36.6804 121.817 36.7718 122.085 36.9547ZM112.97 42.9609V35.8506H117.428V36.7741H114.043V38.9406H117.196V39.8606H114.043V42.0374H117.47V42.9609H112.97ZM111.601 42.9609V35.8506H110.539V41.0722H110.473L106.855 35.8506H105.862V42.9609H106.935V37.7462H107.001L110.615 42.9609H111.601ZM104.495 35.8506V42.9609H103.423V35.8506H104.495ZM100.746 36.9547C101.015 37.1352 101.167 37.3898 101.204 37.7185H102.239C102.23 37.3366 102.119 36.9986 101.906 36.7047C101.693 36.4084 101.401 36.1758 101.031 36.0069C100.663 35.8379 100.238 35.7534 99.7566 35.7534C99.2798 35.7534 98.8516 35.8391 98.472 36.0103C98.0925 36.1793 97.7916 36.4165 97.5694 36.7221C97.3472 37.0276 97.2361 37.3852 97.2361 37.7949C97.2361 38.2902 97.4016 38.6883 97.7325 38.9892C98.0658 39.29 98.5172 39.518 99.0866 39.6731L99.9267 39.9022C100.181 39.9694 100.409 40.0469 100.611 40.1348C100.814 40.2228 100.975 40.3339 101.093 40.4681C101.214 40.6024 101.274 40.7748 101.274 40.9854C101.274 41.2169 101.206 41.4194 101.069 41.593C100.932 41.7643 100.745 41.8985 100.507 41.9957C100.27 42.0906 100.001 42.1381 99.6976 42.1381C99.4222 42.1381 99.1687 42.0976 98.9373 42.0166C98.7081 41.9332 98.5195 41.8071 98.3714 41.6381C98.2255 41.4669 98.1422 41.2528 98.1214 40.9959H97.0451C97.0683 41.424 97.1898 41.7944 97.4097 42.1068C97.6295 42.417 97.9339 42.6565 98.3227 42.8255C98.7116 42.9945 99.1722 43.0789 99.7045 43.0789C100.26 43.0789 100.733 42.9887 101.124 42.8081C101.518 42.6276 101.818 42.3811 102.024 42.0686C102.232 41.7562 102.336 41.3986 102.336 40.9959C102.336 40.6764 102.273 40.4022 102.145 40.173C102.02 39.9439 101.856 39.7518 101.652 39.5967C101.449 39.4416 101.227 39.3167 100.989 39.2218C100.751 39.1269 100.518 39.0516 100.291 38.9961L99.5969 38.8156C99.458 38.7808 99.3134 38.7369 99.1629 38.6836C99.0125 38.6281 98.8713 38.5598 98.7394 38.4788C98.6098 38.3955 98.5044 38.2925 98.4234 38.1698C98.3447 38.0471 98.3054 37.9013 98.3054 37.7324C98.3054 37.531 98.3633 37.3516 98.479 37.1942C98.597 37.0345 98.7625 36.9095 98.9755 36.8193C99.1884 36.7267 99.4407 36.6804 99.7323 36.6804C100.14 36.6804 100.478 36.7718 100.746 36.9547ZM94.8859 35.8506H95.9621V40.5272C95.9621 41.0248 95.8453 41.4657 95.6115 41.8499C95.3777 42.2318 95.0491 42.5327 94.6255 42.7526C94.2019 42.9702 93.7055 43.0789 93.1361 43.0789C92.569 43.0789 92.0737 42.9702 91.6502 42.7526C91.2266 42.5327 90.8979 42.2318 90.6642 41.8499C90.4304 41.4657 90.3135 41.0248 90.3135 40.5272V35.8506H91.3863V40.4404C91.3863 40.7621 91.4569 41.0479 91.5981 41.2979C91.7416 41.5479 91.9441 41.7446 92.2056 41.8881C92.4672 42.0293 92.7773 42.0999 93.1361 42.0999C93.4972 42.0999 93.8085 42.0293 94.07 41.8881C94.3339 41.7446 94.5352 41.5479 94.6741 41.2979C94.8153 41.0479 94.8859 40.7621 94.8859 40.4404V35.8506ZM84.1123 35.8506V42.9609H86.8376C87.3885 42.9609 87.841 42.8776 88.1951 42.7109C88.5492 42.542 88.8108 42.314 88.9797 42.027C89.151 41.7377 89.2367 41.4113 89.2367 41.0479C89.2367 40.6799 89.1626 40.3675 89.0145 40.1105C88.8663 39.8536 88.6788 39.6557 88.452 39.5169C88.2275 39.3757 87.9972 39.2993 87.7611 39.2877V39.2183C87.9787 39.1627 88.1778 39.0748 88.3583 38.9544C88.5411 38.8318 88.6869 38.6697 88.7957 38.4684C88.9045 38.2647 88.9589 38.0147 88.9589 37.7185C88.9589 37.3667 88.8767 37.0507 88.7124 36.7707C88.5481 36.4883 88.3004 36.2649 87.9694 36.1006C87.6385 35.934 87.2207 35.8506 86.7161 35.8506H84.1123ZM85.1851 42.0409H86.7335C87.2473 42.0409 87.6153 41.9413 87.8375 41.7423C88.0597 41.5432 88.1708 41.2944 88.1708 40.9959C88.1708 40.7713 88.1141 40.5654 88.0007 40.3779C87.8873 40.1904 87.7253 40.0411 87.5146 39.93C87.3063 39.8189 87.0587 39.7634 86.7717 39.7634H85.1851V42.0409ZM85.1851 38.9267H86.6224C86.8631 38.9267 87.0795 38.8804 87.2716 38.7878C87.466 38.6952 87.6199 38.5656 87.7334 38.399C87.8491 38.23 87.9069 38.0309 87.9069 37.8018C87.9069 37.5079 87.804 37.2614 87.598 37.0623C87.392 36.8633 87.076 36.7637 86.6502 36.7637H85.1851V38.9267ZM44.5522 42.8116L45.1572 43.5997H46.2543L45.298 42.3518C45.6086 42.0885 45.8649 41.7592 46.0668 41.3639C46.3445 40.8176 46.4834 40.1649 46.4834 39.4058C46.4834 38.6466 46.3445 37.9951 46.0668 37.4511C45.789 36.9049 45.4083 36.486 44.9246 36.1943C44.4431 35.9004 43.8957 35.7534 43.2824 35.7534C42.6667 35.7534 42.117 35.9004 41.6333 36.1943C41.1519 36.486 40.7723 36.9049 40.4945 37.4511C40.2168 37.9951 40.0779 38.6466 40.0779 39.4058C40.0779 40.1626 40.2168 40.8142 40.4945 41.3604C40.7723 41.9066 41.1519 42.3267 41.6333 42.6207C42.117 42.9123 42.6667 43.0581 43.2824 43.0581C43.7428 43.0581 44.1661 42.9759 44.5522 42.8116ZM45.1398 40.8709C45.0132 41.1415 44.8541 41.3678 44.6625 41.5497L43.9768 40.6556H42.9213L43.9327 41.9812C43.7297 42.0465 43.5129 42.0791 43.2824 42.0791C42.8727 42.0791 42.507 41.9772 42.1853 41.7735C41.8636 41.5675 41.609 41.2667 41.4215 40.8709C41.2363 40.4728 41.1438 39.9844 41.1438 39.4058C41.1438 38.8271 41.2363 38.3399 41.4215 37.9441C41.609 37.546 41.8636 37.2451 42.1853 37.0415C42.507 36.8355 42.8727 36.7325 43.2824 36.7325C43.6898 36.7325 44.0543 36.8355 44.376 37.0415C44.7 37.2451 44.9546 37.546 45.1398 37.9441C45.3273 38.3399 45.421 38.8271 45.421 39.4058C45.421 39.9844 45.3273 40.4728 45.1398 40.8709ZM52.1976 35.8506H53.2739V40.5272C53.2739 41.0248 53.157 41.4657 52.9232 41.8499C52.6895 42.2318 52.3608 42.5327 51.9372 42.7526C51.5137 42.9702 51.0172 43.0789 50.4478 43.0789C49.8808 43.0789 49.3855 42.9702 48.9619 42.7526C48.5383 42.5327 48.2097 42.2318 47.9759 41.8499C47.7421 41.4657 47.6253 41.0248 47.6253 40.5272V35.8506H48.698V40.4404C48.698 40.7621 48.7686 41.0479 48.9098 41.2979C49.0533 41.5479 49.2559 41.7446 49.5174 41.8881C49.7789 42.0293 50.0891 42.0999 50.4478 42.0999C50.8089 42.0999 51.1202 42.0293 51.3818 41.8881C51.6456 41.7446 51.847 41.5479 51.9858 41.2979C52.127 41.0479 52.1976 40.7621 52.1976 40.4404V35.8506ZM58.668 41.0792H55.8899L55.2387 42.9609H54.1L56.6587 35.8506H57.8981L60.4569 42.9609H59.3181L58.668 41.0792ZM56.2023 40.1765L57.2524 37.1422H57.3079L58.3562 40.1765H56.2023ZM61.2882 35.8506V42.9609H65.5828V42.0374H62.361V35.8506H61.2882ZM67.6839 35.8506V42.9609H66.6111V35.8506H67.6839ZM68.7 35.8506V36.7741H70.915V42.9609H71.9843V36.7741H74.2028V35.8506H68.7ZM74.6747 35.8506H75.8933L77.7507 39.0829H77.8271L79.6845 35.8506H80.9031L78.3236 40.1696V42.9609H77.2542V40.1696L74.6747 35.8506ZM77.5361 24.4396L76.7384 21.9846C76.6517 21.7177 76.2741 21.7177 76.1874 21.9846L75.3897 24.4396C75.3509 24.559 75.2397 24.6398 75.1142 24.6398H72.5328C72.2522 24.6398 72.1355 24.9989 72.3626 25.1639L74.4509 26.6811C74.5524 26.7549 74.5949 26.8857 74.5561 27.005L73.7585 29.46C73.6717 29.7269 73.9772 29.9489 74.2043 29.7839L76.2926 28.2667C76.3941 28.1929 76.5316 28.1929 76.6332 28.2667L78.7215 29.7839C78.9485 29.9489 79.254 29.7269 79.1673 29.46L78.3696 27.005C78.3309 26.8857 78.3733 26.7549 78.4749 26.6811L80.5632 25.1639C80.7903 24.9989 80.6736 24.6398 80.3929 24.6398H77.8116C77.6861 24.6398 77.5749 24.559 77.5361 24.4396ZM85.188 18.3151L86.3217 21.8043C86.3605 21.9237 86.4717 22.0045 86.5972 22.0045L90.266 22.0045C90.5467 22.0045 90.6634 22.3636 90.4363 22.5286L87.4682 24.685C87.3667 24.7588 87.3242 24.8896 87.363 25.0089L88.4967 28.4982C88.5834 28.7651 88.2779 28.987 88.0509 28.8221L85.0827 26.6656C84.9812 26.5918 84.8437 26.5918 84.7422 26.6656L81.774 28.8221C81.547 28.987 81.2415 28.7651 81.3282 28.4982L82.462 25.0089C82.5007 24.8896 82.4583 24.7588 82.3567 24.685L79.3886 22.5286C79.1616 22.3636 79.2782 22.0045 79.5589 22.0045L83.2277 22.0045C83.3532 22.0045 83.4644 21.9237 83.5032 21.8043L84.6369 18.3151C84.7237 18.0482 85.1013 18.0482 85.188 18.3151ZM94.4354 24.4396L93.6377 21.9846C93.551 21.7177 93.1734 21.7177 93.0867 21.9846L92.289 24.4396C92.2502 24.559 92.139 24.6398 92.0135 24.6398H89.4321C89.1515 24.6398 89.0348 24.9989 89.2619 25.1639L91.3502 26.6811C91.4517 26.7549 91.4942 26.8857 91.4554 27.005L90.6578 29.46C90.571 29.7269 90.8765 29.9489 91.1036 29.7839L93.1919 28.2667C93.2934 28.1929 93.4309 28.1929 93.5325 28.2667L95.6208 29.7839C95.8478 29.9489 96.1533 29.7269 96.0666 29.46L95.2689 27.005C95.2301 26.8857 95.2726 26.7549 95.3742 26.6811L97.4625 25.1639C97.6896 24.9989 97.5729 24.6398 97.2922 24.6398H94.7109C94.5854 24.6398 94.4742 24.559 94.4354 24.4396Z" fill="white"/>
</g>
</svg>
