<svg width="38" height="38" viewBox="0 0 38 38" fill="none" xmlns="http://www.w3.org/2000/svg">
<g clip-path="url(#clip0_1920_36747)">
<path d="M19 37.5C29.2173 37.5 37.5 29.2173 37.5 19C37.5 8.78273 29.2173 0.5 19 0.5C8.78273 0.5 0.5 8.78273 0.5 19C0.5 29.2173 8.78273 37.5 19 37.5Z" stroke="#8C6E47"/>
<path d="M20.9159 18.1983L27.1186 11H25.6488L20.263 17.2502L15.9614 11H11L17.5049 20.4514L11 28H12.4699L18.1574 21.3996L22.7002 28H27.6616L20.9156 18.1983H20.9159ZM18.9027 20.5347L18.2436 19.5936L12.9995 12.1047H15.2573L19.4893 18.1485L20.1483 19.0896L25.6494 26.9455H23.3917L18.9027 20.5351V20.5347Z" fill="#8C6E47"/>
</g>
<defs>
<clipPath id="clip0_1920_36747">
<rect width="38" height="38" fill="white"/>
</clipPath>
</defs>
</svg>
